/* XPM */
static char *_ea1b142860d484498918cc22adf09a43SXRGRZacdtrNNUK[] = {
/* columns rows colors chars-per-pixel */
"64 64 212 2 ",
"   c None",
".  c #010000",
"X  c #0C0204",
"o  c #0E0608",
"O  c #130104",
"+  c #1A0003",
"@  c #130609",
"#  c #19060B",
"$  c #14090C",
"%  c #19090E",
"&  c #1E0C11",
"*  c #220006",
"=  c #2C0006",
"-  c #24030A",
";  c #2C030C",
":  c #320006",
">  c #34000A",
",  c #3C000C",
"<  c #3D0006",
"1  c #240E14",
"2  c #2B0B12",
"3  c #320C15",
"4  c #380B15",
"5  c #251016",
"6  c #281016",
"7  c #2D1219",
"8  c #34141C",
"9  c #3A141E",
"0  c #3D1721",
"q  c #3D1923",
"w  c #42000C",
"e  c #4C000E",
"r  c #52000E",
"t  c #5B000E",
"y  c #440512",
"u  c #4B0917",
"i  c #450815",
"p  c #5D0214",
"a  c #560A1A",
"s  c #48121E",
"d  c #51111F",
"f  c #620011",
"g  c #6D0014",
"h  c #68081C",
"j  c #730016",
"k  c #7C0015",
"l  c #73041A",
"z  c #7C021A",
"x  c #62000E",
"c  c #431A25",
"v  c #4C1A27",
"b  c #461D28",
"n  c #4B1D29",
"m  c #471521",
"M  c #571A29",
"N  c #6C0C21",
"B  c #7E0C24",
"V  c #64192B",
"C  c #6A1225",
"Z  c #77162C",
"A  c #6D1D30",
"S  c #761C31",
"D  c #53212E",
"F  c #5D2433",
"G  c #552331",
"H  c #622536",
"J  c #642939",
"K  c #6C2B3D",
"L  c #692738",
"P  c #722B3E",
"I  c #762539",
"U  c #762E41",
"Y  c #7B2E42",
"T  c #7F3246",
"R  c #810019",
"E  c #89011B",
"W  c #93001D",
"Q  c #9C001C",
"!  c #A5001F",
"~  c #AA001F",
"^  c #880A24",
"/  c #980422",
"(  c #87122C",
")  c #871B34",
"_  c #9B1935",
"`  c #A60121",
"'  c #AC0122",
"]  c #AD0628",
"[  c #A50929",
"{  c #B50124",
"}  c #B6072A",
"|  c #B90C30",
" . c #AC1334",
".. c #AB1A3A",
"X. c #A01D3B",
"o. c #BB193D",
"O. c #B51739",
"+. c #AA0F30",
"@. c #86263D",
"#. c #96243F",
"$. c #C50025",
"%. c #CB0026",
"&. c #C70129",
"*. c #CB042C",
"=. c #D1042D",
"-. c #CD0B33",
";. c #C60B32",
":. c #D30731",
">. c #D30B34",
",. c #D90E38",
"<. c #CE1038",
"1. c #C31439",
"2. c #D3133C",
"3. c #DD113C",
"4. c #E3113D",
"5. c #892C43",
"6. c #952A44",
"7. c #823146",
"8. c #84344A",
"9. c #8A364C",
"0. c #8B384E",
"q. c #893047",
"w. c #92344C",
"e. c #9B334D",
"r. c #8B3B51",
"t. c #943A52",
"y. c #9C3C55",
"u. c #9C3B55",
"i. c #B82A4B",
"p. c #A73A57",
"a. c #BB3757",
"s. c #A8314E",
"d. c #C41D42",
"f. c #DB1B45",
"g. c #D91B44",
"h. c #E41D48",
"j. c #E11B46",
"k. c #D32249",
"l. c #DB224B",
"z. c #D4244B",
"x. c #D32B51",
"c. c #DA2C53",
"v. c #CA3155",
"b. c #C8365A",
"n. c #D6365C",
"m. c #C22246",
"M. c #E3224C",
"N. c #EC224E",
"B. c #E12750",
"V. c #E62C56",
"C. c #EA2B56",
"Z. c #E2325A",
"A. c #EC325D",
"S. c #F1335F",
"D. c #CC3D61",
"F. c #D63D62",
"G. c #E43C64",
"H. c #E93D66",
"J. c #EC3E68",
"K. c #F03B66",
"L. c #F23F6A",
"P. c #F63460",
"I. c #9F415B",
"U. c #AC425E",
"Y. c #A3415C",
"T. c #AE4561",
"R. c #B24462",
"E. c #BB4766",
"W. c #BA4867",
"Q. c #BE4A69",
"!. c #B74866",
"~. c #C44A6B",
"^. c #CB4B6D",
"/. c #CA4567",
"(. c #D44A6D",
"). c #D54469",
"_. c #CC4F70",
"`. c #D94D72",
"'. c #C95071",
"]. c #D45174",
"[. c #DB5276",
"{. c #D65578",
"}. c #DC5579",
"|. c #DC587B",
" X c #ED426C",
".X c #F3426C",
"XX c #FB436F",
"oX c #E44C73",
"OX c #ED4C74",
"+X c #ED4770",
"@X c #F44B75",
"#X c #FA4D79",
"$X c #F74974",
"%X c #E3567C",
"&X c #EB567D",
"*X c #EA587F",
"=X c #E55077",
"-X c #F4537C",
";X c #F8547E",
":X c #EC5C82",
">X c #E75C82",
",X c #FB5681",
"<X c #F45B83",
"1X c #F95982",
"2X c #FC5984",
"3X c #FE5E89",
"4X c #F75780",
"5X c #F66089",
"6X c #FE628C",
"7X c #FF6691",
"8X c #FF6B96",
"9X c #FF6D9B",
/* pixels */
"                                                                                                                                ",
"                                                                                                                                ",
"                                                                                                                                ",
"                                                                                                                                ",
"                                                                                                                                ",
"                                      $ n I.|.1XL.f.-.2.G.-X7X8X8X6X-XZ.2.-.l..X<X{.t.c o                                       ",
"                                    . @ n t.].-XK.g.-.2.Z.@X6X7X7X6X@XZ.2.-.f.K.;X].0.c o .                                     ",
"                                    . o v 9.).$XA.g.*.2.B. X-X,X;X-X Xl.2.-.f.A.+X).q.c o .                                     ",
"                                    . @ s @.v.A.N.3.=.,.M.A.K..X.XK.A.j.,.:.3.N.A.v.@.s X .                                     ",
"                                    . X i ( o.g.3.:.*.-.>.2.f.l.f.f.g.<.=.*.:.3.k.o.B 4 X .                                     ",
"                                    . O > z ] *.=.*.&.&.*.*.*.*.-.&.*.*.&.&.%.=.*.[ l > X .                                     ",
"                                    . X > j ` &.%.&.$.$.$.$.$.$.$.$.$.$.&.$.%.%.$.! g > X .                                     ",
"                                    . X , j ~ $.%.%.$.$.$.$.$.$.$.$.$.$.$.$.%.%.$.! g > X .                                     ",
"                                    . X , j ~ &.=.%.$.$.&.$.$.$.$.$.&.&.$.$.%.=.$.` g > X .                                     ",
"                                    . X > j ` &.=.-.-.>.<.-.-.-.-.-.>.-.-.-.-.=.&.~ j > X .                                     ",
"                                    . X , k { *.4.f.M.B.B.l.l.l.l.l.l.B.B.M.j.,.-.` j > X .                                     ",
"                                    . O , k ' >.h.S.L..X.X X X X X X X$X.X.XC.j.:.' j > X .                                     ",
"                                    . X > g ` ;.l.H.@X<X<X2X1X1X,X,X1X<X<X@XH.l.;./ g : X .                                     ",
"                                    . X = t R [ ..a.^.{.:X5X7X7X6X6X5X>X{./.a.../ E t = . .                                     ",
"                                    . . + > e p C I 8.Y.'.:X8X8X8X7X>X'.I.7.I C p e : + . .                                     ",
"                                    . . X + + ; 2 2 q L p.}.6X8X8X6X{.I.J 0 2 - - * + . . .                                     ",
"                                    . . . @ # # o . @ c 8.^.4X3X3X-X/.7.0 o X o % % @ X . .                                     ",
"                                    . . $ 8 b b 6 X . 2 S a.H.XXXXG.i.A 2 . o 7 b b 7 @ . .                                     ",
"                                    . . 7 J 0.8.G 1 X - N ..g.N.M.k.X.N - . 5 F 0.9.F 6 . .                                     ",
"                                    . @ b 9.Q.E.8.c # ; h [ -.,.3.;.[ h ; # b 9.Q.E.8.c @ .                                     ",
"                                  % 5 9 H t.Q.E.t.F m m (  .<.3.3.<. .B d 0 J t.W.!.t.F 8 1 %                                   ",
"                                % c F P 7.8.9.9.8.T 5.6.i.x.V.C.C.C.x.i.6.7.T 8.9.9.8.7.P H 9 @                                 ",
"                              . 1 H t.R.u.U G D U y.Q.`.oXOX$X$X$X$XOXoX].Q.t.K D G Y u.U.t.H 1 .                               ",
"                            . $ c T Q.{.E.I 9 8 F p.].:X:X&X&X&X&X&X:X:X*X].u.F 8 9 P Q.[.Q.T 9 $ .                             ",
"                          & 8 b P U.%X<X).5.a i V q.R.Q.Q.E.!.!.E.!.!.!.W.U.5.M i a 6.(.<X}.Y.K b 8 5                           ",
"                        X 0 J 8.T.{.5X3XoXi.^ l N A I U K U K U K K K U U K C h g ^ i.oX6X5X{.T.9.J q $                         ",
"                      . % n 9.~.%X5X6X2X Xx.| / l u 2 5 1 1 1 1 1 1 5 & 1 3 u j / | x.+X1X6X<X%XQ.8.n @ .                       ",
"                    @ 1 0 I p.`.;X<X%X[.b.m.} W x = X . . . . . . . . . + ; r ^ | 2.n.).`.*X*X;X(.e.v @ .                       ",
"                  5 c F P e.b.G.G.D.p.w.5.) l f < + . . . . . . . . . O = r B  .z.c.v.s.p.p.b. Xn.#.d @ . .                     ",
"                X 0 J t.R.D.c.l.d._ A v 9 4 > = + . . . . . . . . . X < x W  .z.Z.).p.P F A X.d.1.) u @ .                       ",
"              . . 8 U E.oXJ.B.-.] l i - @ # # @ @ @ o X . . . . . o : p / | l.K.-X(.0.b 2 w z ] ] R w O .                       ",
"              . o 8 5.b..XP.h.=.` k r : > 3 9 q q c 9 7 % X X o 5 0 V ) O.f.P.#X;X{.0.q O = g ! ' R w O .                       ",
"              . X 3 S i.C.h.j.=.{ ! R j h S T 8.9.0.7.J 0 $ $ 7 G 7.p.a.n.J.$X2X6X{.I.8 O = g ~ { R , X .                       ",
"              . X ; N +.<.,.:.*.$.{ ~ '  .a./.].{.{.^.y.F 1 % c 7.Q.[.OX-X;X2X3X6X].0.c # : g ~ ~ R w X .                       ",
"              . . - p W ' { { { ~ { ~ ] d.n.OX6X7X6X:XW.K 2 1 v e.`.,X,X;X,X,X2X;X^.7.9 # = f W Q z e - O X                     ",
"              . . + w f k k R R z k R ^ ..F.1X7X9X9X6X'.U 1 # s 6.F.L.L..XJ..X.XG.b.I 9 @ + < f g g t e , :                     ",
"              . . O * > w w w w w w , a @.a.-X8X9X9X6X~.K 7 @ y ( d.h.h.f.l.l.h.l.O.B 4 X X + = w t j j g e ; .                 ",
"              . . . X X @ + O O O X X - M t.].5X7X6X:X!.U 7 # e ^ | ,.,.>.-.>.>.;.] l > X . . @ ; p W ` W p ; . .               ",
"              . . . . . . . . . . . . X 8 P U.^.].].~.p.U D v C _ 1.3.3.2.2.>.:.*.` j > o . $ 5 m Z  .1. .h ; X .               ",
"                  . . . .     . . . . . 1 c J Y 7.T 7.7.7.8.w.s.v.c.Z.A.A.V.M.3.*.~ g : O % q J 7.s.n.c.i.Z 2 . .               ",
"                                  . . . o & 6 8 7 0 q F 8.R._.oXOX@X#X#X#X.XP.h.-.~ g : @ 7 J Y.^.=X-X+Xb.I 3 . .               ",
"                                    . . . @ % % o . @ 0 Y E.[.*X:X%X&X*X:X=XF.k.| W t = # q 8._.5X6X6X<X~.Y 8 X .               ",
"                                    . X & 8 q q 1 o X 1 F w.R.E.R.R.T.!.T.p.s._ ^ j w + # c t.%X7X9X9X6X_.T 8 . .               ",
"                                    . X 7 F 7.T G 6 X @ 7 D J J J H J J H H M a u , * X @ n t.%X8X9X9X6X_.7.8 X .               ",
"                                    . o b 9.Q.~.9.c o . X $ 1 1 1 1 & & & 1 1 # + + . . @ c 9.].6X7X7X<X~.Y 8 X .               ",
"                                    . @ v e.).).e.v $ . . . . . . . . . . . . . . . . . X 9 Y R.].%X}._.Y.K 7 X .               ",
"                                    . @ s #.v.v.#.s o . . . . . . . . . . . . . . . . . . 1 n U q.t.t.9.P D 7 X                 ",
"                                    . X i ( o.o.( u O . .             . . . . . . . . . . @ 1 8 c c c c 9 8                     ",
"                                    . X , k ' ] k w X .               . . . . . . . . . . . X o o @ o o o                       ",
"                                    . X w k ~ ~ k , X .                 . . . . . . . . . . . . . . . . .                       ",
"                                    . O , R ' { R y O .                 . . . . . . . .                                         ",
"                                    . X , k ` ' k , X .                 . . . . . . .                                           ",
"                                    . X > g W W g , O .                 . . . . . .                                             ",
"                                    . X - e f l p : X                     . . . .                                               ",
"                                    . . O * > > >                                                                               ",
"                                    . . . X X X X                                                                               ",
"                                    . . . . . . .                                                                               ",
"                                                                                                                                ",
"                                                                                                                                "
};
