/* XPM */
static char *_415b9facb5e414fd92bc6231bdb75bcbnYPb6iEAeuTfEgz[] = {
/* columns rows colors chars-per-pixel */
"64 64 73 1 ",
"  c #3B8501",
". c #3E8901",
"X c #438D02",
"o c #479002",
"O c #4B9503",
"+ c #4F9803",
"@ c #539C04",
"# c #57A005",
"$ c #5CA405",
"% c #5FA806",
"& c #63AB06",
"* c #68AF07",
"= c #6BB307",
"- c #6FB907",
"; c #67B008",
": c #6EB608",
"> c #70B708",
", c #74BB08",
"< c #78BF09",
"1 c #7CC309",
"2 c #7FC80A",
"3 c #80C60A",
"4 c #82C90A",
"5 c #84C90A",
"6 c #84CA0A",
"7 c #85CA0B",
"8 c #85CD0A",
"9 c #84CA0C",
"0 c #88CD0B",
"q c #88CE0B",
"w c #89CF0B",
"e c #8ACF0B",
"r c #8CC90C",
"t c #8EC90C",
"y c #8ECA0C",
"u c #88D00B",
"i c #8AD00B",
"p c #8BD10B",
"a c #8CD10B",
"s c #8ED30C",
"d c #8FD50C",
"f c #8FD70C",
"g c #90D50C",
"h c #93D70C",
"j c #93D80C",
"k c #93D90C",
"l c #94D80C",
"z c #95DA0D",
"x c #95DB0D",
"c c #97DB0D",
"v c #94D90E",
"b c #97DE0D",
"n c #98DC0D",
"m c #99DD0D",
"M c #98DF0D",
"N c #9BDF0D",
"B c #9BDF0E",
"V c #9CE20D",
"C c #9EE20E",
"Z c #9FE20E",
"A c #9FE60E",
"S c #A0E30E",
"D c #A2E50E",
"F c #A1E60E",
"G c #A3E60F",
"H c #A3E90E",
"J c #A4EA0E",
"K c #A4EB0E",
"L c #A7EA0F",
"P c #A6EC0F",
"I c #A2E710",
"U c #A4E710",
"Y c #A4E910",
/* pixels */
"tttrrrtttttttttttetttttetttttetttttetttttetttttettttttttettttttt",
"mzjdjbbVCCCSFCSCSSSCCSSCCSSBZSZZZZSCBSSSSSSSSBSSCCCCSSSSCCSSCCCC",
"bdu8udbAKKYPKKKKKKKKKKKKKKKKKKKKKKKKKKKKKGKKKKKKKKGKKGKKKKKKKKKK",
"f2,-,4dVKKPKKFKKGKKGGKKKKKKGKKGKGKKKKKKGKKKFGKKKKKKKKKKFKGKKFKKK",
"4:%#%-6bFGKFFFFFFFFFFFFFFFFFFFFFFFFFFFFFFFFFFSFFFFFFFFFFFFFFKAFF",
"1&+o+&1gSGFSACFCFCCCSCASCFCSCSCSASCSACCSCSSAFSCCSFASSCASSCASCFCC",
"<$o.o&<dCFUFSSCCCSSCCFSCSSCCSSCCCSSCCSSCSCCSCCCFCCSCCCSCCFSCCFSA",
"<@o.o$<dSFKFFFFFASCSCCCSACFCACFCFCCCFCASCCFCASSCFCCSFCCSCCCSCCSC",
"<$X.o&<gCIUGGFFSSCSSCFCCFCASASCSCCSCCFCCSACSSCSACFCACASCSCSCSSCF",
"<$O.o$<gSFFFSSSSSSACCCFCCSCCCCSCCSASSCCSCSFCCCCSCCSSSSCSCSCSACCC",
"<$OXO&1gmSSmzmmmBSCSSCSSCSCSSCFCSCCSSASCSCCCCFSCSCSCCFCCSSCCCASC",
"<$o.O$<gmmge68azmSFSCSACSCSCCFCSCCFCCSCCASCSSCASCSCSCCFCACFCSSCS",
"<$oXX&<gmd6<>>1ezSSSFSCSCCSCCSCCSCSACSCFCSCFCCSCSSCFSCSSCFCACCSC",
"<$X.X&1gze<*$&=3gSFFACSCSACFSCSAASCSFCSCFCSCCSCCACCCCSACCCSSFCCS",
"1&OXO&2gg6=@X@&<sBFFFCFCASCSFCASCFCCCCSACCSASACFCASCCCCASCSCCFSA",
"3=@@$:3gg3*@XX$>amSFFSCSCCSCCSCCSCCSCSCSCSCSCSSCSSCSFCSSCSCSCCSC",
"e<*&=<ezl3&o.X@,emGGFSSSSCSSCFCSFSFFFFCSASCSCSFCCCSCFCCSCSCFCSFF",
"ge1<1egmg1&X X@>sCFGFSSCCSACCCSCSSFFFFSFCCSCSCCSFCCSCSSCCASSFFFF",
"mzgadzmSg1&X.X@,emFGFCACCCCASCSSSSFFSSSCSCFCCSFSCFSAFSASSCCFSFSS",
"FSmmmSCSl1=@X+&,smFFFFCSFCSSCSACCSmmmBCSCFCSCABSCCSCBSCCCFSBSmmm",
"FDFFFGFFz6>&@$=1gmSFSCSACCSCCFSBzgssagzmCSFSSSCSFCSSSSFCSSCmzhee",
"FUFFFGFFma1>==<6zCSFSSSCFCCSFFSmh81<<3ezSBSAFBFFFFFFFBCSFFSbe3<,",
"FSFFSFFSBl06130gmSSFSFBFSSSSFSCme<*&&>3hmSFSCSSSFFFFFSZFSFCh6>&$",
"SSSCSFSSSmmzglzmmSFCCCSSFBSSFFSz3=$O@&<aBFFFASSSSCSSSSSCFFmh2*@+",
"SSSSFCCSCCSCmSSSABFSCFCCCSBFFGSz3*@Xo$>imFGGSSBmzzzmmCSFFFBg1*@O",
"SSCSCSSCSFFFFFSSCSCSSCCFFSFFKGSz1&O.X@>iBSKUFSzgt360gmSSGFCh6>&@",
"ASSCACCSSCSFFFFFFSFCSACSSFFUUGCz3&O.X@>emKLLFBa3:=>1ezSFGFSme3,=",
"CCCFSCSCCCFSFSCSCCSCCCFCFFFFKGCh1&OXX$:eBGLFFz6>&@$=3gBGGFSmzae3",
"SBACSCFCSCSACSCFSCSCFCCSSBBSSSSh2&+XX@,imFKFCg2&@O@&1gmFFFSSSSmh",
"SFSCCFCSASCSFCSCASCCSCCmzgggmBCz1&+.o$,emSCmi6:&@@@;1gBFFSSSFGFm",
"SCCSCSCCCFCCCCSACFSSSCmg0313ezmz3&+.X$:emmg62,=&&$&,6gSFSSSSUKFC",
"CFSCSCSASCCSCSCSSBFFFSze<=*=10zg4&+.X@,emg8,*&&==:16gzCSSFSFDKFm",
"FCASASCSASCSCSFCSSSFFSg3=$@$=3gg3=OXX$:szi<&@@$*<6gzmmSSSSCFFUFm",
"CSCCCCSCCCSCSCCSSSSGFSg1&OX@&2gz4=@O@$<sz0>$OX@=4zSSFSSCFCSSFFSm",
"CSCSSCFCSCFCCSACZSSFFCg<$X.X$1dge<&$$=2sz7=@X.@=6mFIUSASCACFSFFm",
"SCSCCFCSCFCSCASCSCFFFSs<$X X$<dzd6,=:1ezg6=O .O=0mUKFFCCCSSBSFFm",
"CCSCCSCCCSCSFCCSCCFFGSa<$X.X$<gmmse33sgmz6=@.XO=7mFUFFFCCSSCFSCS",
"SACFSCSASCCACSSCFCFFFBg<&OXX$<smCmmglmSSm6=@XX@=0mSIFFCSFCASSSSC",
"ASCSFCASCSSCACCSSSSGFCg3=@O@*1gCFFSSSFFFm8-$O@$>0mCFFSSSCCSCCSBF",
"CCSCCSCCSCCFSCSCCSSFFSz6>&&&>6gCFIGFFFISma1=&$=1smFFSSSSCSCCFSFF",
"SCFCCSCSCSCCSCFCSCCFSCze3<<<2smSFFGFFFFSSge<:,1egCCFFBASSCSCSFFF",
"CFCSSCCASCSACFCSCSSSFSBmg0eeszmSSFSSFSSSSmgseealmCSFFSCCASCSASFF",
"CSCCCSSCFCASCSCCSCSSFCSCmmmmmCCBSCSSSASCBSCmmmmmCCCSSSFCCCSSCBmB",
"SCSASCCFCSCCSCSAFFACCSCSSSSSFCCSASSSCSCCSCCFFSFSCCSCSCCSFSBCmlgs",
"ASCSCCSCFCCSCSSFSFFFACFSFFFFFFCSCSSACSCFSFFSFFFSIFCCSCSSSSCmg611",
"CCSCSACFCSSCSSFSFFFFCSCFSFFFSSFSFBCSFCSCSCFFFFFSCCCSCCCFFICz6<=&",
"SCFCASCSFSFSACSSSFCCCSCSFSSFCCBFSFCCCCSACSACSSSFCSSCCFSSFFCg1&@@",
"CFCSCCSCBSCSBSmmmmbmCSFBCSCSCSSCSCCSCSCSSCCSSSCCFCASSSSSFFCg<&+X",
"CSCSCSABFSSSSmza00igbmCFSSCSSSFSSSCCCCSCCSCCCCSCCCSCSCSFFFSs<$XX",
"SCCACFCSSFFSCza1,><4gmSSFCCASFFFSFFFSFCASCSFSFCACSASCSCFUFSg,$XX",
"CSSCSCSSCFFFCg3>&$*,0zSFFFSFSFUFFSSCCSCSACSCCSCSSCCSSFSFFFSa<$XX",
"SCCFCSSBSSFSms<&@O@=4zSFFCSCSCSSCSCASCSCCSCASCSCCCFCBSCFUGBa<$O ",
"CSACSCSSFFGGms>$XXO&3zSUFFSBmlggllCCCCSSFSCSSCFSSCSACSCFFFSa<$XX",
"CASCCFFFFGGFCe,@X.O&1gCKKUSmg0336ehCFCFCCCSCCACCASCSFCSFUFVh<$XX",
"SCCSAFSFGGKGBe>$XXo&1gSYKDSl7>==>1amSFASCCACCSCCCFCCCCSFGFBa1$O ",
"CFSCCFSFFGUFBe>$XXO&1lSYLUSg1*@@&>emCFFCSFCSSCSFSCCSCSCFGFCh<$X ",
"CFCICCmmBSSFma,$oX+&1gCUFCz7>$++@=6mSFGSCSCSACSCCCSCSCCFGFSg1&OX",
"CCSCmzgsagmSma>$XXO&3gmCmdr1=$@@&-6bCFFFCFSCCSCASFCACASCGFml3:$O",
"FSFmzi3113azma,$X.+&1gmzs2<=&&&&>1smSFSSSCSCFSCSCSCSFCCFSFSze<=&",
"SFSCs2>&&>3gzi>$X.+&3gzs<=$&&*><6szmCFSSSFBFCCSCSCSCSCSCSFCmle32",
"FFSm0<%@@&,ezs<$oX+&4gg4:$@@&>7szmmBSCSCFCSSCSSBACSBBFSSSSBSmzzh",
"FFFm6:@oX@:8ga1&+o@=6gg1&OXo$,smSFFSCSCSSSBSSSSSCSSSSCSCCSSCSmmm",
"SIFm9=@..@=4zg3:&$&<ezg1&o.X$<gSUUFCSBSCSBCCCSCCSCSZCSSBSCCSFSFF",
"FISm7=+. O;3zzi4,><6dzs<$X X$<gSYUASFSCSCCCACCCACSCSCFCSCSSSSSGF"
};
