/* XPM */
static char * 0_xpm[] = {
"32 32 79 1",
" 	c #FFFFFF",
".	c #DEDADC",
"+	c #D8D6D6",
"@	c #DAD8D8",
"#	c #6B6667",
"$	c #2F2B2C",
"%	c #201B1D",
"&	c #1D191A",
"*	c #282627",
"=	c #504C4D",
"-	c #BDBDBD",
";	c #A2A2A2",
">	c #211D1E",
",	c #4C4949",
"'	c #B1AFAF",
")	c #615F60",
"!	c #1B191A",
"~	c #6C6A6A",
"{	c #9E9D9D",
"]	c #1C1B1B",
"^	c #1D1A1B",
"/	c #312E2F",
"(	c #595858",
"_	c #837F80",
":	c #343233",
"<	c #545152",
"[	c #1C1719",
"}	c #2E2A2B",
"|	c #565656",
"1	c #444343",
"2	c #222122",
"3	c #616060",
"4	c #3F3F3F",
"5	c #9E9B9D",
"6	c #747474",
"7	c #777777",
"8	c #535051",
"9	c #717171",
"0	c #7F7F7F",
"a	c #4B4A4B",
"b	c #2E2D2D",
"c	c #747272",
"d	c #2A2829",
"e	c #656364",
"f	c #262223",
"g	c #4D4C4C",
"h	c #282727",
"i	c #3D3C3C",
"j	c #534F50",
"k	c #6D696A",
"l	c #807C7D",
"m	c #423E3F",
"n	c #8A8687",
"o	c #656565",
"p	c #BEBABC",
"q	c #918C8C",
"r	c #7D797B",
"s	c #7D787A",
"t	c #868384",
"u	c #353334",
"v	c #212020",
"w	c #625E5F",
"x	c #979595",
"y	c #393939",
"z	c #231F20",
"A	c #5E5D5D",
"B	c #B7B7B7",
"C	c #A9A4A6",
"D	c #534E4F",
"E	c #575555",
"F	c #2A2728",
"G	c #7E7A7B",
"H	c #A19D9F",
"I	c #262425",
"J	c #737373",
"K	c #CDCBCB",
"L	c #858383",
"M	c #8B8B8B",
"N	c #BBBBBB",
"                                ",
"              .+@               ",
"            #$%&&*=-            ",
"          ;>&,')&!&&~           ",
"         {]^/   (!&&&=          ",
"         >&&{    ]&&&&_         ",
"        :&&&     <&&&[&         ",
"        &%&}      %&&&%|        ",
"       ,[&&1      2&&&&^        ",
"       &&&&3      4&&&&&5       ",
"       &&&&6      7&&&&[8       ",
"      9&&&&0       &&&&&*       ",
"      a&&&&0       &&&&^&       ",
"      b&&&&c       >&&&&&       ",
"      d&&&&e       f&&&&&       ",
"      *&&&&g       4&&&&&       ",
"      h&&&&i       j&&&&&       ",
"      h&&&&*       k&&&&&       ",
"      b&&&&&       l&&&&&       ",
"      m&&&&&       n&&&^&       ",
"      o&&&&&p      q[&&&2       ",
"      ;&&&&&r      n&&&&1       ",
"       &&&&&1      s&&&&t       ",
"       u&&&&v      w[&&&        ",
"       x&&%[[      1[&%y        ",
"        z&%[&A     z&&&B        ",
"        C&&&&>     &&[D         ",
"         )[^&!w   E&&F          ",
"          3&&&&~ G^&:           ",
"           Hu^!&&&IJ            ",
"             KxLMN              ",
"                                "};
