/* XPM */
static char * 1_xpm[] = {
"32 32 31 1",
" 	c #FFFFFF",
".	c #9B9B9B",
"+	c #313131",
"@	c #3E3E3E",
"#	c #8F8C8E",
"$	c #2D2A2B",
"%	c #1C191A",
"&	c #3C3B3B",
"*	c #827D7F",
"=	c #241F21",
"-	c #1D1819",
";	c #201C1D",
">	c #6A6869",
",	c #5F5D5E",
"'	c #2B2728",
")	c #534F50",
"!	c #231E1F",
"~	c #231F20",
"{	c #3E3B3C",
"]	c #282526",
"^	c #1E1C1D",
"/	c #222021",
"(	c #BFBDBD",
"_	c #383536",
":	c #5C5859",
"<	c #3B3B3B",
"[	c #242021",
"}	c #545454",
"|	c #C9C9C9",
"1	c #C7C7C7",
"2	c #C7C5C7",
"                                ",
"                                ",
"                .+@             ",
"              #$%%&             ",
"            *=-;%%&             ",
"          >=%%-%;%&             ",
"          ,';----%&             ",
"            )--;-%&             ",
"             ;%%-;&             ",
"             ;%%-%&             ",
"             =%%-%&             ",
"             !%-%%&             ",
"             ~%;;-&             ",
"             !%%--&             ",
"             !%%%%&             ",
"             !%%;%&             ",
"             !-;-%&             ",
"             !-%-%&             ",
"             !%%-;&             ",
"             !-;%%&             ",
"             !%%%%&             ",
"             !%%-;{             ",
"             !---%{             ",
"             ;%;-%]             ",
"             ^%%%%/             ",
"            (%%;;%^             ",
"            _%%%%%%:            ",
"          <!%%%%%%%%[}          ",
"          |1111122112           ",
"                                ",
"                                ",
"                                "};
