/* XPM */
static char *_35cc1c1d4864bc6f26d252b1118a9b5wqgXS1jm72YpJzqQ[] = {
/* columns rows colors chars-per-pixel */
"32 32 139 2 ",
"   c None",
".  c #1A1818",
"X  c #1B1819",
"o  c #1B191A",
"O  c #1B1A1A",
"+  c #1B1A1B",
"@  c #1C1819",
"#  c #1D1819",
"$  c #1C181A",
"%  c #1D181A",
"&  c #1C191A",
"*  c #1D191A",
"=  c #1E181A",
"-  c #1E191A",
";  c #1E191B",
":  c #1C1A1A",
">  c #1D1A1B",
",  c #1E1A1B",
"<  c #1D1B1C",
"1  c #1F1A1C",
"2  c #1E1B1C",
"3  c #1F1B1C",
"4  c #1D1C1C",
"5  c #1D1C1D",
"6  c #1E1C1D",
"7  c #1E1E1E",
"8  c #201A1C",
"9  c #201C1D",
"0  c #211D1E",
"q  c #221E1F",
"w  c #231F20",
"e  c #232222",
"r  c #242021",
"t  c #242122",
"y  c #242223",
"u  c #272324",
"i  c #262425",
"p  c #272526",
"a  c #272626",
"s  c #292627",
"d  c #2A2627",
"f  c #2C2829",
"g  c #2E292A",
"h  c #2D2B2C",
"j  c #2F2C2D",
"k  c #312D2E",
"l  c #322E2F",
"z  c #312F30",
"x  c #332F30",
"c  c #342F30",
"v  c #323031",
"b  c #343233",
"n  c #373334",
"m  c #373536",
"M  c #373737",
"N  c #393536",
"B  c #383737",
"V  c #3C3B3B",
"C  c #3F3B3C",
"Z  c #3D3C3C",
"A  c #3F3D3E",
"S  c #403C3D",
"D  c #403D3D",
"F  c #414141",
"G  c #424141",
"H  c #4B4647",
"J  c #4C494A",
"K  c #4F4D4E",
"L  c #514C4D",
"P  c #524F50",
"I  c #535051",
"U  c gray32",
"Y  c #555052",
"T  c #555152",
"R  c #595657",
"E  c #5D5759",
"W  c #5D5B5C",
"Q  c #5F5F5F",
"!  c #656565",
"~  c #686767",
"^  c #6A6667",
"/  c #737272",
"(  c #747172",
")  c #7E7A7B",
"_  c #817E7F",
"`  c #827E7F",
"'  c gray53",
"]  c #888485",
"[  c #888687",
"{  c #898788",
"}  c #8F8C8D",
"|  c #918D8E",
" . c #949192",
".. c #999898",
"X. c #9D999B",
"o. c #9E9D9D",
"O. c #9E9D9E",
"+. c #9F9D9E",
"@. c gray62",
"#. c #9F9E9E",
"$. c #A19D9E",
"%. c #A09E9E",
"&. c #A09F9F",
"*. c #A29FA0",
"=. c #A2A1A1",
"-. c #A3A2A2",
";. c #A4A2A3",
":. c #AAAAAA",
">. c #ADA9AA",
",. c #ADABAC",
"<. c gray68",
"1. c #AEADAD",
"2. c #AFADAD",
"3. c gray70",
"4. c #B4B3B3",
"5. c #B8B6B7",
"6. c #B9B9B9",
"7. c #BBB9BA",
"8. c #BBBBBB",
"9. c #BFBCBD",
"0. c gray76",
"q. c #C4C2C3",
"w. c #C6C2C3",
"e. c gray77",
"r. c #C6C6C6",
"t. c #CAC7C8",
"y. c #CACACA",
"u. c #CBCBCB",
"i. c gray80",
"p. c #D1CDCE",
"a. c #D5D5D5",
"s. c #D7D6D6",
"d. c #D9D5D6",
"f. c #D8D6D7",
"g. c #D9D7D8",
"h. c #DDD9DA",
"j. c #DDDDDD",
"k. c #DEDDDE",
"l. c #E0DEDE",
/* pixels */
"                                                                ",
"                                                                ",
"                        4.} _ _ ' *.u.                          ",
"                  6.Z < # f Z x 8 X < 7 U r.                    ",
"                E 8 < t 4.      0.i < # # 9 T                   ",
"              H # # < 2.          2.# # < # # D                 ",
"            | # # < d               i # # # < # W               ",
"            N # # # x               l # < # # # i               ",
"            # # # # w p.            g < # < < # < f.            ",
"            # < < # # f  .r.        < # # # # # < s.            ",
"            N # < # # < X Q       &.< = < # # 8 t               ",
"            >.# < # # < i k.      G # # < # < # U               ",
"              w.R S D ( l.      :.X # # # < # w g.              ",
"                                d X # < = = < &.                ",
"                              M < # # < # w ,.                  ",
"                          k.V # = # # < U h.                    ",
"                        8.i # # = # G 7.                        ",
"                      ) 8 # < 8 L t.                            ",
"                    Z < # 9 ~ f.                                ",
"                f.h X 7 !                       '               ",
"                c X b i.                      2.7 s.            ",
"              R X K                           j <               ",
"            9.7 m                         e.b < e               ",
"            Y # / -.-.-.-.-.-.-.;...{ ~ v # + # s               ",
"            9 # < # # # < # < # # < < # < # # # h               ",
"          w.# 7 # # < # < # # # # # # # # # < # x               ",
"          X.# # # < # # # # < < < # # < # < # # m               ",
"          { # 8 + # + # # + # X + # X < X # = # J               ",
"          y.@.&.@.@.@.@.@.@.@.@.@.@.@.@.@.@.&.&.5.              ",
"                                                                ",
"                                                                ",
"                                                                "
};
