/* XPM */
static char * 3_xpm[] = {
"32 32 63 1",
" 	c #FFFFFF",
".	c #5E5E5E",
"+	c #1C1A1B",
"@	c #211C1D",
"#	c #424041",
"$	c #1E1819",
"%	c #1D1719",
"&	c #373536",
"*	c #757373",
"=	c #2C2A2B",
"-	c #1B1819",
";	c #656061",
">	c #282425",
",	c #444243",
"'	c #525052",
")	c #555454",
"!	c #575556",
"~	c #4C494A",
"{	c #5E595A",
"]	c #1A191A",
"^	c #8F8D8D",
"/	c #4F4B4C",
"(	c #1C1C1C",
"_	c #4E4B4C",
":	c #C2C2C2",
"<	c #5F5D5D",
"[	c #484647",
"}	c #787374",
"|	c #383737",
"1	c #7A7979",
"2	c #343031",
"3	c #262324",
"4	c #2E282A",
"5	c #4A4849",
"6	c #949294",
"7	c #6D6D6D",
"8	c #3E3E3E",
"9	c #AEAAAB",
"0	c #A4A1A2",
"a	c #221E1F",
"b	c #979496",
"c	c #6F6E6F",
"d	c #504F4F",
"e	c #A7A7A7",
"f	c #ABAAAB",
"g	c #6C6A6A",
"h	c #818080",
"i	c #232020",
"j	c #817E7F",
"k	c #989898",
"l	c #6B6768",
"m	c #8A8687",
"n	c #191818",
"o	c #454444",
"p	c #8D898A",
"q	c #B3B3B3",
"r	c #5C5B5B",
"s	c #4A4647",
"t	c #CDC9CB",
"u	c #3C3B3B",
"v	c #3B3A3A",
"w	c #3D3B3C",
"x	c #898989",
"                                ",
"                                ",
"                                ",
"       .++++@++@++@+@++         ",
"       #$$+%@%%@@%+%+@+         ",
"       &$%$+%%%++%+%%%*         ",
"       =+@-$+%+%%+@+$;          ",
"       ++>,'))))!~+%{           ",
"       ]^        /(_            ",
"       :        '+_             ",
"               <+[              ",
"              }+|               ",
"             1+2                ",
"            ^(%@3456            ",
"            783++%++>9          ",
"               0a%++++b         ",
"                 @+%%@+         ",
"                 c+++$%d        ",
"        ef        @%$+%a        ",
"      g+]+@h      %++$$@        ",
"      +@++@@      i+@%++        ",
"     <%++%@#      @%+$+-        ",
"     ~@+++        ++$+$i        ",
"     j%+%3        +++$+~        ",
"      +++>       k%+@++         ",
"      l++(       |++%+m         ",
"       <-no     ;+%%+p          ",
"        q&]3rj;=+%+st           ",
"           hduvw)x              ",
"                                ",
"                                ",
"                                "};
