/* XPM */
static char *_bf6e101d64a432484e19a35f7b21f3dqS7AbsJ8REPSLkhf[] = {
/* columns rows colors chars-per-pixel */
"32 32 69 1 ",
"  c None",
". c #1A1919",
"X c #1B191A",
"o c #1B1A1A",
"O c #1B1A1B",
"+ c #1C1819",
"@ c #1D1819",
"# c #1D181A",
"$ c #1C191A",
"% c #1D191A",
"& c #1E191A",
"* c #1C1A1B",
"= c #1C1B1B",
"- c #1E1A1B",
"; c #1D1B1C",
": c #1F1B1C",
"> c #1E1C1C",
", c #1F1D1E",
"< c #201A1C",
"1 c #201C1E",
"2 c #221D1E",
"3 c #231F20",
"4 c #272324",
"5 c #262424",
"6 c #292526",
"7 c #2F2A2C",
"8 c #2F2E2E",
"9 c #2F2F2F",
"0 c #312D2E",
"q c #322D2F",
"w c #302E2F",
"e c #312F2F",
"r c #322E2F",
"t c #332E2F",
"y c #312F30",
"u c #332F30",
"i c gray19",
"p c #313030",
"a c #313131",
"s c #333131",
"d c #343031",
"f c #373536",
"g c #373636",
"h c #383637",
"j c #3A3838",
"k c #3C3B3B",
"l c gray25",
"z c #434343",
"x c #444242",
"c c #444343",
"v c #444444",
"b c #5C5859",
"n c #5F5D5E",
"m c #645F61",
"M c #646364",
"N c #737172",
"B c #787676",
"V c #8A888A",
"C c #959393",
"Z c #999797",
"A c #9E9A9A",
"S c #9F9E9E",
"D c #A1A0A0",
"F c gray68",
"G c #B3B1B1",
"H c #BFBCBC",
"J c gray",
"K c #C0C0C0",
"L c #C6C6C6",
/* pixels */
"                                ",
"                                ",
"                                ",
"                                ",
"               S,$$s            ",
"               2$$$t            ",
"              m$$$$t            ",
"              <<$<$t            ",
"             s$$$$$t            ",
"            D$Z$$<$u            ",
"            $k <<$$u            ",
"           MO  $$$$s            ",
"           ON  $<$$t            ",
"          u5   $@@$t            ",
"         C$G   $$$$t            ",
"         ,c    $$<$t            ",
"        b$     $<$$t            ",
"        $B     $@@$u            ",
"       t6      <<$$u            ",
"      A#H      $@$$t            ",
"      2Ott9uuut$@$$<tu9K        ",
"      zzcczzvcl$$$@2vvvL        ",
"               $<&$t            ",
"               $@@$0            ",
"               $$$$6            ",
"              n$<$$$            ",
"             V$$$$$$9J          ",
"            jhhhhhfhhhF         ",
"                                ",
"                                ",
"                                ",
"                                "
};
