/* XPM */
static char * 5_xpm[] = {
"32 32 58 1",
" 	c #FFFFFF",
".	c #676767",
"+	c #6B6B6B",
"@	c #212020",
"#	c #211D1E",
"$	c #1F1C1D",
"%	c #1C191A",
"&	c #2E2A2B",
"*	c #201B1C",
"=	c #1D1819",
"-	c #312E2F",
";	c #A5A4A5",
">	c #443F40",
",	c #949393",
"'	c #5C5658",
")	c #7F7E7E",
"!	c #2B2728",
"~	c #282727",
"{	c #2A2829",
"]	c #777474",
"^	c #6C6C6C",
"/	c #7C7879",
"(	c #535353",
"_	c #9D999B",
":	c #3D3D3D",
"<	c #B7B2B4",
"[	c #373737",
"}	c #999999",
"|	c #787878",
"1	c #9F9F9F",
"2	c #2F2E2F",
"3	c #666263",
"4	c #1B1819",
"5	c #575353",
"6	c #1E1B1C",
"7	c #363233",
"8	c #292526",
"9	c #C8C7C8",
"0	c #5C595A",
"a	c #C5C4C4",
"b	c #615C5D",
"c	c #737071",
"d	c #1A1617",
"e	c #3A3A3A",
"f	c #222121",
"g	c #5C5A5B",
"h	c #383637",
"i	c #7C7A7B",
"j	c #231E1F",
"k	c #8F8D8D",
"l	c #919090",
"m	c #1C181A",
"n	c #8B8989",
"o	c #242021",
"p	c #514F50",
"q	c #1B191A",
"r	c #494445",
"s	c #5A5A5A",
"                                ",
"                     .          ",
"                    +@          ",
"           ######$#%%&          ",
"           %%%%%%%*=%-          ",
"          ;%*%*%%%%%*>          ",
"          ,%==%%%%%%='          ",
"          )#!~!{&~!!~]          ",
"          ^/                    ",
"          (_                    ",
"          :<                    ",
"          [   }||1              ",
"          23!%4%%%%5            ",
"          ~6&7&%%%*%~           ",
"                #%=%%>          ",
"                 %*%*%          ",
"                 3%%==5         ",
"                  %%==8         ",
"           9      %%=*%         ",
"         04%!     &%=*%         ",
"        a%*%6b    -%==%         ",
"        c%*d$e    -%*%f         ",
"        g%==      {%==h         ",
"        i==j      #%*=k         ",
"         %%!      6==6          ",
"         ~6*     lm==|          ",
"          44n    om6>           ",
"           {6p kfq6p            ",
"            ;r666s              ",
"                                ",
"                                ",
"                                "};
