/* XPM */
static char * 6_xpm[] = {
"32 32 45 1",
" 	c #FFFFFF",
".	c #EBEBEB",
"+	c #323232",
"@	c #1B191A",
"#	c #1B1B1B",
"$	c #FEFEFE",
"%	c #7B7577",
"&	c #181818",
"*	c #1A1415",
"=	c #0D0C0C",
"-	c #4B4B4B",
";	c #221D1F",
">	c #1E181A",
",	c #131112",
"'	c #1E1C1C",
")	c #282727",
"!	c #171314",
"~	c #F2F0F0",
"{	c #222121",
"]	c #1F1A1C",
"^	c #161515",
"/	c #BBBABB",
"(	c #201B1C",
"_	c #494345",
":	c #E2E0E1",
"<	c #868686",
"[	c #2C2C2C",
"}	c #393838",
"|	c #161213",
"1	c #938E90",
"2	c #FCFCFC",
"3	c #BEBEBE",
"4	c #141414",
"5	c #E9E9E9",
"6	c #1B1617",
"7	c #6A6869",
"8	c #4F4D4E",
"9	c #1C1718",
"0	c #211B1C",
"a	c #8E8C8C",
"b	c #F8F6F7",
"c	c #6E6C6C",
"d	c #1B1718",
"e	c #807B7D",
"f	c #2B2527",
"                                ",
"                                ",
"                                ",
"                                ",
"                .+@#$           ",
"              %&*=-             ",
"             #;>,               ",
"            '>>)                ",
"           !*>'~                ",
"          {]>^/                 ",
"          (>@@                  ",
"         ';>&_                  ",
"         @>>>:                  ",
"         @#>@$<[@}<$            ",
"        ]>>>>@&@>>^|12          ",
"        '>>>>#  @>*>>3          ",
"        >#>>>$   @>@>&$         ",
"        #>>>>     >>#45         ",
"        6>#([     #>>>7         ",
"        &>>>8     #>>>#         ",
"        9>>9}     >>@>>         ",
"        &>>#^     &>>#@         ",
"        *#>>>     @>>0;         ",
"         >>>>2    *>##a         ",
"         >;>>b    ;>>]$         ",
"         ;*>>c    ;>>>          ",
"          >>>#$   d>>~          ",
"           ;{*7$  d{e           ",
"            &@>f_*@             ",
"                                ",
"                                ",
"                                "};
