/* XPM */
static char *_45411c69aff4552afcf09d324d486767m1dWBBnSbep5sWn[] = {
/* columns rows colors chars-per-pixel */
"32 32 83 1 ",
"  c None",
". c #1C1719",
"X c #1B191A",
"o c #1B1A1A",
"O c #1C1819",
"+ c #1D1819",
"@ c #1C181A",
"# c #1D181A",
"$ c #1C191A",
"% c #1D191A",
"& c #1E181A",
"* c #1E191A",
"= c #1E191B",
"- c #1F191B",
"; c #1D1A1A",
": c #1D1A1B",
"> c #1E1A1B",
", c #1D1B1C",
"< c #1E1B1C",
"1 c #1E1C1D",
"2 c #1F1C1D",
"3 c #201B1C",
"4 c #201C1D",
"5 c #221E1F",
"6 c #272324",
"7 c #262424",
"8 c #292526",
"9 c #2B2728",
"0 c #2D2729",
"q c #2E292B",
"w c #2E2B2B",
"e c #312E2F",
"r c #322E2F",
"t c #342F31",
"y c #333031",
"u c #373536",
"i c #383738",
"p c #3E3A3B",
"a c #3F3D3E",
"s c #3F3F3F",
"d c #464344",
"f c #494445",
"g c #484647",
"h c #4A494A",
"j c #4F4E4E",
"k c #514D4F",
"l c #504E4F",
"z c #514E4F",
"x c #504F4F",
"c c #524E4F",
"v c #524F4F",
"b c #524F50",
"n c #534F50",
"m c #515151",
"M c #565354",
"N c #595758",
"B c #5D5759",
"V c #5A5A5A",
"C c #5E595B",
"Z c #5F5B5B",
"A c #5F5B5C",
"S c #605C5D",
"D c #686868",
"F c #6A6868",
"G c #6F6C6D",
"H c #7B7B7B",
"J c #7D7A7B",
"K c #7D7B7B",
"L c #808080",
"P c #858182",
"I c #8A8586",
"U c #888688",
"Y c #898889",
"T c #939393",
"R c gray58",
"E c #979597",
"W c #A4A2A4",
"Q c #A9A5A7",
"! c #A8A6A6",
"~ c gray69",
"^ c #B6B6B6",
"/ c #BDBABB",
"( c #BCBBBC",
/* pixels */
"                                ",
"        nnccccnncccccnccjcD     ",
"       ^+.,++.+..,++.,..o,s     ",
"       T,++++,,++++,+.33++g     ",
"       H++,,,+++,.++++,.+,      ",
"       D,+++,++++.+++++++J      ",
"       m+5pnCSASSSSSAAC+w       ",
"       si             G1Q       ",
"       ~             Kou        ",
"                    Y++W        ",
"                   E1+r         ",
"                  (5++P         ",
"                  0++1          ",
"                 f3,+s          ",
"                U+.+.R          ",
"                5+++5           ",
"               n+..,w           ",
"               5+33.m           ",
"              M+3..+L           ",
"              1+.3,+            ",
"             U+,3.++            ",
"             d++..++            ",
"             6++3+.6            ",
"             ,3,..38            ",
"             +++,+or            ",
"             +,+++.w            ",
"             +,++,+y            ",
"             y,.+++M            ",
"             Q1+,o,/            ",
"               VhN              ",
"                                ",
"                                "
};
