/* XPM */
static char *result[] = {
/* columns rows colors chars-per-pixel */
"32 32 129 2 ",
"   c #1B1718",
".  c #1C1719",
"X  c #191818",
"o  c #1B1819",
"O  c #1B191A",
"+  c gray10",
"@  c #1B1A1A",
"#  c #1C1819",
"$  c #1D1819",
"%  c #1D181A",
"&  c #1C191A",
"*  c #1D191A",
"=  c #1D191B",
"-  c #1E181A",
";  c #1E191A",
":  c #1E191B",
">  c #1F191B",
",  c #1C1A1A",
"<  c #1D1A1A",
"1  c #1C1A1B",
"2  c #1D1A1B",
"3  c #1E1A1B",
"4  c #1F1A1B",
"5  c #1D1B1C",
"6  c #1E1B1C",
"7  c #1F1B1C",
"8  c #1D1D1D",
"9  c #1E1C1D",
"0  c #1F1C1D",
"q  c #201A1C",
"w  c #201B1D",
"e  c #211B1D",
"r  c #201C1D",
"t  c #201D1E",
"y  c #221C1E",
"u  c #221D1F",
"i  c #212021",
"p  c #222021",
"a  c #232121",
"s  c #232122",
"d  c #232222",
"f  c #242021",
"g  c #252022",
"h  c #252122",
"j  c #242223",
"k  c #252223",
"l  c #262223",
"z  c #252324",
"x  c #272224",
"c  c #272526",
"v  c #292526",
"b  c #2A2627",
"n  c #2B2728",
"m  c #2C2829",
"M  c #2D282A",
"N  c #302C2D",
"B  c #312C2E",
"V  c #302D2F",
"C  c #322F30",
"Z  c #333132",
"A  c #353132",
"S  c #353434",
"D  c gray22",
"F  c #3E3B3C",
"G  c #443F41",
"H  c #444041",
"J  c #474344",
"K  c #474445",
"L  c #494748",
"P  c #4B4748",
"I  c #494949",
"U  c #4B4849",
"Y  c #4C4B4B",
"T  c gray31",
"R  c #514F50",
"E  c #585858",
"W  c #5D5D5D",
"Q  c #625E5F",
"!  c #636061",
"~  c #666162",
"^  c #646364",
"/  c #686566",
"(  c #6A6567",
")  c #6E6A6B",
"_  c #706D6E",
"`  c #706E6F",
"'  c gray44",
"]  c #757172",
"[  c #757475",
"{  c gray46",
"}  c #777576",
"|  c #7A7678",
" . c gray47",
".. c gray50",
"X. c #827E80",
"o. c #898687",
"O. c #8A8687",
"+. c #8B8787",
"@. c #8B8B8B",
"#. c #8C8B8B",
"$. c #8D8D8D",
"%. c #8E8E8E",
"&. c #908E8E",
"*. c #949090",
"=. c #969292",
"-. c #9B989A",
";. c #9E9C9C",
":. c #A6A5A5",
">. c gray65",
",. c #AAA6A6",
"<. c #A9A8A8",
"1. c gray67",
"2. c #AEAEAD",
"3. c #B4AEAF",
"4. c gray70",
"5. c #B4B2B4",
"6. c #B6B4B4",
"7. c #B8B4B5",
"8. c #B9B5B5",
"9. c #B9B9B9",
"0. c gray73",
"q. c #BFBCBD",
"w. c gray75",
"e. c #C1BFC1",
"r. c #C8C8C8",
"t. c #CBC8CA",
"y. c gray82",
"u. c #D4D2D2",
"i. c None",
/* pixels */
"i.i.i.i.i.i.i.i.i.i.i.i.i.i.i.i.i.i.i.i.i.i.i.i.i.i.i.i.i.i.i.i.",
"i.i.i.i.i.i.i.i.i.i.i.i.i.i.i.i.i.i.i.i.i.i.i.i.i.i.i.i.i.i.i.i.",
"i.i.i.i.i.i.i.i.i.i.>.T d r w w 7 i D $.i.i.i.i.i.i.i.i.i.i.i.i.",
"i.i.i.i.i.i.i.i.,.m # * 2 W w.0.E & * % h X.i.i.i.i.i.i.i.i.i.i.",
"i.i.i.i.i.i.i.+.3 * . % | i.i.i.i.*.% $ $ ; ) i.i.i.i.i.i.i.i.i.",
"i.i.i.i.i.i.i.3 3 # * f i.i.i.i.i.i.H 3 * # # 8.i.i.i.i.i.i.i.i.",
"i.i.i.i.i.i.G 3 # * : M i.i.i.i.i.i.-.* * * % F i.i.i.i.i.i.i.i.",
"i.i.i.i.i.i.& * * * * b i.i.i.i.i.i.u.< * * 3 j i.i.i.i.i.i.i.i.",
"i.i.i.i.i.i.& * * * : 3 i.i.i.i.i.i.i.1 * * * a i.i.i.i.i.i.i.i.",
"i.i.i.i.i.i.& * * * * # _ i.i.i.i.i.i.5 * * * z i.i.i.i.i.i.i.i.",
"i.i.i.i.i.i.& * * * * * 6 4.i.i.i.i.i.1 * * $ U i.i.i.i.i.i.i.i.",
"i.i.i.i.i.i.L * * * * * , 8 1.i.i.i.2.1 * * w i.i.i.i.i.i.i.i.i.",
"i.i.i.i.i.i.r.8 2 . * * * & 2 ! i.i./ * % < ' i.i.i.i.i.i.i.i.i.",
"i.i.i.i.i.i.i.@.& # $ * * * * ; x ] g * u O.i.i.i.i.i.i.i.i.i.i.",
"i.i.i.i.i.i.i.i.&.4 . * * * * % ; $ ; m t.i.i.i.i.i.i.i.i.i.i.i.",
"i.i.i.i.i.i.i.i.i.i.B $ % * * * * * * 3 g =.i.i.i.i.i.i.i.i.i.i.",
"i.i.i.i.i.i.i.i.i.( v & # * * * * * * * : < Y i.i.i.i.i.i.i.i.i.",
"i.i.i.i.i.i.i.@.r 3 @ { i.Q r ; $ * * * * * - H i.i.i.i.i.i.i.i.",
"i.i.i.i.i.i.^ O : * Z i.i.i.i.C & * * * * $ > ; o.i.i.i.i.i.i.i.",
"i.i.i.i.i.;.* ; * & i.i.i.i.i.i.R #   ; * * - * c i.i.i.i.i.i.i.",
"i.i.i.i.i.N * - % 7 i.i.i.i.i.i.i.P % * * * - * , i.i.i.i.i.i.i.",
"i.i.i.i.i.* * - $ b i.i.i.i.i.i.i.i.k : * - - * & i.i.i.i.i.i.i.",
"i.i.i.i.i.* * - * h i.i.i.i.i.i.i.i.` * * - - * 2 i.i.i.i.i.i.i.",
"i.i.i.i.i.& * - : * i.i.i.i.i.i.i.i.:.* * - - * = i.i.i.i.i.i.i.",
"i.i.i.i.i.0 * - ; % [ i.i.i.i.i.i.i.<.* * - - * K i.i.i.i.i.i.i.",
"i.i.i.i.i.~ * - $ $ s i.i.i.i.i.i.i.} 3 * - - 3 q.i.i.i.i.i.i.i.",
"i.i.i.i.i.i.I X * * : J i.i.i.i.i.i.l * * o + ..i.i.i.i.i.i.i.i.",
"i.i.i.i.i.i.i. .k 3 o # A 7.i.i.3.n o & o k %.i.i.i.i.i.i.i.i.i.",
"i.i.i.i.i.i.i.i.i.i.S p t q e y : 9 9 V #.i.i.i.i.i.i.i.i.i.i.i.",
"i.i.i.i.i.i.i.i.i.i.i.i.i.e.6.5.9.y.i.i.i.i.i.i.i.i.i.i.i.i.i.i.",
"i.i.i.i.i.i.i.i.i.i.i.i.i.i.i.i.i.i.i.i.i.i.i.i.i.i.i.i.i.i.i.i.",
"i.i.i.i.i.i.i.i.i.i.i.i.i.i.i.i.i.i.i.i.i.i.i.i.i.i.i.i.i.i.i.i."
};
