/* XPM */
static char *result[] = {
/* columns rows colors chars-per-pixel */
"32 32 118 2 ",
"   c #1B1618",
".  c #1B1718",
"X  c #1C1718",
"o  c #1C1719",
"O  c #1D1719",
"+  c #1B1819",
"@  c #1B191A",
"#  c #1B1A1A",
"$  c #1C1819",
"%  c #1D1819",
"&  c #1D181A",
"*  c #1C191A",
"=  c #1D191A",
"-  c #1C191B",
";  c #1E181A",
":  c #1E191A",
">  c #1E191B",
",  c #1F191B",
"<  c #1D1A1A",
"1  c #1D1A1B",
"2  c #1D1B1B",
"3  c #1E1A1B",
"4  c #1D1B1C",
"5  c #1E1A1C",
"6  c #1F1A1C",
"7  c #1E1B1C",
"8  c #1F1B1C",
"9  c #1F1E1E",
"0  c gray12",
"q  c #211C1E",
"w  c #201D1E",
"e  c #211E1F",
"r  c #222021",
"t  c #222222",
"y  c #242021",
"u  c #252022",
"i  c #262123",
"p  c #242222",
"a  c #252222",
"s  c #272526",
"d  c #292425",
"f  c #2A2728",
"g  c #292828",
"h  c #2A2829",
"j  c #2B2829",
"k  c #2A2929",
"l  c #2C292A",
"z  c #2E2A2B",
"x  c #2E2A2C",
"c  c #2C2C2C",
"v  c #322F30",
"b  c #332F30",
"n  c #353233",
"m  c #383637",
"M  c #3C3839",
"N  c #3E393B",
"B  c #424041",
"V  c #444142",
"C  c #464243",
"Z  c #464445",
"A  c #474546",
"S  c #474646",
"D  c #4D4B4B",
"F  c #4F4B4C",
"G  c #525151",
"H  c #555152",
"J  c #555253",
"K  c #545353",
"L  c #575556",
"P  c #585758",
"I  c #5E5A5B",
"U  c #5D5C5C",
"Y  c #5D5D5D",
"T  c #5F5D5D",
"R  c #5F5F5F",
"E  c #615F5F",
"W  c #635F60",
"Q  c #666263",
"!  c #666566",
"~  c #686566",
"^  c #6A6567",
"/  c #6D6C6C",
"(  c #6E6C6D",
")  c #716F6F",
"_  c #767475",
"`  c #787575",
"'  c gray47",
"]  c #7E7A7B",
"[  c #7F7D7D",
"{  c #7E7C7E",
"}  c #827E7F",
"|  c #837E80",
" . c #808080",
".. c #868384",
"X. c #868585",
"o. c #8B8A8A",
"O. c #8C8B8B",
"+. c #8E8A8B",
"@. c #928E90",
"#. c #948F90",
"$. c #979294",
"%. c #969394",
"&. c #9A9596",
"*. c #989696",
"=. c #9A9A9A",
"-. c #A09C9E",
";. c gray63",
":. c #A2A1A1",
">. c #AFADAD",
",. c #AFADAF",
"<. c #B0ACAE",
"1. c #B6B5B5",
"2. c #B9B6B8",
"3. c #BBBBBB",
"4. c #CFCDCD",
"5. c #D2D2D2",
"6. c LightGray",
"7. c None",
/* pixels */
"7.7.7.7.7.7.7.7.7.7.7.7.7.7.7.7.7.7.7.7.7.7.7.7.7.7.7.7.7.7.7.7.",
"7.7.7.7.7.7.7.7.7.7.7.7.7.7.7.7.6.5.7.7.7.7.7.7.7.7.7.7.7.7.7.7.",
"7.7.7.7.7.7.7.7.7.7.7.7.7.{ k 9 0 4 e f [ 7.7.7.7.7.7.7.7.7.7.7.",
"7.7.7.7.7.7.7.7.7.7.7.&.i $ g 3.4.I X O 6 d $.7.7.7.7.7.7.7.7.7.",
"7.7.7.7.7.7.7.7.7.7..., & 3 7.7.7.7.W : & > : | 7.7.7.7.7.7.7.7.",
"7.7.7.7.7.7.7.7.7.,.= & = v 7.7.7.7.7.a = = = < =.7.7.7.7.7.7.7.",
"7.7.7.7.7.7.7.7.7.j & ; = J 7.7.7.7.7.( = = = = t 7.7.7.7.7.7.7.",
"7.7.7.7.7.7.7.7.:.= : = = T 7.7.7.7.7.7.& $ = = = ) 7.7.7.7.7.7.",
"7.7.7.7.7.7.7.7.D = ; = = U 7.7.7.7.7.7.u % = = & h 7.7.7.7.7.7.",
"7.7.7.7.7.7.7.7.s = ; = = G 7.7.7.7.7.7.M % = = & 1 7.7.7.7.7.7.",
"7.7.7.7.7.7.7.7.w = ; = = m 7.7.7.7.7.7.Q > = = = * 7.7.7.7.7.7.",
"7.7.7.7.7.7.7.7.7 = ; = = s 7.7.7.7.7.7.] 3 = = = * o.7.7.7.7.7.",
"7.7.7.7.7.7.7.7.e = ; = = 3 7.7.7.7.7.7.#.> = = = *  .7.7.7.7.7.",
"7.7.7.7.7.7.7.7.j = ; = = = -.7.7.7.7.7.} > = = = * ' 7.7.7.7.7.",
"7.7.7.7.7.7.7.7.K = ; = = = N 7.7.7.7.7.^ & = = = * X.7.7.7.7.7.",
"7.7.7.7.7.7.7.7.2.= ; = = & 6 7.7.7.7.7.b % = = = * 7.7.7.7.7.7.",
"7.7.7.7.7.7.7.7.7.B = = o = & n 7.7.7.7.= & = = > - 7.7.7.7.7.7.",
"7.7.7.7.7.7.7.7.7.7.c 1 & = = = z %.+.y & : = = & 1 7.7.7.7.7.7.",
"7.7.7.7.7.7.7.7.7.7.7.L 2 * * * + @ 1 E q   = = % l 7.7.7.7.7.7.",
"7.7.7.7.7.7.7.7.7.7.7.7.7.O.! P Y  .7.7.: . = = % ~ 7.7.7.7.7.7.",
"7.7.7.7.7.7.7.7.7.7.7.7.7.7.7.7.7.7.7.*.= 3 = = = 7.7.7.7.7.7.7.",
"7.7.7.7.7.7.7.7.7.7.7.7.7.7.7.7.7.7.7.V = = $ = S 7.7.7.7.7.7.7.",
"7.7.7.7.7.7.7.7.7.7.7.7.7.7.7.7.7.7.7.3 = = = 5 7.7.7.7.7.7.7.7.",
"7.7.7.7.7.7.7.7.7.7.7.7.7.7.7.7.7.7.H = = = o ` 7.7.7.7.7.7.7.7.",
"7.7.7.7.7.7.7.7.7.7.7.7.7.7.7.7.7.1.8 $ : & F 7.7.7.7.7.7.7.7.7.",
"7.7.7.7.7.7.7.7.7.7.7.7.7.7.7.7.7.p $ 3 $ C 7.7.7.7.7.7.7.7.7.7.",
"7.7.7.7.7.7.7.7.7.7.7.7.7.7.7.7.i = > 1 R 7.7.7.7.7.7.7.7.7.7.7.",
"7.7.7.7.7.7.7.7.7.7.7.7.7.7./ w = * x >.7.7.7.7.7.7.7.7.7.7.7.7.",
"7.7.7.7.7.7.7.7.7.7.7.7.Z # @ r A ;.7.7.7.7.7.7.7.7.7.7.7.7.7.7.",
"7.7.7.7.7.7.7.7.7.7.7.<._ @.7.7.7.7.7.7.7.7.7.7.7.7.7.7.7.7.7.7.",
"7.7.7.7.7.7.7.7.7.7.7.7.7.7.7.7.7.7.7.7.7.7.7.7.7.7.7.7.7.7.7.7.",
"7.7.7.7.7.7.7.7.7.7.7.7.7.7.7.7.7.7.7.7.7.7.7.7.7.7.7.7.7.7.7.7."
};
