/* XPM */
static char *ce10735c09e64b3b8840413de3166398DIvW169UoiLC2fVJ[] = {
/* columns rows colors chars-per-pixel */
"64 64 226 2 ",
"   c None",
".  c #6E0B08",
"X  c #720807",
"o  c #750A09",
"O  c #7C0B0B",
"+  c #7A0C07",
"@  c #7D110D",
"#  c #77160A",
"$  c #7E1518",
"%  c #7B2929",
"&  c #7F312F",
"*  c #7C3638",
"=  c #6B4A40",
"-  c #7D5E64",
";  c #820C06",
":  c #830C0C",
">  c #8B0B0D",
",  c #890808",
"<  c #940B0C",
"1  c #990B0E",
"2  c #98060B",
"3  c #81110C",
"4  c #8C120C",
"5  c #95100E",
"6  c #840C11",
"7  c #8B0C11",
"8  c #880E1A",
"9  c #920612",
"0  c #930C12",
"q  c #9B0C10",
"w  c #950D19",
"e  c #831414",
"r  c #8A1213",
"t  c #8B141A",
"y  c #831A1B",
"u  c #88181A",
"i  c #931314",
"p  c #93131C",
"a  c #9B131A",
"s  c #921A1A",
"d  c #9A1311",
"f  c #A40D13",
"g  c #A00612",
"h  c #A31414",
"j  c #88211C",
"k  c #8A1A21",
"l  c #941D23",
"z  c #9C1C24",
"x  c #8B2125",
"c  c #872629",
"v  c #992325",
"b  c #94242A",
"n  c #9C252B",
"m  c #982A2C",
"M  c #8D2C30",
"N  c #8E2836",
"B  c #962C35",
"V  c #82353B",
"C  c #893A3A",
"Z  c #933A3C",
"A  c #96313A",
"S  c #92332C",
"D  c #A6282A",
"F  c #A62A32",
"G  c #A43235",
"H  c #A53A38",
"J  c #964139",
"K  c #933A43",
"L  c #8E3F46",
"P  c #A93C44",
"I  c #BC3C46",
"U  c #8D484C",
"Y  c #994B4B",
"T  c #9B4645",
"R  c #844A51",
"E  c #895A5A",
"W  c #9A5C5C",
"Q  c #9B5256",
"!  c #9F4C53",
"~  c #A54446",
"^  c #A94948",
"/  c #B34C4D",
"(  c #AC4A52",
")  c #B24F52",
"_  c #A6575A",
"`  c #B6565A",
"'  c #AB544D",
"]  c #90615B",
"[  c #A86151",
"{  c #9B5D66",
"}  c #A85D63",
"|  c #B65E66",
" . c #8C6C66",
".. c #9A6266",
"X. c #9B766A",
"o. c #976C73",
"O. c #9D7373",
"+. c #9C7B7A",
"@. c #AA6669",
"#. c #B56968",
"$. c #AE6D77",
"%. c #A77978",
"&. c #BA7375",
"*. c #BA7378",
"=. c #B47778",
"-. c #BC6F70",
";. c #C75555",
":. c #CB4A50",
">. c #C65B61",
",. c #CA6D73",
"<. c #C37579",
"1. c #C57878",
"2. c #CB7170",
"3. c #BF857C",
"4. c #C08A7E",
"5. c #9F7080",
"6. c #B37B84",
"7. c #BD7D84",
"8. c #A17B80",
"9. c #C97B86",
"0. c #9D8A8B",
"q. c #A88888",
"w. c #B78385",
"e. c #B89388",
"r. c #BF8891",
"t. c #BD9995",
"y. c #B59799",
"u. c #A59194",
"i. c #BAA59A",
"p. c #B5A2A3",
"a. c #B9A5A4",
"s. c #BBABAD",
"d. c #BEA5AA",
"f. c #BAABB1",
"g. c #BBB7B6",
"h. c #C58483",
"j. c #C2898B",
"k. c #CB8B8A",
"l. c #C78387",
"z. c #D8888D",
"x. c #D6948C",
"c. c #D68C94",
"v. c #C59392",
"b. c #C29E9D",
"n. c #C99897",
"m. c #D59395",
"M. c #D79898",
"N. c #CB978C",
"B. c #E3959C",
"V. c #E38B8B",
"C. c #C5A298",
"Z. c #D9A19B",
"A. c #C59EA5",
"S. c #DA9DA2",
"D. c #E79BA8",
"F. c #CDA4A5",
"G. c #CCACAC",
"H. c #C6A8A8",
"J. c #D6A6AA",
"K. c #D3ABAB",
"L. c #DAADAA",
"P. c #D5A9A3",
"I. c #C5B1AD",
"U. c #DDB4AB",
"Y. c #D1B1AB",
"T. c #D5ADB3",
"R. c #D7A7B3",
"E. c #C3B3B2",
"W. c #CCB3B4",
"Q. c #CCBCBB",
"!. c #C4B9B9",
"~. c #D4B4B4",
"^. c #DBB4B3",
"/. c #DCBCBB",
"(. c #D8B8B9",
"). c #C8ACB1",
"_. c #E5ABAD",
"`. c #E1B4B4",
"'. c #E3BABC",
"]. c #E8B9BB",
"[. c #E9ABB0",
"{. c #BDC1BA",
"}. c #C2C1BC",
"|. c #D3C2BB",
" X c #D9C7BE",
".X c #E1C2BE",
"XX c #E8C3BF",
"oX c #D8BCC5",
"OX c #E6B9C3",
"+X c #CBC4C6",
"@X c #C9C9C6",
"#X c #D5C3C3",
"$X c #DCC2C5",
"%X c #DCC6C9",
"&X c #D4CBCD",
"*X c #DBCDCC",
"=X c #D7CBC6",
"-X c #CCD6CE",
";X c #D5D0CC",
":X c #DCD1CD",
">X c #DDCAD0",
",X c #D7CBD0",
"<X c #D4D1D2",
"1X c #DBD2D3",
"2X c #D9D7D6",
"3X c #E4C3C5",
"4X c #EACCC5",
"5X c #E4C5CA",
"6X c #ECC7CC",
"7X c #E4CACA",
"8X c #EACBCC",
"9X c #E6C4C5",
"0X c #F0CFCE",
"qX c #E5D1CA",
"wX c #ECD4CC",
"eX c #E7D6CB",
"rX c #E3CCD2",
"tX c #EBCCD3",
"yX c #E1D3D3",
"uX c #ECD6D2",
"iX c #E9DAD8",
"pX c #EBE3D1",
"aX c #EADFE2",
"sX c #EBE5E5",
"dX c #E8E8E4",
"fX c #F0E9E9",
/* pixels */
"                                                                                                                                ",
"                                                                                                                                ",
"                                                                                                                                ",
"                                                          f.                                                                    ",
"                                                    <X          <X                                                              ",
"                                                                                                                                ",
"                                                                                                                                ",
"                                                          <X    ;X                                                              ",
"                                                                &X                                                              ",
"                                                                            <X                                                  ",
"                                            q.      <X      2X      -X  7X-X                                                    ",
"                                            %.          ^.O.~.7XA.>XdX/.9X      qX5X              &X                            ",
"                                      +X    i.E G.    G.{ w.7XiXsX<XdXoXW.      T.5.                                            ",
"                                              qXa.    5X6.#.G.sXfXdX1X!.      Q.s.          1X                                  ",
"                                                }.yX3XO.].h.iXdXsX;X$X    /.H.$X~.3XO.J.).(.                                    ",
"                                                  }.~.@.` Z K.aX>XtXR b.  ..@.m.6.K.&.7.&X                                      ",
"                          @X                n.R.    |.#.: i 1.n.iX~.v.%.9._ H.<.#.K.e.oX      {.                                ",
"                                !.H.  @X      H.=X  U.S < 3 ( #.&.! =.^.z.#.4.t #.#.R.                                          ",
"                                  3.3.n.wX    7X^.N.% 4 < : j j P w M =.-.y 0 q F _ E =XyX                                      ",
"                                    y.t.* W e.-.Z @ ; : : , > : 7 r G ) ' r f < r <.wX/.W.                                      ",
"                                  OXu.uX( 6 [ n 7 9 , : 6 6 6 , O # e 0 r 3 2 + @ u <.G.I.b.                                    ",
"                              +X  (./.Y.c.N z.x O O : : 6 6 , , , 6 @ , , e q I D 0 A ,.].(.Z.E                                 ",
"                        a.     XU.m.c r > : 3 : : : 6 6 O O 6 6 : : O : 6 : 0 z D n ,.M.J.C.T.%.oX                              ",
"                            *X= k.T u , : 3 > > : : O O O O O O O : : : : : > , 9 0 7 l B.c.!.      >X&X                        ",
"                              ^.j.` 7 < 3 > 9 : ; ; O O O O O O O 6 O : : 7 7 7 4 ; r ^ 1.J K.3XuXq.pX=XwX#X#Xp.a.<X1X          ",
"                          <X  Y.a.9.t 6 > : 9 : ; ; O O o o o o O O O : : : , 0 : 4 4 s H ) / F n n m M U =.'.).                ",
"                            t.m.4X].| t > > ; : ; O O o o o o o o O O : : : > 7 1 1 1 1 h i ^ ~ H ` B ( m.n.8X                  ",
"                            3.6 Z J.$.P > ; ; : ; O + X o X o o O O O O : : : 9 > r 0 5 F ;.1.*.S.R.(.7XeX#X                    ",
"                            w.K P ~ D e > > > : O O O o o . . . o o O ; : ; , > 0 : i s A [.9X5X$X    1XW.$XE.                  ",
"                      !.  +XiX4Xm.e r > > > > : 6 O O o o X X o o O + : : > > > 7 t v ;.A *.|.yX          Q.                    ",
"                      1XQ.iXfXW.z.z 7 > > > > : : : O O o o O O O : : : : : > : k T Z ` &.h.8XyX                                ",
"                        yXiXsX*X1.a 0 > 7 > > 7 6 O 6 O O O O 6 O : : : : r 7 : T XXXXC.b.C.$.T.                                ",
"              <X          rX8X% s 0 < < < > > 6 6 6 : : e o 8 O O 6 6 7 : : 6 v [.C.s.      OX%.H.                              ",
"                            qX&.j 5 0 < > > > 6 6 6 : @ G y >.O e G 6 7 7 8 6 r _ t.*X    g.    *Xp.                            ",
"                      &X  yX2XyXc.p 1 < , 4 0 0 9 0 ; # ` ..>.: # , : 7 e 3 w k tX                1X0.                          ",
"                            *X3X) 0 1 < 5 > < 1 t P c O z c.T 9 > 9 r n J #.B T G.                  1Xu.*X                      ",
"                      @X  OXN F 1 d < < 1 0 x ^ * l.T y v Y N.7 7 7 7 6 x.e.@.C ~.                      p.                      ",
"                    +X    8X;.f h f 5 5 q p z.x.{ D.8 > 4 x V.k 9 g r A '.  n.M.%.                        ;X                    ",
"                        %XH.' a 1 f 5 5 1 t P.Y 6.OX8 1 5 l p $ m q % -.W.  oXuXE ~.                                            ",
"                        T.&.:.f h 5 d H s ) 4X_     j.u Z 1.b U.M.b 3.8X        wXI.                                            ",
"                      Q.l.a h t v ;.i } ].D.X.F.    6XV _   @.n.k.,.T 4X          s.1X                                          ",
"                    2XD.a k @.`._ M.A l.i.L L.      A.r.7.  ^.U _.l.x @.            f.                                          ",
"                  +.U.M J L.          P.Y wX        8Xy.%X  pX_ 9Xq.~ '.                                                        ",
"                :X=.M >.i.  oX        E wX          q.#X      _ A.  * wX                                                        ",
"            7XK.wXK t P.    s.rX    A.OX  ;X      yXy.        V (.  @.^.                                                        ",
"            _ K w.Q -.              S.j.          !.        K.W     c.Q                                                         ",
"          tXT V 4X                    5.                    { oX    m.&                                                         ",
"          - /.                        rX                  %...      XXc                                                         ",
"          Q.                                            W...uX        K uX                                                      ",
"                                                         .            R =.                                                      ",
"                                                        X.            #XC P.                                                    ",
"                                                      3Xt.              ) v.                                                    ",
"                                                      w.3X              c /.                                                    ",
"                                                      j.F.              c 8X                                                    ",
"                                                      6X .              & `.                                                    ",
"                                                      ^.O.              W j.                                                    ",
"                                                      %.(.              n.6.                                                    ",
"                                                      o.                3.s.                                                    ",
"                                                      s.                q.                                                      ",
"                                                                        #X                                                      ",
"                                                                                                                                ",
"                                                                                                                                ",
"                                                                                                                                ",
"                                                                                                                                "
};
