/* XPM */
static char * blood_xpm[] = {
"64 64 440 2",
"  	c #8F9251",
". 	c #969A52",
"+ 	c #9EA35A",
"@ 	c #ADB262",
"# 	c #C3C980",
"$ 	c #8D8B52",
"% 	c #8B8551",
"& 	c #C5BB92",
"* 	c #B4AC7B",
"= 	c #C3BB8C",
"- 	c #C2BB85",
"; 	c #C1BC7D",
"> 	c #A59B67",
", 	c #A19E56",
"' 	c #999B3C",
") 	c #A19E4D",
"! 	c #A4AB44",
"~ 	c #A4AA4C",
"{ 	c #959B43",
"] 	c #A7A961",
"^ 	c #B7B182",
"/ 	c #BFB98A",
"( 	c #B5AC82",
"_ 	c #C7C192",
": 	c #BAAE83",
"< 	c #B2A67B",
"[ 	c #C1B68B",
"} 	c #C0B685",
"| 	c #C9BE9A",
"1 	c #A59B73",
"2 	c #D1C59C",
"3 	c #B1A66C",
"4 	c #B8AB76",
"5 	c #D5CAA4",
"6 	c #D9CEA5",
"7 	c #B3AC74",
"8 	c #A99E6C",
"9 	c #9D9668",
"0 	c #ACA474",
"a 	c #CAC38C",
"b 	c #ABA46C",
"c 	c #A39C64",
"d 	c #A4A35B",
"e 	c #918E45",
"f 	c #B2AD6C",
"g 	c #C8BD8E",
"h 	c #A99E72",
"i 	c #B5B373",
"j 	c #B6B871",
"k 	c #B3B36C",
"l 	c #AEAA73",
"m 	c #ADA37A",
"n 	c #D4CCA2",
"o 	c #A9A55E",
"p 	c #AAAD4D",
"q 	c #AEB16B",
"r 	c #BCB383",
"s 	c #AFAA7A",
"t 	c #B9AE7D",
"u 	c #A49C6B",
"v 	c #C9BD93",
"w 	c #C2B591",
"x 	c #B1A673",
"y 	c #9A945C",
"z 	c #918D4C",
"A 	c #9C9B54",
"B 	c #99954A",
"C 	c #ADAB6B",
"D 	c #9E9968",
"E 	c #959359",
"F 	c #9D9B5B",
"G 	c #938B5B",
"H 	c #CEC5A0",
"I 	c #D3CB9C",
"J 	c #CDC995",
"K 	c #A0955C",
"L 	c #B9B574",
"M 	c #AAAC5B",
"N 	c #ADB25C",
"O 	c #9DA14B",
"P 	c #A5A95B",
"Q 	c #B6B17B",
"R 	c #BEB48A",
"S 	c #CEC99B",
"T 	c #D6CB9B",
"U 	c #928D54",
"V 	c #A9A464",
"W 	c #A29D5D",
"X 	c #BEBA84",
"Y 	c #B1A581",
"Z 	c #CCC49A",
"` 	c #B5BA64",
" .	c #A5AA54",
"..	c #ABB14B",
"+.	c #A5A264",
"@.	c #A5A26A",
"#.	c #BAABB1",
"$.	c #CBC393",
"%.	c #BAB37C",
"&.	c #A09670",
"*.	c #BFB591",
"=.	c #999454",
"-.	c #918E3F",
";.	c #9A9C4B",
">.	c #B1AE64",
",.	c #C5C28B",
"'.	c #C4C284",
").	c #BBC156",
"!.	c #9EA252",
"~.	c #D4D1D2",
"{.	c #979261",
"].	c #BDBA7B",
"^.	c #CCC98B",
"/.	c #A6A073",
"(.	c #898B35",
"_.	c #949736",
":.	c #AAAC54",
"<.	c #B3B363",
"[.	c #AFB172",
"}.	c #BEC369",
"|.	c #ADB254",
"1.	c #9DA343",
"2.	c #A4AB3B",
"3.	c #949C2D",
"4.	c #988D62",
"5.	c #A19565",
"6.	c #94944C",
"7.	c #A8A753",
"8.	c #BCC373",
"9.	c #949B3C",
"0.	c #949B33",
"a.	c #C1BB79",
"b.	c #8D9244",
"c.	c #767433",
"d.	c #9C9463",
"e.	c #B2B45C",
"f.	c #8D923C",
"g.	c #95994A",
"h.	c #ACAB64",
"i.	c #858342",
"j.	c #D5D0CC",
"k.	c #878A40",
"l.	c #9E9A63",
"m.	c #B6B96B",
"n.	c #868948",
"o.	c #8E9249",
"p.	c #7E7D44",
"q.	c #D4CBCD",
"r.	c #7A7D2C",
"s.	c #88873D",
"t.	c #959352",
"u.	c #7C7C3C",
"v.	c #8C8858",
"w.	c #92875C",
"x.	c #9A9C44",
"y.	c #D5D29A",
"z.	c #84843B",
"A.	c #7E8138",
"B.	c #7B7C34",
"C.	c #746E39",
"D.	c #837F50",
"E.	c #A88888",
"F.	c #D9D7D6",
"G.	c #CCD6CE",
"H.	c #E4CACA",
"I.	c #A2A44B",
"J.	c #A1A543",
"K.	c #A99E79",
"L.	c #D6D1A3",
"M.	c #6C6C26",
"N.	c #A77978",
"O.	c #DBB4B3",
"P.	c #9D7373",
"Q.	c #D4B4B4",
"R.	c #C59EA5",
"S.	c #DDCAD0",
"T.	c #E8E8E4",
"U.	c #DCBCBB",
"V.	c #E6C4C5",
"W.	c #A3A453",
"X.	c #929444",
"Y.	c #E5D1CA",
"Z.	c #E4C5CA",
"`.	c #D1CA94",
" +	c #C9C483",
".+	c #8D8B4A",
"++	c #76782A",
"@+	c #CBC4C6",
"#+	c #BAA59A",
"$+	c #895A5A",
"%+	c #CCACAC",
"&+	c #9B5D66",
"*+	c #B78385",
"=+	c #E9DAD8",
"-+	c #EBE5E5",
";+	c #D8BCC5",
">+	c #CCB3B4",
",+	c #D5ADB3",
"'+	c #9F7080",
")+	c #898543",
"!+	c #B9A5A4",
"~+	c #B37B84",
"{+	c #B56968",
"]+	c #F0E9E9",
"^+	c #DBD2D3",
"/+	c #C4B9B9",
"(+	c #CCBCBB",
"_+	c #BBABAD",
":+	c #858249",
"<+	c #847D43",
"[+	c #828535",
"}+	c #C2C1BC",
"|+	c #E1D3D3",
"1+	c #E4C3C5",
"2+	c #E8B9BB",
"3+	c #C58483",
"4+	c #DCC2C5",
"5+	c #C6A8A8",
"6+	c #D6A6AA",
"7+	c #C8ACB1",
"8+	c #D8B8B9",
"9+	c #8B854C",
"0+	c #91933D",
"a+	c #8A8C3C",
"b+	c #AA6669",
"c+	c #B6565A",
"d+	c #933A3C",
"e+	c #D3ABAB",
"f+	c #EADFE2",
"g+	c #EBCCD3",
"h+	c #844A51",
"i+	c #C29E9D",
"j+	c #9A6266",
"k+	c #D59395",
"l+	c #BA7375",
"m+	c #BD7D84",
"n+	c #988D5D",
"o+	c #C9C9C6",
"p+	c #899031",
"q+	c #C99897",
"r+	c #D7A7B3",
"s+	c #D3C2BB",
"t+	c #830C0C",
"u+	c #931314",
"v+	c #C57878",
"w+	c #C59392",
"x+	c #C97B86",
"y+	c #A6575A",
"z+	c #C37579",
"A+	c #B89388",
"B+	c #BDC1BA",
"C+	c #BEC479",
"D+	c #DCD3AA",
"E+	c #B6BB5A",
"F+	c #D7CBC6",
"G+	c #DDB4AB",
"H+	c #92332C",
"I+	c #940B0C",
"J+	c #81110C",
"K+	c #AC4A52",
"L+	c #9F4C53",
"M+	c #B47778",
"N+	c #D8888D",
"O+	c #C08A7E",
"P+	c #8B141A",
"Q+	c #BF857C",
"R+	c #ECD4CC",
"S+	c #CB978C",
"T+	c #7B2929",
"U+	c #8C120C",
"V+	c #88211C",
"W+	c #A93C44",
"X+	c #950D19",
"Y+	c #8D2C30",
"Z+	c #BC6F70",
"`+	c #831A1B",
" @	c #930C12",
".@	c #9B0C10",
"+@	c #A62A32",
"@@	c #B9B66E",
"#@	c #BABC5B",
"$@	c #AAAE43",
"%@	c #B3B653",
"&@	c #7D7545",
"*@	c #BCBB74",
"=@	c #B59799",
"-@	c #BD9995",
";@	c #7C3638",
">@	c #9A5C5C",
",@	c #7D110D",
"'@	c #820C06",
")@	c #890808",
"!@	c #8B0B0D",
"~@	c #8B0C11",
"{@	c #8A1213",
"]@	c #A43235",
"^@	c #B24F52",
"/@	c #AB544D",
"(@	c #A40D13",
"_@	c #BABC65",
":@	c #B3BA53",
"<@	c #9BA334",
"[@	c #BAAE89",
"}@	c #E6B9C3",
"|@	c #A59194",
"1@	c #ECD6D2",
"2@	c #840C11",
"3@	c #A86151",
"4@	c #9C252B",
"5@	c #920612",
"6@	c #7C0B0B",
"7@	c #77160A",
"8@	c #831414",
"9@	c #98060B",
"0@	c #7A0C07",
"a@	c #88181A",
"b@	c #C5B1AD",
"c@	c #BABB6B",
"d@	c #D1B1AB",
"e@	c #D68C94",
"f@	c #8E2836",
"g@	c #8B2125",
"h@	c #BC3C46",
"i@	c #A6282A",
"j@	c #96313A",
"k@	c #CA6D73",
"l@	c #D9A19B",
"m@	c #868B3C",
"n@	c #D9C7BE",
"o@	c #872629",
"p@	c #9C1C24",
"q@	c #D79898",
"r@	c #C5A298",
"s@	c #C2C474",
"t@	c #857B4A",
"u@	c #7D8034",
"v@	c #DBCDCC",
"w@	c #6B4A40",
"x@	c #CB8B8A",
"y@	c #9B4645",
"z@	c #941D23",
"A@	c #E3959C",
"B@	c #807F3C",
"C@	c #C7BC98",
"D@	c #C2898B",
"E@	c #A94948",
"F@	c #964139",
"G@	c #EBE3D1",
"H@	c #D5C3C3",
"I@	c #B5A2A3",
"J@	c #750A09",
"K@	c #921A1A",
"L@	c #A53A38",
"M@	c #B34C4D",
"N@	c #982A2C",
"O@	c #8D484C",
"P@	c #E3BABC",
"Q@	c #EACCC5",
"R@	c #B65E66",
"S@	c #990B0E",
"T@	c #A31414",
"U@	c #A54446",
"V@	c #962C35",
"W@	c #EACBCC",
"X@	c #AE6D77",
"Y@	c #720807",
"Z@	c #95100E",
"`@	c #C75555",
" #	c #BA7378",
".#	c #DA9DA2",
"+#	c #E7D6CB",
"@#	c #933A43",
"##	c #6E0B08",
"$#	c #E9ABB0",
"%#	c #C3B3B2",
"&#	c #992325",
"*#	c #8A1A21",
"=#	c #9B131A",
"-#	c #E8C3BF",
";#	c #E3CCD2",
">#	c #880E1A",
",#	c #848B34",
"'#	c #7C8125",
")#	c #C65B61",
"!#	c #BBB7B6",
"~#	c #C5C27D",
"{#	c #93131C",
"]#	c #CAC982",
"^#	c #9D8A8B",
"/#	c #C8C77E",
"(#	c #9A1311",
"_#	c #C78387",
":#	c #994B4B",
"<#	c #D6948C",
"[#	c #893A3A",
"}#	c #E79BA8",
"|#	c #E38B8B",
"1#	c #A00612",
"2#	c #D1CD8D",
"3#	c #DCC6C9",
"4#	c #D5A9A3",
"5#	c #7E1518",
"6#	c #CB4A50",
"7#	c #94242A",
"8#	c #E1D9A9",
"9#	c #A85D63",
"0#	c #9B766A",
"a#	c #CDA4A5",
"b#	c #ECC7CC",
"c#	c #82353B",
"d#	c #E1B4B4",
"e#	c #8E3F46",
"f#	c #DAADAA",
"g#	c #BF8891",
"h#	c #E5ABAD",
"i#	c #DAD1A2",
"j#	c #9C7B7A",
"k#	c #878B29",
"l#	c #ACB343",
"m#	c #A2A63B",
"n#	c #DCD1CD",
"o#	c #8C932B",
"p#	c #B1B845",
"q#	c #9B5256",
"r#	c #85892C",
"s#	c #7F312F",
"t#	c #B0AE59",
"u#	c #8B8C44",
"v#	c #7D5E64",
"w#	c #909829",
"x#	c #878D1F",
"y#	c #8E9524",
"z#	c #ABB33C",
"A#	c #8C6C66",
"B#	c #9CA23C",
"C#	c #7A7737",
"D#	c #AAAF3D",
"E#	c #976C73",
"F#	c #B5B94B",
"G#	c #C5C85A",
"  . + @ # $ % & * = - ; > , ' ) ! ~ { . ] ^ / ^ ^ ( / _ = : < [ } [ | [ 1 2 3 4 4 } [ 5 6 5 [ 7 4 8 9 0 a b c d , , e f b 4 g h ",
"i j k j l 9 m n a 0 - 4 4 o ) p ~ { { .   + q ^ 9 ^ r s } t u 0 [ & [ v [ } } h < r w | | 5 [ } < < r } a x y z A B o C t x v h ",
"D y E F G r H I J - b K c i L M N O ~ N . P P q F b Q / v = R : = = } g v 4 } > 0 : R S T 6 } < 0 1 g = = } b U V W i ; } } : 1 ",
"X $ $ ^ Y & Z v c , W o y 7 3 f `  .~ ~ ..N  .P +.E @.& [ #.$.< [ } } %.- g g &.Y *.R _ T 6 2 4 < < [ = = = t =.c U 3 i a g [ 1 ",
"Q E c $.v *.R %.e -.;. .>.7 ,.'.@ N ~ ! ).! ! !.B F ~.{.< [ [ t ~.} ].3 4 ^.T * /.*.^ J T g T } 1 < } w | T Z < y E @.* - = R u ",
"i l g g & / 0 z (.' _.:.<.C '.[.N }.|.1.2.3.1.~ ;.W U 4.r = R r t ; f , , y I / /.^ s ^ } } T } < } } v T | | } 5.s 0 ,.* = * u ",
"Q b } v _ [ 0 6.7.7.|.|.{ ] +.,.8.8.}.~ 9.0...}.M z y * [ R ( : a.a.W A b.c.'.[.Q s c 0 b t Z [ < < } w | 5 | g D 0 s ^ r * 0 d.",
"%.4 } g = v - f ) e.}.1.!.j [.+.+ . N  .9.f.{ g.h.i.U * R ~.: R j.x =.d A k.j F A l.c i > t t ( } < [ w v 6 v t 1 m s r * Q l.% ",
"< a.( [ R = = Q 3 h.m.@ q C   n.o.+ !.+ o.k.    p.$ 0 r r [ w r q.K 4 V o ;.r.f.s.o.E y d.( 5.} [ < } w v T [ 0 0 m 0 X / 7 l.p.",
"w w [ ( ( * * {.r ,.[.. q t.i.o.k.n.  +   u.v._ Q Q ^ ^ r : [ Z a.w.3 3 h.A ~.~ x.o.o.l.^ w./.r } a.} g $.2 [ 8 d./ * - a b t.u.",
"} w [ ( * 7 %.c 0 X y.@.k q n.z.A.B.C.u.p.D.E.^ ^ ^ ~.^ r = F.= %.U G.3 H.G.I.J.f.!.t.G r R _ * K.} : [ J v %.h u 0 ^ 7 - - F n.",
"} g g t b b +.F X L.y.J j A s.M.k.+ @.@.v.D.N.^ ^ ^ r * O.P.Q.H.R.S.T.U.V.h.W.X.Y.Z.u.@.g n v _ < q.} a.`.- Q 0 u 7 - }  +a C .+",
"} g g ; V h.A W ^ s = '.F B o ++M.+.i @+@.l #+$+%+/ ^ %+&+*+H.=+-+~.T.;+>+F 3 d ,+'+K * J v n Z w < < 4 r - t x x t 4 > l a F W ",
"} } T g Q + F C Q @.- @.A =.L )+c.=.V i F E +.Y.!+s = Z.~+{+%+-+]+T.^+/+y K a.(+_+r r = g & ^+S T : 0 * 3 - 4 3 0 %.t > %.z f z ",
"& 2 6 5 Q   . ] ,.X J :+%.b y } <+z A B [+6.A V }+|+1+P.2+3+=+T.-+j.4+0 x U.5+4+Q.1+P.6+7+8+/ Z 5 S < 0 > 7 %.b x t } %.<+C.9+t.",
"/ 2 [ 6 J C 0 Q ,.I 2 u Q 8 : u +.t.A ;.0+x.a+b.'.}+Q.b+c+d+e+f+S.g+h+i+^ j+b+k+~+e+l+m+q.%.J J _ y.r l.W n+%.8 %.r %.} > y U W ",
"X Q @.J y.@.D ,._ & 5 5 _ o+H r ,.c.g.f.{ p+q+r+] '.s+{+t+u+v+q+=+Q.w+N.x+y+5+z+{+e+A+;+W ] .+B+6.z.)+W W %.- } g * R * Q 7 3 V ",
"+ ] [.C+#   @.X _ _ Z D+Z *.R = /+5+a+o+9.p+E+5+F+,.G+H+I+J+K+{+l+L+M+O.N+{+O+P+{+{+r+d d , o a.I.p :.;., j L d.* 0 u 1 t t < y ",
"B.A.o.n.n.A.+ ,.'.s n+1 H r S X ,.Q+Q+q+R+ .e.H.O.S+T+U+I+t+V+V+W+X+Y+M+Z+`+ @.@+@y+$+F+|+@@h.m.#@$@! %@N <.h.].,.G &@w.Y ( m 1 ",
"b.O !.O o.. *@# i y v.{./ / R X ,.X =@-@;@>@A+Z+d+,@'@t+t+)@!@t+~@{@]@^@/@{@(@I+{@z+R+U.>+h.h._@:@<@..' :.M *@a.'.- 1 v R &.[@K.",
"A.o.!.!.+ g.@ o.].V 0 = 2 g v [ R }@|@1@K+2@3@4@~@5@)@t+2@2@2@)@6@7@8@ @{@J+9@0@,@a@z+%+b@i+@@c@p ! ..|. .c@m.f '.a t } h < r w.",
" .b.N f.{ @ b.+.]..+s Q v v [ @+_ 8+U.d@e@f@N+g@6@6@t+t+2@2@)@)@)@2@,@)@)@8@.@h@i@ @j@k@2+8+l@$+e.!. .;.!.g.h.f i F x Q 7 _ > G ",
"C+8.o.b.k.m@b.F C l.u [ !+} w n@G+k+o@{@!@t+J+t+t+t+2@2@6@6@2@2@t+t+6@t+2@t+ @p@i@4@k@q@6+r@,+N.;+s@` W.. o d t.i W <+3 } } n+t@",
"# C+P !.] u@A.A.U E 0 ( [ [ v@w@x@y@a@)@t+J+!@!@t+t+6@6@6@6@6@6@6@t+t+t+t+t+!@)@5@ @~@z@A@e@/+z + h.S.q.] A A V B@4 > 4 t [@4.t@",
"+ + . o.o.o.P A.] Q X = m ( C@O.D@c+~@I+J+!@5@t+'@'@6@6@6@6@6@6@6@2@6@t+t+~@~@~@U+'@{@E@v+F@e+1+1@E.G@F+R+H@H@I@!+~.^+8 ; > 4.D.",
"  . P O !.O f.g.+.C+'.9 x ~.[@d@!+x+P+2@!@t+5@t+'@'@6@6@J@J@J@J@6@6@6@t+t+t+)@ @t+U+U+K@L@^@M@+@4@4@N@Y+O@M+P@7+x a.x x < 8 5.5.",
"  !.o.{ N ` N O h.d i i = = -@k+Q@2+R@P+!@!@'@t+'@6@6@J@J@J@J@J@J@6@6@t+t+t+!@~@S@S@S@S@T@u+E@U@L@c+V@K+k+q+W@b 4 t 7 %.x h 8 5.",
"n.A.b.b. .}.}.N ` @ V i 9+y Q+2@d+6+X@W+!@'@'@t+'@6@0@Y@J@Y@J@J@6@6@6@6@t+t+t+5@!@{@ @Z@+@`@v+ #.#r+8+H.+#H@* t 4 7 b t 4 > 8 > ",
"j . z.B.u@{  .O N C+j - +.0 *+@#W+U@i@8@!@!@!@t+6@6@6@J@J@######J@J@6@'@t+'@)@!@ @t+u+K@j@$#V.Z.4+a - ^+>+4+%#0 i Q @.l 4 y b i ",
"X X z.B.r.(. .:.O P + /+l @+=+Q@k+8@{@!@!@!@!@t+2@6@6@J@J@Y@Y@J@J@6@0@t+t+!@!@!@~@P+&#`@j@ #s+|+} J } } Q (+7 C l C E + L +.+.+.",
"n+D +.i.B.z.u@m@A P C ^+(+=+]+>+N+p@~@!@!@!@!@t+t+t+6@6@J@J@6@6@6@t+t+t+t+t+!@t+*#y@d+c+l+3+W@|+Z *.r [@r ^ r +.+.A o.g.N  .{ 1.",
"9 G * @.V o.. k.k.n.u.X |+=+-+v@v+=# @!@~@!@!@~@2@6@2@6@6@6@6@2@6@t+t+t+t+{@~@t+y@-#-#r@i+r@X@,+Z w R & / @.l.t.. g.O f.9.!.0.! ",
"n+( Q r s l i.~.u..+y X r ;#W@T+K@ @I+I+I+!@!@2@2@2@t+t+8@J@>#6@6@2@2@~@t+t+2@&#$#r@_+,#'#A.}@N.5+v.^ ,.Q . k.m@O { o.` M }.:...",
"0 * ^ g 0 * s t@&@7 U = %.* Y.l+V+Z@ @I+!@!@!@2@2@2@t+,@]@`+)#6@8@]@2@~@~@>#2@{@y+-@v@:.1.!#m@n.v@I@+.@.F n.O u@,#!.o.!.6.~#) ) ",
"y y c : R ( r ^ u 1 ^ q.* |+F.|+e@{#S@I+)@U+ @ @5@ @'@7@c+j+)#t+7@)@t+~@8@J+X+*#g+c@ .O f.,#b.+ ]#^+^#c.+ !.!.,#'#P *@Q * } =.K ",
"/.x n+Q R * = s X = r 7 Q g v@1+^@ @S@I+Z@!@I+S@P+W+o@6@p@e@y@5@!@5@{@4@F@{+V@y@%+/#;.a+{ A.+ q i A ^+|@v@u@f.b.m@o.[./ _ & x 4 ",
": t } g } b =.f k <.] o+] }@f@+@S@(#I+I+S@ @g@E@;@_#y@`+&#:#S+~@~@~@~@2@<#A+b+[#Q.]#, ;.s.k.[.:+'.+.C y I@d !.X.b.. C / & C@m Y ",
": [ h 9+=.A , W.c@ .@+;.O W@`@(@T@(@Z@Z@.@{#N+<#&+}#>#!@U+g@|#*#5@1#{@j@P@c q+q@N.y.2#i +.+.Q * - l.C.l.i j.6.W.6.o.$ D R w Y *.",
"v a.`.a.W d !.;.:.}.{ p 3#5+/@=#S@(@Z@Z@S@P+4#:#~+}@>#S@Z@z@{#5#N@.@T+Z+>+%.;+1@$+Q.`.7 l.@.m & / ( h * - 7 @@6.A +.l r & m Y [@",
"g g - - ; s@o  .}.e.N 1.,+l+6#(@T@Z@(#L@K@^@Q@y+ . .D@a@d+v+7#G+q@7#Q+W@x 0 y a.R+b@8#= 0 @.m Y R : R / l ].j t.6.A F X s ( *.*.",
"} 8 - a.a.>.<.W.@ O N (+_#=#T@P+&#`@u+9#2+}#0#a#d >.b#c#y+9+b+q+x@k@y@Q@} %.7 - R _+^+Z 0 u K.m ( : Q - l U .++..+A =.F s _ | ( ",
"a.K k K ) ) _.) f.O F.}#=#*#b+d#y+q@j@_##+e#f#=.@@f R.g#m+> O.O@h#_#g@b+: } %.R / = #.i#0 7 4.m < } * - g +.f ] *@d z.A n.l Z &.",
"K ) o #@|...J.' 1.j#G+Y+F@f#n.X r ( m 4#:#R+- %.i 7 W@=@3#b G@y+V.E.U@P@} g - - m = Z i#%.u b x < R * r b 7 Q ,.^.o k.X.. *@i @.",
"-.k#' %@l#m#l#m#n#M+Y+)##+C ;+^ & m & $+R+} $.`.3 ; E.H@9++.> y+R.[@;@R+: ; %.4 * : = y.; f y > 7 0 = %.R Q Q 0 C o.X.W.m.*@j ] ",
"0.k#m#m#l#2.H.e+R+@#P+4#f 3 _+;#X * R.}@^ j.%.V 3 |+=@z z.B.z c#8+[@b+O.- %.4 L 0 7 a.; @@e , >.%.r 7 r 9 @./ _ X . !.O  .|.P m.",
"o#o#<@$@p#<@y+@#*+q#Z+; c =.t.n.9+Q .#D@%.* Q 7 *@/+@@<.B A e+>@t r e@q#- j o U 3 '.k <.7.r#0+s.@@W W +.0 ^ S ,.J # !. .1.m@@ q ",
"a+0+_.p ! g+y@c#Q@_@, 3 V %.t 3 X +.C '+t.c W o a.<.k ` @ N &+;+3 t k+s#^.a.<.t#k V (.[+k#%@_.m#) B W.d ] '.^ Z ^ @.8.8.{ o.q q ",
"u#g.;.x.1.v#U.! e., f - x %.7 7 y 6.=.;#+.A , W c@k W.M N N.j+!.]./ -#o@o a+X.e.;.0+x.k#w#x#y#m#m#t#) ) [.s ^ ^ _ C+^.+ o.n.+ ^ ",
"c t.B@e o.(+M ;.+ +.y > 7 : < } < l V ] =., V W V *@h.W.>+j+1@*@X _ 0 @#1@e.x.W. .|.l#2.).z#z#z#I., f ^.r * h 1 r i @@@@g.u.:+s ",
"F W =.d O + @ @ k ].%.r t 5.} < r Q 3 C =.A V 4 Q V z )+A#, W.W ,./ 0 h+M+J.x.I.e...p#z#z#z#p#z#' -.>.^.J ^ s 0 '.].C V i.:+% l ",
"r = r = ,.y.,.@.%.,.c c 3 3 3 a.* > =.c f a.- ^.- > =.U 0#A z B@Q '.+.H@[#4#;.e. .B#2.l#<@<@<@2.m#%@t#) ^.`.x t ,.- a 7 0 c D @.",
"[@S $.= X J / [.X = - b n+} 3 4 * Q 4 a.V c 4 a g * b 1+-@C#i.+.,.,.'.3 ^@w+h.@@M x.w#3.<@3.w#).p#m#%@7., ]#g u ^ r = %.* /.9 9 ",
"*./ / S L.L./ /.9 &.2 t a.v a.3 4 : 7 a.L %.r & $./ - *+1+b 8 Q - X - ].o@U.t.h.@@O o#y#3.3.<@).D#m#%@p B o 8 4 K.K.w w v x 4.w.",
"R = / _ S S S S H Z & < | | < a.4 } 4 %.; r / & *./ 2 D@a#* } = = = _ R o@W@U $ @@{ <@3.w#<@2.2.D#m#$@x.B B b g < K.w [ C@1 4.w.",
"0 r a a J y.S I L._ [ | v [ a.K.: } 4 t 4 [@R w | w & b#A#} } : [ w & < s#d#_ / ].;.1.0.w#<@l#..#@e.a.:.) ) 8 7 [ Y [@C@w : 5.w.",
"* Q / ,.,.^.X J s s < 8 [ K.} Y [ [ * t t [@[ Z H Z R O.P.= ^ = w C@R & >@D@C@_ r A W.B#B#3.B#|., >.t#e.o f L - v [ [@K.[ } 8 K ",
"Y / ,.X #   o.+ @.[.i v.7 * = * w [ K.< } [ | | 5 Z t N.8+- 4 n+t = } [ q+~+& 5 J +.A [+[+1.f.!.h.] P P W.!.g.+ %.$.= s * * u > ",
"^ E E [.. k.  . + *@i l u X * R [ w < Y Y [ = 2 $.g t E#a.; 5.t@t : } $.Q+_+Z Z I a C 8.O @ P +.+ k P O x.{ O m@d i ^ J * 0 b 0 ",
"[.[.m.O A.u@{ { g.<.+.V 5.( [@< | w K.( < } v v y.Q @@_+=.z 9+<+< w } x E.r _ _ _ a j *@P  .*@*@]#C+@ 1.9.1.B#9. .@@i ].- 0 * /.",
"  o.A.f.A.9.{ { g.. t.:+0 [ Y [ w Y } > > v T g ,.d W <.>.B@<+t ( w %. +H@'.a a -  +].f X.X.;.W.@@@ M x.9.B#p+p+b.@ q X - ^ * /.",
"N ` O { f.9.{ N C+f y 8 x < *.w [ [@: < Q +.i ]#k A I.B -.e f - [ g a.B , , , a./#a.a.s._.(.x., <.<.W.I.O f.f.f.o.o.+.].r ^ * /.",
"O + O f. .{ { + k t.=.d.4.< [@[ [ } g a.y t.].d <.<.:. .7.e y } [ < a.7.:.0+' ) , >.o , x.x.-.a+, f h.B m@m@k.k.+ E C @.r ^ ( 1 ",
"}.. k.!.o.!.@ C+C C $ <+8 8 3 } } x - V d >.A *@` e.%@O 0+e =.4 : 4 ) F##@$@0.#@:.t#k >., { -.-.B@> %.U .+C l.n.E Q 0 D m R ( Y ",
"+ q P o.+ . + ] '.E U 5.K K 3 4 t t ; ]#d d k ` <. .J.0+-.B <+b 3 ; #@m#F#G#G#m#_.-.k a.B x.-.=.z > 3 t ^ ^ ^ ^ Q Q 9 v.1 m *.&."};
