/* XPM */
static char *fffdb38732c64c08ac153b0e301d2f2aZyRJuYpsKCC3iiaG[] = {
/* columns rows colors chars-per-pixel */
"64 64 221 2 ",
"   c None",
".  c #010000",
"X  c #0B0103",
"o  c #0E0608",
"O  c #0C090A",
"+  c #120104",
"@  c #1C0005",
"#  c #130609",
"$  c #1B050A",
"%  c #150A0D",
"&  c #1A090E",
"*  c #1D0B10",
"=  c #240006",
"-  c #2B0007",
";  c #240209",
":  c #2B0109",
">  c #330005",
",  c #34010B",
"<  c #3A000B",
"1  c #3F0007",
"2  c #230E13",
"3  c #290D14",
"4  c #2F0710",
"5  c #3B0611",
"6  c #3A0C16",
"7  c #330A13",
"8  c #2D1219",
"9  c #261218",
"0  c #33141C",
"q  c #3B131D",
"w  c #3D1923",
"e  c #381720",
"r  c #43000C",
"t  c #4B000E",
"y  c #420006",
"u  c #52000E",
"i  c #5B000E",
"p  c #4B0211",
"a  c #460B18",
"s  c #540112",
"d  c #5B0012",
"f  c #58091A",
"g  c #46121E",
"h  c #61000D",
"j  c #6F000F",
"k  c #630013",
"l  c #6D0015",
"z  c #6A0419",
"x  c #620A1D",
"c  c #66071A",
"v  c #730015",
"b  c #7A0016",
"n  c #720319",
"m  c #7D021B",
"M  c #71081E",
"N  c #451622",
"B  c #4D1422",
"V  c #441A25",
"C  c #491B27",
"Z  c #571928",
"A  c #5A0F20",
"S  c #6A0D22",
"D  c #780B22",
"F  c #631B2C",
"G  c #681528",
"H  c #78152B",
"J  c #6B1D30",
"K  c #7A1B31",
"L  c #4D212E",
"P  c #52212E",
"I  c #552331",
"U  c #5B2433",
"Y  c #4D2430",
"T  c #642334",
"R  c #6B2234",
"E  c #652A3A",
"W  c #6B2B3C",
"Q  c #6D2739",
"!  c #712C3E",
"~  c #76263A",
"^  c #762E41",
"/  c #7D2E42",
"(  c #763043",
")  c #7C3346",
"_  c #6D2E40",
"`  c #84011A",
"'  c #8D001C",
"]  c #820017",
"[  c #93001D",
"{  c #9C001E",
"}  c #A7001E",
"|  c #8A0924",
" . c #9C0322",
".. c #950926",
"X. c #86132C",
"o. c #8B1B35",
"O. c #991633",
"+. c #A20122",
"@. c #AD0022",
"#. c #A70A2A",
"$. c #B30024",
"%. c #BC0026",
"&. c #BC0429",
"*. c #B40B2E",
"=. c #B8062B",
"-. c #AD1334",
";. c #AB1838",
":. c #B41739",
">. c #B71639",
",. c #BA0E32",
"<. c #88243C",
"1. c #98213D",
"2. c #C50026",
"3. c #CB0026",
"4. c #C70028",
"5. c #CB022A",
"6. c #C1092F",
"7. c #D1012B",
"8. c #DB002C",
"9. c #D00027",
"0. c #CD0730",
"q. c #CD0B33",
"w. c #C60C33",
"e. c #D20B34",
"r. c #D40933",
"t. c #C7153B",
"y. c #D3133B",
"u. c #DB133D",
"i. c #E3002E",
"p. c #862D43",
"a. c #972D47",
"s. c #84354A",
"d. c #87344A",
"f. c #94364F",
"g. c #99334D",
"h. c #943A53",
"j. c #9C3C56",
"k. c #8F3950",
"l. c #A62946",
"z. c #B72849",
"x. c #A33B56",
"c. c #A43F5A",
"v. c #A53652",
"b. c #B83858",
"n. c #A5334F",
"m. c #CB1C43",
"M. c #C21F43",
"N. c #DB1B44",
"B. c #DB1F48",
"V. c #D71841",
"C. c #E31E49",
"Z. c #CC254B",
"A. c #DC224B",
"S. c #D3234A",
"D. c #C92D51",
"F. c #DB2A52",
"G. c #D82951",
"H. c #C6395B",
"J. c #D3345A",
"K. c #D9335A",
"L. c #E9224E",
"P. c #E2244D",
"I. c #E42B55",
"U. c #EC2C57",
"Y. c #E72A55",
"T. c #E5345C",
"R. c #EB325D",
"E. c #D93C62",
"W. c #CD3F62",
"Q. c #E73760",
"!. c #E53B63",
"~. c #EC3A64",
"^. c #EB3E68",
"/. c #F13C66",
"(. c #F43E69",
"). c #FB3F6B",
"_. c #9E4059",
"`. c #A6435D",
"'. c #B4415F",
"]. c #AC4460",
"[. c #B34563",
"{. c #BA4564",
"}. c #B94967",
"|. c #C24566",
" X c #C44B6C",
".X c #CB4B6D",
"XX c #CC4769",
"oX c #DD456B",
"OX c #D6486C",
"+X c #CD4F71",
"@X c #D94C70",
"#X c #CD5072",
"$X c #D25174",
"%X c #DB5276",
"&X c #DD5479",
"*X c #EC436C",
"=X c #E4456C",
"-X c #F3436D",
";X c #EE4B74",
":X c #E54D74",
">X c #F44671",
",X c #F34B75",
"<X c #F54E78",
"1X c #FC4975",
"2X c #E5557B",
"3X c #E3587D",
"4X c #E9587F",
"5X c #EC537A",
"6X c #F5537C",
"7X c #FA537D",
"8X c #EC5A81",
"9X c #FC5681",
"0X c #F55C84",
"qX c #FC5A84",
"wX c #FE5E89",
"eX c #F45780",
"rX c #FE628C",
"tX c #F66189",
"yX c #FF6691",
"uX c #FF6A95",
"iX c #FF6C9A",
/* pixels */
"                                                                                                                                ",
"                                                                                                                                ",
"                      . . 8 E ].3X6X/.P.y.y.A.=XeXrXuXuXrXqX*XA.y.q.B.~.7X4X}.( e X .                                           ",
"                      . X 8 E c.:X,X~.P.q.q.N.T.<XwXrXrXwX6X*XA.q.q.N.~.,X2X[.! 0 O .                                           ",
"                      . . 3 T v.oX*XR.C.e.q.N.I.-X<X7X7X<X>XR.A.e.r.C.U.(.=Xb.~ 0 X .                                           ",
"                      . X 2 F l.J.R.L.u.r.r.u.P.R./.(.(./.R.P.N.r.7.u.L.U.K.l.J 7 X .                                           ",
"                      . . ; f O.t.N.u.u.5.5.q.y.V.N.A.B.B.B.y.e.5.5.e.u.V.m.;.G 4 X .                                           ",
"                      . . ; p | *.0.7.5.5.5.5.0.0.q.q.0.q.5.5.5.5.5.5.5.r.=...d : X .                                           ",
"                      . . ; u ` $.2.3.3.3.2.2.2.4.2.2.2.2.4.2.4.4.4.5.5.4.$.[ i - X .                                           ",
"                      . . = t ] } 2.3.3.2.2.2.2.2.2.2.2.2.2.2.4.4.4.3.5.3.$.' i - X .                                           ",
"                      . . @ u ] } 2.3.3.2.2.2.2.2.2.2.2.2.2.2.2.4.4.5.9.4.$.' i - X .                                           ",
"                      . . ; s ` $.5.3.3.4.5.4.4.4.4.4.4.2.5.4.5.4.4.5.5.4.%.' d = X .                                           ",
"                      . X ; f | ,.y.u.u.y.e.q.5.5.4.2.2.2.4.2.2.4.3.3.7.5.%...d : X .                                           ",
"                      . . : Z O.Z.Y.Y.U.I.P.N.y.5.5.2.2.2.2.2.2.2.3.3.5.4.$.[ d : X .                                           ",
"                      . . 3 F n.E.-X1X1X-X~.Y.V.q.2.2.2.2.2.2.2.2.2.4.3.4.$.[ d : X .                                           ",
"                      . X 3 T v.@X7X9X9X6X,XT.S.e.4.2.2.4.4.4.4.2.4.3.7.3.%.' d = X .                                           ",
"                      . . 2 U k. X%X&X8X$XOXJ.m.w.5.5.0.q.e.y.q.q.q.r.7.5.$.' d - X .                                           ",
"                      . . * w W k.`.].`._.j.l.:.,.5.q.y.B.A.A.A.A.A.V.u.q.%.' d : X .                                           ",
"                      . . O 2 w P U U U U J H ..=.0.V.A.T.^.^.*X*XQ.I.N.r.%.' i = X .                                           ",
"                      . . X O % * 2 9 2 2 6 c | $.q.N.R.*X6XqXqX6X,X~.P.y.=.' i - X .                                           ",
"                    + @ @ + + X . X O % 2 6 d | @.q.A.~.<XwXrXyXrX7X-XY.y.&.' i = X . .                                         ",
"                    , r r < = X . . O 9 N Z H  .$.q.B./.7XrXuXuXyXwX>XU.u.%.[ i - . . . .                                       ",
"                X ; t k v l r @ . O 9 I p.a.l.,.6.0.N.~.6XrXuXuXyXqX>XU.u.6.[ i - . . . . .                                     ",
"              . . = s b [ ' k > + * C s.{.XXK.m.w.q.B.~.6XwXyXuXrXqX-XY.y.$.' i : . . . . . .                                   ",
"              . . ; s m { ..v r 4 w _ ].&X6X(.Y.V.V.A.!.7XwXyXyXrXqX*XG.t.+.` i , @ # $ $ & & &                                 ",
"                X = r l ` | D G F ^ _.#X0XwX7X/.Y.I.Q.>XqXrXuXuXrX0XoXD.O.` l i s r a g Z C V e 2                               ",
"                  = , r s x H <.k.].#X8XrXrXqX1X).(.1X7XwXyXuXuXyX0XXXa.H s u h l m | <.a.d.! P 8 .                             ",
"                    + @ ; a R h.|.%X8XtXwXwXwX9X9X7X9XqXwXwXyXyXrX8X{.p.B , y h ` #.>.D.H. Xc.! e o .                           ",
"                      . X 3 U h. X3X8X8X4X4X4X4X2X2X8X4X4X8X8X8X4X$X`.Q q : < k ' #.t.T.;X4X}.k.C 3 # X                         ",
"                      . . % V ( c.}.}.}.[.[.[.[.[.[.].].].`.[.[.'.x.p.F a r t i b ..>.E.<XwX3X}.s.I w 8 2                       ",
"                      . . O 9 L E ^ ^ ^ ! ! ! ! _ _ _ _ Q Q E W Q Q J S c z i i d c o.b.:XwXtX&X}.k.( I 0 #                     ",
"                      . . . % 2 8 0 e 0 0 0 0 0 0 0 8 8 8 8 8 8 8 6 B M ' ' b i < 5 F g.$X0XrX0X3X X`._ w % .                   ",
"                      + X X + + @ # # X X o o + $ % $ & * * * % & 3 f m  .@.' h , : C / }.2XqXwXqX2X{.p.w # . .                 ",
"                    = - < < < > - = @ X . . X @ = , < q 0 w w w w B S ..=.%.} v s r B ~ f.'.XX;X;X=Xb.<.g # . .                 ",
"                  ; < s k c l l h u > @ . X @ > u k S K ! s.) ) ) <.1.-.,.2.$.[ b c S F R p.a.b.J.K.z.X.a # . .                 ",
"              . . ; p v ' { +.} [ m i - + + - i ` ..;.z.'.|. X X X|.H.Z.w.2.%.$.} | m x g B Z o.:.>.-.D 5 X . .                 ",
"              . . = s ` @.%.4.4.%.{ v < @ @ < l } 6.S.!.;X0XtXtXtX6X=XF.y.5.2.2.2.$.' s : ; < z  .=. .n < + . .                 ",
"              . X = d ' %.7.8.8.3.$.m r @ @ r b @.e.L.(.9XrXuXiXyXqX>XI.y.5.5.3.3.%.[ d ; + : d { } { v < X . .                 ",
"              . . = d [ %.8.i.i.7.$.m r @ ; y b $.u.L.).qXyXiXiXuXtX,XI.y.0.4.9.5.2.[ i = + - i [ } { l < + . .                 ",
"              . X : s ' %.7.8.8.5.@.m r @ @ y b $.r.L.).7XrXuXuXyXqX*XI.y.5.3.9.5.%.[ u - + - k [ $.} l < X . .                 ",
"              . X = s ` @.%.5.5.%. .l < @ @ < v } ,.B.!.<XqXrXrXrX6X*XP.y.4.2.3.3.%.[ d - + - k [ $.{ v < + . .                 ",
"              . . ; t l '  .+.+.{ ` k 5 @ @ < k ] #.>.G.!.;X<X<X>X*XT.A.y.5.4.3.5.%.' d - + - k [ $.{ l < X . .                 ",
"                  @ < d d z l l l d p < @ @ - y d n X.;.Z.T.T.R.T.F.A.y.q.5.5.9.7.%.[ u = + - d [ $.{ v < X . .                 ",
"                    = - > < < < > , -         @ - p z ..>.y.V.N.y.y.y.q.5.5.3.9.5.%.[ d = + = d { } { l < + . .                 ",
"                      X + X + X + + X         X $ : f | *.w.e.e.q.q.0.5.2.2.2.4.2.$.' d , $ 5 z  .$.+.n < X . .                 ",
"                      . . . . . . . .         9 8 g G O.>.y.u.u.y.y.e.r.5.5.2.$.@.{ D x g N Z X.-.>.#.D 5 + . .                 ",
"                          . . . . .         e Y E ) g.z.G.I.U.U.U.P.P.u.e.2.$.{ ` M S G J ~ a.z.D.Z.z.H 6 + . .                 ",
"                                      . . % C ( x.}..X:X=X-X1X,X>X-XU.P.y.2.{ b d r A R g.'. X@X*X=Xb.~ g # . .                 ",
"                                      . X 9 U h.XX2X6XeX6X6XeX0X6X<XT.A.y.$.' i , : N ^ [.&X0XwXwX4X|.p.V # . .                 ",
"                                      2 8 C ~ b.@X6X6X2X%X$X#X$X$XXXH.z.-.[ j y @ & w s. X0XuXiXyX0X.Xd.V # . .                 ",
"                                    e Y E p.n.H.!.~.E.b.x.j._.h._.k.a.o.M l t = X # w s.$XwXiXiXiXrX#Xd.C # . .                 ",
"                                . 2 P ) j.{.H.K.A.m.z.1.T Y L I P C B g a < = + . # V d.+XrXiXiXuXrX+Xk.C # . .                 ",
"                              . X 2 U h.XX@X!.F.y.*.| c 6 & % % & & & $ + + X . . # V )  X4XrXyXrX8X Xp.V # . .                 ",
"                              . . 2 T x.OX;XQ.S.*...v y @ . . . . . . . . . . . . o q W `..X&X4X&X.Xc.! e # . .                 ",
"                              . . 2 Z l.J.T.Z.:.| l u > + . . . . . . . . . . . . X 8 C ! f.x.c.j.h.^ C 8 X . . .               ",
"                              . X ; f o.Z.m.;.| d 1 - =                     . . . X % 0 V P U U U I V 0 % X . . . . .           ",
"                              . . ; s | ,.*...c < @ X                         . . . X o & * 2 2 2 * % # X . . . . . .           ",
"                              . . = s ` @.@.' u @ . .                           . . . . . . . . . . . . . . . . . . . .         ",
"                              . . = t ' @.@.` t @ . .                             . . . . . . . . . . . . . . . . . . .         ",
"                              . . = u ' @.@.' t @ . .                                               . . . . . . . . . .         ",
"                              . . = s ' @.@.` s @ . .                                                 . . . . . . . . .         ",
"                              . . @ t v [ { v t @ .                                                     . . . . . . .           ",
"                                . + > i j v h y                                                                                 ",
"                                                                                                                                "
};
