/* XPM */
static char *result[] = {
/* columns rows colors chars-per-pixel */
"64 64 232 2 ",
"   c #6C3804",
".  c #743D04",
"X  c #783D05",
"o  c #7B4205",
"O  c #7C4209",
"+  c #794505",
"@  c #7A5006",
"#  c #824506",
"$  c #844C05",
"%  c #8B4C06",
"&  c #844B09",
"*  c #8C4B09",
"=  c #854509",
"-  c #934704",
";  c #934A03",
":  c #954D06",
">  c #8E520A",
",  c #855506",
"<  c #9A5305",
"1  c #93520B",
"2  c #9A560C",
"3  c #955B0A",
"4  c #9C590B",
"5  c #995704",
"6  c #8F5210",
"7  c #A35C0D",
"8  c #A65C09",
"9  c #A35C11",
"0  c #9A6408",
"q  c #9C7405",
"w  c #977106",
"e  c #A3630B",
"r  c #AD640E",
"t  c #AB6B0B",
"y  c #A76806",
"u  c #B1650E",
"i  c #B26C0D",
"p  c #B56908",
"a  c #AD7406",
"s  c #A77707",
"d  c #B3730B",
"f  c #BB740D",
"g  c #B47A0A",
"h  c #BC7C0A",
"j  c #B57A06",
"k  c #AE6311",
"l  c #AE6911",
"z  c #B26512",
"x  c #B36B12",
"c  c #BD6E12",
"v  c #B46D1A",
"b  c #A87416",
"n  c #B37212",
"m  c #BB7312",
"M  c #BB7B11",
"N  c #B5711C",
"B  c #B9721C",
"V  c #9B712C",
"C  c #BE7C28",
"Z  c #A6782B",
"A  c #C27C0C",
"S  c #C5730F",
"D  c #C47C12",
"F  c #C77813",
"G  c #C87713",
"H  c #B4830B",
"J  c #B98808",
"K  c #B99209",
"L  c #BB8A11",
"P  c #C3830B",
"I  c #CA850D",
"U  c #C58B0C",
"Y  c #CD8B0D",
"T  c #C28606",
"R  c #D4860E",
"E  c #D58B0E",
"W  c #D98E0F",
"Q  c #CA9B0B",
"!  c #C69708",
"~  c #D4930D",
"^  c #DA940E",
"/  c #D49909",
"(  c #DD9B0D",
")  c #D29A07",
"_  c #C38511",
"`  c #C48A12",
"'  c #CA8A16",
"]  c #D38312",
"[  c #D58A12",
"{  c #D88B12",
"}  c #D98513",
"|  c #CB9314",
" . c #C79114",
".. c #D69312",
"X. c #DA9211",
"o. c #DC9C12",
"O. c #D49719",
"+. c #E09E0E",
"@. c #E19E11",
"#. c #CAA809",
"$. c #DEA20C",
"%. c #D7A809",
"&. c #CEB408",
"*. c #DCB30D",
"=. c #D8B906",
"-. c #CEA711",
";. c #DBA715",
":. c #DBB614",
">. c #E4AD07",
",. c #E2A30C",
"<. c #E4AC0B",
"1. c #E7AA0A",
"2. c #ECBD06",
"3. c #E6B30C",
"4. c #E9B40C",
"5. c #E5BB0B",
"6. c #EBBC0A",
"7. c #E7B406",
"8. c #E1A511",
"9. c #E3AC12",
"0. c #E4B212",
"q. c #E4BB15",
"w. c #E8B914",
"e. c #F0BD0B",
"r. c #C2852E",
"t. c #DC9C2A",
"y. c #C28732",
"u. c #CA963B",
"i. c #CD962D",
"p. c #DEA323",
"a. c #DCAA33",
"s. c #E7BD25",
"d. c #E3A936",
"f. c #E3B63B",
"g. c #E6AC26",
"h. c #DEC606",
"j. c #DFC612",
"k. c #EEC305",
"l. c #EDCB06",
"z. c #EDC20A",
"x. c #ECCB0C",
"c. c #E5C609",
"v. c #F1C505",
"b. c #F3CC04",
"n. c #F1C509",
"m. c #F2CB0A",
"M. c #EDD409",
"N. c #EDD905",
"B. c #F5D304",
"V. c #F9D504",
"C. c #F6DB05",
"Z. c #F9DB04",
"A. c #F4D40C",
"S. c #F4DC0D",
"D. c #F9DB0A",
"F. c #F9D409",
"G. c #EEC512",
"H. c #ECCA11",
"J. c #E6C717",
"K. c #F0C311",
"L. c #F2CD13",
"P. c #EBD914",
"I. c #F4DB11",
"U. c #F8D714",
"Y. c #F5E305",
"T. c #FBE403",
"R. c #F7EC03",
"E. c #FDEB01",
"W. c #F6E20B",
"Q. c #F9E30C",
"!. c #FBF203",
"~. c #F4E313",
"^. c #FAE314",
"/. c #F4E51A",
"(. c #F8E81A",
"). c #FBF416",
"_. c #FBF41B",
"`. c #F8F51A",
"'. c #EDE219",
"]. c #EEC926",
"[. c #F1CA25",
"{. c #FADD22",
"}. c #F6D928",
"|. c #E9C538",
" X c #F4D637",
".X c #FAE425",
"XX c #FBF322",
"oX c #FAF22D",
"OX c #FBE739",
"+X c #CB9A42",
"@X c #D4A547",
"#X c #DBB74B",
"$X c #D8B457",
"%X c #CEA34D",
"&X c #E3AF44",
"*X c #E6BB46",
"=X c #DFBF62",
"-X c #E0B963",
";X c #F4DB46",
":X c #E8C75E",
">X c #EED459",
",X c #F4DC57",
"<X c #EEC94B",
"1X c #FBEB4E",
"2X c #F8E646",
"3X c #FBEC53",
"4X c #FAEC5B",
"5X c #F8E458",
"6X c #DEC164",
"7X c #E6CB6B",
"8X c #EED46A",
"9X c #F1D56C",
"0X c #F1DC6B",
"qX c #EAD87A",
"wX c #F3DC73",
"eX c #ECCF6C",
"rX c #F8EC6C",
"tX c #FCF269",
"yX c #F8E876",
"uX c #FCF374",
"iX c #FCF57C",
"pX c #EDDC81",
"aX c #F5E984",
"sX c #FBF483",
"dX c #FAF68B",
"fX c #FBFA8B",
"gX c #F7F08D",
"hX c #FAF693",
"jX c #FCFA95",
"kX c #FCFA99",
"lX c #F8F595",
"zX c None",
/* pixels */
"zXzXzXzXzXzXzXzXzXzXzXzXzXzXzXzXzXzXzXzXzXzXzXzXzXzXzXzXzXzXzXzXzXzXzXzXzXzXzXzXzXzXzXzXzXzXzXzXzXzXzXzXzXzXzXzXzXzXzXzXzXzXzXzX",
"zXzXzXzXzXzXzXzXzXzXzXzXzXzXzXzXzXzXzXzXzXzXzXzXzXzXzXzXzXzXzXzXzXzXzXzXzXzXzXzXzXzXzXzXzXzXzXzXzXzXzXzXzXzXzXzXzXzXzXzXzXzXzXzX",
"zXzXzXzXzXzXzXzXzXzXzXzXzXzXzXzXzXzXzXzXzXzXzXzXzXzXoXXX`.XX_._.`._._.`.oXzXzXzXzXzXzXzXzXzXzXzXzXzXzXzXzXzXzXzXzXzXzXzXzXzXzXzX",
"zXzXzXzXzXzXzXzXzXzXzXzXzXzXzXzXzXzXzXzXzXzXXX_.XXXXXXXXXX_.XX_.XX_.XXXX_._.XX_._.zXzXzXzXzXzXzXzXzXzXzXzXzXzXzXzXzXzXzXzXzXzXzX",
"zXzXzXzXzXzXzXzXzXzXzXzXzXzXzXzXzXzXzXzXXX_._._._._._.`.XX_.`.`.XX_.`._._.XX_._._._.XXzXzXzXzXzXzXzXzXzXzXzXzXzXzXzXzXzXzXzXzXzX",
"zXzXzXzXzXzXzXzXzXzXzXzXzXzXzXzXzXzX:.).`._._.`._.).~.j.-.L H a d L K =.P.`._.).`._._._._.zXzXzXzXzXzXzXzXzXzXzXzXzXzXzXzXzXzXzX",
"zXzXzXzXzXzXzXzXzXzXzXzXzXzXzXzX; :.XX_._._.`.J.J 5 - ; % ; ; : : ; % - % ; t -./._._._._._._.zXzXzXzXzXzXzXzXzXzXzXzXzXzXzXzXzX",
"zXzXzXzXzXzXzXzXzXzXzXzXzXzXzX! (._.`._.(.#.< ; ; % 5 T =.N.R.!.R.R.C.h.! y ; ; ; g P._._._._.).zXzXzXzXzXzXzXzXzXzXzXzXzXzXzXzX",
"zXzXzXzXzXzXzXzXzXzXzXzXzX_._.)._.`.).#.< - ; : K C.!.!.E.E.E.E.E.E.E.E.E.!.W.#.8 - - s '.).).)._.).zXzXzXzXzXzXzXzXzXzXzXzXzXzX",
"zXzXzXzXzXzXzXzXzXzXzXzX)._.).).).P.0 - ; ; ! R.!.E.T.E.E.E.E.!.E.E.E.E.E.E.E.R.T.&.< ; ; #.`._.).)._.zXzXzXzXzXzXzXzXzXzXzXzXzX",
"zXzXzXzXzXzXzXzXzXzXzX)._.).).`.-.: ; ; 5 N.!.T.E.E.E.E.E.!.E.E.!.E.E.E.E.E.E.E.E.T.C.a ; ; s (._.).)._.zXzXzXzXzXzXzXzXzXzXzXzX",
"zXzXzXzXzXzXzXzXzXzX_.).).)._.K ; ; - j R.!.E.E.E.E.E.!.E.E.E.E.E.E.E.E.E.E.E.E.E.E.T.Z.T ; - 4 ~.).)._.).zXzXzXzXzXzXzXzXzXzXzX",
"zXzXzXzXzXzXzXzXzX`.).`.).`.H ; - < %.!.E.E.E.E.E.E.E.E.E.E.E.E.E.E.E.T.E.T.E.T.E.T.R.Z.C.J - ; < P._.).).`.zXzXzXzXzXzXzXzXzXzX",
"zXzXzXzXzXzXzXzXI.I.I.).).K - ; y 4.E.E.T.E.E.E.E.E.E.E.E.T.E.T.E.T.T.E.T.E.T.T.T.T.c.B.Z.Z.) ; - < ~.).~.S.S.zXzXzXzXzXzXzXzXzX",
"zXzXzXzXzXzXzXzXS.A.S.I.Q - ; h >.T.E.T.E.E.E.T.E.E.E.T.E.E.T.T.T.T.T.T.T.T.T.T.C.&.N.C.V.B.V.( : - 0 A.I.D.S.zXzXzXzXzXzXzXzXzX",
"zXzXzXzXzXzXzXI.I.S.I.5.; - J 3.n.!.Z.E.T.T.E.T.T.T.E.T.T.T.T.T.T.T.T.T.T.T.T.B.K =.C.B.B.B.V.2.%.< ; j S.I.I.I.zXzXzXzXzXzXzXzX",
"zXzXzXzXzXzXK j.~.S.S.3 - j 3.1.R.T.T.T.T.T.T.T.T.T.T.T.T.T.T.T.T.T.Y.T.Y.C.N.q &.T.B.B.b.B.B.b.7.$.: - *.I.S.S.I.zXzXzXzXzXzXzX",
"zXzXzXzXzXzX~.K , #.! - p <.<.2.E.Z.T.T.T.T.T.T.T.Z.M.Y.Y.Z.Z.Y.Z.Y.Z.Y.Z.l.w h.C.V.b.b.b.b.b.b.2.1./ ; 4 C.I.S.I.zXzXzXzXzXzXzX",
"zXzXzXzXzXW.I.W.J.@ % < 1.>.<.A.T.T.T.Y.T.Z.T.Z.Z.T.Q.=.=.Y.C.Z.C.D.C.C.M.K I.C.C.b.b.b.b.b.b.l.n.<.<.T ; ! S.D.S.I.zXzXzXzXzXzX",
"zXzXzXzXzXI.S.I.~.K - ( >.9.<.R.F.T.D.T.T.Y.T.Z.T.Z.D.C.N.J h.C.C.C.C.C.l.C.C.B.b.b.b.v.b.v.v.n.v.>.1.<.8 : I.S.I.S.zXzXzXzXzXzX",
"zXzXzXzXI.W.S.I.M.p t <.>.>.#.R.C.Z.Z.Z.C.D.C.C.C.C.C.C.C.C.#.q c.T.C.C.B.V.B.v.k.b.v.v.n.n.k.v.n.) ,.<.( % #.S.S.S.~.zXzXzXzXzX",
"zXzXzXzXS.S.I.W.*.p 5 / >.1.! N.b.B.l.B.b.B.C.C.C.C.C.C.D.F.C.M.q s l.B.b.l.v.n.z.n.v.k.k.6.k.k.2.%.>.1.>.p y W.S.S.S.zXzXzXzXzX",
"zXzXzXzXH.S.I.I.a T x.0 t >.#.l.! ,   , #.b.b.b.b.l.B.B.A.B.B.b.l.#.@ H 2.k.k.k.k.k.k.2.k./ 6.k.2.%./ ,.>.$.; A.D.^.S.zXzXzXzXzX",
"zXzXzX4 f S.~.W.< $.$.4.K + , + s %.! w . + K ( ) ) $.6.k.n.k.k.n.k.l.s + J ) ~ ) <.2.2.2.$.| 2.2.3.a 1.$.,.y %.~.W.~.Q.zXzXzXzX",
"zXzXzX, * ' W.x.8 1.,.,.,.J q 5.l.P *.A.x.O O u l u z k P k.k.k.k.2.e.( & 1 z z u z x ,.2.<.n x.7.7.3 ,.,.,.~ j S.Q.W.S.zXzXzXzX",
"zXzXzXS.c.s  .&.T ,.,.,.,.a #.k.l.i x.n.Y n & z k z z z z P 6.2.6.6.~ x + e u l r u u M z.7.z H.4.%.% ,.>.,.,.y ^.C.W.W.zXzXzXzX",
"zXzXzXQ.S.W.C.J ( $.$.,.,.y J m.2.z x.k.A 4 . . o X . O 9 z x.2.6.2.i r . . . o + . > l A.7.z H.4.) $ ,.$.$.,.y Q.W.W.W.zXzXzXzX",
"zXzX^.W.Q.Q.~.H ,.,.,.$.,.t 0 x.2.x *.6.j , ~ ,.,.,.,.U O 2 x.2.2.4.r . 0 o $ ) ,./ e > M.$.z x.1.h $ ,.$.,.,.h W.W.W.W.Q.zXzXzX",
"zXzXQ.W.Q.W.W.U $.,.,.+.,.j : 5.6.f M z.#.E ( ,.$.,.( ,.( . S.4.4.7.* U +.,./ J ..$.$.L x.I z I.<.7 3 ,.,.,.+.~ M.Q.W.W.Q.zXzXzX",
"zXzXQ.W.W.W.W.$.$.( ( ,.+./ X n %.c z A.6.$.8.( +.( 8.( ,.K A.3.3.7.U $.+.+.+.+.@.( ,.I.3.f z :.h ; g ( +.@.+.( C.Q.W.Q.W.zXzXzX",
"zXzXQ.Q.Q.Q.Q.s.+.( $.+.+.+.o k z z Q A.3.7.4.$.( @.8.@.3.I.6.7.>.3.1.9.( @.+.+.( 3.I.z.1.~ u u k . / @.+.( 8.$.~.Q.Q.Q.Q.zXzXzX",
"zXzXm.W.Y.Q.Q.].( +.( +.+.+.j = ;.M.D.z.2.6.7.z.x.H.G.I.A.5.<.Y I 1.<.<.6.K.z.L.I.A.5.<.3.<.3.:.8 3 +.+.( +.( ;.~.Q.Q.Q.z.zXzXzX",
"zXzXe.k.W.Y.Q. X( ( ^ ( ( ( Y & A.3.6.6.z.6.w.4.<.<.4.<.<.4.<.z k 3.<.,.4.3.7.3.<.<.0.4.4.5.<.$.y d ( ( ( +.( g.Q.Q.C.k.2.zXzXzX",
"zXzX].2.2.A.Q..X( ( +.+.( ( U = ;.3.6.6.5.6.6.6.2.6.5.3.4.3.~ u i | 1.8.4.4.4.3.3.3.4.0.3.9.$.^ 4 y ( ( ( ^ ( |.Y.A.e.e.2.zXzXzX",
"zXzX|.e.z.2.x..X@.( ^ ( ( ( ~ . z Y 4.3.w.3.7.5.3.5.4.6.4.( u z z l Y ,.<.0.0.3.3.0.0.<.,.$...z 6 h ( ( ( ( ( ;Xl.e.2.6.G.zXzXzX",
"zXzX#Xk.6.k.k.2.<XX.( ^ ( ^ ^ o r r x Y ~ ,.<.3.4.3.3.0.<.f u t M z t 4.8.3.9.0.0.<.( ..Y c k u . ~ ( ^ ^ ^ @. X2.k.6.k.].zXzXzX",
"zXzXu.z.2.k.6.v.>XX.X.^ ( ^ ( h o k z ` :.l Y $.<.3.3.3.,.~ ' J.5.' -.L.( <.3.<.,.E x O.;.z z = 9 ^ ( ( ^ ^ f.K.v.2.k.k.<XzXzXzX",
"zXzXN ].v.v.k.k. X;.^ ^ ^ ^ ^ ( d X 1 n 3.Y z ..( 9.0.9.,.+.$.3.@.( 9.$.@.8.9.o...z L L.h 4 o 0 ^ ..^ ^ ^ ^ 0X2.k.v.l.n.$XzXzXzX",
"zXzXzX>Xn.v.v.n.z.eX^ X.X.X.X.X.^ Y 4 = 5.( x i <.( +.<.,.( ( ( ( ( ( ( ( ( ^ ( c k J.;.4 $ I X.^ X.X.^ ^ p.;Xl.v.k.z.[.zXzXzXzX",
"zXzXzX@Xz.v.v.n.n.5X;.X.^ ^ X.^ ^ ..E o O.$.D z ;.^ ( @.( ( ^ ( ( X.( ^ ^ ^ ^ W z M L.[ : t X.W ^ ^ ^ ^ X.wXm.n.v.v.k.,XzXzXzXzX",
"zXzXzXC ;X2.v.l.b.L.0X+.X.X.^ W X.X.W o i <.U k h @.9./ X.8.^ ( o.X.^ 8.X.E 9.D u :.8.B o Y X.X.{ @.^ W a.,Xn.v.v.n.x.$XzXzXzXzX",
"zXzXzXk 7Xl.b.v.v.b.,Xd.W W ^ { ^ { ^ e > b Y D u z ' [ ..;...{ 9.~ } :.R D x r M L.W r o W W ^ W W ^ ^ yXm.v.b.v.l.5XN zXzXzXzX",
"zXzXzXzXC 2Xv.b.v.n.m.sXO.} { ^ W [ ^ Y + 3 $...z _ z z l z c x x c z z k z h k q.8.A 1 t W X.W W W W eX XV.x.b.2.s.6XzXzXzXzXzX",
"zXzXzXzXu 7XH.b.b.b.b. XwX@.{ ^ W W W W + n 9.{ ' :.O.| q._  . ._ | M q.;.O.w.Y J.{ x . Y E W { W { *XrXb.m.k.Q f.rXn zXzXzXzXzX",
"zXzXzXzX9 N a.m.F.b.b.b.5X9XW W [ W [ W e 3 | X.{ 9.^ [ [ [ o.O...O.[ R [ ..[ 9.O.F 7 * W W W [ { a.sXL.m.%.q #X X$Xz zXzXzXzXzX",
"zXzXzXzXzXr e d b.b.b.b.b.rX9X[ E E E I 5 . t [ { E ] [ [ [ [ } W R { R ] ] R } F x # h E E W W d.dXL.l.a V >XL.aXx zXzXzXzXzXzX",
"zXzXzXzXzX9 z z %.b.b.b.b.m.rXwX[ [ t o & * 4 k D ] ] R ] E [ } R ] ] } ] } F F c l X } [ [ [ f.hX}.*.b $X}.b.rXr.r zXzXzXzXzXzX",
"zXzXzXzXzXzXk z i.A.B.B.B.V.A.uXaX' D [ [ D X z z f ] ] ] ] F ] ] ] ] F ] F G p z - t [ E } :XjX}.q.|.}.F.B.5X$Xk zXzXzXzXzXzXzX",
"zXzXzXzXzXzX4 z y.sXm.B.b.B.B.V.1XlX*X} [ [ e + l u z c c S S S S m c c c z z u * & R R t.aXiXU.B.B.B.b.B.2X7Xk 9 zXzXzXzXzXzXzX",
"zXzXzXzXzXzXzX7 z +XiXF.B.B.V.V.B.{.jXaXd.R ] l X e z z u k k k k r u k u z k # 4 } O.8XkX4XF.B.B.B.B.B.2XqXx n zXzXzXzXzXzXzXzX",
"zXzXzXzXzXzXzXzXr l %XsXU.B.V.V.V.V.F.4XkXaX&X} f O % 7 z k u r k k k r r 1 X t t.9XkXiX{.B.B.V.B.B.V.3XpXv r zXzXzXzXzXzXzXzXzX",
"zXzXzXzXzXzXzXzX2 r k +XdX{.V.V.V.B.V.Z.U.4XfXkXwX&XN * o o X o o X o O 6 Z :XgXkXiX{.V.V.V.V.B.V.F.tXqXz l 7 zXzXzXzXzXzXzXzXzX",
"zXzXzXzXzXzXzXzXzX2 z r y.gX1XA.V.V.V.V.V.V.F.OXiXjXkXjXaXyX0X9X9XwXaXhXkXkXdX3XU.Z.V.V.V.B.Z.V.U.jX-Xl z 7 zXzXzXzXzXzXzXzXzXzX",
"zXzXzXzXzXzXzXzXzXzX2 r z B qXsX.XV.V.Z.Z.Z.Z.V.Z.D.{.OX4XuXiXiXiXuXtX1X.XD.C.V.C.Z.V.Z.Z.F.D.4XhXu.z u 7 zXzXzXzXzXzXzXzXzXzXzX",
"zXzXzXzXzXzXzXzXzXzXzX2 k z z @XlXtX(.V.Z.Z.Z.Z.V.Z.Z.Z.Z.Z.Z.Z.Z.Z.Z.Z.Z.Z.Z.Z.Z.Z.Z.Z.D.2XjX7XN z z 4 zXzXzXzXzXzXzXzXzXzXzXzX",
"zXzXzXzXzXzXzXzXzXzXzXzX1 7 u z v -XkXtX.XZ.T.D.Z.Z.C.Z.Z.V.Z.Z.Z.Z.Z.Z.Z.Z.Z.Z.Z.l.7. XdXaXy.z z k 7 zXzXzXzXzXzXzXzXzXzXzXzXzX",
"zXzXzXzXzXzXzXzXzXzXzXzXzX1 4 k u z B =XlXfX3XU.D.T.Z.Z.Z.D.Z.D.Z.Z.Z.Z.Z.T.Z.A.h r k u C l u z 7 4 zXzXzXzXzXzXzXzXzXzXzXzXzXzX",
"zXzXzXzXzXzXzXzXzXzXzXzXzXzXzX2 7 r u z x u.qXkXjXiX3XOX(.^.^.D.D.^.(.OX1XtXdXZ k 3 p z r z k 4 zXzXzXzXzXzXzXzXzXzXzXzXzXzXzXzX",
"zXzXzXzXzXzXzXzXzXzXzXzXzXzXzXzX* 9 7 l z z z z r.$XqXgXhXkXkXkXkXkXkXgXyX-X+Xu k & _ z k 7 2 zXzXzXzXzXzXzXzXzXzXzXzXzXzXzXzXzX",
"zXzXzXzXzXzXzXzXzXzXzXzXzXzXzXzXzXzX1 4 7 k r z u u z z z v B B B N x z k u u u 9 X H 4 1 zXzXzXzXzXzXzXzXzXzXzXzXzXzXzXzXzXzXzX",
"zXzXzXzXzXzXzXzXzXzXzXzXzXzXzXzXzXzXzXzX* 1 O O > k u z z z u z z z z r k k k 9 1 . . zXzXzXzXzXzXzXzXzXzXzXzXzXzXzXzXzXzXzXzXzX",
"zXzXzXzXzXzXzXzXzXzXzXzXzXzXzXzXzXzXzXzXzXzX        1 4 7 7 7 7 7 9 7 9 4 2 2 * + zXzXzXzXzXzXzXzXzXzXzXzXzXzXzXzXzXzXzXzXzXzXzX",
"zXzXzXzXzXzXzXzXzXzXzXzXzXzXzXzXzXzXzXzXzXzXzXzXzXzX. # * 1 1 1 1 1 : = o zXzXzXzXzXzXzXzXzXzXzXzXzXzXzXzXzXzXzXzXzXzXzXzXzXzXzX",
"zXzXzXzXzXzXzXzXzXzXzXzXzXzXzXzXzXzXzXzXzXzXzXzXzXzXzXzXzXzXzXzXzXzXzXzXzXzXzXzXzXzXzXzXzXzXzXzXzXzXzXzXzXzXzXzXzXzXzXzXzXzXzXzX"
};
