/* XPM */
static char * Collectable_xpm[] = {
"64 64 423 2",
"  	c #8F9251",
". 	c #969A52",
"+ 	c #9EA35A",
"@ 	c #ADB262",
"# 	c #C3C980",
"$ 	c #8D8B52",
"% 	c #8B8551",
"& 	c #C5BB92",
"* 	c #B4AC7B",
"= 	c #C3BB8C",
"- 	c #C2BB85",
"; 	c #C1BC7D",
"> 	c #A59B67",
", 	c #A19E56",
"' 	c #999B3C",
") 	c #A19E4D",
"! 	c #A4AB44",
"~ 	c #A4AA4C",
"{ 	c #959B43",
"] 	c #A7A961",
"^ 	c #B7B182",
"/ 	c #BFB98A",
"( 	c #B5AC82",
"_ 	c #C7C192",
": 	c #BAAE83",
"< 	c #B2A67B",
"[ 	c #C1B68B",
"} 	c #C0B685",
"| 	c #C9BE9A",
"1 	c #A59B73",
"2 	c #D1C59C",
"3 	c #B1A66C",
"4 	c #B8AB76",
"5 	c #D5CAA4",
"6 	c #D9CEA5",
"7 	c #B3AC74",
"8 	c #A99E6C",
"9 	c #9D9668",
"0 	c #ACA474",
"a 	c #CAC38C",
"b 	c #ABA46C",
"c 	c #A39C64",
"d 	c #A4A35B",
"e 	c #918E45",
"f 	c #B2AD6C",
"g 	c #C8BD8E",
"h 	c #A99E72",
"i 	c #B5B373",
"j 	c #B6B871",
"k 	c #B3B36C",
"l 	c #AEAA73",
"m 	c #ADA37A",
"n 	c #D4CCA2",
"o 	c #A9A55E",
"p 	c #AAAD4D",
"q 	c #AEB16B",
"r 	c #BCB383",
"s 	c #AFAA7A",
"t 	c #B9AE7D",
"u 	c #A49C6B",
"v 	c #C9BD93",
"w 	c #C2B591",
"x 	c #B1A673",
"y 	c #9A945C",
"z 	c #918D4C",
"A 	c #9C9B54",
"B 	c #99954A",
"C 	c #ADAB6B",
"D 	c #9E9968",
"E 	c #959359",
"F 	c #9D9B5B",
"G 	c #938B5B",
"H 	c #CEC5A0",
"I 	c #D3CB9C",
"J 	c #CDC995",
"K 	c #A0955C",
"L 	c #B9B574",
"M 	c #AAAC5B",
"N 	c #ADB25C",
"O 	c #9DA14B",
"P 	c #A5A95B",
"Q 	c #FAF22D",
"R 	c #FBF322",
"S 	c #F8F51A",
"T 	c #FBF41B",
"U 	c #BEB48A",
"V 	c #CEC99B",
"W 	c #D6CB9B",
"X 	c #928D54",
"Y 	c #A9A464",
"Z 	c #A29D5D",
"` 	c #BEBA84",
" .	c #B1A581",
"..	c #CCC49A",
"+.	c #B5BA64",
"@.	c #A5AA54",
"#.	c #ABB14B",
"$.	c #BFB591",
"%.	c #999454",
"&.	c #B6B17B",
"*.	c #CBC393",
"=.	c #BAB37C",
"-.	c #918E3F",
";.	c #9A9C4B",
">.	c #B1AE64",
",.	c #C5C28B",
"'.	c #C4C284",
").	c #A5A26A",
"!.	c #898B35",
"~.	c #949736",
"{.	c #AAAC54",
"].	c #B3B363",
"^.	c #AFB172",
"/.	c #BEC369",
"(.	c #DBB614",
"_.	c #FBF416",
":.	c #F4E313",
"<.	c #DFC612",
"[.	c #CEA711",
"}.	c #BB8A11",
"|.	c #B4830B",
"1.	c #AD7406",
"2.	c #B3730B",
"3.	c #B99209",
"4.	c #D8B906",
"5.	c #EBD914",
"6.	c #A19565",
"7.	c #94944C",
"8.	c #A8A753",
"9.	c #ADB254",
"0.	c #A5A264",
"a.	c #934A03",
"b.	c #E6C717",
"c.	c #B98808",
"d.	c #995704",
"e.	c #934704",
"f.	c #8B4C06",
"g.	c #954D06",
"h.	c #AB6B0B",
"i.	c #F4E51A",
"j.	c #9C9463",
"k.	c #B2B45C",
"l.	c #9DA343",
"m.	c #9EA252",
"n.	c #C69708",
"o.	c #F8E81A",
"p.	c #CAA809",
"q.	c #9A5305",
"r.	c #C28606",
"s.	c #EDD905",
"t.	c #F7EC03",
"u.	c #FBF203",
"v.	c #F6DB05",
"w.	c #DEC606",
"x.	c #A76806",
"y.	c #B47A0A",
"z.	c #9E9A63",
"A.	c #C1BB79",
"B.	c #ACAB64",
"C.	c #B6B96B",
"D.	c #FDEB01",
"E.	c #F6E20B",
"F.	c #A65C09",
"G.	c #A77707",
"H.	c #EDE219",
"I.	c #7E7D44",
"J.	c #979261",
"K.	c #9A6408",
"L.	c #FBE403",
"M.	c #CEB408",
"N.	c #959352",
"O.	c #7C7C3C",
"P.	c #D5D29A",
"Q.	c #868948",
"R.	c #D6D1A3",
"S.	c #B57A06",
"T.	c #F9DB04",
"U.	c #9C590B",
"V.	c #C9C483",
"W.	c #8D8B4A",
"X.	c #D7A809",
"Y.	c #F4DB11",
"Z.	c #E9B40C",
"`.	c #E5C609",
" +	c #F5D304",
".+	c #D29A07",
"++	c #F4DC0D",
"@+	c #F4D40C",
"#+	c #CA9B0B",
"$+	c #BC7C0A",
"%+	c #E4AD07",
"&+	c #F9D504",
"*+	c #DD9B0D",
"=+	c #F9DB0A",
"-+	c #847D43",
";+	c #746E39",
">+	c #8B854C",
",+	c #E5BB0B",
"'+	c #E6B30C",
")+	c #F1C509",
"!+	c #ECBD06",
"~+	c #955B0A",
"{+	c #E7AA0A",
"]+	c #F5E305",
"^+	c #9C7405",
"/+	c #F3CC04",
"(+	c #E7B406",
"_+	c #DEA20C",
":+	c #DCB30D",
"<+	c #BEC479",
"[+	c #855506",
"}+	c #B56908",
"|+	c #E4AC0B",
"1+	c #EDD409",
"2+	c #EDCB06",
"3+	c #977106",
"4+	c #D49909",
"5+	c #7B7C34",
"6+	c #7E8138",
"7+	c #8E9249",
"8+	c #7A5006",
"9+	c #F9E30C",
"0+	c #7D7545",
"a+	c #92875C",
"b+	c #8D9244",
"c+	c #E3AC12",
"d+	c #F9D409",
"e+	c #F1C505",
"f+	c #A09670",
"g+	c #BAAE89",
"h+	c #A99E79",
"i+	c #EEC305",
"j+	c #E2A30C",
"k+	c #8D923C",
"l+	c #EDC20A",
"m+	c #EBBC0A",
"n+	c #BCC373",
"o+	c #ECCA11",
"p+	c #ECCB0C",
"q+	c #6C3804",
"r+	c #FAE314",
"s+	c #988D5D",
"t+	c #857B4A",
"u+	c #BB740D",
"v+	c #794505",
"w+	c #743D04",
"x+	c #D4930D",
"y+	c #CB9314",
"z+	c #988D62",
"A+	c #8C4B09",
"B+	c #CA8A16",
"C+	c #C3830B",
"D+	c #7C4209",
"E+	c #B1650E",
"F+	c #AE6911",
"G+	c #B26512",
"H+	c #AE6311",
"I+	c #F0BD0B",
"J+	c #844B09",
"K+	c #93520B",
"L+	c #B36B12",
"M+	c #B37212",
"N+	c #837F50",
"O+	c #C79114",
"P+	c #B26C0D",
"Q+	c #CD8B0D",
"R+	c #A3630B",
"S+	c #AD640E",
"T+	c #BB7B11",
"U+	c #F2CB0A",
"V+	c #C27C0C",
"W+	c #7B4205",
"X+	c #783D05",
"Y+	c #A35C11",
"Z+	c #8E520A",
"`+	c #844C05",
" @	c #C58B0C",
".@	c #9A560C",
"+@	c #E09E0E",
"@@	c #D58B0E",
"#@	c #D69312",
"$@	c #CA850D",
"%@	c #A35C0D",
"&@	c #BD6E12",
"*@	c #E1A511",
"=@	c #E19E11",
"-@	c #E7BD25",
";@	c #EEC926",
">@	c #854509",
",@	c #DBA715",
"'@	c #EEC512",
")@	c #F0C311",
"!@	c #F2CD13",
"~@	c #949B33",
"{@	c #F4D637",
"]@	c #DA940E",
"^@	c #E8B914",
"/@	c #E4B212",
"(@	c #E6AC26",
"_@	c #FAE425",
":@	c #E9C538",
"<@	c #C5C27D",
"[@	c #8F5210",
"}@	c #F4DB46",
"|@	c #A6A073",
"1@	c #DBB74B",
"2@	c #EEC94B",
"3@	c #DA9211",
"4@	c #CA963B",
"5@	c #EED459",
"6@	c #C48A12",
"7@	c #D49719",
"8@	c #E3B63B",
"9@	c #C7BC98",
"0@	c #B5711C",
"a@	c #DC9C12",
"b@	c #F1DC6B",
"c@	c #D8B457",
"d@	c #D1CA94",
"e@	c #ECCF6C",
"f@	c #DEA323",
"g@	c #F1CA25",
"h@	c #D4A547",
"i@	c #F8E458",
"j@	c #C47C12",
"k@	c #D98E0F",
"l@	c #D58A12",
"m@	c #F3DC73",
"n@	c #F4DC57",
"o@	c #BE7C28",
"p@	c #B9721C",
"q@	c #D88B12",
"r@	c #DCAA33",
"s@	c #E6CB6B",
"t@	c #E3A936",
"u@	c #A87416",
"v@	c #D98513",
"w@	c #D4860E",
"x@	c #F8E876",
"y@	c #BABC5B",
"z@	c #F8E646",
"A@	c #FBF483",
"B@	c #C38511",
"C@	c #E4BB15",
"D@	c #DEC164",
"E@	c #929444",
"F@	c #BCBB74",
"G@	c #878B29",
"H@	c #B3B653",
"I@	c #E6BB46",
"J@	c #F8EC6C",
"K@	c #A3A453",
"L@	c #A2A63B",
"M@	c #F1D56C",
"N@	c #C77813",
"O@	c #8C932B",
"P@	c #9BA334",
"Q@	c #AAAE43",
"R@	c #B1B845",
"S@	c #D38312",
"T@	c #824506",
"U@	c #FAF68B",
"V@	c #9B712C",
"W@	c #F5E984",
"X@	c #868B3C",
"Y@	c #8A8C3C",
"Z@	c #91933D",
"`@	c #FAF693",
" #	c #F6D928",
".#	c #C2852E",
"+#	c #8B8C44",
"@#	c #95994A",
"##	c #9A9C44",
"$#	c #CD962D",
"%#	c #FCF374",
"&#	c #C87713",
"*#	c #E8C75E",
"=#	c #FCFA95",
"-#	c #CCC98B",
";#	c #807F3C",
">#	c #C28732",
",#	c #FBEB4E",
"'#	c #F8F595",
")#	c #C5730F",
"!#	c #BB7312",
"~#	c #DC9C2A",
"{#	c #FCF57C",
"]#	c #F8D714",
"^#	c #B9B66E",
"/#	c #858249",
"(#	c #CB9A42",
"_#	c #FADD22",
":#	c #EED46A",
"<#	c #FCFA99",
"[#	c #FAEC5B",
"}#	c #EAD87A",
"|#	c #BDBA7B",
"1#	c #858342",
"2#	c #CEA34D",
"3#	c #E3AF44",
"4#	c #FBEC53",
"5#	c #EDDC81",
"6#	c #B46D1A",
"7#	c #FBFA8B",
"8#	c #A6782B",
"9#	c #F7F08D",
"0#	c #FCF269",
"a#	c #FBE739",
"b#	c #E0B963",
"c#	c #8C8858",
"d#	c #DFBF62",
"e#	c #878A40",
"f#	c #7D8034",
"g#	c #CAC982",
"h#	c #949B3C",
"i#	c #9CA23C",
"j#	c #899031",
"k#	c #88873D",
"l#	c #A2A44B",
"m#	c #B0AE59",
"n#	c #A1A543",
"o#	c #B5B94B",
"p#	c #C5C85A",
"  . + @ # $ % & * = - ; > , ' ) ! ~ { . ] ^ / ^ ^ ( / _ = : < [ } [ | [ 1 2 3 4 4 } [ 5 6 5 [ 7 4 8 9 0 a b c d , , e f b 4 g h ",
"i j k j l 9 m n a 0 - 4 4 o ) p ~ { { .   + q ^ 9 ^ r s } t u 0 [ & [ v [ } } h < r w | | 5 [ } < < r } a x y z A B o C t x v h ",
"D y E F G r H I J - b K c i L M N O ~ N . P P q F b Q R S R T T S T T S Q 4 } > 0 : U V W 6 } < 0 1 g = = } b X Y Z i ; } } : 1 ",
"` $ $ ^  .& ..v c , Z o y 7 3 f +.@.~ ~ #.N R T R R R R R T R T R T R R T T R T T $.U _ W 6 2 4 < < [ = = = t %.c X 3 i a g [ 1 ",
"&.E c *.v $.U =.e -.;.@.>.7 ,.'.@ N ~ ! R T T T T T T S R T S S R T S T T R T T T T R J W g W } 1 < } w | W ..< y E ).* - = U u ",
"i l g g & / 0 z !.' ~.{.].C '.^.N /.(._.S T T S T _.:.<.[.}.|.1.2.}.3.4.5.S T _.S T T T T } W } < } } v W | | } 6.s 0 ,.* = * u ",
"&.b } v _ [ 0 7.8.8.9.9.{ ] 0.,.a.(.R T T T S b.c.d.e.a.f.a.a.g.g.a.f.e.f.a.h.[.i.T T T T T T [ < < } w | 5 | g D 0 s ^ r * 0 j.",
"=.4 } g = v - f ) k./.l.m.j ^.n.o.T S T o.p.q.a.a.f.d.r.4.s.t.u.t.t.v.w.n.x.a.a.a.y.5.T T T T _.} < [ w v 6 v t 1 m s r * &.z.% ",
"< A.( [ U = = &.3 B.C.@ q T T _.T S _.p.q.e.a.g.3.v.u.u.D.D.D.D.D.D.D.D.D.u.E.p.F.e.e.G.H._._._.T _.} w v W [ 0 0 m 0 ` / 7 z.I.",
"w w [ ( ( * * J.r ,.^.. _.T _._._.5.K.e.a.a.n.t.u.D.L.D.D.D.D.u.D.D.D.D.D.D.D.t.L.M.q.a.a.p.S T _._.T g *.2 [ 8 j./ * - a b N.O.",
"} w [ ( * 7 =.c 0 ` P._.T _._.S [.g.a.a.d.s.u.L.D.D.D.D.D.u.D.D.u.D.D.D.D.D.D.D.D.L.v.1.a.a.G.o.T _._.T J v =.h u 0 ^ 7 - - F Q.",
"} g g t b b 0.F ` R.T _._._.T 3.a.a.e.S.t.u.D.D.D.D.D.u.D.D.D.D.D.D.D.D.D.D.D.D.D.D.L.T.r.a.e.U.:._._.T _.- &.0 u 7 - } V.a C W.",
"} g g ; Y B.A Z ^ S _.S _.S |.a.e.q.X.u.D.D.D.D.D.D.D.D.D.D.D.D.D.D.D.L.D.L.D.L.D.L.t.T.v.c.e.a.q.5.T _._.S t x x t 4 > l a F Z ",
"} } W g &.+ F C Y.Y.Y._._.3.e.a.x.Z.D.D.L.D.D.D.D.D.D.D.D.L.D.L.D.L.L.D.L.D.L.L.L.L.`. +T.T..+a.e.q.:._.:.++++3 0 =.t > =.z f z ",
"& 2 6 5 &.  . ] ++@+++Y.#+e.a.$+%+L.D.L.D.D.D.L.D.D.D.L.D.D.L.L.L.L.L.L.L.L.L.L.v.M.s.v.&+ +&+*+g.e.K.@+Y.=+++b x t } =.-+;+>+N.",
"/ 2 [ 6 J C 0 Y.Y.++Y.,+a.e.c.'+)+u.T.D.L.L.D.L.L.L.D.L.L.L.L.L.L.L.L.L.L.L.L. +3.4.v. + + +&+!+X.q.a.S.++Y.Y.Y.=.r =.} > y X Z ",
"` &.).J P.).3.<.:.++++~+e.S.'+{+t.L.L.L.L.L.L.L.L.L.L.L.L.L.L.L.L.L.]+L.]+v.s.^+M.L. + +/+ + +/+(+_+g.e.:+Y.++++Y.* U * &.7 3 Y ",
"+ ] ^.<+#   :.3.[+p.n.e.}+|+|+!+D.T.L.L.L.L.L.L.L.T.1+]+]+T.T.]+T.]+T.]+T.2+3+w.v.&+/+/+/+/+/+/+!+{+4+a.U.v.Y.++Y.0 u 1 t t < y ",
"5+6+7+Q.Q.E.Y.E.b.8+f.q.{+%+|+@+L.L.L.]+L.T.L.T.T.L.9+4.4.]+v.T.v.=+v.v.1+3.Y.v.v./+/+/+/+/+/+2+)+|+|+r.a.n.++=+++Y.0+a+ .( m 1 ",
"b+O m.O 7+Y.++Y.:.3.e.*+%+c+|+t.d+L.=+L.L.]+L.T.L.T.=+v.s.c.w.v.v.v.v.v.2+v.v. +/+/+/+e+/+e+e+)+e+%+{+|+F.g.Y.++Y.++1 v U f+g+h+",
"6+7+m.m.Y.E.++Y.1+}+h.|+%+%+p.t.v.T.T.T.v.=+v.v.v.v.v.v.v.v.p.^+`.L.v.v. +&+ +e+i+/+e+e+)+)+i+e+)+.+j+|+*+f.p.++++++:.} h < r a+",
"@.b+N k+++++Y.E.:+}+d.4+%+{+n.s./+ +2+ +/+ +v.v.v.v.v.v.=+d+v.1+^+G.2+ +/+2+e+)+l+)+e+i+i+m+i+i+!+X.%+{+%+}+x.E.++++++&.7 _ > G ",
"<+n+7+b+o+++Y.Y.1.r.p+K.h.%+p.2+n.[+q+[+p./+/+/+/+2+ + +@+ + +/+2+p.8+|.!+i+i+i+i+i+i+!+i+4+m+i+!+X.4+j+%+_+a.@+=+r+++3 } } s+t+",
"# <+P U.u+++:.E.q._+_+Z.3.v+[+v+G.X.n.3+w+v+3.*+.+.+_+m+i+)+i+i+)+i+2+G.v+c..+x+.+|+!+!+!+_+y+!+!+'+1.{+_+j+x.X.:.E.:.9+t g+z+t+",
"+ + . [+A+B+E.p+F.{+j+j+j+c.^+,+2+C+:+@+p+D+D+E+F+E+G+H+C+i+i+i+i+!+I+*+J+K+G+G+E+G+L+j+!+|+M+p+(+(+~+j+j+j+x+S.++9+E.++; > z+N+",
"  . P ++`.G.O+M.r.j+j+j+j+1.p.i+2+P+p+)+Q+M+J+G+H+G+G+G+G+C+m+!+m+m+x+L+v+R+E+F+S+E+E+T+l+(+G+o+Z.X.f.j+%+j+j+x.r+v.E.E.< 8 6.6.",
"  m.7+9+++E.v.c.*+_+_+j+j+x.c.U+!+G+p+i+V+U.w+w+W+X+w+D+Y+G+p+!+m+!+P+S+w+w+w+W+v+w+Z+F+@+(+G+o+Z..+`+j+_+_+j+x.9+E.E.E.x h 8 6.",
"Q.6+r+E.9+9+:.|.j+j+j+_+j+h.K.p+!+L+:+m+S.[+x+j+j+j+j+ @D+.@p+!+!+Z.S+w+K.W+`+.+j+4+R+Z+1+_+G+p+{+$+`+j+_+j+j+$+E.E.E.E.9+> 8 > ",
"j . 9+E.9+E.E. @_+j+j++@j+S.g.,+m+u+T+l+p.@@*+j+_+j+*+j+*+w+++Z.Z.(+A+ @+@j+4+c.#@_+_+}.p+$@G+Y.|+%@~+j+j+j++@x+1+9+E.E.9+y b i ",
"` ` 9+E.E.E.E._+_+*+*+j++@4+X+M+X.&@G+@+m+_+*@*++@*+*@*+j+3.@+'+'+(+ @_++@+@+@+@=@*+j+Y.'+u+G+(.$+a.y.*++@=@+@*+v.9+E.9+E.0.0.0.",
"s+D 9+9+9+9+9+-@+@*+_++@+@+@W+H+G+G+#+@+'+(+Z._+*+=@*@=@'+Y.m+(+%+'+{+c+*+=@+@+@*+'+Y.l+{+x+E+E+H+w+4+=@+@*+*@_+:.9+9+9+9+@.{ l.",
"9 G U+E.]+9+9+;@*++@*++@+@+@S.>@,@1+=+l+!+m+(+l+p+o+'@Y.@+,+|+Q+$@{+|+|+m+)@l+!@Y.@+,+|+'+|+'+(.F.~++@+@*++@*+,@:.9+9+9+l+m.~@! ",
"s+( I+i+E.]+9+{@*+*+]@*+*+*+Q+J+@+'+m+m+l+m+^@Z.|+|+Z.|+|+Z.|+G+H+'+|+j+Z.'+(+'+|+|+/@Z.Z.,+|+_+x.2.*+*+*++@*+(@9+9+v.i+!+/.{.#.",
"0 * ;@!+!+@+9+_@*+*++@+@*+*+ @>@,@'+m+m+,+m+m+m+!+m+,+'+Z.'+x+E+P+y+{+*@Z.Z.Z.'+'+'+Z./@'+c+_+]@U.x.*+*+*+]@*+:@]+@+I+I+!+<@) ) ",
"y y :@I+l+!+p+_@=@*+]@*+*+*+x+w+G+Q+Z.'+^@'+(+,+'+,+Z.m+Z.*+E+G+G+F+Q+j+|+/@/@'+'+/@/@|+j+_+#@G+[@$+*+*+*+*+*+}@2+I+!+m+'@} %.K ",
"|@x 1@i+m+i+i+!+2@3@*+]@*+]@]@W+S+S+L+Q+x+j+|+'+Z.'+'+/@|+u+E+h.T+G+h.Z.*@'+c+/@/@|+*+#@Q+&@H+E+w+x+*+]@]@]@=@{@!+i+m+i+;@& x 4 ",
": t 4@l+!+i+m+e+5@3@3@]@*+]@*+$+W+H+G+6@(.F+Q+_+|+'+'+'+j+x+B+b.,+B+[.!@*+|+'+|+j+@@L+7@,@G+G+>@Y+]@*+*+]@]@8@)@e+!+i+i+2@9@m  .",
": [ 0@;@e+e+i+i+{@,@]@]@]@]@]@*+2.X+K+M+'+Q+G+#@*+c+/@c+j++@_+'+=@*+c+_+=@*@c+a@#@G+}.!@$+U.W+K.]@#@]@]@]@]@b@!+i+e+2+)+c@w  .$.",
"v A.d@5@)+e+e+)+l+e@]@3@3@3@3@3@]@Q+U.>@,+*+L+P+|+*++@|+j+*+*+*+*+*+*+*+*+*+]@*+&@H+b.,@U.`+$@3@]@3@3@]@]@f@}@2+e+i+l+g@& m  .g+",
"g g - h@l+e+e+)+)+i@,@3@]@]@3@]@]@#@@@W+7@_+j@G+,@]@*+=@*+*+]@*+*+3@*+]@]@]@]@k@G+T+!@l@g.h.3@k@]@]@]@]@3@m@U+)+e+e+i+n@s ( $.$.",
"} 8 - o@}@!+e+2+/+!@b@+@3@3@]@k@3@3@k@W+P+|+ @H+$+=@c+4+3@*@]@*+a@3@]@*@3@@@c+j@E+(.*@p@W+Q+3@3@q@=@]@k@r@n@)+e+e+)+p+c@s _ | ( ",
"A.K k H+s@2+/+e+e+/+n@t@k@k@]@q@]@q@]@R+Z+u@Q+j@E+G+B+l@#@,@#@q@c+x+v@(.w@j@L+S+T+!@k@S+W+k@k@]@k@k@]@]@x@U+e+/+e+2+i@0@Q.l ..f+",
"K ) o y@o@z@e+/+e+)+U+A@7@v@q@]@k@l@]@Q+v+~+_+#@G+B@G+G+F+G+&@L+L+&@G+G+H+G+$+H+C@*@V+K+h.k@3@k@k@k@k@e@{@&+p+/+!+-@D@E@. F@i ).",
"-.G@' H@E+s@o+/+/+/+/+{@m@=@q@]@k@k@k@k@v+M+c+q@B+(.7@y+C@B@O+O+B@y+T+C@,@7@^@Q+b.q@L+w+Q+@@k@q@k@q@I@J@/+U+i+#+8@J@M+K@C.F@j ] ",
"~@G@L@L@Y+0@r@U+d+/+/+/+i@M@k@k@l@k@l@k@R+~+y+3@q@c+]@l@l@l@a@7@#@7@l@w@l@#@l@c+7@N@%@A+k@k@k@l@q@r@A@!@U+X.^+1@{@c@G+O @.9.P C.",
"O@O@P@Q@R@S+R+2./+/+/+/+/+J@M@l@@@@@@@$@d.w+h.l@q@@@S@l@l@l@l@v@k@w@q@w@S@S@w@v@N@L+T@$+@@@@k@k@t@U@!@2+1.V@5@!@W@L+m.@.l.X@@ q ",
"Y@Z@~.p ! Y+G+G+X./+/+/+/+U+J@m@l@l@h.W+J+A+U.H+j@S@S@w@S@@@l@v@w@S@S@v@S@v@N@N@&@F+X+v@l@l@l@8@`@ #:+u@c@ #/+J@.#S+n+n+{ 7+q q ",
"+#@#;.##l.! H+G+$#@+ + + +&+@+%#W@B+j@l@l@j@X+G+G+u+S@S@S@S@N@S@S@S@S@N@S@N@&#}+G+e.h.l@@@v@*#=# #C@:@ #d+ +i@c@H+<+-#+ 7+Q.+ ^ ",
"c N.;#e 7+m.U.G+>#A@U+ +/+ + +&+,#'#I@v@l@l@R+v+F+E+G+&@&@)#)#)#)#!#&@&@&@G+G+E+A+J+w@w@~#W@{#]# + + +/+ +z@s@H+Y+i ^#^#@#O./#s ",
"F Z %.d O + @ %@G+(#{#d+ + +&+&+ +_#=#W@t@w@S@F+X+R+G+G+E+H+H+H+H+S+E+H+E+G+H+T@U.v@7@:#<#[#d+ + + + + +z@}#L+M+'.|#C Y 1#/#% l ",
"r = r = ,.P.,.).S+F+2#A@]# +&+&+&+&+d+[#<#W@3#v@u+D+f.%@G+H+E+S+H+H+H+S+S+K+X+h.~#M@<#{#_# + +&+ + +&+4#5#6#S+t ,.- a 7 0 c D ).",
"g+V *.= ` J / ^..@S+H+(#U@_#&+&+&+ +&+T.]#[#7#<#m@3#0@A+W+W+X+W+W+X+W+D+[@8#*#9#<#{#_#&+&+&+&+ +&+d+0#}#G+F+%@u ^ r = =.* |@9 9 ",
"$./ / V R.R./ |@9 .@G+S+>#9#,#@+&+&+&+&+&+&+d+a#{#=#<#=#W@x@b@M@M@m@W@`@<#<#U@4#]#T.&+&+&+ +T.&+]#=#b#F+G+%@8 4 h+h+w w v x z+a+",
"U = / _ V V V V H ...@S+G+p@}#A@_@&+&+T.T.T.T.&+T.=+_#a#[#%#{#{#{#%#0#,#_@=+v.&+v.T.&+T.T.d+=+[#`@4@G+E+%@B b g < h+w [ 9@1 z+a+",
"0 r a a J P.V I R._ [ .@H+G+G+h@'#0#o.&+T.T.T.T.&+T.T.T.T.T.T.T.T.T.T.T.T.T.T.T.T.T.T.T.=+z@=#s@0@G+G+U.) ) 8 7 [  .g+9@w : 6.a+",
"* &./ ,.,.-#` J s s < 8 K+%@E+G+6#b#<#0#_@T.L.=+T.T.v.T.T.&+T.T.T.T.T.T.T.T.T.T.T.2+(+{@U@W@>#G+G+H+%@k.o f L - v [ g+h+[ } 8 K ",
" ./ ,.` #   7++ ).^.i c#7 K+U.H+E+G+p@d#'#7#4#]#=+L.T.T.T.=+T.=+T.T.T.T.T.L.T.@+$+S+H+E+o@F+E+G+%@U.P P K@m.@#+ =.*.= s * * u > ",
"^ E E ^.. e#  . + F@i l u ` * .@%@S+E+G+L+4@}#<#=#{#4#a#o.r+r+=+=+r+o.a#,#0#U@8#H+~+}+G+S+G+H+U.+ k P O ##{ O X@d i ^ J * 0 b 0 ",
"^.^.C.O 6+f#{ { @#].0.Y 6.( g+< A+Y+%@F+G+G+G+G+.#c@}#9#`@<#<#<#<#<#<#9#x@b#(#E+H+J+B@G+H+%@.@F@g#<+@ l.h#l.i#h#@.^#i |#- 0 * |@",
"  7+6+k+6+h#{ { @#. N./#0 [  .[ w  .K+U.%@H+S+G+E+E+G+G+G+6#p@p@p@0@L+G+H+E+E+E+Y+X+|.U.K+E@;.K@^#@ M ##h#i#j#j#b+@ q ` - ^ * |@",
"N +.O { k+h#{ N <+f y 8 x < $.w [ g+: < A+K+D+D+Z+H+E+G+G+G+E+G+G+G+G+S+H+H+H+Y+K+w+w+k#~.!.##, ].].K@l#O k+k+k+7+7+0.|#r ^ * |@",
"O + O k+@.{ { + k N.%.j.z+< g+[ [ } g A.y N.q+q+q+q+K+U.%@%@%@%@%@Y+%@Y+U..@.@A+v+>.o , ####-.Y@, f B.B X@X@e#e#+ E C ).r ^ ( 1 ",
"/.. e#m.7+m.@ <+C C $ -+8 8 3 } } x - Y d >.A F@+.k.w+T@A+K+K+K+K+K+g.>@W+Q@~@y@{.m#k >., { -.-.;#> =.X W.C z.Q.E &.0 D m U (  .",
"+ q P 7++ . + ] '.E X 6.K K 3 4 t t ; g#d d k +.].@.n#Z@-.B -+b 3 ; y@L@o#p#p#L@~.-.k A.B ##-.%.z > 3 t ^ ^ ^ ^ &.&.9 c#1 m $.f+"};
