/* XPM */
static char * door_open_xpm[] = {
"64 64 404 2",
"  	c #8F9251",
". 	c #969A52",
"+ 	c #9EA35A",
"@ 	c #ADB262",
"# 	c #C3C980",
"$ 	c #8D8B52",
"% 	c #8B8551",
"& 	c #C5BB92",
"* 	c #B4AC7B",
"= 	c #C3BB8C",
"- 	c #C2BB85",
"; 	c #C1BC7D",
"> 	c #A59B67",
", 	c #A19E56",
"' 	c #999B3C",
") 	c #A19E4D",
"! 	c #A4AB44",
"~ 	c #A4AA4C",
"{ 	c #959B43",
"] 	c #A7A961",
"^ 	c #B7B182",
"/ 	c #BFB98A",
"( 	c #B5AC82",
"_ 	c #C7C192",
": 	c #BAAE83",
"< 	c #B2A67B",
"[ 	c #C1B68B",
"} 	c #C0B685",
"| 	c #C9BE9A",
"1 	c #A59B73",
"2 	c #D1C59C",
"3 	c #B1A66C",
"4 	c #B8AB76",
"5 	c #D5CAA4",
"6 	c #D9CEA5",
"7 	c #B3AC74",
"8 	c #A99E6C",
"9 	c #9D9668",
"0 	c #ACA474",
"a 	c #CAC38C",
"b 	c #ABA46C",
"c 	c #A39C64",
"d 	c #A4A35B",
"e 	c #918E45",
"f 	c #B2AD6C",
"g 	c #C8BD8E",
"h 	c #A99E72",
"i 	c #B5B373",
"j 	c #B6B871",
"k 	c #B3B36C",
"l 	c #AEAA73",
"m 	c #ADA37A",
"n 	c #D4CCA2",
"o 	c #A9A55E",
"p 	c #AAAD4D",
"q 	c #AEB16B",
"r 	c #4E5250",
"s 	c #09211E",
"t 	c #0B1B1C",
"u 	c #091715",
"v 	c #0B2C2B",
"w 	c #0C0E0F",
"x 	c #5E2B10",
"y 	c #783614",
"z 	c #76330B",
"A 	c #722F10",
"B 	c #8B5032",
"C 	c #EEE3DB",
"D 	c #BCB383",
"E 	c #B1A673",
"F 	c #9A945C",
"G 	c #918D4C",
"H 	c #9C9B54",
"I 	c #99954A",
"J 	c #ADAB6B",
"K 	c #B9AE7D",
"L 	c #C9BD93",
"M 	c #9E9968",
"N 	c #959359",
"O 	c #9D9B5B",
"P 	c #938B5B",
"Q 	c #CEC5A0",
"R 	c #D3CB9C",
"S 	c #CDC995",
"T 	c #A0955C",
"U 	c #B9B574",
"V 	c #AAAC5B",
"W 	c #ADB25C",
"X 	c #9DA14B",
"Y 	c #DDE1DE",
"Z 	c #BEC5C7",
"` 	c #164F4F",
" .	c #042D2C",
"..	c #48C7C5",
"+.	c #5AF1F2",
"@.	c #5CEAEB",
"#.	c #59E7E8",
"$.	c #62E3E4",
"%.	c #6EB2B0",
"&.	c #D56D39",
"*.	c #F68B4B",
"=.	c #F89250",
"-.	c #F8B975",
";.	c #CB8B59",
">.	c #7D2C03",
",.	c #E5824C",
"'.	c #DB7443",
").	c #B56747",
"!.	c #C29987",
"~.	c #928D54",
"{.	c #A9A464",
"].	c #A29D5D",
"^.	c #BEBA84",
"/.	c #B1A581",
"(.	c #CCC49A",
"_.	c #C8CCC6",
":.	c #B1B7B6",
"<.	c #2D5455",
"[.	c #63C4C9",
"}.	c #64E0DE",
"|.	c #67D6D9",
"1.	c #59CED3",
"2.	c #5EB7C2",
"3.	c #5D9CA3",
"4.	c #6B95A2",
"5.	c #71959C",
"6.	c #777C73",
"7.	c #A24C23",
"8.	c #FCA15B",
"9.	c #CB7245",
"0.	c #9E562B",
"a.	c #E98246",
"b.	c #E37543",
"c.	c #B35B33",
"d.	c #732903",
"e.	c #86390C",
"f.	c #A75733",
"g.	c #E3C5BB",
"h.	c #999454",
"i.	c #B6B17B",
"j.	c #CBC393",
"k.	c #BFB591",
"l.	c #BEB48A",
"m.	c #BAB37C",
"n.	c #918E3F",
"o.	c #9A9C4B",
"p.	c #A5AA54",
"q.	c #B1AE64",
"r.	c #A6A8AA",
"s.	c #828282",
"t.	c #8C776B",
"u.	c #4A7173",
"v.	c #397072",
"w.	c #3A898A",
"x.	c #57DEE1",
"y.	c #6B999D",
"z.	c #6C959C",
"A.	c #4FABAF",
"B.	c #6AECEF",
"C.	c #58B7B9",
"D.	c #767D80",
"E.	c #79634C",
"F.	c #DB743C",
"G.	c #FE8446",
"H.	c #FB894A",
"I.	c #FDAF69",
"J.	c #CC743C",
"K.	c #C5653D",
"L.	c #732703",
"M.	c #CC6531",
"N.	c #D87648",
"O.	c #954924",
"P.	c #B18A59",
"Q.	c #C2B591",
"R.	c #D6CB9B",
"S.	c #A5A26A",
"T.	c #A49C6B",
"U.	c #898B35",
"V.	c #949736",
"W.	c #AAAC54",
"X.	c #57686A",
"Y.	c #4D8E8F",
"Z.	c #3EAAA9",
"`.	c #5DB6BA",
" +	c #62B5BA",
".+	c #59C0BE",
"++	c #66CED3",
"@+	c #679AA4",
"#+	c #7094A0",
"$+	c #1C3940",
"%+	c #503525",
"&+	c #822D03",
"*+	c #B06436",
"=+	c #F18951",
"-+	c #A1532D",
";+	c #7A2C09",
">+	c #BD6644",
",+	c #853611",
"'+	c #76492E",
")+	c #6B5E46",
"!+	c #A19565",
"~+	c #AFAA7A",
"{+	c #C5C28B",
"]+	c #94944C",
"^+	c #A8A753",
"/+	c #98A5A4",
"(+	c #63A6AC",
"_+	c #192829",
":+	c #161E22",
"<+	c #272929",
"[+	c #252A2B",
"}+	c #462B19",
"|+	c #FFCB7C",
"1+	c #9A400E",
"2+	c #E97D46",
"3+	c #CC642E",
"4+	c #EC824D",
"5+	c #62B6B9",
"6+	c #929FA0",
"7+	c #9C9463",
"8+	c #283434",
"9+	c #66E7E8",
"0+	c #5BA3A8",
"a+	c #486567",
"b+	c #272D32",
"c+	c #9C4A23",
"d+	c #F5854C",
"e+	c #B15631",
"f+	c #E67C45",
"g+	c #C36A42",
"h+	c #45423C",
"i+	c #9E9A63",
"j+	c #C1BB79",
"k+	c #66979C",
"l+	c #589A9B",
"m+	c #03080A",
"n+	c #2A2E31",
"o+	c #292C2D",
"p+	c #A94C1B",
"q+	c #FEC27B",
"r+	c #943A0A",
"s+	c #F98550",
"t+	c #E37F52",
"u+	c #C46A3D",
"v+	c #843B14",
"w+	c #5E3417",
"x+	c #728687",
"y+	c #67BEC4",
"z+	c #7E7D44",
"A+	c #151A1B",
"B+	c #7D330C",
"C+	c #BA5926",
"D+	c #FFC275",
"E+	c #B3623C",
"F+	c #8D3913",
"G+	c #9A3D0C",
"H+	c #F38652",
"I+	c #E87B48",
"J+	c #D47244",
"K+	c #8C421A",
"L+	c #959352",
"M+	c #7C7C3C",
"N+	c #58D5D8",
"O+	c #F48446",
"P+	c #B5704C",
"Q+	c #8B3E19",
"R+	c #A3491A",
"S+	c #6E8669",
"T+	c #868948",
"U+	c #70DFE6",
"V+	c #C9C483",
"W+	c #8D8B4A",
"X+	c #878888",
"Y+	c #4C9EA3",
"Z+	c #303230",
"`+	c #8B360D",
" @	c #83340C",
".@	c #873A16",
"+@	c #E4995C",
"@@	c #913E16",
"#@	c #9A4518",
"$@	c #B96239",
"%@	c #584635",
"&@	c #D7D8D8",
"*@	c #649BA3",
"=@	c #425161",
"-@	c #632503",
";@	c #DA965B",
">@	c #BB6A44",
",@	c #CC6D43",
"'@	c #A34619",
")@	c #682804",
"!@	c #5DE5E4",
"~@	c #729599",
"{@	c #643317",
"]@	c #BA6A4B",
"^@	c #0B0201",
"/@	c #FC854A",
"(@	c #EC7C3C",
"_@	c #D59557",
":@	c #D26E44",
"<@	c #B05D3B",
"[@	c #020505",
"}@	c #C6632C",
"|@	c #AC5426",
"1@	c #93431B",
"2@	c #0D2F32",
"3@	c #797B7B",
"4@	c #4F7D81",
"5@	c #CA6B3D",
"6@	c #EA8654",
"7@	c #5C2707",
"8@	c #0C312E",
"9@	c #757D7A",
"0@	c #56BCC2",
"a@	c #546B71",
"b@	c #BB9689",
"c@	c #B7775A",
"d@	c #C46947",
"e@	c #63DEE3",
"f@	c #CC8F68",
"g@	c #B88771",
"h@	c #59C5C8",
"i@	c #69716D",
"j@	c #0B3132",
"k@	c #A56446",
"l@	c #C97958",
"m@	c #64A49B",
"n@	c #5ABBC2",
"o@	c #A64E24",
"p@	c #B67864",
"q@	c #2D0B02",
"r@	c #C96836",
"s@	c #653925",
"t@	c #978259",
"u@	c #E79A60",
"v@	c #8E5E45",
"w@	c #8F694C",
"x@	c #AA511E",
"y@	c #193337",
"z@	c #100A0A",
"A@	c #DFE0E1",
"B@	c #E3DEDD",
"C@	c #E2DEE1",
"D@	c #E6BD97",
"E@	c #92875C",
"F@	c #CCC98B",
"G@	c #A99E79",
"H@	c #BAAE89",
"I@	c #EAD2C7",
"J@	c #8E9249",
"K@	c #AFB172",
"L@	c #8C8858",
"M@	c #A5A95B",
"N@	c #A3A453",
"O@	c #9EA252",
"P@	c #95994A",
"Q@	c #878A40",
"R@	c #BCBB74",
"S@	c #9A9C44",
"T@	c #868B3C",
"U@	c #B6B96B",
"V@	c #7E8138",
"W@	c #7D8034",
"X@	c #B3B363",
"Y@	c #A5A264",
"Z@	c #D5D29A",
"`@	c #CAC982",
" #	c #BEC479",
".#	c #9DA343",
"+#	c #949B3C",
"@#	c #9CA23C",
"##	c #B9B66E",
"$#	c #BDBA7B",
"%#	c #A6A073",
"&#	c #8D923C",
"*#	c #858249",
"=#	c #CEA593",
"-#	c #929444",
";#	c #899031",
">#	c #8D9244",
",#	c #B5BA64",
"'#	c #88873D",
")#	c #A2A44B",
"!#	c #988D62",
"~#	c #8A8C3C",
"{#	c #ACAB64",
"]#	c #BEC369",
"^#	c #847D43",
"/#	c #B2B45C",
"(#	c #B3B653",
"_#	c #E4BCA8",
":#	c #B5B94B",
"<#	c #BABC5B",
"[#	c #AAAE43",
"}#	c #949B33",
"|#	c #B0AE59",
"1#	c #807F3C",
"2#	c #C4C284",
"3#	c #A1A543",
"4#	c #91933D",
"5#	c #A2A63B",
"6#	c #C5C85A",
"7#	c #A09670",
"  . + @ # $ % & * = - ; > , ' ) ! ~ { . ] ^ / ^ ^ ( / _ = : < [ } [ | [ 1 2 3 4 4 } [ 5 6 5 [ 7 4 8 9 0 a b c d , , e f b 4 g h ",
"i j k j l 9 m n a 0 - 4 4 o ) p ~ { { .   + q ^ 9 ^ r s t t t t u v u w x y z y A A z A B C [ } < < D } a E F G H I o J K E L h ",
"M F N O P D Q R S - b T c i U V W X ~ W Y Z ` v v  ...+.@.@.@.#.@.$.%.y &.*.=.-.;.>.,.'.).A !.C 0 1 g = = } b ~.{.].i ; } } : 1 ",
"^.$ $ ^ /.& (.L c , ].o F 7 3 f _.Z :.<.` ` [.}.|.|.|.1.2.3.4.5.6.B 7.*.=.8.-.9.0.>.a.b.c.d.e.f.g.< [ = = = K h.c ~.3 i a g [ 1 ",
"i.N c j.L k.l.m.e n.o.p.q.r.s.t.u.v.w.x.@.2.3.4.y.y.z.A.B.C.D.E.f.F.G.H.I.-.*.J.0.>.a.F.K.L.M.N.O.P.:.Q.| R.(.< F N S.* - = l.T.",
"i l g g & / 0 G U.' V.W.X.Y.Z.Z.`. +C..+1.++@+#+4.5.r ` <.$+%+&+a.G.H.I.J.*+=+J.-+>.a.b.K.;+M.,.>+,+'+)+R.| | } !+~+0 {+* = * T.",
"i.b } L _ [ 0 ]+^+^+/+<.C.#.#.A.@+4.z.4.4.(+|.v._+:+<+<+[+<+}+&+a.G.=.|+0.1+=+J.7.>.2+b.K.L.3+4+>+,+)+5+<.6+| g M 0 ~+^ D * 0 7+",
"m.4 } g = L - f ) 8+v.++A.3. +9+0+4.z.z.a+u t _+[+[+b+[+<+%+c+2+G.G.=.|+0.1+d+'.e+>.a.f+K.L.3+4+g+,+x h+%.u.8+K 1 m ~+D * i.i+% ",
"< j+( [ l.= = r.v [.[.@+y.5.y.k+1.l+m+m+:+n+n+n+8+o+o+o+<+x p+H.G.G.=.q+0.r+s+b.e+>.b.b.K.L.3+t+u+v+d.w+x+y+1.v /+m 0 ^./ 7 i+z+",
"Q.Q.[ ( ( * <.` 9+C.(+5.y.4.z.D._+A+8+n+b+b+n+n+n+n+8+o+}+B+C+G.*.I.D+E+F+G+H+'.e+&+I+b.K.L.3+d+J+e.>.K+t.y.C.+.<.8+* - a b L+M+",
"} Q.[ ( * r.v.v.|.N+1. +#+u.<.A+[+n+n+n+n+n+n+n+n+n+o+}+d.F.G.G.O+I.-.P+Q+G+H+b.e+>.f+'.c.;+M.H+J+,+R+a.z S+++N+w.v./+7 - - O T+",
"} g g K :.m+..U+l+z.(+5+<.<+A+n+n+n+n+n+n+n+n+n+o+n+[+}+z F.G.G.O+I.-.).Q+G+H+'.e+>.f+F.c.L.M.s+J+e.R+O+B+)+5.5.N+[.m+:.V+a J W+",
"} g g X+a+Y+C.(+4.z.#+x+u A+n+Z+n+n+n+n+n+n+n+n+8+n+o+}+d.F.*.G.O+I.q+).K+r+H+b.e+>.2+'.*+L.3+2+J+`+R+4+ @E.5.4.%.5+Y+v.s.a O ].",
"} } R.X.` +.0+k+k+4.a+:+o+n+n+n+n+n+n+n+n+n+n+n+n+n+%+.@'.O+G.H.I.+@9.9.@@G+d+b.e+>.2+b.u+d.3+d+J+`+#@*.$@B %@#+k+A.9+` r G f G ",
"& &@<+Y.1.*@x.+.9+(+=@m+n+n+n+n+n+n+n+n+n+n+n+n+n+n+-@1+O+G.G.H.D+;@>@9.Q+G+d+,@-+>.f+I+K.L.3+d+J+`+R+d+u+O.'+$.+.|.A.++Y+_+&@L+",
"/ &@t Y+x.k+4.4.z.t :+8+n+n+n+n+n+n+n+n+n+n+n+n+n+n+x 1+d+G.G.O+D+;@g+N.K+G+H+,@-+>.f+b.,@L.3+2+J+`+'@d+J+c+)@x+k+k+0+|.Z.w &@].",
"^.&@t Y+!@k+z.5.~@A+w o+8+n+n+n+n+n+n+n+n+n+n+o+n+n+{@G+d+G.G.*.D+;@]@J+F+G+H+,@-+d.2+b.K.L.3+d+J+F+'@H.J+'@)@^@a+5.3.|.A.s &@{.",
"&@/+<.A.[.k+@+x+a+:+:+Z+n+n+n+n+n+n+n+n+n+n+n+n+n+n+x G+d+/@(@&._@P+-+f.v+G+d+:@f.>.,.'.<@L.3+4+,@F+'@d+:@c+-@^@a+5.y.[.A.` 6+&@",
"s. .!@#.N+N+1.l+[@[+n+n+n+n+n+n+n+n+n+n+n+n+n+n+n+n+x G+d+C+C+C+C+}@C+C+ @&+|@1@.@>.,.J+<@>.M.4+u+ @R+d+u+O.-@^@w.1.1.1.x.!@2@3@",
"s. .$...A.C.C.4@[@<+o+n+n+n+n+n+n+n+n+n+n+n+n+n+n+n+x G+H+r+p+2+&.:@,@J+J.J.5@J+|@L.r+`+,+L.M.6@g+v+R+4+u+O.7@^@v. +`.C.1.!@8@9@",
"s. .!@0@k+y.z.a@[@<+8+n+n+n+n+n+n+n+n+n+n+Z+n+n+n+n+x G+=+ @p+H+g+]@P+b@c@u+,@d@J+I+f+f+F.L.z B+B+d.#@d+u+1@)@^@a+z.z.z.C.!@8@6.",
"X+ .e@0@k+y.z.a@[@<+o+n+n+n+n+n+n+n+n+o+n+n+n+o+n+n+x G+d+O+}@&+&+;+y ]@).>+]@f@g@>@g+>+]@,.d+2+,.@@>.;+&+d.)@^@a+z.z.z.C.$.8@9@",
"s. .$.h@0+0+0+u.[@<+o+n+n+o+n+n+n+n+n+n+n+n+n+n+n+n+{@G+d+G.G.a.`+B+;+)@d.d.d.-+*+E+E+g@b@]@>@>@>@t+6@4+6@C+ @)@i@@+3.0+h@9+j@9@",
"s. .#.#.!@e@$.Y+m+<+o+n+n+n+n+n+n+n+n+n+n+n+n+n+n+o+x G+d+G.G.*.q+_@).,+z >.K+z d.L.L.1@*+<@<@k@!.c@>+>+]@l@N.d.m@#.#.#.@.@.j@9@",
"s. .$.n@z.z.4.X.[@<+o+o+n+n+n+o+n+n+n+n+n+n+n+n+n+n+x G+O+/@/@*.D+;@>@9.1@G+H+o@.@;+'@r+L.)@d.z -+-+0.0.g@p@).>.i@5.y.y.`.!@2@3@",
"s. .e@2.z.z.5.a@[@[+8+8+n+n+n+n+n+o+n+n+n+n+n+n+n+n+x 1+H.G.G.H.-.+@,@d@Q+G+H+:@-+>.2+M.c+d.7.e+L.L.L.d.K+O.K+q@X.5.5.5. +!@8@3@",
"D. .@.n@k+z.z.X.[@[+n+o+n+n+n+n+n+n+n+n+n+n+n+n+n+n+x G+*.G.G.*.D++@9.d@@@G+H+,@-+>.a.'.*+d.r@t+e+B+@@&. @L.7@^@a+z.z.5.5+!@8@3@",
"s. .#.+.9+@.!@0+[@[+n+n+n+n+n+n+n+n+n+n+o+n+n+n+n+8+x G+*.G.G.*.D++@9.]@Q+G+d+,@0.&+a.'.E+d.M.,.g+,+'@d+$@O.-@^@Y+!@!@!@+.@.8@3@",
"s.v e@0@3.3.*@a@[@[+b+b+b+n+n+n+Z+n+n+n+n+n+n+n+n+n+x G+d+/@G.*.q+;@k@%+s@@@s+:@-+&+I+b.K.;+M.,.>@,+'@d+,@c+-@^@v.3.3.3.C.!@j@9@",
"s. .$.C.k+z.4.a@[@[+n+n+n+n+n+n+n+n+n+n+8+o+n+n+n+n+x G+H./@G.*.q+t.r r.X.'+6@,@0.&+2+b.u+L.M.6@g+,+'@s+d@c+-@^@a+5.z.4.`.@.2@D.",
"s. .$.0@k+4.4.X.[@<+b+n+n+n+n+n+o+n+n+n+n+o+n+n+8+n+x G+H.G./@*.q+t@r r.X.'+u@,@-+>.2+b.u+d.M.,.K.,+'@d+N.7.-@^@a+5.4.z.`.!@2@3@",
"s. .#.N+[.[.[.Y.m+o+n+n+n+n+n+n+n+n+n+n+n+n+n+n+n+b+x G+d+/@/@H.q+P.)+6.)+B H+:@|@&+2+b.K.d.}@4+,@F+'@d+'.c+-@^@w.y+y+h@N+@.8@D.",
"s. .@.N+.+.+.+Y.[@<+o+n+n+n+n+n+n+n+n+n+n+n+n+n+n+b+x G+H.G.G.*.D+;@k@h+%+F+s+b.e+>.2+f+K.L.M.d+:@@@'@d+N.7.-@^@4@n@.+.+N+9+8@3@",
"x+ .$.C.y.~@~@a@[@<+8+n+n+o+n+n+n+n+n+n+n+n+n+o+n+8+x G+*.G.G.*.D++@).h+{@r+H+b.c.>.a.F.$@L.M.4+:@F+p+2+N.7.-@^@a+4.z.y.`.!@v 3@",
"s.v }.0@z.z.y.a@[@<+n+n+n+n+n+n+n+n+n+n+n+n+n+n+8+b+x G+*.G.G.*.D++@]@h+{@r+d+'.e+>.a.'.E+L.3+H+:@F+'@2+K.#@)@^@a+y.5.y.`.!@v 3@",
"s.v !@h@k+@+@+a@[@<+o+n+n+n+n+n+o+n+o+n+n+n+n+n+n+n+x 1+d+G.G.*.D++@P+h+{@r+H+b.c.>.2+F.E+;+}@a.:@`+o@s+u+c+-@^@a+@+@+y.C.$.8@3@",
"s.j@#.+.$.$.$.l+m+<+b+n+o+n+n+n+n+n+n+n+n+n+n+n+n+b+x G+d+G./@*.-._@k@r x r+d+b.e+&+I+b.K.d.M.4+g+`+7.2+'.o@-@^@Y.9+@.$.@.!@8@6.",
"t@j@x.0@k+k+@+a@[@b+n+n+n+n+n+n+n+n+n+n+n+n+n+n+b+8+x G+H.G.G.*.q+P.v@r %@K+H+b.e+;+I+b.K.d.3+6@g+,+'@/@'.o@-@^@v.4.z.z.5+!@j@3@",
"D. .x.n@z.z.4.a@[@[+b+n+n+n+n+n+n+o+n+n+n+n+n+n+n+8+x G+*.G.G.*.q+t@r r.X.'+6@N.e+&+2+b.5@;+M.,.g+`+'@/@:@7.-@^@a+z.y.y.`.!@8@6.",
"s.2@x.n@k+z.4.X.[@[+n+n+8+o+n+n+n+n+n+n+n+n+n+n+n+n+x 1+H.G.G.*.D+t@r r.i@'+6@,@-+&+2+b.g+L.M.4+:@F+'@2+:@o@-@^@a+z.y.y.5+!@8@3@",
"s. .@.@.U+9+U+k+m+[+8+n+n+n+n+n+n+n+n+n+n+n+n+n+n+n+x G+d+/@G.*.D+f@w@r %+K+*.J.-+&+2+'.>+d.3+d+J+F+'@d+9.#@7@^@Y+U+$.9+B.#.v 3@",
"s. .#.0@3.0+0+u.[@<+o+b+n+n+n+n+n+n+n+n+n+n+n+n+8+n+x G+d+G.G.*.D+_@>@d@K+G+=+J+-+&+4+N.E+d.M.,.d@F+R+d+9.#@)@^@a+*@*@*@0@!@j@9@",
"s. .e@0@z.z.z.a@[@[+o+o+n+n+n+n+n+n+n+o+n+o+n+Z+n+b+x G+H.G./@*.q+;@$@N.K+r+d+'.e+&+2+'.E+d.M.,.g+,+'@d+K.1@)@^@a+y.4.5. +!@j@3@",
"s. .e@n@4.z.5.a@[@[+8+n+n+o+n+n+n+n+n+n+n+n+n+n+b+8+x G+d+G./@*.D+u@J+9.K+r+d+b.e+>.a.'.E+d.M.,.c.,+#@F.G+e.e.)@E.x+~@z.5+!@j@3@",
"s. .x.N+5+5+ +u.[@<+o+n+o+n+n+n+n+o+n+n+n+n+n+n+8+b+x G+H.G.G.*.D++@,@g+F+r+d+'.e+>.f+5@7.d.C+u+#@#@R+#@N.f+N.1@ @%@%.`.1.!@8@3@",
"D. .#.N+[.[.y+l+[@<+8+n+n+n+Z+n+n+n+n+n+n+n+n+n+n+b+x G+d+G.G.*.D++@:@>@Q+G+=+|@.@d.|@|@C+C+C+C+N.N.N.N.g@p@]@>@K+%@%.y+N+!@8@3@",
"s. .e@n@z.4.#+X.[@b+n+n+n+n+n+n+n+n+n+n+n+n+n+n+n+b+x G+*.G.G.*.q+_@r@Q+;+&+1+}@J.5@&.5@9.9.:@l@f@p@]@]@p@f.v+v+E.6.5.z.`.#.j@9@",
"s.j@!@n@z.5.5.X.[@[+b+n+n+n+n+n+n+n+n+n+n+n+o+n+n+o+{@1+d+G.3+`+K+B+F+F.b.f+N.J+u+,@g+f@b@]@>@P+p@K+B+ @B+;+)@q@a+~@4.5.5+!@j@9@",
"s. .e@0@3.@+@+a@m+[+b+n+n+n+n+n+n+n+n+n+n+n+n+n+n+n+x G+=+r+p+O+4+4+,.P+>@g+]@g@g@>@>@]@).;+L.;+A )@L.d.L.L.-@^@a+@+4.*@`.$.2@3@",
"s. .!@+.9+B.B.3.m+[+b+n+n+n+n+n+n+n+n+n+n+n+n+n+n+n+x G+d+r+p+2+u+>@P+b@c@).]@).0.d.d.d.d.d.>.>.;+L.R+O+,@c+-@^@Y+B.B.B.+.#.v 6.",
"s. .!@`.4.4.@+a@m+<+b+n+n+n+n+n+n+n+n+n+n+n+n+n+n+n+x G+H+'@x@N.$@E+<@<@v+)@L.L.d.d. @ @B+L.M.6@u+F+R+/@N.o@-@^@a+#+4.4.2.@.j@3@",
"s. .!@0@z.z.z.X.[@<+n+n+n+n+n+n+n+n+n+n+n+n+n+n+Z+n+x G+d+G.&.R+d.L.d.d.L.&+o@#@v+>.2+f+K.d.3+d+J+F+'@d+:@c+-@^@a+~@z.y.`.@.j@9@",
"s. .$.`.y.~@z.a@[@[+o+Z+o+n+n+Z+n+n+n+Z+n+n+n+Z+n+n+7@G+d+/@G.d+J.*+7.c+,+G+H+:@f.&+I+I+d@L.M.4+J+F+R+d+u+1@)@^@X.~@5.z. +$.2@3@",
"&@/+` $+y@y@b+_+[@m+w w z@w w w w w w w w w w w w w 7@G+d+/@G.=.|+u@9.9.Q+G+H+'.c.d.a.'.$@d.M.4+J+F+'@H+9.1@-@^@:+_+_+y@y@` /+&@",
"0 D a A@Y B@&@B@B@Y [ C@L [ j+C@A@A@A@A@C@C@Y Y | C@v@'@H.G./@H.D@;@g+J+K+G+H+'.e+&+a.J+E+d.M.4+K.`+R+6@.@g@C B@A@C@A@A@A@Y !+E@",
"* i./ {+{+F@^.S ~+~+< 8 [ G@} /.[ [ * K K H@[ (.Q (.v@G+d+G./@G.D+;@$@J+@@G+d+b.e+&+a.J+<@d.M.6@u+.@A y I@f U - L [ H@G@[ } 8 T ",
"/./ {+^.#   J@+ S.K@i L@7 * = * Q.[ G@< } [ | | 5 (.v@1+H.G.G.H.|+;@>@N.K+r+d+N.f.&+I+'.<@d.K.9.y g.M@M@N@O@P@+ m.j.= ~+* * T.> ",
"^ N N K@. Q@  . + R@i l T.^.* l.[ Q.< /./.[ = 2 j.g v@1+d+G.G.G.D+;@>@9.1@G+H+J.f.>.2+5@f.B v@t.+ k M@X S@{ X T@d i ^ S * 0 b 0 ",
"K@K@U@X V@W@{ { P@X@Y@{.!+( H@< | Q.G@( < } L L Z@i.v@1+H./@G.d+D+_@>@d@.@G+H+,@f.L.}@]@g@p.R@R@`@ #@ .#+#.#@#+#p.##i $#- 0 * %#",
"  J@V@&#V@+#{ { P@. L+*#0 [ /.[ Q./.} > > L R.g {+d v@G+*.G.G.H.q+;@$@>@K+G+d+o@w@=#!.I@-#-#o.N@##@ V S@+#@#;#;#>#@ q ^.- ^ * %#",
"W ,#X { &#+#{ W  #f F 8 E < k.Q.[ H@: < i.Y@i `@k H k@1+/@G.G.*.D@;@]@d@.@B+Q+=#B@j+j+'#V.U.S@, X@X@N@)#X &#&#&#J@J@Y@$#D ^ * %#",
"X + X &#p.{ { + k L+h.7+!#< H@[ [ } g j+F L+$#d X@X@v@K+H+s+s+H+q+;@<@A =#C C ) , q.o , S@S@n.~#, f {#I T@T@Q@Q@+ N J S.D ^ ( 1 ",
"]#. Q@O@J@O@@  #J J $ ^#8 8 3 } } E - {.d q.H R@,#/#(#_#y B+B+B+ @y B :#<#[#}#<#W.|#k q., { n.n.1#> m.~.W+J i+T+N i.0 M m l.( /.",
"+ q M@J@+ . + ] 2#N ~.!+T T 3 4 K K ; `@d d k ,#X@p.3#4#n.I ^#b 3 ; <#5#:#6#6#5#V.n.k j+I S@n.h.G > 3 K ^ ^ ^ ^ i.i.9 L@1 m k.7#"};
