/* XPM */
static char *_919e28eaa2e4f5b8a035210b9e39dfew4ADzxolamppcw7x[] = {
/* columns rows colors chars-per-pixel */
"64 64 239 2 ",
"   c None",
".  c #020505",
"X  c #0B0201",
"o  c #0C0E0F",
"O  c #03080A",
"+  c #0B1B1C",
"@  c #091715",
"#  c #151A1B",
"$  c #100A0A",
"%  c #2D0B02",
"&  c #09211E",
"*  c #161E22",
"=  c #042D2C",
"-  c #0B2C2B",
";  c #192829",
":  c #0C312E",
">  c #0D2F32",
",  c #0B3132",
"<  c #193337",
"1  c #252A2B",
"2  c #292C2D",
"3  c #272929",
"4  c #2A2E31",
"5  c #272D32",
"6  c #283434",
"7  c #303230",
"8  c #5C2707",
"9  c #462B19",
"0  c #5E2B10",
"q  c #5E3417",
"w  c #632503",
"e  c #682804",
"r  c #732703",
"t  c #732903",
"y  c #7D2C03",
"u  c #7A2C09",
"i  c #7D330C",
"p  c #76330B",
"a  c #643317",
"s  c #783614",
"d  c #722F10",
"f  c #503525",
"g  c #653925",
"h  c #45423C",
"j  c #584635",
"k  c #76492E",
"l  c #1C3940",
"z  c #164F4F",
"x  c #2D5455",
"c  c #397072",
"v  c #4E5250",
"b  c #6B5E46",
"n  c #79634C",
"m  c #486567",
"M  c #57686A",
"N  c #546B71",
"B  c #4A7173",
"V  c #757D7A",
"C  c #797B7B",
"Z  c #777C73",
"A  c #69716D",
"S  c #425161",
"D  c #822D03",
"F  c #83340C",
"G  c #8B360D",
"H  c #86390C",
"J  c #9A3D0C",
"K  c #943A0A",
"L  c #853611",
"P  c #843B14",
"I  c #8D3913",
"U  c #8B3E19",
"Y  c #873A16",
"T  c #913E16",
"R  c #9A400E",
"E  c #8C421A",
"W  c #93431B",
"Q  c #9A4518",
"!  c #A34619",
"~  c #A3491A",
"^  c #A94C1B",
"/  c #AA511E",
"(  c #9C4A23",
")  c #954924",
"_  c #9E562B",
"`  c #8B5032",
"'  c #A24C23",
"]  c #A64E24",
"[  c #A1532D",
"{  c #AC5426",
"}  c #BA5926",
"|  c #A75733",
" . c #B15631",
".. c #B35B33",
"X. c #B05D3B",
"o. c #B3623C",
"O. c #B96239",
"+. c #B06436",
"@. c #CC642E",
"#. c #C6632C",
"$. c #CC6531",
"%. c #C5653D",
"&. c #C46A3D",
"*. c #CA6B3D",
"=. c #C96836",
"-. c #D56D39",
";. c #CC743C",
":. c #DB743C",
">. c #EC7C3C",
",. c #8E5E45",
"<. c #8F694C",
"1. c #A56446",
"2. c #BD6644",
"3. c #BB6A44",
"4. c #BA6A4B",
"5. c #B56747",
"6. c #B7775A",
"7. c #B5704C",
"8. c #B67864",
"9. c #8C776B",
"0. c #C36A42",
"q. c #CC6D43",
"w. c #C46947",
"e. c #D26E44",
"r. c #CB7245",
"t. c #D47244",
"y. c #DB7443",
"u. c #D87648",
"i. c #C97958",
"p. c #E37543",
"a. c #E67C45",
"s. c #E97D46",
"d. c #E87B48",
"f. c #E37F52",
"g. c #2C807E",
"h. c #6E8669",
"j. c #978259",
"k. c #B88771",
"l. c #B18A59",
"z. c #DA965B",
"x. c #D59557",
"c. c #CB8B59",
"v. c #E5824C",
"b. c #EC824D",
"n. c #E98246",
"m. c #FE8446",
"M. c #F5854C",
"N. c #FC854A",
"B. c #F68B4B",
"V. c #FB894A",
"C. c #F48446",
"Z. c #EA8654",
"A. c #F38652",
"S. c #F18951",
"D. c #F98550",
"F. c #E4995C",
"G. c #F89250",
"H. c #CC8F68",
"J. c #E79A60",
"K. c #F8B975",
"L. c #FDAF69",
"P. c #FCA15B",
"I. c #FFC275",
"U. c #FEC27B",
"Y. c #FFCB7C",
"T. c #2D7E81",
"R. c #4F7D81",
"E. c #767D80",
"W. c #3A898A",
"Q. c #3EAAA9",
"!. c #589A9B",
"~. c #4D8E8F",
"^. c #6C959C",
"/. c #6B999D",
"(. c #66979C",
"). c #71959C",
"_. c #729599",
"`. c #728687",
"'. c #5D9CA3",
"]. c #4C9EA3",
"[. c #6B95A2",
"{. c #649BA3",
"}. c #679AA4",
"|. c #7094A0",
" X c #5BA3A8",
".X c #5DB6BA",
"XX c #58B7B9",
"oX c #4FABAF",
"OX c #63A6AC",
"+X c #62B5BA",
"@X c #62B6B9",
"#X c #6EB2B0",
"$X c #64A49B",
"%X c #59C0BE",
"&X c #56BCC2",
"*X c #5ABBC2",
"=X c #5EB7C2",
"-X c #67BEC4",
";X c #59C5C8",
":X c #59CED3",
">X c #58D5D8",
",X c #48C7C5",
"<X c #63C4C9",
"1X c #67D6D9",
"2X c #66CED3",
"3X c #64E0DE",
"4X c #57DEE1",
"5X c #63DEE3",
"6X c #70DFE6",
"7X c #5DE5E4",
"8X c #5CEAEB",
"9X c #59E7E8",
"0X c #5AF1F2",
"qX c #62E3E4",
"wX c #66E7E8",
"eX c #6AECEF",
"rX c #828282",
"tX c #878888",
"yX c #949C9C",
"uX c #BB9689",
"iX c #98A5A4",
"pX c #A6A8AA",
"aX c #B1B7B6",
"sX c #929FA0",
"dX c #C29987",
"fX c #CEA593",
"gX c #E4BCA8",
"hX c #E6BD97",
"jX c #E3C5BB",
"kX c #BEC5C7",
"lX c #D7D8D8",
"zX c #C8CCC6",
"xX c #E3DEDD",
"cX c #EAD2C7",
"vX c #DDE1DE",
"bX c #EEE3DB",
"nX c #E2DEE1",
"mX c #DFE0E1",
"MX c #DFDFE3",
/* pixels */
"                                                                                                                                ",
"                                                    v & + + + + @ - @ o 0 s p s d d p d ` bX                                    ",
"                                        vXkXz - - = ,X0X8X8X8X9X8XqX#Xs -.B.G.K.c.y v.y.5.d dXbX                                ",
"                                zXkXaXx z z <X3X1X1X1X:X=X'.[.).Z ` ' B.G.P.K.r._ y n.p...t H | jX                              ",
"                          pXrX9.B c W.4X8X=X'.[././.^.oXeXXXE.n | :.m.V.L.K.B.;._ y n.:.%.r $.u.) l.aX                          ",
"                        M ~.Q.Q..X+XXX%X:X2X}.|.[.).v z x l f D n.m.V.L.;.+.S.;.[ y n.p.%.u $.v.2.L k b                         ",
"                    iXx XX9X9XoX}.[.^.[.[.OX1Xc ; * 3 3 1 3 9 D n.m.G.Y._ R S.;.' y s.p.%.r @.b.2.L b @Xx sX                    ",
"                  6 c 2XoX'.+XwX X[.^.^.m @ + ; 1 1 5 1 3 f ( s.m.m.G.Y._ R M.y. .y n.a.%.r @.b.0.L 0 h #XB 6                   ",
"              pX- <X<X}./.)./.(.:X!.O O * 4 4 4 6 2 2 2 3 0 ^ V.m.m.G.U._ K D.p. .y p.p.%.r @.f.&.P t q `.-X:X- iX              ",
"            x z wXXXOX)./.[.^.E.; # 6 4 5 5 4 4 4 4 6 2 9 i } m.B.L.I.o.I J A.y. .D d.p.%.r @.M.t.H y E 9./.XX0Xx 6             ",
"          pXc c 1X>X:X+X|.B x # 1 4 4 4 4 4 4 4 4 4 2 9 t :.m.m.C.L.K.7.U J A.p. .y a.y...u $.A.t.L ~ n.p h.2X>XW.c iX          ",
"        aXO ,X6X!.^.OX@Xx 3 # 4 4 4 4 4 4 4 4 4 2 4 1 9 p :.m.m.C.L.K.5.U J A.y. .y a.:...r $.D.t.H ~ C.i b ).).>X<XO aX        ",
"      tXm ].XXOX[.^.|.`.@ # 4 7 4 4 4 4 4 4 4 4 6 4 2 9 t :.B.m.C.L.U.5.E K A.p. .y s.y.+.r @.s.t.G ~ b.F n ).[.#X@X].c rX      ",
"      M z 0X X(.(.[.m * 2 4 4 4 4 4 4 4 4 4 4 4 4 4 f Y y.C.m.V.L.F.r.r.T J M.p. .y s.p.&.t @.M.t.G Q B.O.` j |.(.oXwXz v       ",
"  lX3 ~.:X{.4X0XwXOXS O 4 4 4 4 4 4 4 4 4 4 4 4 4 4 w R C.m.m.V.I.z.3.r.U J M.q.[ y a.d.%.r @.M.t.G ~ M.&.) k qX0X1XoX2X].; lX  ",
"  lX+ ].4X(.[.[.^.+ * 6 4 4 4 4 4 4 4 4 4 4 4 4 4 4 0 R M.m.m.C.I.z.0.u.E J A.q.[ y a.p.q.r @.s.t.G ! M.t.( e `.(.(. X1XQ.o lX  ",
"  lX+ ].7X(.^.)._.# o 2 6 4 4 4 4 4 4 4 4 4 4 2 4 4 a J M.m.m.B.I.z.4.t.I J A.q.[ t s.p.%.r @.M.t.I ! V.t.! e X m ).'.1XoX& lX  ",
"lXiXx oX<X(.}.`.m * * 7 4 4 4 4 4 4 4 4 4 4 4 4 4 4 0 J M.N.>.-.x.7.[ | P J M.e.| y v.y.X.r @.b.q.I ! M.e.( w X m )./.<XoXz sXlX",
"rX= 7X9X>X>X:X!.. 1 4 4 4 4 4 4 4 4 4 4 4 4 4 4 4 4 0 J M.} } } } #.} } F D { W Y y v.t.X.y $.b.&.F ~ M.&.) w X W.:X:X:X4X7X> C ",
"rX= qX,XoXXXXXR.. 3 2 4 4 4 4 4 4 4 4 4 4 4 4 4 4 4 0 J A.K ^ s.-.e.q.t.;.;.*.t.{ r K G L r $.Z.0.P ~ b.&.) 8 X c +X.XXX:X7X: V ",
"rX= 7X&X(./.^.N . 3 6 4 4 4 4 4 4 4 4 4 4 7 4 4 4 4 0 J S.F ^ A.0.4.7.uX6.&.q.w.t.d.a.a.:.r p i i t Q M.&.W e X m ^.^.^.XX7X: Z ",
"tX= 5X&X(./.^.N . 3 2 4 4 4 4 4 4 4 4 2 4 4 4 2 4 4 0 J M.C.#.D D u s 4.5.2.4.H.k.3.0.2.4.v.M.s.v.T y u D t e X m ^.^.^.XXqX: V ",
"rX= qX;X X X XB . 3 2 4 4 2 4 4 4 4 4 4 4 4 4 4 4 4 a J M.m.m.n.G i u e t t t [ +.o.o.k.uX4.3.3.3.f.Z.b.Z.} F e A }.'. X;XwX, V ",
"rX= 9X9X7X5XqX].O 3 2 4 4 4 4 4 4 4 4 4 4 4 4 4 4 2 0 J M.m.m.B.U.x.5.L p y E p t r r W +.X.X.1.dX6.2.2.4.i.u.t $X9X9X9X8X8X, V ",
"rX= qX*X^.^.[.M . 3 2 2 4 4 4 2 4 4 4 4 4 4 4 4 4 4 0 J C.N.N.B.I.z.3.r.W J A.] Y u ! K r e t p [ [ _ _ k.8.5.y A )././..X7X> C ",
"rX= 5X=X^.^.).N . 1 6 6 4 4 4 4 4 2 4 4 4 4 4 4 4 4 0 R V.m.m.V.K.F.q.w.U J A.e.[ y s.$.( t '  .r r r t E ) E % M ).).).+X7X: C ",
"E.= 8X*X(.^.^.M . 1 4 2 4 4 4 4 4 4 4 4 4 4 4 4 4 4 0 J B.m.m.B.I.F.r.w.T J A.q.[ y n.y.+.t =.f. .i T -.F r 8 X m ^.^.).@X7X: C ",
"rX= 9X0XwX8X7X X. 1 4 4 4 4 4 4 4 4 4 4 2 4 4 4 4 6 0 J B.m.m.B.I.F.r.4.U J M.q._ D n.y.o.t $.v.0.L ! M.O.) w X ].7X7X7X0X8X: C ",
"rX- 5X&X'.'.{.N . 1 5 5 5 4 4 4 7 4 4 4 4 4 4 4 4 4 0 J M.N.m.B.U.z.1.f g T D.e.[ D d.p.%.u $.v.3.L ! M.q.( w X c '.'.'.XX7X, V ",
"rX= qXXX(.^.[.N . 1 4 4 4 4 4 4 4 4 4 4 6 2 4 4 4 4 0 J V.N.m.B.U.9.v pXM k Z.q._ D s.p.&.r $.Z.0.L ! D.w.( w X m ).^.[..X8X> E.",
"rX= qX&X(.[.[.M . 3 5 4 4 4 4 4 2 4 4 4 4 2 4 4 6 4 0 J V.m.N.B.U.j.v pXM k J.q.[ y s.p.&.t $.v.%.L ! M.u.' w X m ).[.^..X7X> C ",
"rX= 9X>X<X<X<X~.O 2 4 4 4 4 4 4 4 4 4 4 4 4 4 4 4 5 0 J M.N.N.V.U.l.b Z b ` A.e.{ D s.p.%.t #.b.q.I ! M.y.( w X W.-X-X;X>X8X: E.",
"rX= 8X>X%X%X%X~.. 3 2 4 4 4 4 4 4 4 4 4 4 4 4 4 4 5 0 J V.m.m.B.I.z.1.h f I D.p. .y s.a.%.r $.M.e.T ! M.u.' w X R.*X%X%X>XwX: C ",
"`.= qXXX/._._.N . 3 6 4 4 2 4 4 4 4 4 4 4 4 4 2 4 6 0 J B.m.m.B.I.F.5.h a K A.p...y n.:.O.r $.b.e.I ^ s.u.' w X m [.^./..X7X- C ",
"rX- 3X&X^.^./.N . 3 4 4 4 4 4 4 4 4 4 4 4 4 4 4 6 5 0 J B.m.m.B.I.F.4.h a K M.y. .y n.y.o.r @.A.e.I ! s.%.Q e X m /.)./..X7X- C ",
"rX- 7X;X(.}.}.N . 3 2 4 4 4 4 4 2 4 2 4 4 4 4 4 4 4 0 R M.m.m.B.I.F.7.h a K A.p...y s.:.o.u #.n.e.G ] D.&.( w X m }.}./.XXqX: C ",
"rX, 9X0XqXqXqX!.O 3 5 4 2 4 4 4 4 4 4 4 4 4 4 4 4 5 0 J M.m.N.B.K.x.1.v 0 K M.p. .D d.p.%.t $.b.0.G ' s.y.] w X ~.wX8XqX8X7X: Z ",
"j., 4X&X(.(.}.N . 5 4 4 4 4 4 4 4 4 4 4 4 4 4 4 5 6 0 J V.m.m.B.U.l.,.v j E A.p. .u d.p.%.t @.Z.0.L ! N.y.] w X c [.^.^.@X7X, C ",
"E.= 4X*X^.^.[.N . 1 5 4 4 4 4 4 4 2 4 4 4 4 4 4 4 6 0 J B.m.m.B.U.j.v pXM k Z.u. .D s.p.*.u $.v.0.G ! N.e.' w X m ^././..X7X: Z ",
"rX> 4X*X(.^.[.M . 1 4 4 6 2 4 4 4 4 4 4 4 4 4 4 4 4 0 R V.m.m.B.I.j.v pXA k Z.q.[ D s.p.0.r $.b.e.I ! s.e.] w X m ^././.@X7X: C ",
"rX= 8X8X6XwX6X(.O 1 6 4 4 4 4 4 4 4 4 4 4 4 4 4 4 4 0 J M.N.m.B.I.H.<.v f E B.;.[ D s.y.2.t @.M.t.I ! M.r.Q 8 X ].6XqXwXeX9X- C ",
"rX= 9X&X'. X XB . 3 2 5 4 4 4 4 4 4 4 4 4 4 4 4 6 4 0 J M.m.m.B.I.x.3.w.E J S.t.[ D b.u.o.t $.v.w.I ~ M.r.Q e X m {.{.{.&X7X, V ",
"rX= 5X&X^.^.^.N . 1 2 2 4 4 4 4 4 4 4 2 4 2 4 7 4 5 0 J V.m.N.B.U.z.O.u.E K M.y. .D s.y.o.t $.v.0.L ! M.%.W e X m /.[.).+X7X, C ",
"rX= 5X*X[.^.).N . 1 6 4 4 2 4 4 4 4 4 4 4 4 4 4 5 6 0 J M.m.N.B.I.J.t.r.E K M.p. .y n.y.o.t $.v...L Q :.J H H e n `._.^.@X7X, C ",
"rX= 4X>X@X@X+XB . 3 2 4 2 4 4 4 4 2 4 4 4 4 4 4 6 5 0 J V.m.m.B.I.F.q.0.I K M.y. .y a.*.' t } &.Q Q ~ Q u.a.u.W F j #X.X:X7X: C ",
"E.= 9X>X<X<X-X!.. 3 6 4 4 4 7 4 4 4 4 4 4 4 4 4 4 5 0 J M.m.m.B.I.F.e.3.U J S.{ Y t { { } } } } u.u.u.u.k.8.4.3.E j #X-X>X7X: C ",
"rX= 5X*X^.[.|.M . 5 4 4 4 4 4 4 4 4 4 4 4 4 4 4 4 5 0 J B.m.m.B.U.x.=.U u D R #.;.*.-.*.r.r.e.i.H.8.4.4.8.| P P n Z ).^..X9X, V ",
"rX, 7X*X^.).).M . 1 5 4 4 4 4 4 4 4 4 4 4 4 2 4 4 2 a R M.m.@.G E i I :.p.a.u.t.&.q.0.H.uX4.3.7.8.E i F i u e % m _.[.).@X7X, V ",
"rX= 5X&X'.}.}.N O 1 5 4 4 4 4 4 4 4 4 4 4 4 4 4 4 4 0 J S.K ^ C.b.b.v.7.3.0.4.k.k.3.3.4.5.u r u d e r t r r w X m }.[.{..XqX> C ",
"rX= 7X0XwXeXeX'.O 1 5 4 4 4 4 4 4 4 4 4 4 4 4 4 4 4 0 J M.K ^ s.&.3.7.uX6.5.4.5._ t t t t t y y u r ~ C.q.( w X ].eXeXeX0X9X- Z ",
"rX= 7X.X[.[.}.N O 3 5 4 4 4 4 4 4 4 4 4 4 4 4 4 4 4 0 J A.! / u.O.o.X.X.P e r r t t F F i r $.Z.&.I ~ N.u.] w X m |.[.[.=X8X, C ",
"rX= 7X&X^.^.^.M . 3 4 4 4 4 4 4 4 4 4 4 4 4 4 4 7 4 0 J M.m.-.~ t r t t r D ] Q P y s.a.%.t @.M.t.I ! M.e.( w X m _.^./..X8X, V ",
"rX= qX.X/._.^.N . 1 2 7 2 4 4 7 4 4 4 7 4 4 4 7 4 4 8 J M.N.m.M.;.+.' ( L J A.e.| D d.d.w.r $.b.t.I ~ M.&.W e X M _.).^.+XqX> C ",
"lXiXz l < < 5 ; . O o o $ o o o o o o o o o o o o o 8 J M.N.m.G.Y.J.r.r.U J A.y...t n.y.O.t $.b.t.I ! A.r.W w X * ; ; < < z iXlX",
"      mXvXxXlXxXxXvX  nX      nXmXmXmXmXnXnXvXvX  nX,.! V.m.N.V.hXz.0.t.E J A.y. .D n.t.o.t $.b.%.G ~ Z.Y k.bXxXmXnXmXmXmXvX    ",
"                                                    ,.J M.m.N.m.I.z.O.t.T J M.p. .D n.t.X.t $.Z.&.Y d s cX                      ",
"                                                    ,.R V.m.m.V.Y.z.3.u.E K M.u.| D d.y.X.t %.r.s jX                            ",
"                                                    ,.R M.m.m.m.I.z.3.r.W J A.;.| y s.*.| ` ,.9.                                ",
"                                                    ,.R V.N.m.M.I.x.3.w.Y J A.q.| r #.4.k.                                      ",
"                                                    ,.J B.m.m.V.U.z.O.3.E J M.] <.fXdXcX                                        ",
"                                                    1.R N.m.m.B.hXz.4.w.Y i U fXxX                                              ",
"                                                    ,.E A.D.D.A.U.z.X.d fXbXbX                                                  ",
"                                                      gXs i i i F s `                                                           ",
"                                                                                                                                "
};
