/* XPM */
static char *a19676c1097b41b9e8f67cfc7a6e24d97fcNnChvfo8m15LW[] = {
/* columns rows colors chars-per-pixel */
"64 64 233 2 ",
"   c None",
".  c #060401",
"X  c #0A0200",
"o  c #090C08",
"O  c #0D1717",
"+  c #171919",
"@  c #140300",
"#  c #391806",
"$  c #29130A",
"%  c #382517",
"&  c #332C1B",
"*  c #191E22",
"=  c #0A2C29",
"-  c #192627",
";  c #06312F",
":  c #063233",
">  c #133835",
",  c #072D32",
"<  c #222A2A",
"1  c #2C3635",
"2  c #2F312D",
"3  c #1D221D",
"4  c #451B09",
"5  c #4B240A",
"6  c #5B2305",
"7  c #5B2A0E",
"8  c #542405",
"9  c #482516",
"0  c #5A3117",
"q  c #632503",
"w  c #6C2A03",
"e  c #632A08",
"r  c #742702",
"t  c #732A01",
"y  c #7A2C05",
"u  c #7D320B",
"i  c #7B3D1D",
"p  c #783715",
"a  c #6B3315",
"s  c #7A3D22",
"d  c #473F37",
"f  c #534A3A",
"g  c #644539",
"h  c #72472D",
"j  c #2A3E41",
"k  c #115053",
"l  c #274747",
"z  c #374748",
"x  c #365355",
"c  c #376D6D",
"v  c #495756",
"b  c #4E5251",
"n  c #6C5045",
"m  c #6A564B",
"M  c #6F665D",
"N  c #515F63",
"B  c #4D6869",
"V  c #52646A",
"C  c #546769",
"Z  c #4D6E74",
"A  c #536D74",
"S  c #497879",
"D  c #597775",
"F  c #7D7E7D",
"G  c #7A7774",
"H  c #6A6D68",
"J  c #5B605E",
"K  c #83340D",
"L  c #8A360D",
"P  c #8E3C0D",
"I  c #833A0E",
"U  c #933B0E",
"Y  c #97370E",
"T  c #853612",
"R  c #8B3A14",
"E  c #8D3E19",
"W  c #873813",
"Q  c #933C11",
"!  c #933F19",
"~  c #963C13",
"^  c #8E4019",
"/  c #964114",
"(  c #9A4315",
")  c #94431C",
"_  c #9D4519",
"`  c #984A1F",
"'  c #A1471B",
"]  c #AD531B",
"[  c #B1511E",
"{  c #B44F1F",
"}  c #8C4624",
"|  c #944522",
" . c #964A23",
".. c #9A4A23",
"X. c #984925",
"o. c #8D5939",
"O. c #A34B23",
"+. c #AC5222",
"@. c #A7532A",
"#. c #BD5C26",
"$. c #BD5C29",
"%. c #B45526",
"&. c #AD5D36",
"*. c #AD5E39",
"=. c #A75937",
"-. c #B15E3B",
";. c #B35E36",
":. c #B54E22",
">. c #AD613A",
",. c #B3623D",
"<. c #BD643D",
"1. c #BA6338",
"2. c #BB6029",
"3. c #C15B27",
"4. c #C6693C",
"5. c #D5733E",
"6. c #8D5A44",
"7. c #87644D",
"8. c #BC6745",
"9. c #BC6945",
"0. c #BC6649",
"q. c #BC6949",
"w. c #B56747",
"e. c #B36D51",
"r. c #B67357",
"t. c #AE6441",
"y. c #807C7E",
"u. c #B67C64",
"i. c #C26744",
"p. c #C46B44",
"a. c #CB6D44",
"s. c #C56B49",
"d. c #CC6E49",
"f. c #C86644",
"g. c #D26E45",
"h. c #D26E49",
"j. c #DE6F48",
"k. c #CD7146",
"l. c #CE704A",
"z. c #D27145",
"x. c #DB7446",
"c. c #D17149",
"v. c #DC7449",
"b. c #D8794A",
"n. c #E77A46",
"m. c #F17C4C",
"M. c #7B817D",
"N. c #4A817F",
"B. c #BA8973",
"V. c #81807F",
"C. c #D88355",
"Z. c #DF854F",
"A. c #EC824C",
"S. c #EB8548",
"D. c #F5864B",
"F. c #FA864B",
"G. c #F88749",
"H. c #EA8956",
"J. c #F98752",
"K. c #DB8F67",
"L. c #E0916C",
"P. c #597C83",
"I. c #747E81",
"U. c #817D80",
"Y. c #3F928F",
"T. c #3AA5A8",
"R. c #498788",
"E. c #489596",
"W. c #518F90",
"Q. c #66858A",
"!. c #7F8484",
"~. c #65969D",
"^. c #6C959C",
"/. c #65999D",
"(. c #6C989D",
"). c #6B9597",
"_. c #72959D",
"`. c #729598",
"'. c #6E8B94",
"]. c #4FA49D",
"[. c #589CA3",
"{. c #6C95A1",
"}. c #6B98A1",
"|. c #659CA4",
" X c #7194A1",
".X c #4AA8A9",
"XX c #59A8AA",
"oX c #5CADB2",
"OX c #57ABB4",
"+X c #4EB4B5",
"@X c #56B4B5",
"#X c #5BB5BD",
"$X c #5BB9BD",
"%X c #57B6B9",
"&X c #54B2AC",
"*X c #63ABAD",
"=X c #64A4A8",
"-X c #62ABB3",
";X c #69A7B3",
":X c #61B7BB",
">X c #61B9BD",
",X c #64B2B6",
"<X c #7AB0B3",
"1X c #57C3BF",
"2X c #44C0BC",
"3X c #59BAC3",
"4X c #63BBC4",
"5X c #4CCBCD",
"6X c #4BC8C5",
"7X c #5DC3C9",
"8X c #56C7C8",
"9X c #5AD7D8",
"0X c #52CBD0",
"qX c #66C8CA",
"wX c #66D6D9",
"eX c #71CECF",
"rX c #57E4DE",
"tX c #5DDCE0",
"yX c #6ADAE2",
"uX c #5CE5E4",
"iX c #5DE5E9",
"pX c #58E8E6",
"aX c #5BF1F5",
"sX c #62E4E4",
"dX c #67E7E9",
"fX c #63F2F3",
"gX c #818686",
"hX c #919392",
"jX c #B6B7B7",
"kX c #A59D96",
"lX c #D6D7D8",
"zX c #C9C9CA",
"xX c #E1E0E2",
/* pixels */
"                                                                                                                                ",
"                                                    C - - < < < - < - < < v                                                     ",
"                                            b 2 1 1 [.7X5X5X5X5X0X5X5X5X6X].2 2 2 z xX                                          ",
"                                      b 1 l &X5X5X5XiXuXoXoX=X=XoX*X=XOXsXaX0X0X0X6Xl 1 b                                       ",
"                                J 1 1 +X6X1X&X*XoX#XoX3XdX=X~.(.~.~.oXyX8XoX-X*XoX-X3X8XXXl 1 J                                 ",
"                          I.1 1 [.8X6XaX9XOX}.`._._.~.-XfX=X}.(.(.^.oXdX%X^._.(.(./.oX9XpX6X1X].1 1 G                           ",
"                      xXd E.8X6X%X-XoX-XqXwXXX).(._._.P.> - * * * * - > P._. X{././.wXqX*X-X-XoX6X2XE.z xX                      ",
"                    kXl +XrXtXoX|.}.{.).=X-XwXc - * - % 8 6 8 6 6 q 6 8 % + - - c wXoX=X`._. X}.OXiXpX+Xl kX                    ",
"                  v c >X%X%X3XyXoX). X_.B - > 2 9 9 5 6 t t t t t t t w 6 5 5 5 2 > - B `.(.(.=XyX$X@X@X%XS v                   ",
"              zXz +X@X-X(._.|.,XeX.X- - & 5 5 q r r r E 5.,.=.&.*.*.&.&.T t y r q 8 5 & - = ].eXoX|.{.{.-X@X].z zX              ",
"            J B 2X%X;X(.(. X).`.x 2 8 8 q t t ) ;.4.W ( F.s.i.9.9.8.9.9.R U j.4.' r w q 8 5 & x _.{._. X(.=XoX@Xc C             ",
"            1 k aXuX4X/.(.`.P.< % 6 t t R =.&.,.i.c.Q / F.d.8.9.w.w.9.9.R Y F.v.4.1.=.W w w 8 5 - I._. X^.4XuXfXk 1             ",
"        lXz W.&X#X#X3XwX=Xx 2 5 e / 5.$.1.9.q.<.4.c.Q / J.d.q.9.<.9.9.9.R Q F.c.k.z.s.8.;.;.E w 5 2 x {.eX8X@X@X.X].z zX        ",
"        jXo %XwX^.^.|.=X> 9 6 r t ( G.j.a.<.i.s.d.c.R ( D.d.8.8.8.9.<.9.R R G.a.a.z.g.h.h.j.) r r 8 % < |.=X^./.wX5Xo jX        ",
"      gXc .X+X-X^._. X'.o 4 u =.u ( F.x.d.a.8.a.g.f.P ( F.s.i.i.s.s.8.w.R Q J.a.i.f.g.j.g.l.) W 4.I 5 o Q. X(.(.;X,X.XB !.      ",
"      J k dX@X^.{._.B 1 9 q T 0.L _ F.g.a.d.9.a.d.i.R ~ F.a.i.a.h.s.8.8.R Q G.p.8.8.a.h.h.a.Q R F.Q 6 9 2 B ^.}.~.*XfXk b       ",
"    J R..X%XqXwXwX|.v @ e ` =.8.L _ D.p.a.c.9.a.d.9.R ~ F.a.p.z.g.s.8.9.W Q D.a.w.9.d.z.k.<.Q R F.1.` w @ x |.eXwXqX3X.XW.C     ",
"  lXO T.wX[.,X>X,Xz & 5 q @.q.9.L _ D.a.a.h.d.g.d.9.W ( F.p.p.z.g.p.<.9.R U F.a.8.8.s.g.z.<.E U F.a.@.w 8 % l *X$X,X/.tX.X+ lX  ",
"  lX+ T.yX|. X{.`.O # w @.>.9.w.L _ F.a.p.p.a.a.s.9.R ! F.p.f.z.z.p.9.9.R / F.a.9.<.9.f.g.i.~ Q F.p.,.@.y # O '.^.(.^.tX.XO lX  ",
"  lXO T.wX|.}.{.`.O $ a w.9.9.9.T ' D.s.9.i.k.p.9.0.R ( F.f.p.z.z.4.8.q.R P F.d.9.9.8.a.z.a.! U F.k.9.w.K # O `.(._.~.tX.XO lX  ",
"jXV E.+X,X(._.P.1 # 8 y w.0.8.8.L _ G.p.9.p.d.s.q.q.R / F.4.a.a.a.f.a.9.R U G.p.9.9.8.a.z.l.! U F.k.9.<.y 8 % 1 D _.^.-X%XY.Z jX",
"!.= pXpX9X9XwXE.X q _ 4.0.0.8.i.L _ D.p.<.p.4.q.0.9.R ( F.z.g.z.p.s.d.8.R U F.a.q.9.8.s.z.c.! ~ F.4.9.9.@.^ 7 . R.9X9XwXpXdX, I.",
"!.= sX9XqX3X7XY.X q +.A.i.0.8.8.W ' F.a.9.8.9.9.q.9.L ( F.x.g.f.9.d.d.s.R / F.s.q.9.8.a.g.z.~ U F.k.q.q.q. .7 . P.7X1X1X0XuX, I.",
"!.= sX:X~.).`.C X e :.D.i.q.8.9.T ' D.p.8.9.9.9.s.q.P ( G.x.a.9.0.s.a.i.L U F.5.9.9.<.i.s.s.! P F.a.9.9.q.| 7 X N ^.(.).$XsX, U.",
"!.= iX3X/.(._.H # w P +.| } ) | y I +.| ) | | | } ) y T +.....) } | X. .y u @. .) ` ) | ) | p K +.X.| } | T w 4 M (.^.(.$XtX; y.",
"!.= uX$X/.hXH o.2.2.$.$.#.%.#.#.#.$.#.$.3.3.#.#.#.#.$.#.3.#.#.3.$.$.#.$.#.#.3.#.3.#.$.$.$.$.$.#.$.$.$.$.$.#.#.;.o.M }.).$XuX; y.",
"!.= sX9XqX<Xf ' G.x.v.x.x.K.K.x.x.v.x.v.5.b.L.C.x.v.v.v.x.x.x.b.K.C.v.x.x.v.x.x.b.b.L.C.z.x.x.x.x.b.b.L.c.v.v.v./ g qXqX9XpX; M.",
"!.= pX9XqXeXf _ G.a.w.w.9.u.u.w.0.q.9.q.9.w.B.r.0.8.0.0.9.w.9.w.B.r.0.8.i.0.i.0.9.e.B.r.q.9.w.q.0.w.e.B.e.q.q.q.R h >X8X9XsX; M.",
"!.; uX>X).'.H m %. . . .X...` ..X.X.| X. ...` X.X...X.......X.X. ... ...X. . .X. . . ... . .` .. ...X.X.......X.o.H {.{.3XsX; M.",
"gX= uX$X).(.(.H # w t t t t r r r w r r w t w t t t t t t t t t t t r t t r t t t t t t t r t t t r y t t r w # H _. X(.$XuX; y.",
"gX= uX3X^.^._.B @ q P %..... . .y I %.@...X. . ...X.u I %.O.O.X. . ...` K K @.`  . . . .X. .u K %...X...` T 7 X N ^._.}.#XsX; y.",
"!.= uX9X7X0X7XE.. q [ A.p.q.8.q.L _ F.x.a.a.9.9.q.q.W ( F.b.d.9.w.8.p.z.U ( G.k.w.q.q.9.q.q.) U F.k.p.z.8.` 7 . R.7X8X8X9XuX; y.",
"gX= iX9X7XqXqXE.X q +.D.0.0.q.q.I _ G.z.a.h.i.8.9.q.L / F.x.d.d.9.9.f.c.~ U F.a.8.8.8.8.0.q.E U F.z.a.h.a...7 . R.qXqXqXwXuX; V.",
"!.= iX$X{.^.{.Z X 6 :.A.i.t.6.s.L ( F.f.a.h.i.8.8.p.W ( F.g.a.h.i.8.p.c.Q / F.a.8.8.8.8.q.9.E Q F.x.c.a.c.` 7 X B ^.^.~.%XrX; V.",
"!.= pX:X{.^.{.A @ q ] C.6.M M m p ( D.s.s.g.d.q.9.0.W ( F.4.p.d.8.a.z.a.R / F.a.8.q.p.q.8.9.E U F.v.a.8.h.O.7 X C }.^.~.$XtX; M.",
"gX= iX#X~.{.{.Z X 6 ] b.f !.hXf 0 ( F.p.i.d.l.s.8.q.W ( F.a.s.h.f.g.a.9.R Y F.a.q.9.d.s.8.q.^ U F.x.p.4.a.O.7 X C }.{.~.$XsX; !.",
"!.= pX9X3XqX4XW.X q [ S.h G y.h a ( G.s.i.i.a.d.s.8.R ( J.p.s.a.g.z.k.9.R Y F.k.9.9.k.s.9.9.^ U F.n.a.4.k.' 7 X S 7X3X4X0XdX; M.",
"!.= pXrX9X9X9XE.X q :.A.i.n g e.I _ G.p.8.0.s.h.d.q.L ( D.a.8.p.z.g.a.4.P U F.a.9.9.k.a.9.9.E U F.v.g.p.z.' 7 . W.wX9X9XrXpX; M.",
"!.= uX>X(._._.A X e ] S.i.n g e.p ( G.a.8.8.8.a.d.p.R ( F.a.0.0.z.g.a.9.R U F.k.i.q.z.p.9.q.^ ~ F.j.a.l.p.` 7 X B _._.^.#XsX: M.",
"!.= sX>X(._.(.A X e ] S.4.n g e.I ( G.p.8.0.8.a.g.i.L ( F.a.0.p.g.g.k.9.R / F.4.q.q.l.a.9.9.^ U F.j.d.k.p. .7 X V ^.^.(.$XuX: !.",
"gX= sX>X(.^.`.Z X e ] S.4.n d s.I ( G.p.w.9.9.p.h.p.R ( F.a.8.0.g.g.g.9.W U F.a.9.0.h.a.9.q.^ P G.g.s.z.i...7 X V ^.^.(.$XsX: gX",
"!.= sX0X>X>X:XR.X q [ S.4.n g e.I _ G.a.9.9.8.p.d.d.Q ~ F.s.8.p.g.g.a.i.P / F.k.p.p.d.a.p.q.^ P G.a.p.g.s...7 X S :X>X$X0XuX: F ",
"!.= uXuXwX9XwX].X q [ S.6.M m 7.p _ F.k.9.0.q.8.i.h.Y ( F.a.9.8.g.5.g.9.R / G.p.s.a.g.z.k.9.^ U G.4.s.g.g.O.7 . W.wX9XwXpXiX; F ",
"!.= pX%X{.^.{.A X 6 ] C.f V.hXd 0 _ F.4.9.0.q.8.s.h.Y ( F.a.9.8.g.g.a.9.R U F.a.s.h.g.h.k.p.^ P G.a.f.g.a...7 X N )././.3XdX: U.",
"gX= iX#X^.{.(.B X q ] C.n G !.g a _ G.d.8.0.0.9.i.l.! ( D.a.8.9.a.a.p.9.^ U F.a.p.g.h.g.d.i.) U G.5.p.d.p.) 7 X V {._.~.#XsX: I.",
"!.= uX3X^.'._.A X q [ D.i.7.h w.K _ G.4.9.8.w.8.i.l.~ ! F.a.i.8.9.9.9.9.W / F.g.a.h.i.d.g.q.^ U F.a.p.p.8. .7 X V {.^.^.3XyX: U.",
"!.= uX0X#X$X#XR.X q ] D.f.q.w.9.T _ G.p.8.8.0.9.i.c.~ ~ F.s.8.8.9.9.<.9.W ~ F.v.h.a.8.a.d.p.E R F.a.8.<.8. .7 X S #X#X#X0XsX; U.",
"!.= pXpXtX9XyXE.X q [ S.i.8.9.w.I _ G.i.9.8.w.9.i.d.~ ( F.d.8.8.w.9.9.9.R ~ F.x.g.<.8.d.c.p.E U G.a.8.8.q.| 7 . W.9XtXtXpXuX: y.",
"!.= uX>X~.)._.A X q [ S.i.9.9.w.T _ F.4.q.q.w.<.p.k.R ) F.a.8.8.8.8.9.9.R ~ F.5.p.p.i.s.d.d.( U G.a.8.9.w. .7 X C _.)._.$XsX: V.",
"!.= uX4X(.`._.A $ w ' k.>.&.&.&.K / z.;.;.&.&.1.1.&.I Q 5.&.&.&.&.*.*.*.T Y 5.4.4.8.-.*.-.<.Q L 5.1.&.=.=.^ e @ H ).(.).%XuX: M.",
"gX= uX$X).).M.M L Y Y Y U Y U U P R ~ ~ U Y U Y U R Q Y U U U U U U U U ~ U U U Q U R Q ~ Y U U Y U U U R U E ^ 7.G ).(.$XsX; U.",
"!.= uX7X=X<Xf ` G.A.m.m.D.H.H.A.m.A.m.A.A.A.H.H.m.A.m.n.A.A.A.A.H.H.n.A.A.m.A.A.A.n.H.A.A.A.A.A.A.m.H.H.A.m.A.S._ h *XXX8XiX: y.",
"!.= uXpXsXyXf ` J.p.9.8.8.B.B.w.8.0.0.0.8.9.kXu.0.0.9.9.0.w.8.e.kXu.8.8.8.q.q.q.0.q.B.B.9.9.9.9.9.w.u.B.r.e.q.q.I g wXpXpXiX: I.",
"!.= uX>X`.`.m  .b.,.>.&.-.-.*.*.&.,.*.>.&.;.;.*.*.>.-.>.*.-.-.-.@.;.-.-.-.,.-.-.*.-.*.;.&.-.&.-.&.>.=.>.>.>.>.>.h n ).~.$XsX: I.",
"!.= iX:X`.^.`.H 6 w t w w t w t t r t t t w t t t t t w r r r r t t r t t t t t r t t t r t t t t t t t w w w 8 M `.^.~.3XsX: U.",
"!.= uX#X^.{._.A X q r L K K K u t y L K u u K K u u t y L K K K u u K u t t L u u K u K K K y y L u K u u y e X N `.^.^.#XdX; V.",
"gX= uX8XoXoXoXS X q [ A.z.g.d.q.K ' J.a.9.i.c.s.9.9.W / G.p.p.k.a.d.i.9.R / D.k.4.a.i.d.d.s.) P J.d.0.0.p.) 7 X Z &X*XoX6XsX: M.",
"gX; uXiXsXdXdX].X q %.A.i.a.a.<.L ( D.p.9.9.a.4.9.w.P / G.a.p.z.g.c.k.i.R / D.a.p.d.p.a.h.f.^ Q D.k.0.8.9. .7 . W.dXdXsXiXpX: M.",
"gX= sX#X~.^.}.Z X q :.D.i.d.a.4.L ( F.p.9.i.z.s.9.q.W / F.a.f.z.i.p.k.9.I / J.a.8.<.h.h.d.8.E U D.k.8.8.9.| 7 X C ~.~.~.$XsX: F ",
"gX= sX4X{.{.}.Z X q [ D.i.a.k.l.L ' F.s.s.z.i.8.q.q.W ( F.a.4.z.p.a.k.p.W / J.p.i.i.h.p.8.0.! P G.a.9.9.0.| 7 X C _.(.^.#XsX; M.",
"!.= uX>X}.^.{.Z X q +.J.4.8.s.l.W ' G.a.p.k.9.9.9.q.R / F.x.z.d.q.s.c.l.Q / F.a.i.0.q.8.9.q.E U G.5.9.9.9. .7 X V {.^.~.%XsX; F ",
"hXl 1XXXQ.Q.Q.B . 5 ..b.1.t.,.,.u R n.a.9.,.,.,.,.>.a ^ n.p.<.,.-.w.1.p.p I n.<.,.-.-.t.>.,.i p n.1.,.>.,.} 9 X v Q.Q.Q.XX$Xl hX",
"  lX< + 3 + + * + $ 9 s i s s h % % i i i i i i i i 9 % E s s i i i s s % % W s i i s s s s 9 % h T i h i 9 + + * * * + * < lX  ",
"                                                                                                                                "
};
