/* XPM */
static char * door_close_xpm[] = {
"64 64 367 2",
"  	c #8F9251",
". 	c #969A52",
"+ 	c #9EA35A",
"@ 	c #ADB262",
"# 	c #C3C980",
"$ 	c #8D8B52",
"% 	c #8B8551",
"& 	c #C5BB92",
"* 	c #B4AC7B",
"= 	c #C3BB8C",
"- 	c #C2BB85",
"; 	c #C1BC7D",
"> 	c #A59B67",
", 	c #A19E56",
"' 	c #999B3C",
") 	c #A19E4D",
"! 	c #A4AB44",
"~ 	c #A4AA4C",
"{ 	c #959B43",
"] 	c #A7A961",
"^ 	c #B7B182",
"/ 	c #BFB98A",
"( 	c #B5AC82",
"_ 	c #C7C192",
": 	c #BAAE83",
"< 	c #B2A67B",
"[ 	c #C1B68B",
"} 	c #C0B685",
"| 	c #C9BE9A",
"1 	c #A59B73",
"2 	c #D1C59C",
"3 	c #B1A66C",
"4 	c #B8AB76",
"5 	c #D5CAA4",
"6 	c #D9CEA5",
"7 	c #B3AC74",
"8 	c #A99E6C",
"9 	c #9D9668",
"0 	c #ACA474",
"a 	c #CAC38C",
"b 	c #ABA46C",
"c 	c #A39C64",
"d 	c #A4A35B",
"e 	c #918E45",
"f 	c #B2AD6C",
"g 	c #C8BD8E",
"h 	c #A99E72",
"i 	c #B5B373",
"j 	c #B6B871",
"k 	c #B3B36C",
"l 	c #AEAA73",
"m 	c #ADA37A",
"n 	c #D4CCA2",
"o 	c #A9A55E",
"p 	c #AAAD4D",
"q 	c #AEB16B",
"r 	c #546769",
"s 	c #192627",
"t 	c #222A2A",
"u 	c #495756",
"v 	c #BCB383",
"w 	c #C2B591",
"x 	c #B1A673",
"y 	c #9A945C",
"z 	c #918D4C",
"A 	c #9C9B54",
"B 	c #99954A",
"C 	c #ADAB6B",
"D 	c #B9AE7D",
"E 	c #C9BD93",
"F 	c #9E9968",
"G 	c #959359",
"H 	c #9D9B5B",
"I 	c #938B5B",
"J 	c #CEC5A0",
"K 	c #D3CB9C",
"L 	c #CDC995",
"M 	c #A0955C",
"N 	c #B9B574",
"O 	c #AAAC5B",
"P 	c #ADB25C",
"Q 	c #9DA14B",
"R 	c #A5A95B",
"S 	c #4E5251",
"T 	c #2F312D",
"U 	c #2C3635",
"V 	c #589CA3",
"W 	c #5DC3C9",
"X 	c #4CCBCD",
"Y 	c #52CBD0",
"Z 	c #4BC8C5",
"` 	c #4FA49D",
" .	c #374748",
"..	c #E1E0E2",
"+.	c #CEC99B",
"@.	c #D6CB9B",
"#.	c #928D54",
"$.	c #A9A464",
"%.	c #A29D5D",
"&.	c #BEBA84",
"*.	c #B1A581",
"=.	c #CCC49A",
"-.	c #B5BA64",
";.	c #A5AA54",
">.	c #274747",
",.	c #54B2AC",
"'.	c #5DE5E9",
").	c #5CE5E4",
"!.	c #5CADB2",
"~.	c #64A4A8",
"{.	c #63ABAD",
"].	c #57ABB4",
"^.	c #62E4E4",
"/.	c #5BF1F5",
"(.	c #999454",
"_.	c #B6B17B",
":.	c #CBC393",
"<.	c #BFB591",
"[.	c #BEB48A",
"}.	c #BAB37C",
"|.	c #918E3F",
"1.	c #9A9C4B",
"2.	c #B1AE64",
"3.	c #C5C28B",
"4.	c #C4C284",
"5.	c #5B605E",
"6.	c #4EB4B5",
"7.	c #57C3BF",
"8.	c #5BB5BD",
"9.	c #59BAC3",
"0.	c #67E7E9",
"a.	c #65969D",
"b.	c #6C989D",
"c.	c #6ADAE2",
"d.	c #56C7C8",
"e.	c #62ABB3",
"f.	c #59A8AA",
"g.	c #A5A26A",
"h.	c #A49C6B",
"i.	c #898B35",
"j.	c #949736",
"k.	c #AAAC54",
"l.	c #B3B363",
"m.	c #747E81",
"n.	c #5AD7D8",
"o.	c #6B98A1",
"p.	c #729598",
"q.	c #72959D",
"r.	c #63F2F3",
"s.	c #6C959C",
"t.	c #57B6B9",
"u.	c #65999D",
"v.	c #58E8E6",
"w.	c #7A7774",
"x.	c #A19565",
"y.	c #AFAA7A",
"z.	c #94944C",
"A.	c #A8A753",
"B.	c #ADB254",
"C.	c #473F37",
"D.	c #489596",
"E.	c #66C8CA",
"F.	c #66D6D9",
"G.	c #6B9597",
"H.	c #597C83",
"I.	c #133835",
"J.	c #191E22",
"K.	c #7194A1",
"L.	c #6C95A1",
"M.	c #44C0BC",
"N.	c #9C9463",
"O.	c #B2B45C",
"P.	c #A59D96",
"Q.	c #57E4DE",
"R.	c #5DDCE0",
"S.	c #659CA4",
"T.	c #376D6D",
"U.	c #382517",
"V.	c #542405",
"W.	c #5B2305",
"X.	c #632503",
"Y.	c #171919",
"Z.	c #9E9A63",
"`.	c #C1BB79",
" +	c #61B9BD",
".+	c #4D6869",
"++	c #482516",
"@+	c #4B240A",
"#+	c #732A01",
"$+	c #6C2A03",
"%+	c #5BB9BD",
"&+	c #56B4B5",
"*+	c #497879",
"=+	c #7E7D44",
"-+	c #C9C9CA",
";+	c #64B2B6",
">+	c #71CECF",
",+	c #4AA8A9",
"'+	c #332C1B",
")+	c #742702",
"!+	c #8D3E19",
"~+	c #D5733E",
"{+	c #B3623D",
"]+	c #A75937",
"^+	c #AD5D36",
"/+	c #AD5E39",
"(+	c #853612",
"_+	c #7A2C05",
":+	c #0A2C29",
"<+	c #959352",
"[+	c #7C7C3C",
"}+	c #69A7B3",
"|+	c #365355",
"1+	c #94431C",
"2+	c #B35E36",
"3+	c #C6693C",
"4+	c #873813",
"5+	c #9A4315",
"6+	c #FA864B",
"7+	c #C56B49",
"8+	c #C26744",
"9+	c #BC6945",
"0+	c #BC6745",
"a+	c #8B3A14",
"b+	c #933B0E",
"c+	c #DE6F48",
"d+	c #A1471B",
"e+	c #868948",
"f+	c #115053",
"g+	c #63BBC4",
"h+	c #D17149",
"i+	c #933C11",
"j+	c #964114",
"k+	c #CC6E49",
"l+	c #B56747",
"m+	c #97370E",
"n+	c #DC7449",
"o+	c #BA6338",
"p+	c #C9C483",
"q+	c #8D8B4A",
"r+	c #D6D7D8",
"s+	c #518F90",
"t+	c #632A08",
"u+	c #BD5C29",
"v+	c #BC6949",
"w+	c #BD643D",
"x+	c #F98752",
"y+	c #CD7146",
"z+	c #D27145",
"A+	c #B6B7B7",
"B+	c #090C08",
"C+	c #F88749",
"D+	c #CB6D44",
"E+	c #F5864B",
"F+	c #D26E45",
"G+	c #D26E49",
"H+	c #818686",
"I+	c #6E8B94",
"J+	c #451B09",
"K+	c #7D320B",
"L+	c #DB7446",
"M+	c #C86644",
"N+	c #8E3C0D",
"O+	c #CE704A",
"P+	c #833A0E",
"Q+	c #66858A",
"R+	c #7F8484",
"S+	c #746E39",
"T+	c #8B854C",
"U+	c #BC6649",
"V+	c #8A360D",
"W+	c #9D4519",
"X+	c #963C13",
"Y+	c #C46B44",
"Z+	c #498788",
"`+	c #140300",
" @	c #984A1F",
".@	c #0D1717",
"+@	c #3AA5A8",
"@@	c #A7532A",
"#@	c #7B7C34",
"$@	c #391806",
"%@	c #AD613A",
"&@	c #933F19",
"*@	c #8D9244",
"=@	c #29130A",
"-@	c #6B3315",
";@	c #83340D",
">@	c #A99E79",
",@	c #52646A",
"'@	c #597775",
")@	c #3F928F",
"!@	c #4D6E74",
"~@	c #0A0200",
"{@	c #8E4019",
"]@	c #5B2A0E",
"^@	c #060401",
"/@	c #072D32",
"(@	c #AC5222",
"_@	c #EC824C",
":@	c #964A23",
"<@	c #61B7BB",
"[@	c #B54E22",
"}@	c #944522",
"|@	c #515F63",
"1@	c #817D80",
"2@	c #6A6D68",
"3@	c #8C4624",
"4@	c #9A4A23",
"5@	c #984925",
"6@	c #783715",
"7@	c #6F665D",
"8@	c #06312F",
"9@	c #807C7E",
"0@	c #919392",
"a@	c #8D5939",
"b@	c #BB6029",
"c@	c #BD5C26",
"d@	c #B45526",
"e@	c #C15B27",
"f@	c #7AB0B3",
"g@	c #534A3A",
"h@	c #DB8F67",
"i@	c #D8794A",
"j@	c #E0916C",
"k@	c #D88355",
"l@	c #644539",
"m@	c #7B817D",
"n@	c #B67C64",
"o@	c #BA8973",
"p@	c #B67357",
"q@	c #B36D51",
"r@	c #72472D",
"s@	c #6A564B",
"t@	c #A34B23",
"u@	c #B1511E",
"v@	c #81807F",
"w@	c #AE6441",
"x@	c #8D5A44",
"y@	c #536D74",
"z@	c #AD531B",
"A@	c #5A3117",
"B@	c #EB8548",
"C@	c #E77A46",
"D@	c #6C5045",
"E@	c #063233",
"F@	c #7D7E7D",
"G@	c #87644D",
"H@	c #B15E3B",
"I@	c #F17C4C",
"J@	c #EA8956",
"K@	c #7B3D1D",
"L@	c #BEC369",
"M@	c #1D221D",
"N@	c #7A3D22",
"O@	c #8E9249",
"P@	c #CAC982",
"Q@	c #A1A543",
"R@	c #91933D",
"S@	c #847D43",
"T@	c #BABC5B",
"U@	c #A2A63B",
"V@	c #B5B94B",
"W@	c #C5C85A",
"X@	c #9A9C44",
"Y@	c #8C8858",
"Z@	c #A09670",
"  . + @ # $ % & * = - ; > , ' ) ! ~ { . ] ^ / ^ ^ ( / _ = : < [ } [ | [ 1 2 3 4 4 } [ 5 6 5 [ 7 4 8 9 0 a b c d , , e f b 4 g h ",
"i j k j l 9 m n a 0 - 4 4 o ) p ~ { { .   + q ^ 9 ^ r s s t t t s t s t t u } h < v w | | 5 [ } < < v } a x y z A B o C D x E h ",
"F y G H I v J K L - b M c i N O P Q ~ P . R S T U U V W X X X X Y X X X Z ` T T T  ...+.@.6 } < 0 1 g = = } b #.$.%.i ; } } : 1 ",
"&.$ $ ^ *.& =.E c , %.o y 7 3 f -.;.~ S U >.,.X X X '.).!.!.~.~.!.{.~.].^./.Y Y Y Z >.U S 6 2 4 < < [ = = = D (.c #.3 i a g [ 1 ",
"_.G c :.E <.[.}.e |.1.;.2.7 3.4.5.U U 6.Z 7.,.{.!.8.!.9.0.~.a.b.a.a.!.c.d.!.e.{.!.e.9.d.f.>.U 5.1 < } w | @.=.< y G g.* - = [.h.",
"i l g g & / 0 z i.' j.k.l.m.U U V d.Z /.n.].o.p.q.q.a.e.r.~.o.b.b.s.!.0.t.s.q.b.b.u.!.n.v.Z 7.` U U w.E @.| | } x.y.0 3.* = * h.",
"_.b } E _ [ 0 z.A.A.B...C.D.d.Z t.e.!.e.E.F.f.G.b.q.q.H.I.s J.J.J.J.s I.H.q.K.L.u.u.F.E.{.e.e.!.Z M.D. ...5 | g F 0 y.^ v * 0 N.",
"}.4 } g = E - f ) O.P.>.6.Q.R.!.S.o.L.G.~.e.F.T.s J.s U.V.W.V.W.W.X.W.V.U.Y.s s T.F.!.~.p.q.K.o.].'.v.6.>.P.E D 1 m y.v * _.Z.% ",
"< `.( [ [.= = _.3 u T. +t.t.9.c.!.G.K.q..+s I.T ++++@+W.#+#+#+#+#+#+#+$+W.@+@+@+T I.s .+p.b.b.~.c.%+&+&+t.*+u 0 0 m 0 &./ 7 Z.=+",
"w w [ ( ( * * -+ .6.&+e.b.q.S.;+>+,+s s '+@+@+X.)+)+)+!+~+{+]+^+/+/+^+^+(+#+_+)+X.V.@+'+s :+` >+!.S.L.L.e.&+`  .-+/ * - a b <+[+",
"} w [ ( * 7 5..+M.t.}+b.b.K.G.p.|+T V.V.X.#+#+1+2+3+4+5+6+7+8+9+9+0+9+9+a+b+c+3+d+)+$+X.V.@+'+|+q.L.q.K.b.~.!.&+T.r ^ 7 - - H e+",
"} g g D b b U f+/.).g+u.b.p.H.t U.W.#+#+a+]+^+{+8+h+i+j+6+k+0+9+l+l+9+9+a+m+6+n+3+o+]+4+$+$+V.@+s m.q.K.s.g+).r.f+U - } p+a C q+",
"} g g ; r+ .s+,.8.8.9.F.~.|+T @+t+j+~+u+o+9+v+w+3+h+i+j+x+k+v+9+w+9+9+9+a+i+6+h+y+z+7+0+2+2+!+$+@+T |+L.>+d.&+&+,+`  .-+l a H %.",
"} } @.g A+B+t.F.s.s.S.~.I.++W.)+#+5+C+c+D+w+8+7+k+h+a+5+E+k+0+0+0+9+w+9+a+a+C+D+D+z+F+G+G+c+1+)+)+V.U.t S.~.s.u.F.X B+A+}.z f z ",
"& 2 6 H+T.,+6.e.s.q.K.I+B+J+K+]+K+5+6+L+k+D+0+D+F+M+N+5+6+7+8+8+7+7+0+l+a+i+x+D+8+M+F+c+F+O+1+4+3+P+@+B+Q+K.b.b.}+;+,+.+R+S+T+<+",
"/ 2 [ 5.f+0.&+s.L.q..+U ++X.(+U+V+W+6+F+D+k+9+D+k+8+a+X+6+D+8+D+G+7+0+0+a+i+C+Y+0+0+D+G+G+D+i+a+6+i+W.++T .+s.o.a.{.r.f+S y #.%.",
"&._.5.Z+,+t.E.F.F.S.u `+t+ @]+0+V+W+E+Y+D+h+9+D+k+9+a+X+6+D+Y+z+F+7+0+9+4+i+E+D+l+9+k+z+y+w+i+a+6+o+ @$+`+|+S.>+F.E.9.,+s+r 3 $.",
"+ r+.@+@F.V ;+ +;+ .'+@+X.@@v+9+V+W+E+D+D+G+k+F+k+9+4+5+6+Y+Y+z+F+Y+w+9+a+b+6+D+0+0+7+F+z+w+!+b+6+D+@@$+V.U.>.{.%+;+u.R.,+Y.r+y ",
"#@r+Y.+@c.S.K.L.p..@$@$+@@%@9+l+V+W+6+D+Y+Y+D+D+7+9+a+&@6+Y+M+z+z+Y+9+9+a+j+6+D+9+w+9+M+F+8+X+i+6+Y+{+@@_+$@.@I+s.b.s.R.,+.@r+1 ",
"*@r+.@+@F.S.o.L.p..@=@-@l+9+9+9+(+d+E+7+9+8+y+Y+9+U+a+5+6+M+Y+z+z+3+0+v+a+N+6+k+9+9+0+D+z+D+&@b+6+y+9+l+;@$@.@p.b.q.a.R.,+.@r+>@",
"A+,@D.6.;+b.q.H.U $@V._+l+U+0+0+V+W+C+Y+9+Y+k+7+v+v+a+j+6+3+D+D+D+M+D+9+a+b+C+Y+9+9+0+D+z+O+&@b+6+y+9+w+_+V.U.U '@q.s.e.t.)@!@A+",
"R+:+v.v.n.n.F.D.~@X.W+3+U+U+0+8+V+W+E+Y+w+Y+3+v+U+9+a+5+6+z+F+z+Y+7+k+0+a+b+6+D+v+9+0+7+z+h+&@X+6+3+9+9+@@{@]@^@Z+n.n.F.v.0./@m.",
"R+:+^.n.E.9.W )@~@X.(@_@8+U+0+0+4+d+6+D+9+0+9+9+v+9+V+5+6+L+F+M+9+k+k+7+a+j+6+7+v+9+0+D+F+z+X+b+6+y+v+v+v+:@]@^@H.W 7.7.Y )./@m.",
"R+:+^.<@a.G.p.r ~@t+[@E+8+v+0+9+(+d+E+Y+0+9+9+9+7+v+N+5+C+L+D+9+U+7+D+8+V+b+6+~+9+9+w+8+7+7+&@N+6+D+9+9+v+}@]@~@|@s.b.G.%+^./@1@",
"R+:+'.9.u.b.q.2@$@$+N+(@}@3@1+}@_+P+(@}@1+}@}@}@3@1+_+(+(@4@4@1+3@}@5@:@_+K+@@:@1+ @1+}@1+}@6@;@(@5@}@3@}@(+$+J+7@b.s.b.%+R.8@9@",
"R+:+).%+u.0@2@a@b@b@u+u+c@d@c@c@c@u+c@u+e@e@c@c@c@c@u+c@e@c@c@e@u+u+c@u+c@c@e@c@e@c@u+u+u+u+u+c@u+u+u+u+u+c@c@2+a@7@o.G.%+).8@9@",
"R+:+^.n.E.f@g@d+C+L+n+L+L+h@h@L+L+n+L+n+~+i@j@k@L+n+n+n+L+L+L+i@h@k@n+L+L+n+L+L+i@i@j@k@z+L+L+L+L+i@i@j@h+n+n+n+j+l@E.E.n.v.8@m@",
"R+:+v.n.E.>+g@W+C+D+l+l+9+n@n@l+U+v+9+v+9+l+o@p@U+0+U+U+9+l+9+l+o@p@U+0+8+U+8+U+9+q@o@p@v+9+l+v+U+l+q@o@q@v+v+v+a+r@ +d.n.^.8@m@",
"R+8@). +G.I+2@s@d@:@:@:@5@4@ @4@5@5@}@5@:@4@ @5@5@4@5@4@4@4@5@5@:@4@:@4@5@:@:@5@:@:@:@4@:@:@ @4@:@4@5@5@4@4@4@5@a@2@L.L.9.^.8@m@",
"H+:+).%+G.b.b.2@$@$+#+#+#+#+)+)+)+$+)+)+$+#+$+#+#+#+#+#+#+#+#+#+#+#+)+#+#+)+#+#+#+#+#+#+#+)+#+#+#+)+_+#+#+)+$+$@2@q.K.b.%+).8@9@",
"H+:+).9.s.s.q..+`+X.N+d@4@4@:@:@_+P+d@@@4@5@:@:@4@5@K+P+d@t@t@5@:@:@4@ @;@;@@@ @:@:@:@:@5@:@K+;@d@4@5@4@ @(+]@~@|@s.q.o.8.^.8@9@",
"R+:+).n.W Y W D.^@X.u@_@Y+v+0+v+V+W+6+L+D+D+9+9+v+v+4+5+6+i@k+9+l+0+Y+z+b+5+C+y+l+v+v+9+v+v+1+b+6+y+Y+z+0+ @]@^@Z+W d.d.n.).8@9@",
"H+:+'.n.W E.E.D.~@X.(@E+U+U+v+v+P+W+C+z+D+G+8+0+9+v+V+j+6+L+k+k+9+9+M+h+X+b+6+D+0+0+0+0+U+v+!+b+6+z+D+G+D+4@]@^@Z+E.E.E.F.).8@v@",
"R+:+'.%+L.s.L.!@~@W.[@_@8+w@x@7+V+5+6+M+D+G+8+0+0+Y+4+5+6+F+D+G+8+0+Y+h+i+j+6+D+0+0+0+0+v+9+!+i+6+L+h+D+h+ @]@~@.+s.s.a.t.Q.8@v@",
"R+:+v.<@L.s.L.y@`+X.z@k@x@7@7@s@6@5+E+7+7+F+k+v+9+U+4+5+6+3+Y+k+0+D+z+D+a+j+6+D+0+v+Y+v+0+9+!+b+6+n+D+0+G+t@]@~@r o.s.a.%+R.8@m@",
"H+:+'.8.a.L.L.!@~@W.z@i@g@R+0@g@A@5+6+Y+8+k+O+7+0+v+4+5+6+D+7+G+M+F+D+9+a+m+6+D+v+9+k+7+0+v+{@b+6+L+Y+3+D+t@]@~@r o.L.a.%+^.8@R+",
"R+:+v.n.9.E.g+s+~@X.u@B@r@w.9@r@-@5+C+7+8+8+D+k+7+0+a+5+x+Y+7+D+F+z+y+9+a+m+6+y+9+9+y+7+9+9+{@b+6+C@D+3+y+d+]@~@*+W 9.g+Y 0.8@m@",
"R+:+v.Q.n.n.n.D.~@X.[@_@8+D@l@q@P+W+C+Y+0+U+7+G+k+v+V+5+E+D+0+Y+z+F+D+3+N+b+6+D+9+9+y+D+9+9+!+b+6+n+F+Y+z+d+]@^@s+F.n.n.Q.v.8@m@",
"R+:+). +b.q.q.y@~@t+z@B@8+D@l@q@6@5+C+D+0+0+0+D+k+Y+a+5+6+D+U+U+z+F+D+9+a+b+6+y+8+v+z+Y+9+v+{@X+6+c+D+O+Y+ @]@~@.+q.q.s.8.^.E@m@",
"R+:+^. +b.q.b.y@~@t+z@B@3+D@l@q@P+5+C+Y+0+U+0+D+F+8+V+5+6+D+U+Y+F+F+y+9+a+j+6+3+v+v+O+D+9+9+{@b+6+c+k+y+Y+:@]@~@,@s.s.b.%+).E@R+",
"H+:+^. +b.s.p.!@~@t+z@B@3+D@C.7+P+5+C+Y+l+9+9+Y+G+Y+a+5+6+D+0+U+F+F+F+9+4+b+6+D+9+U+G+D+9+v+{@N+C+F+7+z+8+4@]@~@,@s.s.b.%+^.E@H+",
"R+:+^.Y  + +<@Z+~@X.u@B@3+D@l@q@P+W+C+D+9+9+0+Y+k+k+i+X+6+7+0+Y+F+F+D+8+N+j+6+y+Y+Y+k+D+Y+v+{@N+C+D+Y+F+7+4@]@~@*+<@ +%+Y ).E@F@",
"R+:+).).F.n.F.` ~@X.u@B@x@7@s@G@6@W+6+y+9+U+v+0+8+G+m+5+6+D+9+0+F+~+F+9+a+j+C+Y+7+D+F+z+y+9+{@b+C+3+7+F+F+t@]@^@s+F.n.F.v.'.8@F@",
"R+:+v.t.L.s.L.y@~@W.z@k@g@v@0@C.A@W+6+3+9+U+v+0+7+G+m+5+6+D+9+0+F+F+D+9+a+b+6+D+7+G+F+G+y+Y+{@N+C+D+M+F+D+4@]@~@|@G.u.u.9.0.E@1@",
"H+:+'.8.s.L.b..+~@X.z@k@D@w.R+l@-@W+C+k+0+U+U+9+8+O+&@5+E+D+0+9+D+D+Y+9+{@b+6+D+Y+F+G+F+k+8+1+b+C+~+Y+k+Y+1+]@~@,@L.q.a.8.^.E@m.",
"R+:+).9.s.I+q.y@~@X.u@E+8+G@r@l+;@W+C+3+9+0+l+0+8+O+X+&@6+D+8+0+9+9+9+9+4+j+6+F+D+G+8+k+F+v+{@b+6+D+Y+Y+0+:@]@~@,@L.s.s.9.c.E@1@",
"R+:+).Y 8.%+8.Z+~@X.z@E+M+v+l+9+(+W+C+Y+0+0+U+9+8+h+X+X+6+7+0+0+9+9+w+9+4+X+6+n+G+D+0+D+k+Y+!+a+6+D+0+w+0+:@]@~@*+8.8.8.Y ^.8@1@",
"R+:+v.v.R.n.c.D.~@X.u@B@8+0+9+l+P+W+C+8+9+0+l+9+8+k+X+5+6+k+0+0+l+9+9+9+a+X+6+L+F+w+0+k+h+Y+!+b+C+D+0+0+v+}@]@^@s+n.R.R.v.).E@9@",
"R+:+). +a.G.q.y@~@X.u@B@8+9+9+l+(+W+6+3+v+v+l+w+Y+y+a+1+6+D+0+0+0+0+9+9+a+X+6+~+Y+Y+8+7+k+k+5+b+C+D+0+9+l+:@]@~@r q.G.q.%+^.E@v@",
"R+:+).g+b.p.q.y@=@$+d+y+%@^+^+^+;@j+z+2+2+^+^+o+o+^+P+i+~+^+^+^+^+/+/+/+(+m+~+3+3+0+H@/+H@w+i+V+~+o+^+]+]+{@t+`+2@G.b.G.t.).E@m@",
"H+:+).%+G.G.m@7@V+m+m+m+b+m+b+b+N+a+X+X+b+m+b+m+b+a+i+m+b+b+b+b+b+b+b+b+X+b+b+b+i+b+a+i+X+m+b+b+m+b+b+b+a+b+!+{@G@w.G.b.%+^.8@1@",
"R+:+).W ~.f@g@ @C+_@I@I@E+J@J@_@I@_@I@_@_@_@J@J@I@_@I@C@_@_@_@_@J@J@C@_@_@I@_@_@_@C@J@_@_@_@_@_@_@I@J@J@_@I@_@B@W+r@{.f.d.'.E@9@",
"R+:+).v.^.c.g@ @x+Y+9+0+0+o@o@l+0+U+U+U+0+9+P.n@U+U+9+9+U+l+0+q@P.n@0+0+0+v+v+v+U+v+o@o@9+9+9+9+9+l+n@o@p@q@v+v+P+l@F.v.v.'.E@m.",
"R+:+). +p.p.s@:@i@{+%@^+H@H@/+/+^+{+/+%@^+2+2+/+/+%@H@%@/+H@H@H@@@2+H@H@H@{+H@H@/+H@/+2+^+H@^+H@^+%@]+%@%@%@%@%@r@D@G.a.%+^.E@m.",
"R+:+'.<@p.s.p.2@W.$+#+$+$+#+$+#+#+)+#+#+#+$+#+#+#+#+#+$+)+)+)+)+#+#+)+#+#+#+#+#+)+#+#+#+)+#+#+#+#+#+#+#+$+$+$+V.7@p.s.a.9.^.E@1@",
"R+:+).8.s.L.q.y@~@X.)+V+;@;@;@K+#+_+V+;@K+K+;@;@K+K+#+_+V+;@;@;@K+K+;@K+#+#+V+K+K+;@K+;@;@;@_+_+V+K+;@K+K+_+t+~@|@p.s.s.8.0.8@v@",
"H+:+).d.!.!.!.*+~@X.u@_@z+F+k+v+;@d+x+D+9+8+h+7+9+9+4+j+C+Y+Y+y+D+k+8+9+a+j+E+y+3+D+8+k+k+7+1+N+x+k+U+U+Y+1+]@~@!@,.{.!.Z ^.E@m@",
"H+8@).'.^.0.0.` ~@X.d@_@8+D+D+w+V+5+E+Y+9+9+D+3+9+l+N+j+C+D+Y+z+F+h+y+8+a+j+E+D+Y+k+Y+D+G+M+{@i+E+y+U+0+9+:@]@^@s+0.0.^.'.v.E@m@",
"H+:+^.8.a.s.o.!@~@X.[@E+8+k+D+3+V+5+6+Y+9+8+z+7+9+v+4+j+6+D+M+z+8+Y+y+9+P+j+x+D+0+w+G+G+k+0+!+b+E+y+0+0+9+}@]@~@r a.a.a.%+^.E@F@",
"H+:+^.g+L.L.o.!@~@X.u@E+8+D+y+O+V+d+6+7+7+z+8+0+v+v+4+5+6+D+3+z+Y+D+y+Y+4+j+x+Y+8+8+G+Y+0+U+&@N+C+D+9+9+U+}@]@~@r q.b.s.8.^.8@m@",
"R+:+). +o.s.L.!@~@X.(@x+3+0+7+O+4+d+C+D+Y+y+9+9+9+v+a+j+6+L+z+k+v+7+h+O+i+j+6+D+8+U+v+0+9+v+!+b+C+~+9+9+9+:@]@~@,@L.s.a.t.^.8@F@",
"0@>.7.f.Q+Q+Q+.+^@@+4@i@o+w@{+{+K+a+C@D+9+{+{+{+{+%@-@{@C@Y+w+{+H@l+o+Y+6@P+C@w+{+H@H@w@%@{+K@6@C@o+{+%@{+3@++~@u Q+Q+Q+f.%+>.0@",
"L@r+t Y.M@Y.Y.J.Y.=@++N@K@N@N@r@U.U.K@K@K@K@K@K@K@K@++U.!+N@N@K@K@K@N@N@U.U.4+N@K@K@N@N@N@N@++U.r@(+K@r@K@++Y.Y.J.J.J.Y.J.t r+*.",
"+ q R O@+ . + ] 4.G #.x.M M 3 4 D D ; P@d d k -.l.;.Q@R@|.B S@b 3 ; T@U@V@W@W@U@j.|.k `.B X@|.(.z > 3 D ^ ^ ^ ^ _._.9 Y@1 m <.Z@"};
