/* XPM */
static char *cc29b230b9f04893b31476305122f27bc076d1eUM2d5SFCM[] = {
/* columns rows colors chars-per-pixel */
"64 64 255 2 ",
"   c None",
".  c #3C0335",
"X  c #380638",
"o  c #30142C",
"O  c #352C1B",
"+  c #49191A",
"@  c #59181B",
"#  c #550D17",
"$  c #670B18",
"%  c #780C1C",
"&  c #6B181D",
"*  c #76141D",
"=  c #65040E",
"-  c #502519",
";  c #42033C",
":  c #450637",
">  c #570639",
",  c #59153B",
"<  c #491A30",
"1  c #780D25",
"2  c #681825",
"3  c #7B1C2C",
"4  c #781626",
"5  c #69073B",
"6  c #770C39",
"7  c #66143D",
"8  c #7A1536",
"9  c #6E0920",
"0  c #4C2734",
"q  c #6A2629",
"w  c #7C2628",
"e  c #782936",
"r  c #673636",
"t  c #78393C",
"y  c #6B3235",
"u  c #75261E",
"i  c #6E4D32",
"p  c #6D6C33",
"a  c #544723",
"s  c #390341",
"d  c #4C0A44",
"f  c #6B0843",
"g  c #780A44",
"h  c #6A1844",
"j  c #7B1444",
"k  c #660958",
"l  c #523449",
"z  c #73304E",
"x  c #685A44",
"c  c #795756",
"v  c #704D4D",
"b  c #587650",
"n  c #73705E",
"m  c #76586E",
"M  c #786D69",
"N  c #505243",
"B  c #840C1C",
"V  c #8A141C",
"C  c #850D26",
"Z  c #960C27",
"A  c #841226",
"S  c #8C142D",
"D  c #851A2C",
"F  c #8A1B2D",
"G  c #871727",
"H  c #94142E",
"J  c #9A132E",
"K  c #931B2E",
"L  c #9A1A2C",
"P  c #921426",
"I  c #870C3C",
"U  c #831433",
"Y  c #8B1432",
"T  c #8C1C32",
"R  c #841937",
"E  c #951532",
"W  c #9A1532",
"Q  c #941A33",
"!  c #9B1A33",
"~  c #9B1B3A",
"^  c #961739",
"/  c #980E37",
"(  c #A4162D",
")  c #A21532",
"_  c #A41A34",
"`  c #A81A36",
"'  c #B51B3A",
"]  c #A5132C",
"[  c #872327",
"{  c #972525",
"}  c #882637",
"|  c #942433",
" . c #962637",
".. c #853438",
"X. c #8C322F",
"o. c #A9272E",
"O. c #A62637",
"+. c #B72738",
"@. c #B42C33",
"#. c #C6293A",
"$. c #D62D3D",
"%. c #CD333A",
"&. c #E3333D",
"*. c #854E37",
"=. c #B14539",
"-. c #B26E3B",
";. c #850D43",
":. c #861545",
">. c #900F48",
",. c #AC1953",
"<. c #963444",
"1. c #963147",
"2. c #B52B43",
"3. c #AB324D",
"4. c #AA3A62",
"5. c #C72A42",
"6. c #C73445",
"7. c #D83849",
"8. c #D52753",
"9. c #DA3C53",
"0. c #D1294C",
"q. c #ED3D45",
"w. c #E23B4A",
"e. c #ED3D4B",
"r. c #E7354B",
"t. c #F13D46",
"y. c #F13E4C",
"u. c #F1344A",
"i. c #ED3C53",
"p. c #E53A54",
"a. c #F13C52",
"s. c #F23B56",
"d. c #F02C4D",
"f. c #CE3E62",
"g. c #994B58",
"h. c #8D524F",
"j. c #B74547",
"k. c #AA5355",
"l. c #AF484F",
"z. c #8A6848",
"x. c #87744B",
"c. c #947D4C",
"v. c #89755A",
"b. c #957857",
"n. c #916C51",
"m. c #AB7451",
"M. c #905672",
"N. c #A9556A",
"B. c #956874",
"V. c #987977",
"C. c #8F6E6D",
"Z. c #AA6D71",
"A. c #CD4447",
"S. c #D7414C",
"D. c #CB4951",
"F. c #D94756",
"G. c #C15A54",
"H. c #E5434E",
"J. c #EC434D",
"K. c #EA4347",
"L. c #F1414D",
"P. c #F14044",
"I. c #EC4252",
"U. c #E84457",
"Y. c #F14253",
"T. c #F2475C",
"R. c #C75C73",
"E. c #F24B64",
"W. c #F1526C",
"Q. c #F25267",
"!. c #F15D7B",
"~. c #F15874",
"^. c #E95973",
"/. c #F2627F",
"(. c #DB7757",
"). c #649A57",
"_. c #58AF4D",
"`. c #73B254",
"'. c #78846B",
"]. c #5E9E57",
"[. c #AC845A",
"{. c #958867",
"}. c #94927C",
"|. c #8B9978",
" X c #B88C75",
".X c #B49373",
"XX c #CA8B5D",
"oX c #CA8D6B",
"OX c #ED9C6C",
"+X c #EEA277",
"@X c #7D6E81",
"#X c #925B86",
"$X c #987889",
"%X c #997E97",
"&X c #8C7387",
"*X c #B0748D",
"=X c #EF5B81",
"-X c #C57889",
";X c #D37F8F",
":X c #ED6984",
">X c #F16A87",
",X c #EE788D",
"<X c #F1738D",
"1X c #F17B92",
"2X c #F17792",
"3X c #E77693",
"4X c #7D858C",
"5X c #8C8797",
"6X c #94849B",
"7X c #948397",
"8X c #91918A",
"9X c #A98987",
"0X c #A6859A",
"qX c #B29092",
"wX c #8DA989",
"eX c #96AB94",
"rX c #90B392",
"tX c #A5B296",
"yX c #B0AA95",
"uX c #B18DA2",
"iX c #BAAAA2",
"pX c #BCB2B0",
"aX c #9984A4",
"sX c #CD8E94",
"dX c #EA8497",
"fX c #F18196",
"gX c #F28499",
"hX c #F28A9D",
"jX c #E68C96",
"kX c #C7A993",
"lX c #D995AC",
"zX c #CA8FA7",
"xX c #EC8CA4",
"cX c #F293A8",
"vX c #E798B4",
"bX c #ED8FAC",
"nX c #C9AEA9",
"mX c #CBB7A8",
"MX c #D6B8AB",
"NX c #C9B8B9",
"BX c #D6B4B1",
"VX c #E2BCA4",
"CX c #BCC3AA",
"ZX c #DBC9A9",
"AX c #D5CAB5",
"SX c #E6D6B6",
"DX c #CFB9C6",
"FX c #E5BFC4",
"GX c #D6C9C7",
"HX c #DCD6CB",
"JX c #DBD7D3",
"KX c #D2C9CB",
"LX c #E2D9D1",
"PX c #E6DBCA",
"IX c #DFE8CF",
/* pixels */
"                                                                          JXd z                                                 ",
"                                                  B.                      h d 1.                                                ",
"                                                  z M.                  M.d d h                                                 ",
"                                                JX:.X                 *Xf s X ,                                                 ",
"                                                uXg ; eX            DX;.; . s ,                                                 ",
"                                                M.:.: l             >.f d ; . >                                                 ",
"                                                ,.,.>.5 GX        4.,.f f > > f                                                 ",
"                                              FX8.8.,.>.c       R.8.>.g g 6 f 5 GX                                              ",
"                                              qXd.d.8.Y R NX  -Xd.8.Y 6 g 6 g I BX                GX#XX                         ",
"                                              k.r.d.p.+.' 4 e Z Z Z 1 6 :.8 I I nX            *X7 d ; 0                         ",
"                                              [ &.P.a.a.J.e.p.2.^ W E Y I 1 C I nX        *Xj k X : : 8X                        ",
"                                          HX..J.t.J.J.L.i.u.J.e.7.! E ) ) ^ Y U v.    -X,.,.> . X s X                           ",
"                                        kXF.Y.J.y.L.y.Y.t.L.a.y.t.O.W W J J W W T z D.8.>.g 6 > ; X N                           ",
"                                      Z.T.Y.H.y.L.L.L.L.L.y.L.y.y.2.! ) J W E ) ] ) A 8 8 ;.g 5 > X JX                          ",
"                                    Z.I.L.J.L.L.y.y.L.y.J.y.y.t.y._ ! W ! J W W W W T 4 I ;.g g f l                             ",
"                                  nXF.Y.L.L.L.L.L.y.y.y.y.y.y.I.#.W W W W ) ) L W Q ! ^ 4 R :.I f JX                            ",
"                                  j.e.Y.J.Y.y.J.L.L.q.$.7.y.i.6.J W ! J J W W ! W ! ) F Q $ E I z                               ",
"                                sXY.Y.J.J.L.J.K.P.&.y.J.L H ] ) W W F W W W H H W W ! | ! S 8 U pX                              ",
"                                F.L.I.L.y.J.I.L.P.&.#.( A Z J J D % 4 K W J E E H ! ! Q ! H # v                                 ",
"                              kXJ.a.J.K.I.J.L.=.p _.).O P K D ] w Q 1 K W W E E Q ! Q W ) 4 % AX                                ",
"                              D.J.I.e.J.r.o.b _.`.`.`.& G W ^ c O ^ 1 Q W E H E W W H ) T P C c                                 ",
"                              t L.a.J.i.[ D i ].).b @ 4 ) R @ rXb 8 S E J E W W W H H W E W E D NX                              ",
"                              b Y.J.t.J.J.a.t.e.#.#.p.+.4 '.'.rXc % H E E E W E W H E E E E W W q                               ",
"                              k.L.H.J.y.e.y.e.J.9.+.2 b |.wXwXrXa S H H Y E E E E E ^ W ^ ^ ^ W ^ h.sX;XzXzXuX*X%X$X&X&XM.$XpX  ",
"                              A.w.9.p.9.6.@...& @ n rX|.yXwXeXb < H H S H H E W E ^ E ^ W ^ ^ R H % } ^ j 5 > . . X X X < l KX  ",
"                              9X- - + + p - x eX|.eXtXtXAXn wXr H E G S H J H H H ^ S E / E E / K H 7 I ;.5 > . X X s X v       ",
"                                }.'.}.n tXtXwXZXZXkXSXkXZXwX[ p.P H & 1 B A.y.t.#.! Y * H E ^ E E E # U 6 5 > ; X d o uX        ",
"                                yXwXAX.XZXVXn ZXZX|.SXZXi 7.S.e.' 2 $ * r.q.y.t.J.] T C C Y E J E S 1 R ;.g > : ; l             ",
"                              mXw.A.7.@.m.oX{.kX.X{.=.6.e.J.t.&.3 4 V @.J.t.y.y.y.5.~ E @ S W E E Y Y U :.6 5 d @X              ",
"                              KXO.( ` 7.p.s.J.t.K.K.a.q.q.I.%.% 3 S C 7.y.J.y.K.u.7.! W Y G S S J E Y 1 R 8 y pX                ",
"                                u F.S.9.6.$.7.L.P.y.y.$.' ] H G J ^ % e.t.e.e.L.u.w.W E ) % Q Y / ^ Y $ R C.                    ",
"                              iXF.T.E.E.E.T.T.Y.P.K.L.J.7.O.H E H E * I.t.y.L.t.J.#.Q W ^ = H W Y Y / + DX                      ",
"                              g.W.W.W.W.Q.Q.E.T.T.T.Y.Y.J.p.` W W W 4 w.K.L.t.t.w.) E ) J $ S Y W ^ Y V.                        ",
"                            ZX^.~.:X=X/.!.!.~.W.Q.E.E.T.L.Y.#.^ W W & $.q.L.q.J.+.W E ! F 4 T Y W E ^ 9X                        ",
"                            Z./.>X>X>X>X>X>X>X!.!.~.W.Q.U.T.5.T ~ T @ @.q.a.7.` W W Z } 1 C Q W E Y / h.                        ",
"                            N./.,X<X<X2X<X<X<X<X>X:X!.~.^.U.<. .~ { 6.%.e.t.` W E E E $ H H J W E S R 5 h DX                    ",
"                            k.,X,X2X1X2X1X1X1X1X2X<X>X/.~.f.,. .@.J.I.@.y.J.` ] W Q D C G W H / H Y I 6 5 < l KX                ",
"                            N.fX1X1X1X1X1XfX1XfX1X2X<X>X=X4.3.~ K.L.Y.{ e.r.J ) W S 3 W Y J W E Z U 1 6 f : X X m               ",
"                            Z.fXdXfXdXdXfXgXhXgXgX1XgX2X-X4.1.p.q.J.a.o.w.$.` K P W H K H 1 W E E U 6 5 5 . . . X 0             ",
"                        AXk.q fXjXhXgXgXhXhXhXhXhXxXdX3X#Xg.@.e.J.7.@.6.a.#.L G D E ) H Y P U J Y U 6 5 > . X X X s o           ",
"                    JXk.7.O.L jXxXxXxXhXhXcXcXcXcXhXdX*XM.3.U.A.o.w.P.J.%. .Q = Q E F J E H D J Y 1 7 f : ; . ; d g z           ",
"                    l.7.~ | 7.R.lXcXhXbXcXcXcXcXvXbX*X#X#X3.%.%.y.U.#.L Q S R % E J H W H J $ W U 6 I f : , h z M.pX            ",
"                BX6.7.|  .& K.<.0X-XlXvXvXvXvXlXzX0X7X$X#X} 7.e.#.{ G w D S A F J J S W H W $ | r v B.eXNX                      ",
"            sXD.U.I.| h.HXsXK.7.M $X6XuXuXuX0X0X7X&X$X$X1.D.J.o.o.0.` W K K E Q J H H J H H # r                                 ",
"        lXk.I.t.q.#.G     m.q.s.r $X6X5X%XaXaX5X5X4XC.3.H.t.+.6.e.O.! ) ) W ! Q E H H J J Y q                                   ",
"      N.o.K.e.r.+._ ! 9X  G.t.7.Y M aX6X%X4X%X5XM.h.0.w.J.e.G 7.' _ ! ! ! ! ! W H E H J Q }                                     ",
"    R.F.#.A.q._ >.| O.C.  D.L.+.^ 3 %XaX6X5X%X&X6.( a.K.I.a.O.O.! ` ~ ! ! Q Q E E W J L Q iX                                    ",
"  V.o.{ +.p.) t } ) L NX  l.i.~ ) W r 5X6X5X5Xm 6.w.H.I.J.y.H.G | K J ) W W W E H H H Q v                                       ",
"  }.n.i o.( x IX  h.( t   l.7.E ! L ^ q 5X%XC.S.7.w U.s.7.6.2.L V z.*.F ^ ^ H H E H H 3 GX                                      ",
"  LXv.i *.z.n.     X(.o.  =.` D } J L P F l j.H.` x r.5.j r K F P z.n.[ ) Y H H H F 4 4 4 LX                                    ",
"    yXi b.b.{.   XXX-.qX  3.O.W ^ ^ ` K Y w u { r n i. .&XV.8.1 ..n.z.4 W R Y J S % % S A 9X                                    ",
"      HXv.b.yX   Xm.*.    h.2.E ^ E 4 S @ D h.x.a ] U.D q N } Z H A F W ] J E G 1 E 4 J F V.                                    ",
"        HXPX      KXPX      3.O.D & * K J Z P z.- D 2.i v PXyX2.[ T C ~ Q 4 B F F E * J T nX                                    ",
"                              9XqX9XV.v ..X.h.qXw w n.x.n.AX  sX} W J C G ^ E W H % Q C F                                       ",
"                                                ~ ! w z.v.      qX<.} 3 } Q J w * / E K ^                                       ",
"                                              v _ W } v.                  HXGX  t H Q ] ` Z.                                    ",
"                              MX XBX      pX} ! Q W ~ qX                        ! D ( H ( }                                     ",
"                            PX XXXm.*.} } } 4 [ A Q T g.                      v ! & ) } ) T HX                                  ",
"                              iXa p z.+ 4 K [ e @ | [ g.                    e ~ | Z ` [ L | t                                   ",
"                              IXoXOXb. .} } w (.c.i ..            GXiXyXZ.| ! H | B K A } & ~ Z.                                ",
"                                HXmXAX      mXoXoXn mX          Z.-.c.n.} _ | | J * { S ^ ~ E O.z.c                             ",
"                                                AX            ZXOX+Xc.{.i V.nXsX..m.[.X.<.g.t n.m.oXiX                          ",
"                                                              PXoX[.{.CX        yXOXOX[.IX    n [.+X}.                          ",
"                                                                                  qXoX{.        HXmX                            "
};
