/* XPM */
static char * enemy_xpm[] = {
"64 64 466 2",
"  	c #8F9251",
". 	c #969A52",
"+ 	c #9EA35A",
"@ 	c #ADB262",
"# 	c #C3C980",
"$ 	c #8D8B52",
"% 	c #8B8551",
"& 	c #C5BB92",
"* 	c #B4AC7B",
"= 	c #C3BB8C",
"- 	c #C2BB85",
"; 	c #C1BC7D",
"> 	c #A59B67",
", 	c #A19E56",
"' 	c #999B3C",
") 	c #A19E4D",
"! 	c #A4AB44",
"~ 	c #A4AA4C",
"{ 	c #959B43",
"] 	c #A7A961",
"^ 	c #B7B182",
"/ 	c #BFB98A",
"( 	c #B5AC82",
"_ 	c #C7C192",
": 	c #BAAE83",
"< 	c #B2A67B",
"[ 	c #C1B68B",
"} 	c #C0B685",
"| 	c #C9BE9A",
"1 	c #A59B73",
"2 	c #DBD7D3",
"3 	c #4C0A44",
"4 	c #73304E",
"5 	c #B8AB76",
"6 	c #D5CAA4",
"7 	c #D9CEA5",
"8 	c #B3AC74",
"9 	c #A99E6C",
"0 	c #9D9668",
"a 	c #ACA474",
"b 	c #CAC38C",
"c 	c #ABA46C",
"d 	c #A39C64",
"e 	c #A4A35B",
"f 	c #918E45",
"g 	c #B2AD6C",
"h 	c #C8BD8E",
"i 	c #A99E72",
"j 	c #B5B373",
"k 	c #B6B871",
"l 	c #B3B36C",
"m 	c #AEAA73",
"n 	c #ADA37A",
"o 	c #D4CCA2",
"p 	c #A9A55E",
"q 	c #AAAD4D",
"r 	c #AEB16B",
"s 	c #956874",
"t 	c #BCB383",
"u 	c #AFAA7A",
"v 	c #B9AE7D",
"w 	c #A49C6B",
"x 	c #C9BD93",
"y 	c #6A1844",
"z 	c #963147",
"A 	c #C2B591",
"B 	c #B1A673",
"C 	c #9A945C",
"D 	c #918D4C",
"E 	c #9C9B54",
"F 	c #99954A",
"G 	c #ADAB6B",
"H 	c #9E9968",
"I 	c #959359",
"J 	c #9D9B5B",
"K 	c #938B5B",
"L 	c #CEC5A0",
"M 	c #D3CB9C",
"N 	c #CDC995",
"O 	c #A0955C",
"P 	c #B9B574",
"Q 	c #AAAC5B",
"R 	c #ADB25C",
"S 	c #9DA14B",
"T 	c #A5A95B",
"U 	c #905672",
"V 	c #BEB48A",
"W 	c #CEC99B",
"X 	c #D6CB9B",
"Y 	c #928D54",
"Z 	c #A9A464",
"` 	c #A29D5D",
" .	c #BEBA84",
"..	c #B1A581",
"+.	c #CCC49A",
"@.	c #B1A66C",
"#.	c #B5BA64",
"$.	c #A5AA54",
"%.	c #ABB14B",
"&.	c #861545",
"*.	c #380638",
"=.	c #CBC393",
"-.	c #B0748D",
";.	c #6B0843",
">.	c #390341",
",.	c #59153B",
"'.	c #BFB591",
").	c #D1C59C",
"!.	c #999454",
"~.	c #B6B17B",
"{.	c #BAB37C",
"].	c #918E3F",
"^.	c #9A9C4B",
"/.	c #B1AE64",
"(.	c #C5C28B",
"_.	c #C4C284",
":.	c #BBC156",
"<.	c #9EA252",
"[.	c #B18DA2",
"}.	c #780A44",
"|.	c #42033C",
"1.	c #96AB94",
"2.	c #CFB9C6",
"3.	c #850D43",
"4.	c #3C0335",
"5.	c #A6A073",
"6.	c #A5A26A",
"7.	c #898B35",
"8.	c #949736",
"9.	c #AAAC54",
"0.	c #B3B363",
"a.	c #AFB172",
"b.	c #BEC369",
"c.	c #ADB254",
"d.	c #9DA343",
"e.	c #A4AB3B",
"f.	c #949C2D",
"g.	c #450637",
"h.	c #523449",
"i.	c #900F48",
"j.	c #570639",
"k.	c #A19565",
"l.	c #94944C",
"m.	c #A8A753",
"n.	c #A5A264",
"o.	c #BCC373",
"p.	c #949B3C",
"q.	c #949B33",
"r.	c #AC1953",
"s.	c #69073B",
"t.	c #D6C9C7",
"u.	c #C1BB79",
"v.	c #AA3A62",
"w.	c #9C9463",
"x.	c #B2B45C",
"y.	c #8D923C",
"z.	c #E5BFC4",
"A.	c #D52753",
"B.	c #795756",
"C.	c #C75C73",
"D.	c #770C39",
"E.	c #9E9A63",
"F.	c #ACAB64",
"G.	c #B6B96B",
"H.	c #868948",
"I.	c #8E9249",
"J.	c #878A40",
"K.	c #B29092",
"L.	c #F02C4D",
"M.	c #8B1432",
"N.	c #841937",
"O.	c #C9B8B9",
"P.	c #C57889",
"Q.	c #870C3C",
"R.	c #D6B4B1",
"S.	c #925B86",
"T.	c #7E7D44",
"U.	c #979261",
"V.	c #959352",
"W.	c #858342",
"X.	c #7C7C3C",
"Y.	c #8C8858",
"Z.	c #AA5355",
"`.	c #E7354B",
" +	c #E53A54",
".+	c #B72738",
"++	c #B51B3A",
"@+	c #781626",
"#+	c #782936",
"$+	c #960C27",
"%+	c #780D25",
"&+	c #7A1536",
"*+	c #C9AEA9",
"=+	c #92875C",
"-+	c #66143D",
";+	c #4C2734",
">+	c #D5D29A",
",+	c #84843B",
"'+	c #7E8138",
")+	c #7B7C34",
"!+	c #746E39",
"~+	c #837F50",
"{+	c #872327",
"]+	c #E3333D",
"^+	c #F14044",
"/+	c #F13C52",
"(+	c #EC434D",
"_+	c #ED3D4B",
":+	c #B52B43",
"<+	c #961739",
"[+	c #9A1532",
"}+	c #951532",
"|+	c #850D26",
"1+	c #7B1444",
"2+	c #660958",
"3+	c #91918A",
"4+	c #D6D1A3",
"5+	c #88873D",
"6+	c #6C6C26",
"7+	c #DCD6CB",
"8+	c #853438",
"9+	c #F13D46",
"0+	c #F1414D",
"a+	c #ED3C53",
"b+	c #F1344A",
"c+	c #D83849",
"d+	c #9B1A33",
"e+	c #A21532",
"f+	c #831433",
"g+	c #89755A",
"h+	c #8B8C44",
"i+	c #D1CA94",
"j+	c #C9C483",
"k+	c #8D8B4A",
"l+	c #76782A",
"m+	c #C7A993",
"n+	c #D94756",
"o+	c #F14253",
"p+	c #F13E4C",
"q+	c #A62637",
"r+	c #9A132E",
"s+	c #8C1C32",
"t+	c #CB4951",
"u+	c #505243",
"v+	c #898543",
"w+	c #767433",
"x+	c #AA6D71",
"y+	c #F2475C",
"z+	c #E5434E",
"A+	c #A5132C",
"B+	c #841226",
"C+	c #858249",
"D+	c #847D43",
"E+	c #EC4252",
"F+	c #A41A34",
"G+	c #8B854C",
"H+	c #C6293A",
"I+	c #9A1A2C",
"J+	c #941A33",
"K+	c #988D5D",
"L+	c #B74547",
"M+	c #ED3D45",
"N+	c #D62D3D",
"O+	c #C73445",
"P+	c #8A1B2D",
"Q+	c #670B18",
"R+	c #BEC479",
"S+	c #DCD3AA",
"T+	c #CD8E94",
"U+	c #EA4347",
"V+	c #94142E",
"W+	c #942433",
"X+	c #8C142D",
"Y+	c #BCB2B0",
"Z+	c #A4162D",
"`+	c #851A2C",
" @	c #780C1C",
".@	c #931B2E",
"+@	c #550D17",
"@@	c #704D4D",
"#@	c #BABC5B",
"$@	c #AAAE43",
"%@	c #B3B653",
"&@	c #BDBA7B",
"*@	c #7D7545",
"=@	c #8D9244",
"-@	c #BCBB74",
";@	c #B14539",
">@	c #6D6C33",
",@	c #58AF4D",
"'@	c #649A57",
")@	c #352C1B",
"!@	c #921426",
"~@	c #7C2628",
"{@	c #D5CAB5",
"]@	c #B3BA53",
"^@	c #9BA334",
"/@	c #A09670",
"(@	c #BAAE89",
"_@	c #A99E79",
":@	c #95994A",
"<@	c #A9272E",
"[@	c #587650",
"}@	c #73B254",
"|@	c #6B181D",
"1@	c #871727",
"2@	c #BABB6B",
"3@	c #78393C",
"4@	c #6E4D32",
"5@	c #5E9E57",
"6@	c #59181B",
"7@	c #90B392",
"8@	c #868B3C",
"9@	c #78846B",
"0@	c #6A2629",
"a@	c #C2C474",
"b@	c #A3A453",
"c@	c #857B4A",
"d@	c #7D8034",
"e@	c #DA3C53",
"f@	c #681825",
"g@	c #8B9978",
"h@	c #8DA989",
"i@	c #544723",
"j@	c #8D524F",
"k@	c #D37F8F",
"l@	c #CA8FA7",
"m@	c #997E97",
"n@	c #987889",
"o@	c #8C7387",
"p@	c #C7BC98",
"q@	c #CD4447",
"r@	c #E23B4A",
"s@	c #B42C33",
"t@	c #73705E",
"u@	c #B0AA95",
"v@	c #491A30",
"w@	c #882637",
"x@	c #D2C9CB",
"y@	c #A98987",
"z@	c #502519",
"A@	c #49191A",
"B@	c #685A44",
"C@	c #A5B296",
"D@	c #673636",
"E@	c #980E37",
"F@	c #94927C",
"G@	c #DBC9A9",
"H@	c #E6D6B6",
"I@	c #840C1C",
"J@	c #76141D",
"K@	c #30142C",
"L@	c #B49373",
"M@	c #E2BCA4",
"N@	c #D7414C",
"O@	c #CBB7A8",
"P@	c #AB7451",
"Q@	c #CA8D6B",
"R@	c #958867",
"S@	c #7B1C2C",
"T@	c #8A141C",
"U@	c #C72A42",
"V@	c #9B1B3A",
"W@	c #7D6E81",
"X@	c #7A7D2C",
"Y@	c #A81A36",
"Z@	c #F23B56",
"`@	c #CD333A",
" #	c #6B3235",
".#	c #75261E",
"+#	c #8F6E6D",
"@#	c #BAAAA2",
"##	c #F24B64",
"$#	c #65040E",
"%#	c #994B58",
"&#	c #F1526C",
"*#	c #F25267",
"=#	c #987977",
"-#	c #E95973",
";#	c #F15874",
">#	c #ED6984",
",#	c #EF5B81",
"'#	c #F2627F",
")#	c #F15D7B",
"!#	c #848B34",
"~#	c #C5C27D",
"{#	c #F16A87",
"]#	c #E84457",
"^#	c #7C8125",
"/#	c #A9556A",
"(#	c #EE788D",
"_#	c #F1738D",
":#	c #F17792",
"<#	c #963444",
"[#	c #962637",
"}#	c #972525",
"|#	c #F17B92",
"1#	c #CE3E62",
"2#	c #F18196",
"3#	c #AB324D",
"4#	c #76586E",
"5#	c #EA8497",
"6#	c #F28499",
"7#	c #F28A9D",
"8#	c #E68C96",
"9#	c #EC8CA4",
"0#	c #E77693",
"a#	c #F293A8",
"b#	c #AF484F",
"c#	c #D995AC",
"d#	c #ED8FAC",
"e#	c #E798B4",
"f#	c #A1A543",
"g#	c #A6859A",
"h#	c #948397",
"i#	c #CCC98B",
"j#	c #929444",
"k#	c #878B29",
"l#	c #ACB343",
"m#	c #A2A63B",
"n#	c #786D69",
"o#	c #94849B",
"p#	c #D1294C",
"q#	c #8C8797",
"r#	c #9984A4",
"s#	c #7D858C",
"t#	c #8C932B",
"u#	c #C15A54",
"v#	c #91933D",
"w#	c #B9B66E",
"x#	c #8A8C3C",
"y#	c #878D1F",
"z#	c #8E9524",
"A#	c #B0AE59",
"B#	c #916C51",
"C#	c #DFE8CF",
"D#	c #8A6848",
"E#	c #854E37",
"F#	c #ABB33C",
"G#	c #A2A44B",
"H#	c #E2D9D1",
"I#	c #B88C75",
"J#	c #DB7757",
"K#	c #B1B845",
"L#	c #957857",
"M#	c #CA8B5D",
"N#	c #B26E3B",
"O#	c #87744B",
"P#	c #909829",
"Q#	c #CAC982",
"R#	c #E6DBCA",
"S#	c #AAAF3D",
"T#	c #988D62",
"U#	c #8C322F",
"V#	c #9A9C44",
"W#	c #9CA23C",
"X#	c #D6B8AB",
"Y#	c #ED9C6C",
"Z#	c #947D4C",
"`#	c #807F3C",
" $	c #899031",
".$	c #EEA277",
"+$	c #AC845A",
"@$	c #BCC3AA",
"#$	c #B5B94B",
"$$	c #C5C85A",
"  . + @ # $ % & * = - ; > , ' ) ! ~ { . ] ^ / ^ ^ ( / _ = : < [ } [ | [ 1 2 3 4 5 } [ 6 7 6 [ 8 5 9 0 a b c d e , , f g c 5 h i ",
"j k l k m 0 n o b a - 5 5 p ) q ~ { { .   + r ^ 0 s t u } v w a [ & [ x [ y 3 z < t A | | 6 [ } < < t } b B C D E F p G v B x i ",
"H C I J K t L M N - c O d j P Q R S ~ R . T T r J 4 U / x = V : = = } h U 3 3 y a : V W X 7 } < a 1 h = = } c Y Z ` j ; } } : 1 ",
" .$ $ ^ ..& +.x d , ` p C 8 @.g #.$.~ ~ %.R $.T 2 &.*.& [ } =.< [ } } -.;.>.*.,...'.V _ X 7 ).5 < < [ = = = v !.d Y @.j b h [ 1 ",
"~.I d =.x '.V {.f ].^.$./.8 (._.@ R ~ ! :.! ! <.[.}.|.1.< [ [ v v } 2.3.|.4.>.,.5.'.^ N X h X } 1 < } A | X +.< C I 6.* - = V w ",
"j m h h & / a D 7.' 8.9.0.G _.a.R b.c.d.e.f.d.~ U &.g.h.t = V t v ; i.;.3 |.4.j.5.^ u ^ } } X } < } } x X | | } k.u a (.* = * w ",
"~.c } x _ [ a l.m.m.c.c.{ ] n.(.o.o.b.~ p.q.%.b.r.r.i.s.t.V ( : u.v.r.;.;.j.j.;.~.u d a c v +.[ < < } A | 6 | h H a u ^ t * a w.",
"{.5 } h = x - g ) x.b.d.<.k a.n.+ . R $.p.y.{ z.A.A.r.i.B.: : V C.A.i.}.}.D.;.s.t.E.d j > v v ( } < [ A x 7 x v 1 n u t * ~.E.% ",
"< u.( [ V = = ~.@.F.G.@ r G   H.I.+ <.+ I.J.  K.L.L.A.M.N.O.A P.L.A.M.D.}.D.}.Q.R.I.I C w.( k.} [ t.S.*.x X [ a a n a  ./ 8 E.T.",
"A A [ ( ( * * U.t (.a.. r V.W.I.J.H.  +   X.Y.Z.`.L. +.+++@+#+$+$+$+%+D.&.&+Q.Q.*+I.I.E.^ =+5.-.-+3 |.;+=.).[ 9 w./ * - b c V.X.",
"} A [ ( * 8 {.d a  .>+6.l r H.,+'+)+!+X.T.~+Y.{+]+^+/+/+(+_+ +:+<+[+}+M.Q.%+|+Q.*+<.V.K t -.1+2+*.g.g.3+N x {.i w a ^ 8 - - J H.",
"} h h v c c n.J  .4+>+N k E 5+6+J.+ 6.6.Y.7+8+(+9+(+(+0+a+b+(+_+c+d+}+e+e+<+M.f+g+h+X.P.r.r.j.4.*.>.*.u.i+- ~.a w 8 - } j+b G k+",
"} h h ; Z F.E ` ^ u = _.J F p l+6+n.j G m+n+o+(+p+0+p+o+9+0+/+p+9+q+[+[+r+r+[+[+s+4 t+A.i.}.D.j.|.*.u+5 t - v B B v 5 > m b J ` ",
"} } X h ~.+ J G ~.6.- 6.E !.P v+w+!.Z x+y+o+z+p+0+0+0+0+0+p+0+p+p+:+d+e+r+[+}+e+A+e+B+&+&+3.}.s.j.*.2 * @.- 5 @.a {.v > {.D g D ",
"& ).7 6 ~.  . ] (. .N C+{.c C } D+D x+E+0+(+0+0+p+p+0+p+(+p+p+9+p+F+d+[+d+r+[+[+[+[+s+@+Q.3.}.}.;.h.< a > 8 {.c B v } {.D+!+G+V.",
"/ ).[ 7 N G a ~.(.M ).w ~.9 : w n.*+n+o+0+0+0+0+0+p+p+p+p+p+p+E+H+[+[+[+[+e+e+I+[+J+d+<+@+N.&.Q.;.2 t E.` K+{.9 {.t {.} > C Y ` ",
" .~.6.N >+6.H (._ & 6 6 _ +.L t (.L+_+o+(+o+p+(+0+0+M+N+c+p+a+O+r+[+d+r+r+[+[+d+[+d+e+P+J+Q+}+Q.4 ,+v+` ` {.- } h * V * ~.8 @.Z ",
"+ ] a.R+#   6. ._ _ +.S++.'.V = T+o+o+(+(+0+(+U+^+]+p+(+I+V+A+e+[+[+P+[+[+[+V+V+[+[+d+W+d+X+&+f+Y+q 9.^., k P w.* a w 1 v v < C ",
")+'+I.H.H.'++ (._.u K+1 L t W  .n+0+E+0+p+(+E+0+^+]+H+Z+B+$+r+r+`+ @@+.@[+r+}+}+V+d+d+J+d+V++@@@#@$@! %@R 0.F.&@(.K *@=+..( n 1 ",
"=@S <.S I.. -@# j C Y.U./ / V m+(+/+(+U+E+(+0+;@>@,@'@)@!@.@`+A+~@J+%+.@[+[+}+}+J+d+J+[+e+@+ @{@]@^@%.' 9.Q -@u._.- 1 x V /@(@_@",
"'+I.<.<.+ :@@ I.&@Z a = ).h x t+(+E+_+(+`.<@[@,@}@}@}@|@1@[+<+B.)@<+%+J+[+}+V+}+[+[+V+e+s+!@|+B.q ! %.c.$.2@G.g _.b v } i < t =+",
"$.=@R y.{ @ =@n.&@k+u ~.x x [ 3@0+/+(+a+{+`+4@5@'@[@6@@+e+N.6@7@[@&+X+}+r+}+[+[+[+V+V+[+}+[+}+`+O.<.$.^.<.:@F.g j J B ~.8 _ > K ",
"R+o.I.=@J.8@=@J G E.w [ : } A [@o+(+9+(+(+/+9+_+H+H+ +.+@+9@9@7@B. @V+}+}+}+[+}+[+V+}+}+}+}+[+[+0@a@#.b@. p e V.j ` D+@.} } K+c@",
"# R+T <.] d@'+'+Y I a ( [ [ A Z.0+z+(+p+_+p+_+(+e@.+f@[@g@h@h@7@i@X+V+V+M.}+}+}+}+}+<+[+<+<+<+[+<+j@T+k@l@l@[.-.m@n@o@o@U n@Y+c@",
"+ + . I.I.I.T '+] ~. .= n ( p@q@r@e@ +e@O+s@8+|@6@t@7@g@u@h@1.[@v@V+V+X+V+V+}+[+}+<+}+<+[+<+<+N.V+ @w@<+1+s.j.4.4.*.*.*.v@h.x@~+",
"  . T S <.S y.:@n.R+_.0 B (@(@y@z@z@A@A@>@z@B@1.g@1.C@C@{@t@h@D@V+}+1@X+V+r+V+V+V+<+X+}+E@}+}+E@.@V+-+Q.3.s.j.4.*.*.>.*.@@9 k.k.",
"  <.I.{ R #.R S F.e j j = = [ x F@9@F@t@C@C@h@G@G@m+H@m+G@h@{+ +!@V+|@%+I@q@p+9+H+d+M.J@V+}+<+}+}+}++@f+D.s.j.|.*.3 K@[.B i 9 k.",
"H.'+=@=@$.b.b.R #.@ Z j G+C t ^ u@h@{@L@G@M@t@G@G@g@H@G@4@c+N@_+++f@Q+J@`.M+p+9+(+A+s+|+|+M.}+r+}+X+%+N.3.}.j.g.|.h.c v 5 > 9 > ",
"k . ,+)+d@{ $.S R R+k - n.a V O@r@q@c+s@P@Q@R@m+L@R@;@O+_+(+9+]+S@@+T@s@(+9+p+p+p+U@V@}+6@X+[+}+}+M.M.f+&.D.s.3 W@~.6.m 5 C c j ",
" . .,+)+X@7.$.9.S T + n.m t t x@q+Z+Y@c+ +Z@(+9+U+U+/+M+M+E+`@ @S@X+|+c+p+(+p+U+b+c+d+[+M.1@X+X+r+}+M.%+N.&+ #Y+m G I + P n.n.n.",
"K+H n.W.)+,+d@8@E T G ~.~./ [ ( .#n+N@e@O+N+c+0+^+p+p+N+++A+V+1@r+<+ @_+9+_+_+0+b+r@[+}+e+ @J+M.E@<+M.Q+N.+#t n.n.E I.:@R $.{ d.",
"0 K * 6.Z I.. J.J.H.X. ._ / (@@#n+y+######y+y+o+^+U+0+(+c+q+V+}+V+}+J@E+9+p+0+9+(+H+J+[+<+$#V+[+M.M.E@A@2.6.E.V.. :@S y.p.<.q.! ",
"K+( ~.t u m W.V.X.k+C  .t : ( %#&#&#&#&#*#*###y+y+y+o+o+(+ +Y@[+[+[+@+r@U+0+9+9+r@e+}+e+r+Q+X+M.[+<+M.=#~.. J.8@S { I.#.Q b.9.%.",
"a * ^ h a * u c@*@8 Y = {.* G@-#;#>#,#'#)#)#;#&#*#####y+0+o+H+<+[+[+|@N+M+0+M+(+.+[+}+d+P+@+s+M.[+}+<+y@J H.S d@!#<.I.<.l.~#) ) ",
"C C d : V ( t ^ w 1 ^ ~.* ^ x+'#{#{#{#{#{#{#{#)#)#;#&#*#]#y+U@s+V@s+6@s@M+/+c+Y@[+[+$+w@%+|+J+[+}+M.E@j@+ <.<.!#^#T -@~.* } !.O ",
"5.B K+~.V * = u  .= t 8 ~.h /#'#(#_#_#:#_#_#_#_#{#>#)#;#-#]#<#[#V@}#O+`@_+9+Y@[+}+}+}+Q+V+V+r+[+}+X+N.s.y 2.y.=@8@I.a./ _ & B 5 ",
": v } h } c !.g l 0.] ` ] k Z.(#(#:#|#:#|#|#|#|#:#_#{#'#;#1#r.[#s@(+E+s@p+(+Y@A+[+J+`+|+1@[+V+E@V+M.Q.D.s.v@h.x@=@. G / & p@n ..",
": [ i G+!.E , b@2@$.R ^.S :@/#2#|#|#|#|#|#2#|#2#|#:#_#{#,#v.3#V@U+0+o+}#_+`.r+e+[+X+S@[+M.r+[+}+$+f+%+D.;.g.*.*.4#I.$ H V A ..'.",
"x u.i+u.` e <.^.9.b.{ q d.d.x+2#5#2#5#5#2#6#7#6#6#|#6#:#P.v.z  +M+(+/+<@r@N+Y@.@!@[+V+.@V+%+[+}+}+f+D.s.s.4.4.4.*.;+m t & n ..(@",
"h h - - ; a@p $.b.x.R d.{@Z.0@2#8#7#6#6#7#7#7#7#7#9#5#0#S.%#s@_+(+c+s@O+/+H+I+1@`+}+e+V+M.!@f+r+M.f+D.s.j.4.*.*.*.>.K@ .u ( '.'.",
"} 9 - u.u./.0.b@@ S 2 Z.c+q+I+8#9#9#9#7#7#a#a#a#a#7#5#-.U 3#]#q@<@r@^+(+`@[#J+$#J+}+P+r+}+V+`+r+M.%+-+;.g.|.4.|.3 }.4 J u _ | ( ",
"u.O l O ) ) 8.) y.S b#c+V@W+c+C.c#a#7#d#a#a#a#a#e#d#-.S.S.3#`@`@p+]#H+I+J+X+N. @}+r+V+[+V+r+Q+[+f+D.Q.;.g.,.y 4 U Y+,+E H.m +./@",
"O ) p #@c.%.f#' R.O+c+W+[#|@U+<#g#P.c#e#e#e#e#c#l@g#h#n@S.w@c+_+H+}#1@~@`+X+B+P+r+r+X+[+V+[+Q+W+D@@@s 1.O.8 ~.(.i#p J.j#. -@j 6.",
"].k#' %@l#m#T+t+]#E+W+j@7+T+U+c+n#n@o#[.[.[.g#g#h#o@n@n@z t+(+<@<@p#Y@[+.@.@}+J+r+V+V+r+V+V++@D@8 a = {.V ~.~.a G I.j#b@G.-@k ] ",
"q.k#m#m#c#Z.E+9+M+H+1@@.g P@M+Z@D@n@o#q#m@r#r#q#q#s#+#3#z+9+.+O+_+q+d+e+e+[+d+J+}+V+V+r+r+M.0@/.{.t 8 t 0 6./ _  .. <.S $.c.T G.",
"t#t#^@/#<@U+_+`..+F+d+y@d u#9+c+M.n#r#o#m@s#m@q#U j@p#r@(+_+1@c+++F+d+d+d+d+d+[+V+}+V+r+J+w@v#5+w#` ` n.a ^ W (.N # <.$.d.8@@ r ",
"x#v#C.n+H+q@M+F+i.W+q++#Z t+0+.+<+S@m@r#o#q#m@o@O+Z+/+U+E+/+q+q+d+Y@V@d+d+J+J+}+}+[+r+I+J+@#8.m#) F b@e ] _.^ +.^ 6.o.o.{ I.r r ",
"h+=#<@}#.+ +e+3@w@e+I+O.B b#a+V@e+[+D@q#o#q#q#4#O+r@z+E+(+p+z+1@W+.@r+e+[+[+[+}+V+V+V+J+@@y#z#m#m#A#) ) a.u ^ ^ _ R+i#+ I.H.+ ^ ",
"d F@B#4@<@Z+B@C#+ j@Z+3@8 b#c+}+d+I+<+0@q#m@+#N@c+~@]#Z@c+O+:+I+T@D#E#P+<+<+V+V+}+V+V+S@t.F#F#F#G#, g i#t * i 1 t j w#w#:@X.C+u ",
"J H#g+4@E#D#B#@ l I#J#<@v ;@Y@`+w@r+I+!@P+h.L+z+Y@B@`.U@1+D@.@P+!@D#B#{+e+M.V+V+V+P+@+@+@+H#K#F#' ]./.i#N ^ u a _.&@G Z W.C+% m ",
"t = u@4@L#L#R@6.I#M#N#K.@.3#q+[+<+<+Y@.@M.~@.#}#D@t@a+[#o@=#A.%+8+B#D#@+[+N.M.r+X+ @ @X+B+y@^@e.m#%@A#) i#i+B v (.- b 8 a d H 6.",
"(@W =.7+g+L#u@a.I#P@E#c K+j@:+}+<+}+@+X+6@`+j@O#i@A+]#`+0@u+w@$+V+B+P+[+A+r+}+1@%+}+@+r+P+=#P#:.K#m#%@m., Q#h w ^ t = {.* 5.0 0 ",
"'./ / W 7+R#/ 5.0 x@R#v u.x 3#q+`+|@J@.@r+$+!@D#z@`+:+4@@@R#u@:+{+s+|+V@J+@+I@P+P+}+J@r+s+*+^@:.S#m#%@q F p 9 5 _@_@A A x B T#=+",
"V = / _ W W W W L +.& < | | < y@K.y@=#@@8+U#j@K.~@~@B#O#B#{@} T+w@[+r+|+1@<+}+[+V+ @J+|+P+^@e.e.S#m#$@V#F F c h < _@A [ p@1 T#=+",
"a t b b N >+W M 4+_ [ | x [ u._@: } 5 v 5 (@V A V@d+~@D#g+} } : K.<#w@S@w@J+r+~@J@E@}+.@<+^@l#%.#@x.u.9.) ) 9 8 [ ..(@p@A : k.=+",
"* ~./ (.(.i# .N u u < 9 [ _@} ..[ [ * v v (@[ @@F+[+w@g+- = ^ = A p@V & ..7+t._ 3@V+J+A+Y@x+W#c., /.A#x.p g P - x [ (@_@[ } 9 O ",
"../ (. .#   I.+ 6.a.j Y.8 * = X#I#R._@< } Y+w@d+J+[+V@K.- - 5 K+v = } [ a | & 6 d+`+Z+V+Z+w@y.<.F.] T T b@<.:@+ {.=.= u * * w > ",
"^ I I a.. J.  . + -@j m w  .R#I#M#P@E#w@w@w@@+{+B+J+s+%#u.; k.c@v : } =.= & +.@@d+|@e+w@e+s+7+n.+ l T S V#{ S 8@e j ^ N * a c a ",
"a.a.G.S '+d@{ { :@0.n.Z k.( (@@#i@>@D#A@@+.@{+#+6@W+{+%#!.D G+D+< A } B h t #+V@W+$+Y@{+I+W+3@-@Q#R+@ d.p.d.W#p.$.w#j &@- a * 5.",
"  I.'+y.'+p.{ { :@. V.C+a [ ..C#Q@Y#L#[#w@w@~@J#Z#4@8+0./.`#D+v ( t.@#u@x+W+d+V+W+I@.@B+w@|@V@x+w#@ Q V#p.W# $ $=@@ r  .- ^ * 5.",
"R #.S { y.p.{ R R+g C 9 B < '.A 7+O@{@< ~.n.O@Q@Q@t@O@F ].f g - x+N#Z#B#w@F+W+W+r+J@}#X+<+V@}+q+D#B.b@G#S y.y.y.I.I.n.&@t ^ * 5.",
"S + S y.$.{ { + l V.!.w.T#< (@[ [ } h u.C V.&@e {@0.9.$.m.f C G@Y#.$Z#R@4@=#*+T+8+P@+$U#<#%#3@B#P@Q@@#F 8@8@J.J.+ I G 6.t ^ ( 1 ",
"b.. J.<.I.<.@ R+G G $ D+9 9 @.} } B - Z e /.E -@#.x.%@S v#f !.R#Q@+$R@@$#@$@q.#@u@Y#Y#+$C#{ ].t@+$.$F@Y k+G E.H.I ~.a H n V ( ..",
"+ r T I.+ . + ] _.I Y k.O O @.5 v v ; Q#e e l #.0.$.f#v#].F D+c @.; #@m##$$$$$m#8.K.Q@R@F V#].!.7+O@@.v ^ ^ ^ ^ ~.~.0 Y.1 n './@"};
