/* XPM */
static char *result[] = {
/* columns rows colors chars-per-pixel */
"64 64 219 2 ",
"   c #1D0601",
".  c #240B02",
"X  c #270902",
"o  c #340D04",
"O  c #2B1304",
"+  c #2F1C08",
"@  c #391507",
"#  c #37250B",
"$  c #420F02",
"%  c #481409",
"&  c #5A1A0F",
"*  c #55180B",
"=  c #5B1B10",
"-  c #611E0C",
";  c #563A06",
":  c #453D16",
">  c #53270C",
",  c #662617",
"<  c #6B2E0D",
"1  c #7A3725",
"2  c #5C4104",
"3  c #4A4217",
"4  c #4D4419",
"5  c #5B4D17",
"6  c #524619",
"7  c #554A19",
"8  c #5A4D19",
"9  c #534517",
"0  c #5D5119",
"q  c #5E5117",
"w  c #6D4B01",
"e  c #664803",
"r  c #734E01",
"t  c #725403",
"y  c #7D5501",
"u  c #7C5C05",
"i  c #635519",
"p  c #655919",
"a  c #6B5C19",
"s  c #675419",
"d  c #735C1A",
"f  c #795E19",
"g  c #785917",
"h  c #614E13",
"j  c #6F6019",
"k  c #75621A",
"l  c #7D641A",
"z  c #7E691B",
"x  c #7D4229",
"c  c #845701",
"v  c #855A01",
"b  c #8B5D01",
"n  c #835E0A",
"m  c #965F1A",
"M  c #8C6202",
"N  c #886409",
"B  c #876607",
"V  c #916501",
"C  c #946902",
"Z  c #9B6C01",
"A  c #946D0A",
"S  c #986B05",
"D  c #96730B",
"F  c #9B740B",
"G  c #9C790A",
"H  c #977105",
"J  c #82661B",
"K  c #846B1B",
"L  c #8B6D1B",
"P  c #8C6618",
"I  c #926E1C",
"U  c #8B721C",
"Y  c #8A741B",
"T  c #94731C",
"R  c #9A751C",
"E  c #947B1C",
"W  c #9C7B1D",
"Q  c #987813",
"!  c #A07409",
"~  c #A27C0A",
"^  c #A17201",
"/  c #A17E1D",
"(  c #A27F15",
")  c #8C4836",
"_  c #9B533F",
"`  c #8C7520",
"'  c #957B20",
"]  c #9A7E20",
"[  c #937520",
"{  c #A75E4C",
"}  c #9E624E",
"|  c #A7695D",
" . c #B2745B",
".. c #B37A6A",
"X. c #AF7764",
"o. c #9D831C",
"O. c #97801C",
"+. c #A5810C",
"@. c #AB840B",
"#. c #AC8609",
"$. c #B38E0A",
"%. c #AA8612",
"&. c #AD8912",
"*. c #A5831D",
"=. c #A9861D",
"-. c #A48A1C",
";. c #AD8B1D",
":. c #A68414",
">. c #B28D13",
",. c #B18E1D",
"<. c #AE911D",
"1. c #BC9314",
"2. c #B3931D",
"3. c #B9961D",
"4. c #B6981D",
"5. c #BB9A1D",
"6. c #B59214",
"7. c #BB940A",
"8. c #988121",
"9. c #AC8D21",
"0. c #A58922",
"q. c #B18D21",
"w. c #AF9122",
"e. c #B59422",
"r. c #BB9622",
"t. c #B69A23",
"y. c #BD9B23",
"u. c #BEA122",
"i. c #C19615",
"p. c #C39C15",
"a. c #C29E1D",
"s. c #C6A115",
"d. c #CAA315",
"f. c #C3A11E",
"g. c #C9A31F",
"h. c #CFA915",
"j. c #D2AA15",
"k. c #D5AD19",
"l. c #DCB616",
"z. c #E4BB16",
"x. c #C19722",
"c. c #C29D22",
"v. c #C99E22",
"b. c #C19631",
"n. c #C5A223",
"m. c #CBA522",
"M. c #C7A922",
"N. c #CCAB23",
"B. c #CFAA28",
"V. c #D1A523",
"C. c #D2AD23",
"Z. c #D9AE22",
"A. c #CFB124",
"S. c #C3B021",
"D. c #D3B423",
"F. c #DBB523",
"G. c #D7B924",
"H. c #DCBB23",
"J. c #DEBD29",
"K. c #D5B628",
"L. c #D1AC3B",
"P. c #E1B622",
"I. c #E2BD23",
"U. c #E1BE29",
"Y. c #E8BF23",
"T. c #DDC125",
"R. c #DEC12B",
"E. c #D5C32A",
"W. c #E4C224",
"Q. c #EAC423",
"!. c #ECCA25",
"~. c #E3C42B",
"^. c #E3CB2C",
"/. c #EBCB29",
"(. c #E0CE27",
"). c #F0CD24",
"_. c #F4CC2C",
"`. c #F9CB2C",
"'. c #EAD52D",
"]. c #EDDD2D",
"[. c #E5D42B",
"{. c #F4D225",
"}. c #FBDC26",
"|. c #FDD52E",
" X c #F0DF2D",
".X c #FEDB2F",
"XX c #F8D926",
"oX c #EEDD32",
"OX c #FFD330",
"+X c #FFDD30",
"@X c #EDE12E",
"#X c #F1E22E",
"$X c #FEE42E",
"%X c #FFEB2E",
"&X c #F9E829",
"*X c #FEF32F",
"=X c #FCFA2F",
"-X c #F2E333",
";X c #FFE431",
":X c #FEEB32",
">X c #F7E933",
",X c #FFF432",
"<X c #FFFE33",
"1X c #FFFF3A",
"2X c #EEE033",
"3X c #BC8678",
"4X c #D09373",
"5X c #DBC37B",
"6X c #EDCE5F",
"7X c #DDA696",
"8X c #EAB193",
"9X c #F8B8AB",
"0X c #E7B8AD",
"qX c #F4D0AF",
"wX c #FFD7CA",
"eX c #F9E6C6",
"rX c #FFEADF",
"tX c #FFFAF1",
"yX c None",
/* pixels */
"yXyXyXyXyXyXyXyXyXyXyXyXyXyXyXyXt B B D F +.%.>.>.6.>.>.;.&.&.&.6.1.d.d.d.d.s.7.%.&.%.%.@.D D t yXyXyXyXyXyXyXyXyXyXyXyXyXyXyXyX",
"yXyXyXyXyXyXyXyXyXyXyXyXB #.p.D.M.q.e.e.e.n.n.n.u.n.u.n.n.y.y.n.A.A.W.W.T.(.G.A.y.n.M.B.A.N.M.M.2.:.D u yXyXyXyXyXyXyXyXyXyXyXyX",
"yXyXyXyXyXyXyXyXyXH :.<.u.A.H.I.G.c.c.c.r.M.B.n.n.n.n.M.c.u.y.n.B.A.T.T.T.T.G.D.c.M.B.N.D.D.N.C.M.y.e.;.*.D n yXyXyXyXyXyXyXyXyX",
"yXyXyXyXyXyXt ~ 5.n.n.n.C.W.Q.!.U.M.c.m.c.m.N.B.u.u.u.M.y.y.y.n.n.N.T.T.T.T.G.N.n.u.B.B.G.H.D.D.C.y.y.r.e.9.=.Q B yXyXyXyXyXyXyX",
"yXyXyXyXyXA &.M.A.N.V.C.H.W.).Q.U.N.m.c.c.n.N.m.n.u.n.M.t.r.y.y.n.M.H.T.H.T.D.C.c.n.B.S.F.D.C.D.C.n.y.5.r.r.2.e.9.G B yXyXyXyXyX",
"yXyXyXt +.2.y.D.G.D.D.D.H.W.W.Q.H.N.v.n.c.c.m.n.u.y.n.n.t.y.y.r.n.B.G.G.H.H.D.N.c.n.N.N.D.G.D.C.C.n.y.c.r.y.y.r.e.e.;.A 2 yXyXyX",
"yXyXB ~ u.n.m.G.H.F.C.D.G.G.W.~.F.n.0.J i 5 i s 0 8 0 8 7 7 7 7 8 0 p j a a i 5 7 i p j E u.D.C.C.n.c.y.y.r.y.y.y.c.c.9.B e yXyX",
"yXt ~ a.N.N.V.H.H.G.C.D.D.D.W.M.k 8 7 7 5 8 8 8 7 8 0 8 8 7 7 7 7 5 p p p p 0 8 7 7 0 0 p p a Y M.n.y.y.y.r.x.y.c.m.N.t.-.B ; yX",
"yXH a.D.D.C.C.I.I.F.D.C.D.M.z a s 7 7 6 6 6 7 8 8 i s s 0 0 8 8 i i a k d a p i 8 7 8 8 i p p a d L c.r.c.r.y.c.n.m.C.n.r.:.t yX",
"b #.N.H.F.C.Z.I.H.F.C.D.t.a j k i 7 6 7 g J R [ W / ;.=./ W W W W *.q.2.3.2.=.W T L L l a j a d l k z r.y.c.3.r.n.M.F.g.n.,.N 2 ",
"M 1.F.I.H.Z.C.H.I.G.C.N.d a j j s 8 d J P I [ / W / q./ / / W [ W *.,.5.5.3.=./ E I W o.W U z l z J f L c.y.c.y.n.N.D.C.V.c.F e ",
"V p.H.I.I.D.Z.H.H.G.m.;.l k K z k d P P L I / / / *./ 9./ W R ] / *.,.5.5.3.=./ W [ W *.*.=.E U T L L P 3.c.u.y.c.V.F.F.C.n.:.r ",
"B s.H.W.I.C.C.F.H.H.n.-.l l L Y K K L P I T o.=.*.*.,.*./ W W W *.=.,.3.5.3.=.*.W T W / *.2.=.o.W W R L r.y.c.y.c.V.F.H.Z.m.>.y ",
"C s.H.W.I.C.C.P.T.H.C.-.l f L Y Y Y I L I T / =.*.=.,.=./ W W W o.*.;.r.5.5.9.*.W T ] *.=.2.;.*.W W R L 3.c.y.y.a.m.G.I.F.C.>.c ",
"C s.W.W.H.C.V.G.I.H.D.9.l g Y Y Y T R I T T / :.*.=.,.=./ / W W ] =.;.3.5.5.;./ O.E W *.=.2.,.=./ / I L r.y.y.y.y.m.D.P.P.Z.i.b ",
"C s.W.W.I.D.C.H.I.I.k.;.l f Y E T R R I I R / *.*.=.,.=./ R W W / *.;.2.5.4.;.*.*.T T *.=.2.2.=.*.*.R I r.y.c.y.y.m.F.U.P.Z.i.M ",
"Z d.z.W.H.C.C.H.I.I.G.2.l f Y O.E E / I I R / ( =.,.,.;./ / / R / *.;.2.5.3.;./ / W T W =.2.5.;.*./ Q R 5.y.c.y.y.n.D.Y.I.k.i.V ",
"S d.W.W.H.C.C.H.Q.P.P.3.J J E O.o.o./ R R / / / / ;.2.;.;./ W W / / ;.,.y.3.,.*.*.W W *.;.4.5.,.*.=./ W c.c.n.y.c.n.V.Y.I.G.i.V ",
"C s.W.W.I.C.m.I.Q.Y.U.3.U K E o.o.O./ I R / / =.=.,.,.=.;./ / R / / =.2.5.3.2.*.W *.T W =.5.5.4.=.=.*.R y.c.n.y.y.n.C.I.Y.Z.i.b ",
"C s.I.W.H.m.V.H.Q.Q.Q.3.L L O.o.o.:./ R R ( / =.=.q.1.,.,./ / R W 0.=.,.3.5.2.*.*.W T W =.4.a.2.;.=.*./ c.n.n.y.r.c.C.I.I.Z.i.b ",
"M s.I.W.I.C.m.P.Q.Y.Q.x.I U E o.=.=./ R R / / / =.,.,.,.,./ / W / / *.,.3.y.3.=.W / T W =.6.a.5.;.;./ / 3.m.n.c.c.c.C.F.I.P.1.b ",
"M p.I.Y.I.m.C.F.Q.Q.Q.a.U U o.-./ / / R I R / =.=.,.3.,.;./ / W W / =.,.2.p.5.=./ / R R *.2.n.5.,.;.=.=.r.c.n.n.v.N.C.F.Y.F.1.b ",
"b p.I.W.I.V.m.F.Q.Y.Q.a.L U O.o.*.=./ / R R / ,.=.,.i.,.;./ / W ] / =.,.3.a.a.;.W / W T *.,.f.5.>.,.;./ y.n.n.n.m.m.C.F.Y.Z.1.b ",
"v s.I.U.H.Z.m.F.Y.Y.Q.f.U A E o.*.:./ / R / ( =.=.,.x.,.;.0./ W W / *.2.5.f.a.,.*./ R R *.,.f.5.,.,.=./ y.n.n.n.N.V.C.Z.P.P.1.c ",
"v s.W.z.I.V.m.C.Y.Y.Q.g.Y L E o.o.-.;./ R W *.;.;.,.p.2.;.*./ / / / *.2.3.a.a.,.=./ W W / ,.u.5.6.,.;.=.y.m.n.g.N.N.C.C.Y.P.1.c ",
"u 1.H.W.H.V.m.C.P.Y.Q.g.L Y W <.S.*X$X$X|.|.$X&X%X*X=X,X*X%X$X+XOX+X%X,X<X<X<X,X;X%X|.|.+X:X,XG.a.,.,.=.c.M.M.m.N.V.V.D.H.F.1.c ",
"c i.H.W.H.N.M.A.P.Y.Q.a.Y O.u.#X<X<X%X$X.X.X%X*X=X=X<X<X,X:X;X;X+X+X;X:X<X<X<X<X:X%X+X+X+X:X<X<X#XN.5.,.n.m.m.m.N.C.C.k.F.F.1.c ",
"y 1.H.U.G.N.n.g.P.Y.Q.g.<.[.<X<X<X<X:X:X;X+X:X,X*X=X<X<X,X:X:X;X+X;X:X<X<X<X<X<X<X:X;X+X;X,X<X<X<X<X[.m.M.m.m.N.N.V.C.F.P.P.i.c ",
"y 1.z.I.F.L.8XqXeXeXqX8X6X6X2X@X#X@X^.^.^.^.^.'.'.]. X#X].^.^.~.R.R.^.'.]. X X X'.'.[.U.~.^.oX-X#X#X].].n.M.N.N.C.C.C.C.F.I.1.c ",
"y 6.k.4X8X9XwXrXtXrXwXqX7X4X..X.r.D.n.n.u.u.n.D.C.C.H.H.F.m.u.c.t.t.u.N.H.H.H.F.C.D.N.r.n.n.G.W.W.H.H.D.D.N.C.N.C.C.C.F.F.P.i.c ",
"y m _ {  .7X8X9X3X| | ......} ) ) x t.y.y.y.n.B.V.C.H.I.G.n.r.r.t.y.y.C.F.H.H.D.N.N.B.r.y.n.D.!.W.T.G.G.D.A.C.N.N.D.C.Z.F.P.i.c ",
"; - , 1 ) ) & & = = = & = , 1 , = & > e.y.t.c.B.C.D.H.H.G.n.t.t.y.t.c.B.H.F.K.N.M.B.B.r.y.n.N.!.W.G.G.D.D.D.D.D.g.C.D.F.Z.P.i.c ",
"$ * = = , = & & & & & & = = = % % % $ P t.t.y.V.C.C.H.H.K.u.t.t.y.y.y.B.G.G.N.N.m.M.N.e.t.n.C.W.W.G.G.D.A.A.D.N.C.C.Z.F.Z.F.i.c ",
"o @ % % % & & & & & & & = = % o o o o g 9.w.t.N.N.C.H.H.G.n.t.t.t.t.u.B.J.G.A.C.B.n.B.e.e.n.C.W.W.J.G.G.G.A.N.N.B.k.C.F.Z.P.i.c ",
"% o @ o o o = = & & = & & % X X . . O ] 0.9.e.M.N.N.H.G.G.M.t.t.y.y.y.M.J.A.B.N.m.M.m.e.r.u.N.W.T.G.A.G.G.A.N.C.N.N.C.G.Z.F.i.b ",
"w ; X X .   . X o @ o o . . .   . O Y 8.0.w.4.m.m.m.H.G.D.B.y.t.t.t.u.B.D.D.N.N.m.M.n.t.e.n.m.W.G.G.G.A.D.D.N.D.N.D.D.F.Z.F.i.b ",
"w A Y @                         5 E ' 8.9.e.t.n.m.m.G.H.D.N.t.t.t.t.u.N.A.N.D.N.B.n.u.e.e.n.M.W.T.G.D.D.D.D.D.N.C.D.D.F.F.F.i.b ",
"r Q 8.8.` d : @ O X . O + > : : : 4 3 4 4 7 7 q 5 h a a p 0 7 7 7 7 7 0 i i p i 0 8 6 6 6 8 i j j a a K A.A.A.A.D.D.D.F.F.F.i.b ",
"y &.y.w.] ` J l z ` ' z 8 : 6 : 4 7 4 4 6 6 6 5 5 q i i 0 8 7 7 7 7 8 0 p 0 0 0 0 7 6 6 4 7 q p p K o.=.N.A.A.A.D.D.D.P.P.Z.i.b ",
"b 1.A.M.y.0.] [ [ [ ] ` s 0 a a 0 0 7 6 7 6 6 7 7 7 0 i 0 7 7 7 7 7 7 0 p p 0 0 0 7 6 4 4 6 7 k O.-.=.:.N.N.k.A.D.G.F.I.I.P.i.b ",
"b 5.F.F.C.n.e.q.q.r.n.=.d d l J K Y z d k l k l J K Y Y Y K l l z z J L E E Y Y Y z l k d f T =.;.2.;.-.M.C.N.D.D.F.F.H.I.F.i.b ",
"b p.I.l.F.N.x.r.r.c.N.,.k g z K Y E / T ] T W / / *.;.2.=.*.T R ] ] W =.4.4.<.=.=.W R L L T / ;.,.;.;.=.N.M.N.D.F.G.G.H.I.l.p.b ",
"M p.I.I.F.C.x.x.r.c.N.,.l f J L E o.-.W / W / =.=.-.,.2.;.*.W E W W *.=.5.4.2.;.=.*.R I L R *.;.2.<.<.;.g.A.N.D.D.G.G.H.U.P.p.b ",
"M p.I.I.F.C.v.x.x.v.N.e.l l K Y E o.9./ *.*.-.=.=.=.2.4.,.:.W W W W W =.4.5.2.2.;./ W T I T *.2.2.4.2.<.g.N.N.D.D.G.H.I.Y.P.i.M ",
"M s.I.I.P.F.c.x.x.v.V.;.l z K U O.-.;.*.=.*.-.;.=.-.,.2.,.0.R W W ] / *.5.5.4.2.;.*.W I I T *.,.;.2.2.<.N.C.A.D.G.H.H.I.Q.Y.i.M ",
"M s.I.I.I.Z.v.x.r.m.V.;.l z L Y O.-.-.*.=.*.=.;.;.=.,.4.;.*.W W W W / 0.5.5.4.2.,.*.W I T R / ;.2.2.2.&.M.A.C.D.D.G.H.W.W.P.p.M ",
"M p.I.I.P.Z.v.r.r.v.C.=.k l Y Y O.-.;.=.-.-.-.,.;.=.,.2.;.=.W W W W W =.5.5.5.2.,.*.W I T T *.;.<.2.<.<.M.N.A.D.D.l.H.W.Q.Y.p.M ",
"M s.z.Y.H.F.m.c.x.m.C.0.l J K Y O.-.;.=.=.=.=.;.,.=.,.2.,.=.W ] / W / *.3.5.4.2.;.*.R I I T o.;.2.<.2.<.M.N.C.B.G.G.I.W.W.Y.p.M ",
"V p.W.Y.I.F.m.x.x.v.V.=.l l J U O.o.<.-.=.=.=.;.;.=.,.2.<.=.W W W W W *.5.5.4.2.,.*.W I R T *.;.;.2.<.<.M.A.A.N.D.G.W.Y.W.W.s.V ",
"M d.W.W.P.l.V.x.r.v.V.0.k J J U O.0.;.-.=.=.=.;.;.;.2.4.;.=.W W / W W =.5.5.5.4.,.*.T I T T W =.2.<.2.;.g.N.A.D.D.G.H.Q.!.W.s.V ",
"V s.I.W.Y.F.m.x.x.m.m.*.l l J U E o.;.=.0.*.=.=.;.=.;.2.;.=.R W W W W =.4.5.5.4.;.=.T I U T W -.2.<.2.<.M.N.N.C.D.G.I.W.!.Q.d.C ",
"V s.W.W.Y.F.V.x.x.n.v.0.l l J L E -.,.=.*.*.*.-.<.;.<.2.<.=.W W W W W :.5.5.5.4.,.*.T T T T W =.;.<.6.<.M.M.D.C.D.G.W.W.!.!.d.C ",
"V p.W.W.z.I.V.v.c.c.c.0.J l J Y O.o.w.0.*.=.*.;.2.2.,.4.2.:.W W W W / / 5.5.5.4.,.*.T I L T W =.<.2.<.<.g.A.N.D.D.G.T.Q.{.!.j.C ",
"C s.W.W.Q.P.V.c.x.v.v.*.z J J K O.o.2.-.-.=.0.;.2.2.4.4.2.;.*.W W ] / =.5.5.5.4.2.=.T I T E *.=.;.;.<.2.g.g.D.N.D.G.W.Q.{.).j.C ",
"V d.Y.Q.Q.P.Z.v.v.v.v.0.z z J U w.@X,X>X:X:X>X:X=X=X=X=X<X%X$X|.|.|.+X;X=X<X,X<X*X%X`.`._.OX~.e.5.2.<.<.S.M.A.D.D.G.Y.!.{.).j.Z ",
"C h.Q.W.Q.P.Z.m.c.m.v.9.J L E E.<X<X1X<X1X<X,X<X<X<X<X<X<X<X:X;X;X;X;X,X<X<X<X<X<X,X|.OXOXOX+X:X(.f.5.2.M.A.D.A.D.G.U.Q.{.).j.Z ",
"V h.Q.Q.Y.Y.Z.v.c.v.m.,.E u.;X1X1X1X1X1X1X1X1X<X<X<X<X<X<X<X,X:X,X:X:X,X1X<X<X<X<X<X+XOXOX+X;X:X<X=XE.g.N.A.D.C.D.G.W.Q.{.{.k.C ",
"C h.Q.Q.Q.Y.P.v.v.m.m.n.^.'.'.-X>X>X>X-X-XoXoX2X>X>X>X-X@XoX].[.'.'.'.'.].2X@X@X@X2XR.J.U.U.^.'.@X@X@X'.A.D.A.N.D.G.I.W.XXXXk.Z ",
"C h.Q.).Q.Y.Z.V.m.V.V.V.Z.K.C.F./._./.U.J.K.K.J.^._./.T.G.A.B.B.B.N.M.M.A.G.D.G.G.A.y.e.r.r.c.m.G.G.G.H.G.D.D.D.D.G.Y.!.XX}.l.Z ",
"C j.Q.).Q.Q.P.V.V.V.V.C.F.F.D.I.~././.U.J.J.K.J.!.{./.H.G.D.C.m.N.B.B.N.G.D.D.D.D.D.n.r.e.r.c.B.D.G.G.W.T.G.D.G.G.H.I.!.XX}.l.^ ",
"V j.).).).Y.P.V.V.Z.V.Z.H.H.F.I.~.~.Q.U.H.J.H.W.).{.!.T.G.D.N.N.N.C.N.N.A.A.G.A.A.K.n.r.r.t.c.m.G.H.I.W.W.G.G.G.H.l.T.!.XX}.z.Z ",
"C h.Q.).Q.Q.Y.Z.m.Z.F.F.F.P.F.P.Q.Q.Y.P.U.I.U.W.).XX).H.F.D.D.N.C.N.N.N.D.G.A.E.G.D.M.t.e.r.c.m.D.G.G.W.W.H.G.G.G.G.W.!.}.&Xz.^ ",
"C j.).).).Y.I.Z.V.Z.Z.P.P.P.F.I.Q.Q.Q.F.I.~.W.Q.!.XX).G.H.G.D.C.m.V.N.A.A.G.G.D.G.A.m.r.e.r.r.m.D.G.G.T.W.H.H.G.G.F.T.!.}.}.z.^ ",
"c ^ ~ #.@.@.~ ! S F ! ~ ~ ! ! ~ @.@.~ ~ ~ ~ +.#.#.$.#.G ~ F F A A A H H D H O.D G F A N n n N A F G G ~ ~ ~ G F G F ^ #.7.i.~ b "
};
