/* XPM */
static char * ggnmL_xpm[] = {
"64 64 371 2",
"  	c #8F9251",
". 	c #969A52",
"+ 	c #9EA35A",
"@ 	c #ADB262",
"# 	c #C3C980",
"$ 	c #8D8B52",
"% 	c #8B8551",
"& 	c #C5BB92",
"* 	c #B4AC7B",
"= 	c #C3BB8C",
"- 	c #C2BB85",
"; 	c #C1BC7D",
"> 	c #A59B67",
", 	c #A19E56",
"' 	c #999B3C",
") 	c #A19E4D",
"! 	c #A4AB44",
"~ 	c #A4AA4C",
"{ 	c #959B43",
"] 	c #A7A961",
"^ 	c #B7B182",
"/ 	c #BFB98A",
"( 	c #B5AC82",
"_ 	c #C7C192",
": 	c #BAAE83",
"< 	c #B2A67B",
"[ 	c #C1B68B",
"} 	c #C0B685",
"| 	c #C9BE9A",
"1 	c #A59B73",
"2 	c #D1C59C",
"3 	c #B1A66C",
"4 	c #B8AB76",
"5 	c #D5CAA4",
"6 	c #D9CEA5",
"7 	c #B3AC74",
"8 	c #A99E6C",
"9 	c #9D9668",
"0 	c #ACA474",
"a 	c #CAC38C",
"b 	c #ABA46C",
"c 	c #A39C64",
"d 	c #A4A35B",
"e 	c #918E45",
"f 	c #B2AD6C",
"g 	c #C8BD8E",
"h 	c #A99E72",
"i 	c #B5B373",
"j 	c #B6B871",
"k 	c #B3B36C",
"l 	c #AEAA73",
"m 	c #ADA37A",
"n 	c #D4CCA2",
"o 	c #A9A55E",
"p 	c #AAAD4D",
"q 	c #AEB16B",
"r 	c #BCB383",
"s 	c #AFAA7A",
"t 	c #B9AE7D",
"u 	c #A49C6B",
"v 	c #C9BD93",
"w 	c #C2B591",
"x 	c #B1A673",
"y 	c #9A945C",
"z 	c #918D4C",
"A 	c #9C9B54",
"B 	c #99954A",
"C 	c #ADAB6B",
"D 	c #9E9968",
"E 	c #959359",
"F 	c #9D9B5B",
"G 	c #938B5B",
"H 	c #CEC5A0",
"I 	c #D3CB9C",
"J 	c #CDC995",
"K 	c #A0955C",
"L 	c #B9B574",
"M 	c #AAAC5B",
"N 	c #ADB25C",
"O 	c #9DA14B",
"P 	c #A5A95B",
"Q 	c #B6B17B",
"R 	c #BEB48A",
"S 	c #B2B5BB",
"T 	c #CEC99B",
"U 	c #D6CB9B",
"V 	c #928D54",
"W 	c #A9A464",
"X 	c #A29D5D",
"Y 	c #BEBA84",
"Z 	c #B1A581",
"` 	c #CCC49A",
" .	c #B5BA64",
"..	c #A5AA54",
"+.	c #ABB14B",
"@.	c #A5A264",
"#.	c #A5A26A",
"$.	c #CBC393",
"%.	c #D2D3D5",
"&.	c #941424",
"*.	c #A09670",
"=.	c #BFB591",
"-.	c #999454",
";.	c #BAB37C",
">.	c #918E3F",
",.	c #9A9C4B",
"'.	c #B1AE64",
").	c #C5C28B",
"!.	c #C4C284",
"~.	c #BBC156",
"{.	c #9EA252",
"].	c #979261",
"^.	c #BDBA7B",
"/.	c #A50B1E",
"(.	c #E5021E",
"_.	c #CCC98B",
":.	c #A6A073",
"<.	c #898B35",
"[.	c #949736",
"}.	c #AAAC54",
"|.	c #B3B363",
"1.	c #AFB172",
"2.	c #BEC369",
"3.	c #ADB254",
"4.	c #9DA343",
"5.	c #A4AB3B",
"6.	c #949C2D",
"7.	c #988D62",
"8.	c #937E81",
"9.	c #FF0221",
"0.	c #F2021F",
"a.	c #A19565",
"b.	c #94944C",
"c.	c #A8A753",
"d.	c #BCC373",
"e.	c #949B3C",
"f.	c #949B33",
"g.	c #C1BB79",
"h.	c #EC021F",
"i.	c #CBCED3",
"j.	c #857E80",
"k.	c #9C9463",
"l.	c #B2B45C",
"m.	c #8D923C",
"n.	c #95994A",
"o.	c #ACAB64",
"p.	c #858342",
"q.	c #B6B8BD",
"r.	c #931E2D",
"s.	c #A39497",
"t.	c #9E9A63",
"u.	c #B6B96B",
"v.	c #868948",
"w.	c #8E9249",
"x.	c #878A40",
"y.	c #7E7D44",
"z.	c #650D18",
"A.	c #CC021B",
"B.	c #88873D",
"C.	c #959352",
"D.	c #7C7C3C",
"E.	c #8C8858",
"F.	c #F50220",
"G.	c #7D434B",
"H.	c #9A9C44",
"I.	c #92875C",
"J.	c #D5D29A",
"K.	c #84843B",
"L.	c #7E8138",
"M.	c #7B7C34",
"N.	c #746E39",
"O.	c #837F50",
"P.	c #B1081D",
"Q.	c #9D9496",
"R.	c #A1A543",
"S.	c #A99E79",
"T.	c #D6D1A3",
"U.	c #6C6C26",
"V.	c #833641",
"W.	c #9B9B9E",
"X.	c #929444",
"Y.	c #8B8C44",
"Z.	c #D1CA94",
"`.	c #C9C483",
" +	c #8D8B4A",
".+	c #76782A",
"++	c #92777D",
"@+	c #846469",
"#+	c #898543",
"$+	c #767433",
"%+	c #AAA5A9",
"&+	c #AC091E",
"*+	c #858249",
"=+	c #847D43",
"-+	c #828535",
";+	c #BFBEC0",
">+	c #ADADB1",
",+	c #BAAE89",
"'+	c #8B854C",
")+	c #91933D",
"!+	c #8A8C3C",
"~+	c #8D9244",
"{+	c #B4AEAF",
"]+	c #D5021C",
"^+	c #988D5D",
"/+	c #899031",
"(+	c #7A7D2C",
"_+	c #A2A44B",
":+	c #8B6C71",
"<+	c #9E1123",
"[+	c #BCBB74",
"}+	c #BEC479",
"|+	c #DCD3AA",
"1+	c #B6BB5A",
"2+	c #981B2B",
"3+	c #892532",
"4+	c #AE0F23",
"5+	c #94868B",
"6+	c #88303B",
"7+	c #A3A453",
"8+	c #B9B66E",
"9+	c #BABC5B",
"0+	c #AAAE43",
"a+	c #B3B653",
"b+	c #7D7545",
"c+	c #BAB7B8",
"d+	c #865C63",
"e+	c #BABC65",
"f+	c #B3BA53",
"g+	c #9BA334",
"h+	c #A9A4A5",
"i+	c #D50220",
"j+	c #823843",
"k+	c #BABB6B",
"l+	c #948B91",
"m+	c #85434B",
"n+	c #C8C77E",
"o+	c #CAC982",
"p+	c #D5D7D9",
"q+	c #868B3C",
"r+	c #845359",
"s+	c #C2C474",
"t+	c #7D6067",
"u+	c #857B4A",
"v+	c #7D8034",
"w+	c #525052",
"x+	c #4E3237",
"y+	c #8C7276",
"z+	c #807F3C",
"A+	c #656566",
"B+	c #838688",
"C+	c #980E1F",
"D+	c #6F6C6E",
"E+	c #7D7C86",
"F+	c #7E8083",
"G+	c #5F020E",
"H+	c #A50115",
"I+	c #614348",
"J+	c #929598",
"K+	c #565758",
"L+	c #9D9FA0",
"M+	c #950113",
"N+	c #671F29",
"O+	c #AFB1B5",
"P+	c #8B0112",
"Q+	c #8B8B8D",
"R+	c #C3011A",
"S+	c #65252D",
"T+	c #5B5B5C",
"U+	c #CCCCCD",
"V+	c #7E6669",
"W+	c #82333D",
"X+	c #919395",
"Y+	c #999798",
"Z+	c #7A4C53",
"`+	c #743941",
" @	c #E6E7E8",
".@	c #87696D",
"+@	c #DBDBDC",
"@@	c #E2E3E4",
"#@	c #832E38",
"$@	c #DC021D",
"%@	c #77010F",
"&@	c #8C8F92",
"*@	c #838486",
"=@	c #A7061A",
"-@	c #4B1B21",
";@	c #75333C",
">@	c #9B0719",
",@	c #7A2833",
"'@	c #8F9295",
")@	c #8E8083",
"!@	c #848B34",
"~@	c #C5C27D",
"{@	c #B50117",
"]@	c #5E5256",
"^@	c #4D373B",
"/@	c #8E878D",
"(@	c #7C8125",
"_@	c #7D0110",
":@	c #89797C",
"<@	c #353233",
"[@	c #727273",
"}@	c #ACABAD",
"|@	c #7E7C7D",
"1@	c #7A1E29",
"2@	c #860111",
"3@	c #765055",
"4@	c #DEDFE0",
"5@	c #B4B4B4",
"6@	c #775D61",
"7@	c #980215",
"8@	c #C7BC98",
"9@	c #820918",
"0@	c #79232E",
"a@	c #DFE0E1",
"b@	c #871927",
"c@	c #C3C6C9",
"d@	c #AB0116",
"e@	c #831F2C",
"f@	c #BD031A",
"g@	c #817C8E",
"h@	c #8E8A9D",
"i@	c #998A8D",
"j@	c #534549",
"k@	c #44282C",
"l@	c #6D6C75",
"m@	c #59232B",
"n@	c #878B29",
"o@	c #ACB343",
"p@	c #A2A63B",
"q@	c #64010D",
"r@	c #872935",
"s@	c #9CA23C",
"t@	c #5D0C17",
"u@	c #8C3842",
"v@	c #CDD0D5",
"w@	c #8C932B",
"x@	c #B1B845",
"y@	c #B80A1F",
"z@	c #C7C8C9",
"A@	c #BCBCBC",
"B@	c #854C54",
"C@	c #85892C",
"D@	c #A01729",
"E@	c #310106",
"F@	c #B0AE59",
"G@	c #020000",
"H@	c #909829",
"I@	c #878D1F",
"J@	c #8E9524",
"K@	c #84222F",
"L@	c #ABB33C",
"M@	c #0B0B0B",
"N@	c #C4C96C",
"O@	c #080001",
"P@	c #3B0008",
"Q@	c #111112",
"R@	c #A3A1A4",
"S@	c #AAAF3D",
"T@	c #A0999B",
"U@	c #F1F4F8",
"V@	c #774951",
"W@	c #270005",
"X@	c #AC051A",
"Y@	c #221C1E",
"Z@	c #37383A",
"`@	c #100002",
" #	c #785F62",
".#	c #B5B94B",
"+#	c #C5C85A",
"  . + @ # $ % & * = - ; > , ' ) ! ~ { . ] ^ / ^ ^ ( / _ = : < [ } [ | [ 1 2 3 4 4 } [ 5 6 5 [ 7 4 8 9 0 a b c d , , e f b 4 g h ",
"i j k j l 9 m n a 0 - 4 4 o ) p ~ { { .   + q ^ 9 ^ r s } t u 0 [ & [ v [ } } h < r w | | 5 [ } < < r } a x y z A B o C t x v h ",
"D y E F G r H I J - b K c i L M N O ~ N . P P q F b Q / v = R : = = } g S 4 } > 0 : R T U 6 } < 0 1 g = = } b V W X i ; } } : 1 ",
"Y $ $ ^ Z & ` v c , X o y 7 3 f  ...~ ~ +.N ..P @.E #.& [ } $.< [ } } %.&.g g *.Z =.R _ U 6 2 4 < < [ = = = t -.c V 3 i a g [ 1 ",
"Q E c $.v =.R ;.e >.,...'.7 ).!.@ N ~ ! ~.! ! {.B F G ].< [ [ t t } ^./.(._.U * :.=.^ J U g U } 1 < } w | U ` < y E #.* - = R u ",
"i l g g & / 0 z <.' [.}.|.C !.1.N 2.3.4.5.6.4.~ ,.X V 7.r = R r t ; 8.9.0.y I / :.^ s ^ } } U } < } } v U | | } a.s 0 ).* = * u ",
"Q b } v _ [ 0 b.c.c.3.3.{ ] @.).d.d.2.~ e.f.+.2.M z y * [ R ( : g.g.h.9.9.i.!.j.Q s c 0 b t ` [ < < } w | 5 | g D 0 s ^ r * 0 k.",
";.4 } g = v - f ) l.2.4.{.j 1.@.+ . N ..e.m.{ n.o.p.V * R : : R } &.9.9.9.q.r.s.A t.c i > t t ( } < [ w v 6 v t 1 m s r * Q t.% ",
"< g.( [ R = = Q 3 o.u.@ q C   v.w.+ {.+ w.x.    y.$ 0 r r [ w r 8.9.9.9.9.z.A.m.B.w.E y k.( a.} [ < } w v U [ 0 0 m 0 Y / 7 t.y.",
"w w [ ( ( * * ].r ).1.. q C.p.w.x.v.  +   D.E._ Q Q ^ ^ r : [ ` F.F.9.9.9.9.G.~ H.w.w.t.^ I.:.r } g.} g $.2 [ 8 k./ * - a b C.D.",
"} w [ ( * 7 ;.c 0 Y J.#.k q v.K.L.M.N.D.y.O.E.^ ^ ^ / ^ r = & P.9.9.9.9.9.9.Q.R.m.{.C.G r R _ * S.} : [ J v ;.h u 0 ^ 7 - - F v.",
"} g g t b b @.F Y T.J.J j A B.U.x.+ #.#.E.O.E.^ ^ ^ r * / R V.9.9.9.9.9.9.9.W.X.{ Y.D.#.g n v _ < < } g.Z.- Q 0 u 7 - } `.a C  +",
"} g g ; W o.A X ^ s = !.F B o .+U.@.i C #.l s s D / ^ 9 ^ ++9.9.9.9.9.9.9.9.@+d d C K * J v n ` w < < 4 r - t x x t 4 > l a F X ",
"} } U g Q + F C Q #.- #.A -.L #+$+-.W i F E @.;.0 s = _ %+F.9.9.9.9.9.9.9.9.&+t t r r = g & J T U : 0 * 3 - 4 3 0 ;.t > ;.z f z ",
"& 2 6 5 Q   . ] ).Y J *+;.b y } =+z A B -+b.A W j J _ ;+F.9.9.9.9.9.9.9.9.9.9.>+,+,+} t Q $./ ` 5 T < 0 > 7 ;.b x t } ;.=+N.'+C.",
"/ 2 [ 6 J C 0 Q ).I 2 u Q 8 : u @.C.A ,.)+H.!+~+!.Y {+F.9.9.9.9.9.9.9.9.9.9.9.]+[ w } } - ;.J J _ J.r t.X ^+;.8 ;.r ;.} > y V X ",
"Y Q #.J J.#.D )._ & 5 5 _ ` H r ).$+n.m.{ /+(+_+] :+9.9.9.9.9.9.9.9.9.9.9.9.9.9.<+} - g.X ]  +[+b.K.#+X X ;.- } g * R * Q 7 3 W ",
"+ ] 1.}+#   #.Y _ _ ` |+` =.R = - + !+N e./+1+N 2+9.9.9.9.9.9.9.9.9.9.9.9.9.9.9.9.3+g.d d , o g._+p }.,., j L k.* 0 u 1 t t < y ",
"M.L.w.v.v.L.+ ).!.s ^+1 i.4+T Y ).C F x.{ ..5+(.9.9.9.9.9.9.9.9.9.9.9.9.9.9.9.9.9.9.6+f 7+8+o.u.9+0+! a+N |.o.^.).G b+I.Z ( m 1 ",
"~+O {.O w.. [+# i y E.].c+9.d+Y ).Y + w.+ r.9.9.9.9.9.9.9.9.9.9.9.9.9.9.9.9.9.9.9.9.9.V.f o.o.e+f+g++.' }.M [+g.!.- 1 v R *.,+S.",
"L.w.{.{.+ n.@ w.^.W 0 = h+9.F.[ R ` Q ;+i+9.9.9.9.9.9.9.9.9.9.9.9.9.9.9.9.9.9.9.9.9.9.9.j+'.8+k+p ! +.3...k+u.f !.a t } h < r I.",
"..~+N m.{ @ ~+@.^. +s Q >+9.9.P._ T l+F.9.9.9.9.9.9.9.9.9.9.9.9.9.9.9.9.9.9.9.9.9.9.9.9.9.m+n+o+l.{...,.{.n.p+f i F x Q 7 _ > G ",
"}+d.w.~+x.q+~+F C t.u [ : 9.A.9.3+5+9.9.9.9.9.9.9.9.9.9.9.9.9.9.9.9.9.9.9.9.9.9.9.9.9.9.9.9.r+z X.s+ .++4+0.t+C.i X =+3 } } ^+u+",
"# }+P {.] v+L.L.V E 0 ( [ w+x+9.A.9.9.9.9.9.9.9.9.9.9.9.9.9.9.9.9.9.9.9.9.9.9.9.9.9.9.9.9.9.9.y++ d+h.9.9.0.%.W z+4 > 4 t ,+7.u+",
"+ + . w.w.w.P L.] Q Y = m A+B+9.A.9.9.9.9.9.9.9.9.9.9.9.9.9.9.9.9.9.9.9.9.9.9.9.9.9.9.9.9.9.9.F.&.9.9.C+D+E+-.c W t > 8 ; > 7.O.",
"  . P O {.O m.n.@.}+!.9 x ,+F+G+9.9.9.9.9.9.9.9.9.9.9.9.9.9.9.9.9.9.9.9.9.9.9.9.9.9.9.9.9.9.9.H+0.9.I+J+J+K+3 c x g.x x < 8 a.a.",
"  {.w.{ N  .N O o.d i i = = L+F.9.9.9.9.9.9.9.9.9.9.9.9.9.9.9.9.9.9.9.9.9.9.9.9.9.9.9.9.9.9.M+9.9.N+J+J+J+O+b b 4 t 7 ;.x h 8 a.",
"v.L.~+~+..2.2.N  .@ W i '+y r+9.9.9.9.9.9.9.9.9.9.9.9.9.9.9.9.9.9.9.9.9.9.9.9.9.9.9.9.9.9.P+9.9.0.Q+J+J+F+- * t 4 7 b t 4 > 8 > ",
"j . K.M.v+{ ..O N }+j - @.0 ]+9.9.9.9.9.9.9.9.9.9.9.9.9.9.9.9.9.9.9.9.9.9.9.9.9.9.9.9.R+P+9.9.9.S+J+J+J+T+= Q 0 i Q #.l 4 y b i ",
"Y Y K.M.(+<...}.O P + @.l U+9.9.9.9.9.9.9.V+W+A.9.9.9.9.9.P+]+9.9.9.9.9.9.9.9.9.9.9.9.R+9.9.9.]+X+Y+J+X+Q Y 7 C l C E + L @.@.@.",
"^+D @.p.M.K.v+q+A P C Q Q Z+9.9.9.9.9.9.`+ @ @ @U+.@<+h.9.9.A.Q.y+&+9.9.9.9.9.9.9.9.9.9.]+9.i+D+J+J+J+T+r ^ r @.@.A w.n.N ..{ 4.",
"9 G * #.W w.. x.x.v.D.Y _ /.9.9.F.9.9.F.+@ @ @ @ @ @ @@@h+#@$@F.;+ @>+P.9.9.9.9.9.9.9.9.%@F.F.&@J+J+*@S / #.t.C.. n.O m.e.{.f.! ",
"^+( Q r s l p.C.D. +y Y r $@9.9.$@9.0.=@ @ @ @ @ @ @ @ @ @ @@@5+-@ @ @ @;@9.9.9.9.9.9.9.M+9.F.J+J+J+>@Q.Q . x.q+O { w. .M 2.}.+.",
"0 * ^ g 0 * s u+b+7 V = ;.F.9.9.]+9.9.;@ @ @ @ @ @ @ @ @ @ @ @ @ @ @ @ @ @,@9.9.9.9.9.9.$@9.F.'@J+S+9.)@F v.O v+!@{.w.{.b.~@) ) ",
"y y c : R ( r ^ u 1 ^ Q * F.9.9.A.0.0..@ @ @ @ @ @ @ @ @ @ @ @ @ @ @ @ @ @@@h.9.{@9.9.9.F.F.9.]@^@9.9./@+ {.{.!@(@P [+Q * } -.K ",
":.x ^+Q R * = s Y = r 7 Q F.9.9._@(.0.:@A+<@[@X+ @ @ @ @ @ @ @@@;+}@|@U+ @ @1@9.{@9.9.9.9.F.9.2@]+9.9.c+n.v+m.~+q+w.1./ _ & x 4 ",
": t } g } b -.f k |.] X ] $@9.9.H+P+9.3@4@5@U+h+ @ @ @ @ @ @ @{+Q+Y+D+ @ @ @6@h.{+9.9.9.9.h.M+9.7@9.9.y p.d {.X.~+. C / & 8@m Z ",
": [ h '+-.A , 7+k+..N ,.O C+9.9.$@9.z.9@5@4@ @ @ @ @ @ @ @ @ @ @ @ @ @ @ @ @|@Z+ @0@9.9.h.(.9.9.2@9.h.t.i [+b.7+b.w.$ D R w Z =.",
"v g.Z.g.X d {.,.}.2.{ p 4.@+9.9.F.F.a@ @ @ @ @ @ @ @ @ @ @ @ @ @ @ @ @ @ @ @T+ @ @}@9.9.M+9.9.9.h.9.b@* - 7 8+b.A @.l r & m Z ,+",
"g g - - ; s+o ..2.l.N 4.4.+.9.F.F.=@ @ @ @ @ @ @ @ @ @ @ @ @ @ @ @ @ @ @ @ @@@ @ @c@F.9.d@9.9.P+9.9.}@/ l ^.j C.b.A F Y s ( =.=.",
"} 8 - g.g.'.|.7+@ O N ~ O e.e@9.F.=@ @ @ @ @U+W.L+L+L+%+S c@p+@@ @ @ @ @ @ @ @ @p+f@0.A.9.9.0.h.9.A.Q - l V  +@. +A -.F s _ | ( ",
"g.K k K ) ) [.) m.O q+P ~+~+.+F.f@0.@@ @ @ @4@g@h@h@h@h@h@h@h@g@ @ @ @ @ @ @ @U+A.h.0.{@9.F.d@9.9.l+* - g @.f ] [+d K.A v.l ` *.",
"K ) o 9+3.+.R.' 4.O M -+@.q v.i@j@0.k@ @ @ @ @U+A+E+h@h@h@l@L+ @ @ @ @ @ @ @Q.h.9.m@3+0.$@>+R+9.&.R * r b 7 Q )._.o x.X.. [+i #.",
">.n@' a+o@p@o@p@3.N |.o.i C ^.^ & 2+q@#@ @ @ @ @ @ @+@U++@ @ @ @ @ @ @ @%.3+0.h.s.Q+= r@; f 8.$@7 0 = ;.R Q Q 0 C w.X.7+u.[+j ] ",
"f.n@p@p@o@5.s@f+3.M d 3 f 3 -.c Y * t@u@A.y+@@ @ @ @ @ @ @ @ @ @ @ @;+W+0.0.u@L 0 7 g.; 8+e , v@;.r 7 r 9 #./ _ Y . {.O ..3.P u.",
"w@w@g+0+x@g+p@p ) u.n+; c -.C.v.'+Q Y * h+y@h.<+r+i@5@;+z@A@h+y+3+A.9.]+B@j o V 3 !.k |.c.C@)+B.8+X X @.0 ^ T ).J # {...4.q+@ q ",
"!+)+[.p ! s@f+p _+e+, 3 W ;.t 3 Y @.C A C.c %.d+D@A.(.0.0.h.(.R+M+E@U+- _.g.|.F@k W <.-+n@a+[.p@) B 7+d ] !.^ ` ^ #.d.d.{ w.q q ",
"Y.n.,.H.4.! ' ! l., f - x ;.7 7 y b.-.X @.A , X k+k 7+i.G@G@%@9.0.G@R+;.o !+X.l.,.)+H.n@H@I@J@p@p@F@) ) 1.s ^ ^ _ }+_.+ w.v.+ ^ ",
"c C.z+e w.{.M ,.+ @.y > 7 : < } < l W ] -., W X W [+o.z@L+G@A.9.h.G@F.K@g.l.H.7+..3.o@5.~.L@L@L@_+, f _.r * h 1 r i 8+8+n.D.*+s ",
"F X -.d O + @ @ k ^.;.r t a.} < r Q 3 C -.A W 4 Q W z p+ @M@h.9.{@G@h.G.N@R.H._+l.+.x@L@L@L@x@L@' >.'._.J ^ s 0 !.^.C W p.*+% l ",
"r = r = ).J.).#.;.).c c 3 3 3 g.* > -.c f g.- _.- > -.V z@O@$@9.P@Q@@.[+l.a+,.l...s@5.o@g+g+g+5.p@a+F@) _.Z.x t ).- a 7 0 c D #.",
",+T $.= Y J / 1.Y = - b ^+} 3 4 * Q 4 g.W c 4 a g * b y 7@O@G@q@(.).!.3 |.7+o.8+M H.H@6.g+6.H@~.x@p@a+c., o+g u ^ r = ;.* :.9 9 ",
"=./ / T T.T./ :.9 *.2 t g.v g.3 4 : 7 g.L ;.r & $./ - j+9.b@v@9.9.R@- ^.] C C.o.8+O w@J@6.6.g+~.S@p@a+p B o 8 4 S.S.w w v x 7.I.",
"R = / _ T T T T H ` & < | | < g.4 } 4 ;.; r / & =./ 2 T@9.]+U@h.9.V@_ R C 0 V $ 8+{ g+6.H@g+5.5.S@p@0+H.B B b g < S.w [ 8@1 7.I.",
"0 r a a J J.T I T._ [ | v [ g.S.: } 4 t 4 ,+R w | w & [@O@W@>+X@9.r@& < m / _ / ^.,.4.f.H@g+o@+.9+l.g.}.) ) 8 7 [ Z ,+8@w : a.I.",
"* Q / ).)._.Y J s s < 8 [ S.} Z [ [ * t t ,+[ ` H ` R Y@Z@U+G@G@`@ #R & Z ,+8@_ r A 7+s@s@6.s@3., '.F@l.o f L - v [ ,+S.[ } 8 K ",
"Z / ).Y #   w.+ #.1.i E.7 * = * w [ S.< } [ | | 5 ` t g.- - 4 c@t = } [ 0 | & 5 J @.A -+-+4.m.{.o.] P P 7+{.n.+ ;.$.= s * * u > ",
"^ E E 1.. x.  . + [+i l u Y * R [ w < Z Z [ = 2 $.g t 4 g.; a.u+t : } $.= & ` ` I a C d.O @ P @.+ k P O H.{ O q+d i ^ J * 0 b 0 ",
"1.1.u.O L.v+{ { n.|.@.W a.( ,+< | w S.( < } v v J.Q 8+o -.z '+=+< w } x g r _ _ _ a j [+P ..[+[+o+}+@ 4.e.4.s@e...8+i ^.- 0 * :.",
"  w.L.m.L.e.{ { n.. C.*+0 [ Z [ w Z } > > v U g ).d X |.'.z+=+t ( w ;.`.7 !.a a - `.^.f X.X.,.7+8+@ M H.e.s@/+/+~+@ q Y - ^ * :.",
"N  .O { m.e.{ N }+f y 8 x < =.w [ ,+: < Q @.i o+k A _+B >.e f - [ g g.B , , , g.n+g.g.B.[.<.H., |.|.7+_+O m.m.m.w.w.@.^.r ^ * :.",
"O + O m...{ { + k C.-.k.7.< ,+[ [ } g g.y C.^.d |.|.}...c.e y } [ < g.c.}.)+' ) , '.o , H.H.>.!+, f o.B q+q+x.x.+ E C #.r ^ ( 1 ",
"2.. x.{.w.{.@ }+C C $ =+8 8 3 } } x - W d '.A [+ .l.a+O )+e -.4 : 4 ) .#9+0+f.9+}.F@k '., { >.>.z+> ;.V  +C t.v.E Q 0 D m R ( Z ",
"+ q P w.+ . + ] !.E V a.K K 3 4 t t ; o+d d k  .|...R.)+>.B =+b 3 ; 9+p@.#+#+#p@[.>.k g.B H.>.-.z > 3 t ^ ^ ^ ^ Q Q 9 E.1 m =.*."};
