/* XPM */
static char *result[] = {
/* columns rows colors chars-per-pixel */
"64 64 166 2 ",
"   c #020000",
".  c #080001",
"X  c #0B0B0B",
"o  c #100002",
"O  c #111112",
"+  c #270005",
"@  c #310106",
"#  c #3B0008",
"$  c #221C1E",
"%  c #37383A",
"&  c #353233",
"*  c #5F020E",
"=  c #5D0C17",
"-  c #64010D",
";  c #77010F",
":  c #650D18",
">  c #620C17",
",  c #7D0110",
"<  c #4B1B21",
"1  c #671F29",
"2  c #7A1E29",
"3  c #44282C",
"4  c #59232B",
"5  c #4E3237",
"6  c #4D373B",
"7  c #65252D",
"8  c #79232E",
"9  c #7A2833",
"0  c #7D2E38",
"q  c #75333C",
"w  c #743941",
"e  c #534549",
"r  c #525052",
"t  c #565758",
"y  c #5B5B5C",
"u  c #5E5256",
"i  c #614348",
"p  c #7D434B",
"a  c #774951",
"s  c #7A4C53",
"d  c #765055",
"f  c #605E67",
"g  c #775D61",
"h  c #785F62",
"j  c #656566",
"k  c #6F6C6E",
"l  c #7D6067",
"z  c #7E6669",
"x  c #7C6B6D",
"c  c #6D6C75",
"v  c #727273",
"b  c #7E7C7D",
"n  c #860111",
"m  c #8B0112",
"M  c #820918",
"N  c #950113",
"B  c #980215",
"V  c #9B0719",
"C  c #980E1F",
"Z  c #A50115",
"A  c #AB0116",
"S  c #A7061A",
"D  c #AC051A",
"F  c #A50B1E",
"G  c #AC091E",
"H  c #B50117",
"J  c #B4041A",
"K  c #BD031A",
"L  c #B1081D",
"P  c #B80A1F",
"I  c #871927",
"U  c #881826",
"Y  c #831F2C",
"T  c #941424",
"R  c #9E1123",
"E  c #931E2D",
"W  c #981B2B",
"Q  c #AE0F23",
"!  c #A01729",
"~  c #84222F",
"^  c #862330",
"/  c #892532",
"(  c #872935",
")  c #892B37",
"_  c #832E38",
"`  c #82333D",
"'  c #88303B",
"]  c #C3011A",
"[  c #CC021B",
"{  c #D5021C",
"}  c #DC021D",
"|  c #E5021E",
" . c #EC021F",
".. c #F2021F",
"X. c #D50220",
"o. c #F50220",
"O. c #FF0221",
"+. c #833641",
"@. c #823843",
"#. c #8C3842",
"$. c #85434B",
"%. c #854C54",
"&. c #845359",
"*. c #865C63",
"=. c #8E6067",
"-. c #87696D",
";. c #846469",
":. c #8B6C71",
">. c #8C7276",
",. c #807778",
"<. c #8B797F",
"1. c #89797C",
"2. c #92777D",
"3. c #7D7C86",
"4. c #857E80",
"5. c #817C8E",
"6. c #937E81",
"7. c #7E8083",
"8. c #838486",
"9. c #8E8083",
"0. c #838688",
"q. c #8E878D",
"w. c #8B8B8D",
"e. c #878A8C",
"r. c #94868B",
"t. c #998A8D",
"y. c #8E8A9D",
"u. c #8C8F92",
"i. c #948B91",
"p. c #8F9295",
"a. c #919395",
"s. c #9D9496",
"d. c #929598",
"f. c #999798",
"g. c #9B9B9E",
"h. c #A0999B",
"j. c #A39497",
"k. c #9D9FA0",
"l. c #A3A1A4",
"z. c #A9A4A5",
"x. c #ACABAD",
"c. c #AAA5A9",
"v. c #B4AEAF",
"b. c #ADADB1",
"n. c #AFB1B5",
"m. c #B4B4B4",
"M. c #B2B5BB",
"N. c #BAB7B8",
"B. c #B6B8BD",
"V. c #BCBCBC",
"C. c #BFBEC0",
"Z. c #C2C2C3",
"A. c #C3C6C9",
"S. c #C7C8C9",
"D. c #CCCCCD",
"F. c #CBCED3",
"G. c #CDD0D5",
"H. c #D2D3D5",
"J. c #D5D7D9",
"K. c #DBDBDC",
"L. c #DEDFE0",
"P. c #DFE0E1",
"I. c #E2E3E4",
"U. c #E6E7E8",
"Y. c #F1F4F8",
"T. c None",
/* pixels */
"T.T.T.T.T.T.T.T.T.T.T.T.T.T.T.T.T.T.T.T.T.T.T.T.T.T.T.T.T.T.T.T.T.T.T.T.T.T.T.T.T.T.T.T.T.T.T.T.T.T.T.T.T.T.T.T.T.T.T.T.T.T.T.T.",
"T.T.T.T.T.T.T.T.T.T.T.T.T.T.T.T.T.T.T.T.T.T.T.T.T.T.T.T.T.T.T.T.T.T.T.T.T.T.T.T.T.T.T.T.T.T.T.T.T.T.T.T.T.T.T.T.T.T.T.T.T.T.T.T.",
"T.T.T.T.T.T.T.T.T.T.T.T.T.T.T.T.T.T.T.T.T.T.T.T.T.T.T.T.T.T.T.T.T.T.T.T.M.T.T.T.T.T.T.T.T.T.T.T.T.T.T.T.T.T.T.T.T.T.T.T.T.T.T.T.",
"T.T.T.T.T.T.T.T.T.T.T.T.T.T.T.T.T.T.T.T.T.T.T.T.T.T.T.T.T.T.T.T.T.T.T.H.T T.T.T.T.T.T.T.T.T.T.T.T.T.T.T.T.T.T.T.T.T.T.T.T.T.T.T.",
"T.T.T.T.T.T.T.T.T.T.T.T.T.T.T.T.T.T.T.T.T.T.T.T.T.T.T.T.T.T.T.T.T.T.T.F | T.T.T.T.T.T.T.T.T.T.T.T.T.T.T.T.T.T.T.T.T.T.T.T.T.T.T.",
"T.T.T.T.T.T.T.T.T.T.T.T.T.T.T.T.T.T.T.T.T.T.T.T.T.T.T.T.T.T.T.T.T.T.6.O...T.T.T.T.T.T.T.T.T.T.T.T.T.T.T.T.T.T.T.T.T.T.T.T.T.T.T.",
"T.T.T.T.T.T.T.T.T.T.T.T.T.T.T.T.T.T.T.T.T.T.T.T.T.T.T.T.T.T.T.T.T.T. .O.O.F.T.4.T.T.T.T.T.T.T.T.T.T.T.T.T.T.T.T.T.T.T.T.T.T.T.T.",
"T.T.T.T.T.T.T.T.T.T.T.T.T.T.T.T.T.T.T.T.T.T.T.T.T.T.T.T.T.T.T.T.T.T O.O.O.B.E j.T.T.T.T.T.T.T.T.T.T.T.T.T.T.T.T.T.T.T.T.T.T.T.T.",
"T.T.T.T.T.T.T.T.T.T.T.T.T.T.T.T.T.T.T.T.T.T.T.T.T.T.T.T.T.T.T.T.6.O.O.O.O.: [ T.T.T.T.T.T.T.T.T.T.T.T.T.T.T.T.T.T.T.T.T.T.T.T.T.",
"T.T.T.T.T.T.T.T.T.T.T.T.T.T.T.T.T.T.T.T.T.T.T.T.T.T.T.T.T.T.T.T.o.o.O.O.O.O.p T.T.T.T.T.T.T.T.T.T.T.T.T.T.T.T.T.T.T.T.T.T.T.T.T.",
"T.T.T.T.T.T.T.T.T.T.T.T.T.T.T.T.T.T.T.T.T.T.T.T.T.T.T.T.T.T.T.L O.O.O.O.O.O.s.T.T.T.T.T.T.T.T.T.T.T.T.T.T.T.T.T.T.T.T.T.T.T.T.T.",
"T.T.T.T.T.T.T.T.T.T.T.T.T.T.T.T.T.T.T.T.T.T.T.T.T.T.T.T.T.T.+.O.O.O.O.O.O.O.g.T.T.T.T.T.T.T.T.T.T.T.T.T.T.T.T.T.T.T.T.T.T.T.T.T.",
"T.T.T.T.T.T.T.T.T.T.T.T.T.T.T.T.T.T.T.T.T.T.T.T.T.T.T.T.T.2.O.O.O.O.O.O.O.O.;.T.T.T.T.T.T.T.T.T.T.T.T.T.T.T.T.T.T.T.T.T.T.T.T.T.",
"T.T.T.T.T.T.T.T.T.T.T.T.T.T.T.T.T.T.T.T.T.T.T.T.T.T.T.T.c.o.O.O.O.O.O.O.O.O.G T.T.T.T.T.T.T.T.T.T.T.T.T.T.T.T.T.T.T.T.T.T.T.T.T.",
"T.T.T.T.T.T.T.T.T.T.T.T.T.T.T.T.T.T.T.T.T.T.T.T.T.T.T.C.o.O.O.O.O.O.O.O.O.O.O.b.T.T.T.T.T.T.T.T.T.T.T.T.T.T.T.T.T.T.T.T.T.T.T.T.",
"T.T.T.T.T.T.T.T.T.T.T.T.T.T.T.T.T.T.T.T.T.T.T.T.T.T.v.o.O.O.O.O.O.O.O.O.O.O.O.{ T.T.T.T.T.T.T.T.T.T.T.T.T.T.T.T.T.T.T.T.T.T.T.T.",
"T.T.T.T.T.T.T.T.T.T.T.T.T.T.T.T.T.T.T.T.T.T.T.T.T.:.O.O.O.O.O.O.O.O.O.O.O.O.O.O.R T.T.T.T.T.T.T.T.T.T.T.T.T.T.T.T.T.T.T.T.T.T.T.",
"T.T.T.T.T.T.T.T.T.T.T.T.T.T.T.T.T.T.T.T.T.T.T.T.W O.O.O.O.O.O.O.O.O.O.O.O.O.O.O.O./ T.T.T.T.T.T.T.T.T.T.T.T.T.T.T.T.T.T.T.T.T.T.",
"T.T.T.T.T.T.T.T.T.T.T.T.F.Q T.T.T.T.T.T.T.T.r.| O.O.O.O.O.O.O.O.O.O.O.O.O.O.O.O.O.O.' T.T.T.T.T.T.T.T.T.T.T.T.T.T.T.T.T.T.T.T.T.",
"T.T.T.T.T.T.T.T.T.T.T.T.N.O.*.T.T.T.T.T.T.E O.O.O.O.O.O.O.O.O.O.O.O.O.O.O.O.O.O.O.O.O.+.T.T.T.T.T.T.T.T.T.T.T.T.T.T.T.T.T.T.T.T.",
"T.T.T.T.T.T.T.T.T.T.T.T.z.O.o.T.T.T.T.C.X.O.O.O.O.O.O.O.O.O.O.O.O.O.O.O.O.O.O.O.O.O.O.O.@.T.T.T.T.T.T.T.T.T.T.T.T.T.T.T.T.T.T.T.",
"T.T.T.T.T.T.T.T.T.T.T.T.b.O.O.L T.T.i.o.O.O.O.O.O.O.O.O.O.O.O.O.O.O.O.O.O.O.O.O.O.O.O.O.O.$.T.T.T.T.T.T.T.T.J.T.T.T.T.T.T.T.T.T.",
"T.T.T.T.T.T.T.T.T.T.T.T.T.O.[ O./ r.O.O.O.O.O.O.O.O.O.O.O.O.O.O.O.O.O.O.O.O.O.O.O.O.O.O.O.O.&.T.T.T.T.2.Q ..l T.T.T.T.T.T.T.T.T.",
"T.T.T.T.T.T.T.T.T.T.T.T.T.r 5 O.[ O.O.O.O.O.O.O.O.O.O.O.O.O.O.O.O.O.O.O.O.O.O.O.O.O.O.O.O.O.O.>.T.*. .O.O...H.T.T.T.T.T.T.T.T.T.",
"T.T.T.T.T.T.T.T.T.T.T.T.T.j 0.O.[ O.O.O.O.O.O.O.O.O.O.O.O.O.O.O.O.O.O.O.O.O.O.O.O.O.O.O.O.O.O.o.T O.O.C k 3.T.T.T.T.T.T.T.T.T.T.",
"T.T.T.T.T.T.T.T.T.T.T.T.T.T.7.* O.O.O.O.O.O.O.O.O.O.O.O.O.O.O.O.O.O.O.O.O.O.O.O.O.O.O.O.O.O.O.Z ..O.i d.d.t T.T.T.T.T.T.T.T.T.T.",
"T.T.T.T.T.T.T.T.T.T.T.T.T.T.k.o.O.O.O.O.O.O.O.O.O.O.O.O.O.O.O.O.O.O.O.O.O.O.O.O.O.O.O.O.O.O.N O.O.1 d.d.d.n.T.T.T.T.T.T.T.T.T.T.",
"T.T.T.T.T.T.T.T.T.T.T.T.T.T.&.O.O.O.O.O.O.O.O.O.O.O.O.O.O.O.O.O.O.O.O.O.O.O.O.O.O.O.O.O.O.m O.O...w.d.d.7.T.T.T.T.T.T.T.T.T.T.T.",
"T.T.T.T.T.T.T.T.T.T.T.T.T.T.{ O.O.O.O.O.O.O.O.O.O.O.O.O.O.O.O.O.O.O.O.O.O.O.O.O.O.O.O.] m O.O.O.7 d.d.d.y T.T.T.T.T.T.T.T.T.T.T.",
"T.T.T.T.T.T.T.T.T.T.T.T.T.D.O.O.O.O.O.O.O.z ` [ O.O.O.O.O.m { O.O.O.O.O.O.O.O.O.O.O.O.] O.O.O.{ a.f.d.a.T.T.T.T.T.T.T.T.T.T.T.T.",
"T.T.T.T.T.T.T.T.T.T.T.T.T.s O.O.O.O.O.O.w U.U.U.D.-.R  .O.O.[ s.>.G O.O.O.O.O.O.O.O.O.O.{ O.X.k d.d.d.y T.T.T.T.T.T.T.T.T.T.T.T.",
"T.T.T.T.T.T.T.T.T.T.T.T.T.F O.O.o.O.O.o.K.U.U.U.U.U.U.I.z._ } o.C.U.b.L O.O.O.O.O.O.O.O.; o.o.u.d.d.8.M.T.T.T.T.T.T.T.T.T.T.T.T.",
"T.T.T.T.T.T.T.T.T.T.T.T.T.} O.O.} O...S U.U.U.U.U.U.U.U.U.U.I.r.< U.U.U.q O.O.O.O.O.O.O.N O.o.d.d.d.V s.T.T.T.T.T.T.T.T.T.T.T.T.",
"T.T.T.T.T.T.T.T.T.T.T.T.T.o.O.O.{ O.O.q U.U.U.U.U.U.U.U.U.U.U.U.U.U.U.U.U.9 O.O.O.O.O.O.} O.o.p.d.7 O.9.T.T.T.T.T.T.T.T.T.T.T.T.",
"T.T.T.T.T.T.T.T.T.T.T.T.T.o.O.O.[ ....-.U.U.U.U.U.U.U.U.U.U.U.U.U.U.U.U.U.I. .O.H O.O.O.o.o.O.u 6 O.O.q.T.T.T.T.T.T.T.T.T.T.T.T.",
"T.T.T.T.T.T.T.T.T.T.T.T.T.o.O.O., | ..1.j & v a.U.U.U.U.U.U.U.I.C.x.b D.U.U.2 O.H O.O.O.O.o.O.n { O.O.N.T.T.T.T.T.T.T.T.T.T.T.T.",
"T.T.T.T.T.T.T.T.T.T.T.T.T.} O.O.Z m O.d L.m.D.z.U.U.U.U.U.U.U.v.w.f.k U.U.U.g  .v.O.O.O.O. .N O.B O.O.T.T.T.T.T.T.T.T.T.T.T.T.T.",
"T.T.T.T.T.T.T.T.T.T.T.T.T.C O.O.} O.: M m.L.U.U.U.U.U.U.U.U.U.U.U.U.U.U.U.U.b s U.8 O.O. .| O.O.n O. .T.T.T.T.T.T.T.T.T.T.T.T.T.",
"T.T.T.T.T.T.T.T.T.T.T.T.T.;.O.O.o.o.P.U.U.U.U.U.U.U.U.U.U.U.U.U.U.U.U.U.U.U.y U.U.x.O.O.N O.O.O. .O.I T.T.T.T.T.T.T.T.T.T.T.T.T.",
"T.T.T.T.T.T.T.T.T.T.T.T.T.T.O.o.o.S U.U.U.U.U.U.U.U.U.U.U.U.U.U.U.U.U.U.U.U.I.U.U.A.o.O.A O.O.m O.O.x.T.T.T.T.T.T.T.T.T.T.T.T.T.",
"T.T.T.T.T.T.T.T.T.T.T.T.T.T.Y O.o.S U.U.U.U.D.g.k.k.k.c.M.A.J.I.U.U.U.U.U.U.U.U.J.K ..[ O.O... .O.[ T.T.T.T.T.T.T.T.T.T.T.T.T.T.",
"T.T.T.T.T.T.T.T.T.T.T.T.T.T.T.o.K ..I.U.U.U.L.5.y.y.y.y.y.y.y.5.U.U.U.U.U.U.U.D.[  ...H O.o.A O.O.i.T.T.T.T.T.T.T.T.T.T.T.T.T.T.",
"T.T.T.T.T.T.T.T.T.T.T.T.T.T.T.t.e ..3 U.U.U.U.D.j 3.y.y.y.c k.U.U.U.U.U.U.U.s. .O.4 / ..} b.] O.T T.T.T.T.T.T.T.T.T.T.T.T.T.T.T.",
"T.T.T.T.T.T.T.T.T.T.T.T.T.T.T.T.T.W - _ U.U.U.U.U.U.K.D.K.U.U.U.U.U.U.U.H./ .. .j.w.T.( T.T.6.} T.T.T.T.T.T.T.T.T.T.T.T.T.T.T.T.",
"T.T.T.T.T.T.T.T.T.T.T.T.T.T.T.T.T.T.= #.[ >.I.U.U.U.U.U.U.U.U.U.U.U.C.` ....#.T.T.T.T.T.T.T.T.G.T.T.T.T.T.T.T.T.T.T.T.T.T.T.T.T.",
"T.T.T.T.T.T.T.T.T.T.T.T.T.T.T.T.T.T.T.T.z.P  .R &.t.m.C.S.V.z.>./ [ O.{ %.T.T.T.T.T.T.T.T.T.T.T.T.T.T.T.T.T.T.T.T.T.T.T.T.T.T.T.",
"T.T.T.T.T.T.T.T.T.T.T.T.T.T.T.T.T.T.T.T.T.T.H.*.! [ | .... .| ] N @ D.T.T.T.T.T.T.T.T.T.T.T.T.T.T.T.T.T.T.T.T.T.T.T.T.T.T.T.T.T.",
"T.T.T.T.T.T.T.T.T.T.T.T.T.T.T.T.T.T.T.T.T.T.T.T.T.T.T.F.    ; O...  ] T.T.T.T.T.T.T.T.T.T.T.T.T.T.T.T.T.T.T.T.T.T.T.T.T.T.T.T.T.",
"T.T.T.T.T.T.T.T.T.T.T.T.T.T.T.T.T.T.T.T.T.T.T.T.T.T.T.S.k.  [ O. .  o.~ T.T.T.T.T.T.T.T.T.T.T.T.T.T.T.T.T.T.T.T.T.T.T.T.T.T.T.T.",
"T.T.T.T.T.T.T.T.T.T.T.T.T.T.T.T.T.T.T.T.T.T.T.T.T.T.T.J.U.X  .O.H    .p T.T.T.T.T.T.T.T.T.T.T.T.T.T.T.T.T.T.T.T.T.T.T.T.T.T.T.T.",
"T.T.T.T.T.T.T.T.T.T.T.T.T.T.T.T.T.T.T.T.T.T.T.T.T.T.T.T.S.. } O.# O T.T.T.T.T.T.T.T.T.T.T.T.T.T.T.T.T.T.T.T.T.T.T.T.T.T.T.T.T.T.",
"T.T.T.T.T.T.T.T.T.T.T.T.T.T.T.T.T.T.T.T.T.T.T.T.T.T.T.T.B .   - | T.T.T.T.T.T.T.T.T.T.T.T.T.T.T.T.T.T.T.T.T.T.T.T.T.T.T.T.T.T.T.",
"T.T.T.T.T.T.T.T.T.T.T.T.T.T.T.T.T.T.T.T.T.T.T.T.T.T.T.@.O.I G.O.O.l.T.T.T.T.T.T.T.T.T.T.T.T.T.T.T.T.T.T.T.T.T.T.T.T.T.T.T.T.T.T.",
"T.T.T.T.T.T.T.T.T.T.T.T.T.T.T.T.T.T.T.T.T.T.T.T.T.T.T.h.O.{ Y. .O.a T.T.T.T.T.T.T.T.T.T.T.T.T.T.T.T.T.T.T.T.T.T.T.T.T.T.T.T.T.T.",
"T.T.T.T.T.T.T.T.T.T.T.T.T.T.T.T.T.T.T.T.T.T.T.T.T.T.T.v . + b.D O.( T.T.T.T.T.T.T.T.T.T.T.T.T.T.T.T.T.T.T.T.T.T.T.T.T.T.T.T.T.T.",
"T.T.T.T.T.T.T.T.T.T.T.T.T.T.T.T.T.T.T.T.T.T.T.T.T.T.T.$ % D.    o h T.T.T.T.T.T.T.T.T.T.T.T.T.T.T.T.T.T.T.T.T.T.T.T.T.T.T.T.T.T.",
"T.T.T.T.T.T.T.T.T.T.T.T.T.T.T.T.T.T.T.T.T.T.T.T.T.T.T.T.T.T.T.A.T.T.T.T.T.T.T.T.T.T.T.T.T.T.T.T.T.T.T.T.T.T.T.T.T.T.T.T.T.T.T.T.",
"T.T.T.T.T.T.T.T.T.T.T.T.T.T.T.T.T.T.T.T.T.T.T.T.T.T.T.T.T.T.T.T.T.T.T.T.T.T.T.T.T.T.T.T.T.T.T.T.T.T.T.T.T.T.T.T.T.T.T.T.T.T.T.T.",
"T.T.T.T.T.T.T.T.T.T.T.T.T.T.T.T.T.T.T.T.T.T.T.T.T.T.T.T.T.T.T.T.T.T.T.T.T.T.T.T.T.T.T.T.T.T.T.T.T.T.T.T.T.T.T.T.T.T.T.T.T.T.T.T.",
"T.T.T.T.T.T.T.T.T.T.T.T.T.T.T.T.T.T.T.T.T.T.T.T.T.T.T.T.T.T.T.T.T.T.T.T.T.T.T.T.T.T.T.T.T.T.T.T.T.T.T.T.T.T.T.T.T.T.T.T.T.T.T.T.",
"T.T.T.T.T.T.T.T.T.T.T.T.T.T.T.T.T.T.T.T.T.T.T.T.T.T.T.T.T.T.T.T.T.T.T.T.T.T.T.T.T.T.T.T.T.T.T.T.T.T.T.T.T.T.T.T.T.T.T.T.T.T.T.T.",
"T.T.T.T.T.T.T.T.T.T.T.T.T.T.T.T.T.T.T.T.T.T.T.T.T.T.T.T.T.T.T.T.T.T.T.T.T.T.T.T.T.T.T.T.T.T.T.T.T.T.T.T.T.T.T.T.T.T.T.T.T.T.T.T.",
"T.T.T.T.T.T.T.T.T.T.T.T.T.T.T.T.T.T.T.T.T.T.T.T.T.T.T.T.T.T.T.T.T.T.T.T.T.T.T.T.T.T.T.T.T.T.T.T.T.T.T.T.T.T.T.T.T.T.T.T.T.T.T.T.",
"T.T.T.T.T.T.T.T.T.T.T.T.T.T.T.T.T.T.T.T.T.T.T.T.T.T.T.T.T.T.T.T.T.T.T.T.T.T.T.T.T.T.T.T.T.T.T.T.T.T.T.T.T.T.T.T.T.T.T.T.T.T.T.T."
};
