/* XPM */
static char *ad46176a6a234eddb73b7e33535a4f0eK1Ld50KmHOdRmHw6[] = {
/* columns rows colors chars-per-pixel */
"64 64 183 2 ",
"   c None",
".  c #3C3E2E",
"X  c #393536",
"o  c #413E3F",
"O  c #41441F",
"+  c #5C6317",
"@  c #636A1B",
"#  c #494E20",
"$  c #535922",
"%  c #515537",
"&  c #5B5F38",
"*  c #5E6338",
"=  c #686F28",
"-  c #676D2F",
";  c #6A7224",
":  c #6C732D",
">  c #747B2C",
",  c #727A20",
"<  c #686E35",
"1  c #656A3C",
"2  c #616733",
"3  c #6C7232",
"4  c #6E7439",
"5  c #727934",
"6  c #727939",
"7  c #4B4849",
"8  c #514E4F",
"9  c #5B5D44",
"0  c #5B5E4D",
"q  c #555555",
"w  c #575959",
"e  c #666A41",
"r  c #6A6F47",
"t  c #63664C",
"y  c #6E724E",
"u  c #656854",
"i  c #6E705D",
"p  c #6F7257",
"a  c #797E52",
"s  c #5D5F61",
"d  c #696768",
"f  c #6C6B6C",
"g  c #666764",
"h  c #6E7161",
"j  c #74756D",
"k  c #6F7071",
"l  c #757676",
"z  c #7D7E75",
"x  c #77797A",
"c  c #7A7A7B",
"v  c #79831F",
"b  c #77811F",
"n  c #7B8526",
"m  c #7F8924",
"M  c #7C833A",
"N  c #7A804C",
"B  c #7D8358",
"V  c #838C23",
"C  c #858F2F",
"Z  c #869122",
"A  c #8A9422",
"S  c #8E9923",
"D  c #87912A",
"F  c #8B952C",
"G  c #8D9828",
"H  c #919C25",
"J  c #919C2B",
"K  c #80873D",
"L  c #8C9535",
"P  c #8F983F",
"I  c #8B943F",
"U  c #929A3C",
"Y  c #96A227",
"T  c #9AA627",
"R  c #9CA927",
"E  c #9AA62C",
"W  c #9EAA29",
"Q  c #95A02A",
"!  c #96A036",
"~  c #9AA535",
"^  c #97A238",
"/  c #9CA837",
"(  c #A0AC2B",
")  c #A5B22B",
"_  c #A9B62B",
"`  c #ADBB2D",
"'  c #B1BF2E",
"]  c #A1AD33",
"[  c #A0AC3A",
"{  c #AAB634",
"}  c #ADBA33",
"|  c #A9B63A",
" . c #A9B639",
".. c #B5C32E",
"X. c #B9C72F",
"o. c #BBCA2F",
"O. c #B6C432",
"+. c #B8C634",
"@. c #BDCC31",
"#. c #C1CF36",
"$. c #C4D433",
"%. c #C8D736",
"&. c #CCDC34",
"*. c #CFE036",
"=. c #D3E436",
"-. c #D7E837",
";. c #DAEB37",
":. c #D2E23B",
">. c #D7E838",
",. c #DCEE38",
"<. c #DEF039",
"1. c #E3F53A",
"2. c #E7F93B",
"3. c #ECFF3C",
"4. c #828A43",
"5. c #868D4B",
"6. c #888F4A",
"7. c #959E42",
"8. c #848A53",
"9. c #868D5C",
"0. c #8C9356",
"q. c #8A915B",
"w. c #949B57",
"e. c #A6B04F",
"r. c #858A65",
"t. c #8D916A",
"y. c #84857D",
"u. c #8A8D74",
"i. c #8B917D",
"p. c #92957D",
"a. c #949778",
"s. c #7D7F82",
"d. c #7E8081",
"f. c #848584",
"g. c #868889",
"h. c #8A8B8D",
"j. c #868888",
"k. c #8D9188",
"l. c #959984",
"z. c #999C85",
"x. c #969A8C",
"c. c #919685",
"v. c #8C8E91",
"b. c #8F9294",
"n. c #929394",
"m. c #999A97",
"M. c #929598",
"N. c #9E9E9D",
"B. c #9FA18B",
"V. c #9FA295",
"C. c #9FA499",
"Z. c #A2A49A",
"A. c #AEB099",
"S. c #9FA0A0",
"D. c #A3A3A2",
"F. c #A5A8A0",
"G. c #AAADAB",
"H. c #A6AAA8",
"J. c #AEB0AF",
"K. c #AEB1B2",
"L. c #B5B5B5",
"P. c #B7B7B8",
"I. c #B6BBBD",
"U. c #B9BBBB",
"Y. c #C0C1BC",
"T. c #B6BAC0",
"R. c #BEC1C3",
"E. c #C4C5C4",
"W. c #C7C9C7",
"Q. c #C6C7C8",
"!. c #C7CBCE",
"~. c #CCCCCC",
"^. c #D0D1CE",
"/. c #C9CDD3",
"(. c #C6CBD2",
"). c #CDD2D6",
"_. c #D3D4D4",
"`. c #D6D7D8",
"'. c #DADBDB",
"]. c #DEDFE0",
"[. c #E4E5E6",
"{. c #E6E7E8",
"}. c #EBF0F6",
/* pixels */
"                                                                                                                                ",
"                                                                                                                                ",
"                                                    Z.r.                                                                        ",
"                                                    8.%.                                                                        ",
"                                                    [ 3.N                                                                       ",
"                                                    O.3.1.E.                                                                    ",
"                                              % U.  %.3.3.~                                                                     ",
"                                              '.+.H.&.3.3.3.z.                                                                  ",
"                                                U } =.3.3.3.*.                                                                  ",
"                                                x.3.3.3.3.3.3.7.                                                                ",
"                                                ^.3.3.3.3.3.3.3.z.                                                              ",
"                                                  3.3.3.3.3.3.3.:._.                                                            ",
"                                                /.3.3.3.3.3.3.3.3./                                                             ",
"                                                z.3.3.3.3.3.3.3.3.3.8.                                                          ",
"                                                U 3.3.3.3.3.3.3.3.3.3.i.                                                        ",
"                                              E.1.3.3.3.3.3.3.3.3.3.3.,.H.                                                      ",
"                                              ] 3.3.3.3.3.3.3.3.3.3.3.3.>.Z.                                                    ",
"                                            w.3.3.3.3.3.3.3.3.3.3.3.3.3.3.,.c.                                                  ",
"                                          a.3.3.3.3.3.3.3.3.3.3.3.3.3.3.3.3.2.q.                                                ",
"                                        C.1.3.3.3.3.3.3.3.3.3.3.3.3.3.3.3.3.3.3./ ~.                  B W.                      ",
"                                      G.=.3.3.3.3.3.3.3.3.3.3.3.3.3.3.3.3.3.3.3.3.:.l.              W.<.H.                      ",
"                                    R.%.3.3.3.3.3.3.3.3.3.3.3.3.3.3.3.3.3.3.3.3.3.3.2.5.            U 3.x.                      ",
"                                  ).#.3.3.3.3.3.3.3.3.3.3.3.3.3.3.3.3.3.3.3.3.3.3.3.3.3./         a.3.3.B.                      ",
"              ).                  { 3.3.3.3.3.3.3.3.3.3.3.3.3.3.3.3.3.3.3.3.3.3.3.3.3.3.3.] '.  `.%.3.3.F.                      ",
"              p.:.! u.          ^ 3.3.3.3.3.3.3.3.3.3.3.3.3.3.3.3.3.3.3.3.3.3.3.3.3.3.3.3.3.' `.~ 2.%.2.U.                      ",
"              R.2.3.3.&.r.    6.3.3.3.3.3.3.3.3.3.3.3.3.3.3.3.3.3.3.3.3.3.3.3.3.3.3.3.3.3.3.3.J 1.3.= 8                         ",
"                0 4 @.3.3.L r.3.3.3.3.3.3.3.3.3.3.3.3.3.3.3.3.3.3.3.3.3.3.3.3.3.3.3.3.3.3.3.3.3.Z 2.B s                         ",
"                q M.h.M 3.3.R ,.3.3.3.3.3.3.3.3.3.3.3.3.3.3.3.3.3.3.3.3.3.3.3.3.3.3.3.3.3.3.3.3.<.Q h.K.                        ",
"                B M.M.M.r 3.3.Z 2.3.3.3.3.3.3.3.3.3.3.3.3.3.3.3.3.3.3.3.3.3.3.3.3.3.3.3.3.3.3.3.3.; w                           ",
"                  v.M.M.g.>.3.3.A 3.3.3.3.3.3.3.3.3.3.3.3.3.3.3.3.3.3.3.3.3.3.3.3.3.3.3.3.3.3.3.3.<.T.                          ",
"                  s M.M.M.6 3.3.2.V 3.3.3.3.3.3.3.3.3.3.3.3.3.3.3.3.3.3.3.3.3.3.3.3.3.3.3.3.3.3.3.3.a.                          ",
"                  s.M.M.M.d.,.3.3.1.( =.3.3.3.3.3.3.3.3.3.3.3.3.3.3.3.3.3.3.3.3.3.3.3.3.3.3.3.3.3.3.}                           ",
"                    c M.M.M.1 3.3.3.$.$.3.3.3.3.3.3.3.3.3.3.3.3.3.1.T 3.3.3.3.3.1.( e ) 3.3.3.3.3.3.1.Q.                        ",
"                    g M.M.M.b.m 3.3.T 3.3.3.3.3.3.3.3.3.3.3.' 1 k ; 3.3.3.=.C i P.[.[.N.>.3.3.3.3.3.3.p.                        ",
"                      l M.M.M.* Z 3., 3.3.3.3.3.3.3.3.3.) j ].S.O.3.#.< z Q.{.{.{.{.{.{.3 3.3.3.3.3.3.I                         ",
"                    /.$ M.M.M.r 3.3.( 3.3.3.3.3.3.3.3.< _.{.[.F V z ^.{.{.{.{.{.{.{.{.{.f.3.3.#.3.3.3.+.                        ",
"                    R.:.0 M.M.y 3.;.<.3.3.3.3.3.3.3.y {.{.{.^.c [.{.{.{.{.{.{.{.{.{.{.{.E.1.3.*.,.3.3.;.                        ",
"                    ~.<.%.x M.1 3...1.3.3.3.3.3.3.3 [.{.{.{.{.{.{.{.{.{.{.{.{.{.{.{.{.{.].' 3.=.,.3.3.<.                        ",
"                    ~.;.3.@ s.T 3.( 3.3.3.3.` 3.<.L.{.{.{.{.{.{.{.{.{.{.{.{.{.{.{.{.{.[.[.F 3.$.=.3.3.,.                        ",
"                    /.&.3.A Y =.3.H 3.3.3.3.' 2.F {.{.{.n.f ^.`.{.{.{.{.{.{.{.{.E.n.c f '.D 3.A _ 3.3.;.                        ",
"                      X.3._ 3.X.#.S 3.3.3.2.i &.3 {.{.{.8 o 7 X ^.{.{.{.{.{.{.{.q c d d [.G 2._ V 3.3.*.                        ",
"                      > 3.-.1.3.=.@ 2.3.3.@ [.1 1 {.{.{.{.{.{.{.{.{.{.{.{.{.{.{.{.{.{.{._.' H 3.S 3.3.|                         ",
"                      0 3.2.) 3.3.=.<.3.3.c {.~.. {.{.{.{.{.{.{.{.{.{.{.{.{.{.{.{.{.{.`.c m.< 3.) 3.3.6.                        ",
"                      L.1.3.S 3.3.3.) 3.*.Y.{.{.H.{.{.{.{.{.{.{.{.{.{.{.{.{.{.{.{.{.{.{.{.{.D.2.' 3.3.F.                        ",
"                        T 3.;.$.3.3.S 3.$.f.{.{.{.{.{.{.{.{.{.{.{.{.{.{.{.{.{.{.{.{.{.{.{.{._.#.' 3.$.                          ",
"                        i 3.3.S 3.3.<.&.$.A U.{.{.{.{.{.{.{.{.{.U.L.S.s.j.c c c k g.{.{.{.{.~.&._ 3.r.                          ",
"                          ' 3.3.S 3.3.v &.#._ U.{.{.{.{.{.{.{.{.s b.M.M.M.M.M.M.n.n.{.{.{.{.y.3.n %.                            ",
"                          j 3.3.1 < 3.V V ; 3...M.{.{.{.{.{.{.{.].f v.M.M.M.b.c h.{.{.{.{.'.V ;.O x.                            ",
"                            : ,.I.  h H G.l 0.2.;.u '.{.{.{.{.{.{.{.E.h.f.n.P.[.{.{.{.{.'.6 T - m.                              ",
"                            (.O       ~.      V.@.3.W y.[.{.{.{.{.{.{.{.{.{.{.{.{.{.{.J.F K ,                                   ",
"                                                  9.:.3.W u U.{.{.{.{.{.{.{.[.[._.j.: %.t.g.H.                                  ",
"                                                      a.] 1.-.( > * 9 9 9 * 5 n &.1.P ~.                                        ",
"                                                          r + A S R ..X.+.| ^ w.c.                                              ",
"                                                        a R A 3.3.S 3.<.Q.                                                      ",
"                                                      E.2.A Y 3.3.Z $.A.U.                                                      ",
"                                                      G.2.A ..3.3.( e.[.E.                                                      ",
"                                                        Y.p ,.=.3.-.L `.                                                        ",
"                                                            J A -.A 1.t                                                         ",
"                                                            4.3.-.L T ,.J.                                                      ",
"                                                            { 3...}.! 3.4.                                                      ",
"                                                            &.3.7.J.1.1.G.                                                      ",
"                                                            2.3.9.8.3.:.u.                                                      ",
"                                                            :.3.;.M c. .|                                                       ",
"                                                            _.l.0.Z.                                                            "
};
