/* XPM */
static char *a4fb8089efac433cee6b14866ef03258hm3ssQJaAjFzl7SO[] = {
/* columns rows colors chars-per-pixel */
"64 64 215 2 ",
"   c None",
".  c #5C5F15",
"X  c #5E610A",
"o  c #737628",
"O  c #7A7D30",
"+  c #777943",
"@  c #6F7141",
"#  c #6C6C6E",
"$  c #656263",
"%  c #737273",
"&  c #797778",
"*  c #75736C",
"=  c #7E8310",
"-  c #7E817A",
";  c #7F8262",
":  c #818506",
">  c #868A01",
",  c #969B04",
"<  c #8C911A",
"1  c #969B13",
"2  c #878B0D",
"3  c #9CA203",
"4  c #9CA10B",
"5  c #9DA212",
"6  c #A6AC01",
"7  c #A9AF01",
"8  c #A3A906",
"9  c #ABB101",
"0  c #B0B702",
"q  c #B4BB02",
"w  c #B8BF01",
"e  c #B6BC0B",
"r  c #A4AA17",
"t  c #B6BC16",
"y  c #ABB114",
"u  c #979B26",
"i  c #888B39",
"p  c #8D9136",
"a  c #939736",
"s  c #83872E",
"d  c #9DA32E",
"f  c #A8AD27",
"g  c #ADB224",
"h  c #B8BE23",
"j  c #B2B728",
"k  c #A7AB38",
"l  c #ADB239",
"z  c #B5BA36",
"x  c #BDC302",
"c  c #BAC10C",
"v  c #BDC314",
"b  c #BCC228",
"n  c #BBC139",
"m  c #C4CB02",
"M  c #C3CA07",
"N  c #CCD302",
"B  c #CCD30D",
"V  c #D4DC03",
"C  c #D3DB0B",
"Z  c #C6CD15",
"A  c #C8CE1C",
"S  c #C4CA16",
"D  c #CCD314",
"F  c #CED51B",
"G  c #D5DC17",
"H  c #DCE402",
"J  c #DBE30C",
"K  c #DCE414",
"L  c #DCE31B",
"P  c #E3EB04",
"I  c #E2EA09",
"U  c #ECF402",
"Y  c #EFF802",
"T  c #EBF30D",
"R  c #F6FF01",
"E  c #F0F705",
"W  c #E3EA14",
"Q  c #C6CD2D",
"!  c #C3C923",
"~  c #CCD32C",
"^  c #CED525",
"/  c #D1D824",
"(  c #C1C73B",
")  c #C5CB37",
"_  c #CED439",
"`  c #D1D63A",
"'  c #D8DE37",
"]  c #DCE323",
"[  c #DEE537",
"{  c #E1E924",
"}  c #898D46",
"|  c #969948",
" . c #848759",
".. c #8D905B",
"X. c #9A9D54",
"o. c #8D9140",
"O. c #9DA147",
"+. c #9EA259",
"@. c #A7AB47",
"#. c #B6BA44",
"$. c #B9BE44",
"%. c #B6BA49",
"&. c #A6A958",
"*. c #B6BA57",
"=. c #838669",
"-. c #969967",
";. c #82847A",
":. c #888A77",
">. c #979874",
",. c #8D916B",
"<. c #9EA176",
"1. c #AAAE63",
"2. c #A6A96D",
"3. c #B7BA64",
"4. c #A7AA76",
"5. c #B8BB78",
"6. c #AFB26C",
"7. c #BDC246",
"8. c #BEC25A",
"9. c #BDC073",
"0. c #BBC067",
"q. c #C2C748",
"w. c #D6DC47",
"e. c #C2C652",
"r. c #C7CC58",
"t. c #CDD35A",
"y. c #D1D74B",
"u. c #DCE252",
"i. c #C1C46B",
"p. c #C5CA66",
"a. c #C4C878",
"s. c #D0D57B",
"d. c #7D7F81",
"f. c #7D8082",
"g. c #828384",
"h. c #848688",
"j. c #8A8C8D",
"k. c #86898B",
"l. c #8C8E91",
"z. c #8E9194",
"x. c #929395",
"c. c #999A9B",
"v. c #979798",
"b. c #91928C",
"n. c #9EA095",
"m. c #A7A982",
"M. c #B7B988",
"N. c #A5A796",
"B. c #AEB196",
"V. c #BABC93",
"C. c #B6B898",
"Z. c #AEB08F",
"A. c #9C9FA2",
"S. c #A2A3A4",
"D. c #A5A6A9",
"F. c #ACACAE",
"G. c #A7A9A6",
"H. c #B7B8AB",
"J. c #BABCB0",
"K. c #BABBBB",
"L. c #B5B6B5",
"P. c #AFB0AB",
"I. c #BEC182",
"U. c #BFC18B",
"Y. c #BDC095",
"T. c #BFC1A8",
"R. c #BFC1BB",
"E. c #C6C986",
"W. c #C6C997",
"Q. c #CFD29B",
"!. c #D0D398",
"~. c #C9CBAC",
"^. c #C7C9A8",
"/. c #CDD0A4",
"(. c #CDD0AE",
"). c #D3D7AA",
"_. c #C9CCB4",
"`. c #C6C9B9",
"'. c #CED1B7",
"]. c #D2D5B4",
"[. c #D3D5BA",
"{. c #D8DBBB",
"}. c #DEE2AE",
"|. c #BFC0C1",
" X c #C4C4C3",
".X c #CACBCB",
"XX c #C9CAC6",
"oX c #CFD1C8",
"OX c #D4D5CC",
"+X c #D7D9C8",
"@X c #CBCED2",
"#X c #CFD1D3",
"$X c #D4D5D4",
"%X c #D9DAD5",
"&X c #D6D6D8",
"*X c #D6D8D9",
"=X c #DBDCDC",
"-X c #D7D8D1",
";X c #DEE1CF",
":X c #DFE1D4",
">X c #DFE0DF",
",X c #E5E7C9",
"<X c #E6E8DA",
"1X c #EEF0CE",
"2X c #DFDFE0",
"3X c #DEE1E3",
"4X c #E3E4E5",
"5X c #E6E7E8",
"6X c #E6E8EA",
"7X c #E9ECE8",
"8X c #EBEFF2",
"9X c #EFF1F4",
"0X c #F3F6FA",
"qX c #F6F9FC",
"wX c #F0F2F0",
/* pixels */
"                                                                <Xa.Y.                                                          ",
"                                                                ,Xe.n `.                                                        ",
"                                                                ;Xj B &.                                                        ",
"                                                              qX{.b P ~ _.*X                                                    ",
"                                                                }.{ E J O :.                                                    ",
"                                                                a.W R U x @.oX                                                  ",
"                                                              [.) P R R Y / 9.                                                  ",
"                                                              a.K R R R R P w.:X                                                ",
"                                                            ^.~ U R R R R R W E.                                                ",
"                                                          _.l I R R R R R R T ` [.                                              ",
"                                                        ~.$.I R R R R R R R R I 7.                                              ",
"                                                    +XE.z I R R R R R R R R R R L 9.                                            ",
"                                                  ~.e.^ U R R R R R R R R R R R E ^ a.                                          ",
"                                              '.E.n J E R R R R R R R R R R R R R Y / i.+X                                      ",
"                                          4XQ.$.D U R R R R R R R R R R R R R R R R R K *.`.                                    ",
"                                          a.Q P R R R R R R R R R R R R R R R R R R R E C @.oX                                  ",
"                                      ~.%.K Y R R R R R R R R R R R R R R R R R R R R R E C *.;X                                ",
"                                    /.n K E R R R R R R R R R R R R R R R R R R R R R R R R ] a.%X                              ",
"                                  /.( I R R R R R R R R R R R R R R R R R R R R R R R R R R E ~ W.wX                            ",
"                                /.( I R R R R R R R R R R R R R R R R R R R R R R R R R R R R P 7.`.                            ",
"                              _.z I R R R R R R R R R R R R R R R R R R R R R R R R R R R R R R C a.                            ",
"                            :X0.K R R R R R R R R R R R R R R R R R R R R R R R R R R R R R R R E ` ].                          ",
"                            W.~ E R R R R R R R R R R R R R R R R R R R R R R R R R R R R R R R R W s.                          ",
"      qX              qX  `.k I R R R R R R R R R R R R R R R R R R R R R R R R R R R R R R R R R E ) ~.                        ",
"      6X9X0X              W.v Y R R R R R R R R R R R R R R R R R R R R R R R R R R R R R R R R R R H 3.>X                      ",
"      x.R.<X9X9X          0.I R R R R R R R R R R R R R R R R R R R R R R R R R R R R R R R R R R R R b ).            `.N.      ",
"      Z.w.y.1._.4X      oX%.R R R R R R R R R R R R R R R R R R R R R R R R R R R R R R R R R R R R R I E.      T.1.n ) X.      ",
"      ^.Q C D ~ 3.`.8X  _.v E R R R R R R R R R R R R R R R R R R R R R R R R R R R R R R R R R R R R E k `.;X5.) D B ! 4.      ",
"      oX,.| f Z D e.].4XQ.e Y R R R R R R R E E R R R R R R R R R R R R R R R R R R R R R R R R R R R R C a.a.A B g i ,.J.      ",
"        g.& :.| M J t.(.Y.e R R R R R R R Y P C W U U R R R R R R R R R R R R R R R R R R R R R R R R R H b D C a =.- d.@X      ",
"        K.z.j.- i H J e.0.N Y R R R R R R E S X.6.z / W I U R R R R U V V P R R R R R R R R R R R R R P 0 m H r =.z.z.D.        ",
"        @Xh.k.z.=.r P J D V P R R R R R R T p.`.=X-X[.m.i A W I U E N X . r L T U R R R R R R R R U H m V U C } k.z.l..X        ",
"          F.l.z.k.p J U N > 9 Y R R R R R ~ W.4X5X5X4X%XoX].Z.&.l G N 0 i V.^.1.b L U R R R R R R N 3 x U I u ; z.z.k.#X        ",
"          @Xl.z.z.=.f I P x m E R R R R I r.OX5X5X5X5X5X5X4X-X-X'.M.X.( #.Z.$X-X'.5.( K E R R R R P N H U t ..b.z.k.F.          ",
"            A.k.x.j.} e H V U E R R R R v U.2X5X5X5X5X5X5X5X5X5X4X=X.X[.C.J.=X5X4X%X^.8.G R R R R E m V N a ;.x.z.f.@X          ",
"            .Xk.z.z.=.1 x w U R R R R R j V.4X5X5X5X5X5X5X5X5X5X5X5X5X5X2X2X4X5X5X5X2X_.e.P R R R E 8 0 y  .z.l.f.D.3X          ",
"              F.f.z.:.l m q R U H U R R ) ~.4X5X5X5X5X5X5X5X5X5X5X5X5X5X5X5X5X5X5X5X5X2XV.c R E U E 7 x e -.x.h.f.              ",
"              *Xh.h.:.d m q E U N N E R u.{.5X4X2X.X>X5X6X5X5X5X5X5X5X5X5X5X4X2X$X.X$X2XS.u R N V E x N e -.j.g.                ",
"                .Xf.; j V m R R x w R R ( ^.4X2XF.& x.G.F.&X4X5X5X5X5X5X4X.XF.c.g.* S.=XR.#.R x x E m V C +.g.                  ",
"                  D. .y U U R E 0 7 U E g V.4X2Xv.$ # % & .X5X5X5X5X5X5X4XK.g.g.% & P.>X Xe.R q 6 V N V I &.n.                  ",
"                    Y.z M V R H N 0 x E e U.4X4X.XK..X.X|.=X5X5X5X5X5X5X5X&X.X&X$X#X2X2XL.l V 9 , x x w ! M.                    ",
"                      H.o 7 E m w 3 = J I p.OX5X5X4X4X4X4X4X5X5X5X5X5X5X5X5X5X5X5X5X6X2XN.< > , 7 0 6 = 4.                      ",
"                      &X2.e Y m w e i @.S f >.L.&X5X5X5X5X5X3X&X&X&X&X#XK.L..X2X5X5X5X4XV.p o 4 V V , o _.                      ",
"                      wXQ.M E m x I %.N.5.0.>.v.#X5X5X4X=XF.S.v.v.c.c.x.# % F.2X5X5X5X2X~.m.&.G U H 4 4.3X                      ",
"                        [.n E m x U S 4..X:X=X=X4X5X5X5X&Xv.# # # * % # # x.$X5X5X5X5X4X&XZ.b E P e p XX                        ",
"                          I.D N N E U ) U.OX2X5X5X5X5X5X4X$XD.x.l.d.g.x.S..X2X5X5X5X4X%XP.| V E M s n.6X                        ",
"                          -X*.S V P R U ~ 2.H.=X4X5X5X5X5X5X3X&X.XL.|.&X2X5X5X5X5X4X%XC.O : E I %.N.#X0X                        ",
"                            ,X1.a r H R R e p <.H.&X5X5X5X5X5X5X5X5X5X5X5X5X5X5X4X|.4.z = : P ) ).                              ",
"                            0X.XP.Z.%.S I U x 1 l 3.Z.T.$X4X4X4X4X4X<X4X4X>XOXH.5.%.y b p = q.).                                ",
"                              0X9X6XoXI.Q x , 3 C M b 7.t.a.4.>.;.;.;.:.<.5.t.q.t t 8.W.B.m.{.    qX                            ",
"                                      4XE.j 1 O.*.7.b v D Z t 5 1 1 1 1 r 1 t q.0.!.OX      9X                                  ",
"                                      0X:X!.| ; b.H./.E.s._ c x q m P P N 8 j V.                                                ",
"                                                        +Xy.8 x w y ! B m 8 A a.                                                ",
"                                                        E.G w N l U./.E.< , V ^ Q.  qX                                          ",
"                                                      ,Xw.U m F 5.$X4X-X-.< V K a.                                              ",
"                                                      ,Xu.K g z /.4X5X2XN.+ l q.Y.                                              ",
"                                                        /.a.V.-.T.-X$XoX>. .T.{.3X                                              ",
"                                                              Z.e.+.; +.j &.7X  qX                                              ",
"                                                              W.L S @ O.J u.1X                                                  ",
"                                                              V.{ J a $.E [ ].                                                  ",
"                                                              W.] I t t I A m.                                                  ",
"                                                              (.y.' %.#.` *.B.                                                  ",
"                                                                1X1X,X,X1X,X                                                    ",
"                                                                                qX                                              "
};
