/* XPM */
static char *result[] = {
/* columns rows colors chars-per-pixel */
"64 64 177 2 ",
"   c #1D1E08",
".  c #2F311E",
"X  c #3A3C11",
"o  c #3A3B22",
"O  c #3E4038",
"+  c #505301",
"@  c #555802",
"#  c #5A5D00",
"$  c #585A0C",
"%  c #444616",
"&  c #5E6100",
"*  c #626501",
"=  c #666A01",
"-  c #6A6E02",
";  c #686C0C",
":  c #6D7101",
">  c #727600",
",  c #757901",
"<  c #797D00",
"1  c #74770E",
"2  c #60631A",
"3  c #76791B",
"4  c #474B28",
"5  c #41432D",
"6  c #575A36",
"7  c #696C2D",
"8  c #666723",
"9  c #6F722A",
"0  c #737622",
"q  c #767A21",
"w  c #797D2D",
"e  c #6C6F3C",
"r  c #6F7139",
"t  c #787F39",
"y  c #565746",
"u  c #5E6340",
"i  c #6A6D4C",
"p  c #616348",
"a  c #6E7144",
"s  c #727445",
"d  c #7B7D4C",
"f  c #76774E",
"g  c #666954",
"h  c #686A55",
"j  c #6F725E",
"k  c #727554",
"l  c #74765B",
"z  c #76795D",
"x  c #6E7169",
"c  c #7A7C6A",
"v  c #757764",
"b  c #76787A",
"n  c #7D7F7F",
"m  c #777973",
"M  c #7E8301",
"N  c #7F840C",
"B  c #7D8217",
"V  c #7F862A",
"C  c #7E806F",
"Z  c #818500",
"A  c #848902",
"S  c #888D01",
"D  c #81850D",
"F  c #888E0D",
"G  c #8D9202",
"H  c #8D920B",
"J  c #919600",
"K  c #959B02",
"L  c #999E01",
"P  c #969B0A",
"I  c #999E08",
"U  c #92960C",
"Y  c #848914",
"T  c #8E9214",
"R  c #919511",
"E  c #9DA202",
"W  c #A0A600",
"Q  c #A5AB02",
"!  c #A7AD08",
"~  c #ACB201",
"^  c #B1B701",
"/  c #B4BA02",
"(  c #B8BE00",
")  c #B9BE0E",
"_  c #ADB118",
"`  c #B6BB15",
"'  c #898A26",
"]  c #969928",
"[  c #94962B",
"{  c #868D32",
"}  c #86873B",
"|  c #8B9238",
" . c #97993C",
".. c #919333",
"X. c #BCC302",
"o. c #C0C701",
"O. c #C3CA01",
"+. c #C8CF01",
"@. c #CCD401",
"#. c #D4DB01",
"$. c #D8DF07",
"%. c #DCE401",
"&. c #D8E008",
"*. c #DFE711",
"=. c #E3EC01",
"-. c #E2EB0C",
";. c #EBF401",
":. c #EFF801",
">. c #EBF40A",
",. c #F6FF01",
"<. c #F5FE0E",
"1. c #E6EE17",
"2. c #F6FF10",
"3. c #F5FF1B",
"4. c #E4EE2F",
"5. c #F5FF23",
"6. c #F4FF2A",
"7. c #F3FF36",
"8. c #858549",
"9. c #949649",
"0. c #898955",
"q. c #9BA443",
"w. c #A7B147",
"e. c #AEB748",
"r. c #B2BC49",
"t. c #8B8C68",
"y. c #91916B",
"u. c #848576",
"i. c #8A8B76",
"p. c #8E917F",
"a. c #B7C24E",
"s. c #BDC850",
"d. c #CFDB58",
"f. c #D5E15A",
"g. c #D9E65C",
"h. c #F2FF4D",
"j. c #E0ED5E",
"k. c #F2FF57",
"l. c #E5F261",
"z. c #E9F663",
"x. c #EEFC65",
"c. c #F1FF66",
"v. c #8A8C85",
"b. c #8D8D8A",
"n. c #818384",
"m. c #8E918B",
"M. c #9B9C95",
"N. c #959894",
"B. c #9DA093",
"V. c #A3A69E",
"C. c #AAAAA1",
"Z. c #A5A8A8",
"A. c #ABADAC",
"S. c #A2A3A0",
"D. c #AEB0B1",
"F. c #B3B6B9",
"G. c #B5B9BC",
"H. c #BCBEBD",
"J. c #B6B7B6",
"K. c #C1C1BF",
"L. c #BBBFC3",
"P. c #C2C4C4",
"I. c #CBCCCD",
"U. c #C0C5CA",
"Y. c #D2D2CF",
"T. c #CACFD5",
"R. c #CED1D4",
"E. c #CED3D9",
"W. c #D1D1D2",
"Q. c #D4D9DE",
"!. c #DDDDDC",
"~. c #D4D7DB",
"^. c #E1E0DE",
"/. c #D7DCE2",
"(. c #DBE0E7",
"). c #DDE2E9",
"_. c None",
/* pixels */
"_._._._._._._._._._._._._._._._._._._._._._._._._._._._._._._._._._._._._._._._._._._._._._._._._._._._._._._._._._._._._._._._.",
"_._._._._._._._._._._._._._._._._._._._._._._._._._._._._._._._._._._._._._._._._._._._._._._._._._._._._._._._._._._._._._._._.",
"_._._._._._._._._._._._._._._._._._._._._._._._._._._._._._._._._._._._._._._._._._._._._._._._._._._._._._._._._._._._._._._._.",
"_._._._._._._._._._._._._._._._._._._._._._._._._._._._._._._._._.b _._._._._._._._._._._._._._._._._._._._._._._._._._._._._._.",
"_._._._._._._._._._._._._._._._._._._._._._._._._._._._._._._._._.M.3 _._._._._._._._._._._._._._._._._._._._._._._._._._._._._.",
"_._._._._._._._._._._._._._._._._._._._._._._._._._._._._._._._._.i.,.c _._._._._._._._._._._._._._._._._._._._._._._._._._._._.",
"_._._._._._._._._._._._._._._._._._._._._._._._._._._._._._._._._.i ,.O.Q._._._._._._._._._._._._._._._._._._._._._._._._._._._.",
"_._._._._._._._._._._._._._._._._._._._._._._._._._._._._._._._._.q ,.,.i n._._._._._._._._._._._._._._._._._._._._._._._._._._.",
"_._._._._._._._._._._._._._._._._._._._._._._._._._._._._._._._._./ ,.,.( o Q._._._._._._._._._._._._._._._._._._._._._._._._._.",
"_._._._._._._._._._._._._._._._._._._._._._._._._._._._._._._._.u.,.,.,.,.^ l _._._._._._._._._._._._._._._._._._._._._._._._._.",
"_._._._._._._._._._._._._._._._._._._._._._._._._._._._._._._._.I ,.,.,.,.,./ /._._._._._._._._._._._._._._._._._._._._._._._._.",
"_._._._._._._._._._._._._._._._._._._._._._._._._._._._._._._.s ,.,.,.,.,.,.,.a _._._._._._._._._._._._._._._._._._._._._._._._.",
"_._._._._._._._._._._._._._._._._._._._._._._._._._._._._._.c :.,.,.,.,.,.,.,.=.A._._._._._._._._._._._._._._._._._._._._._._._.",
"_._._._._._._._._._._._._._._._._._._._._._._._._._._._._.k ;.,.,.,.,.,.,.,.,.,.Q ^._._._._._._._._._._._._._._._._._._._._._._.",
"_._._._._._._._._._._._._._._._._._._._._._._._._._._.T.q ,.,.,.,.,.,.,.,.,.,.,.,.Y /._._._._._._._._._._._._._._._._._._._._._.",
"_._._._._._._._._._._._._._._._._._._._._._._._._._.z @.,.,.,.,.,.,.,.,.,.,.,.,.,.,.P R._._._._._._._._._._._._._._._._._._._._.",
"_._._._._._._._._._._._._._._._._._._._._._._._.i./ ,.,.,.,.,.,.,.,.,.,.,.,.,.,.,.,.,.( A._._._._._._._._._._._._._._._._._._._.",
"_._._._._._._._._._._._._._._._._._._._._._.S.I ,.,.,.,.,.,.,.,.,.,.,.,.,.,.,.,.,.,.,.,.#.p._._._._._._._._._._._._._._._._._._.",
"_._._._._._._._._._._._._._._._._._._._.E.0 :.,.,.,.,.,.,.,.,.,.,.,.,.,.,.,.,.,.,.,.,.,.,.;.v _._._._._._._._._._._._._._._._._.",
"_._._._._._._._._._._._._._._._._._._.S./ ,.,.,.,.,.,.,.,.,.,.,.,.,.,.,.,.,.,.,.,.,.,.,.,.,.;.v _._._._._._._._._._._._._._._._.",
"_._._._._._._._._._._._._._._._._._.l =.,.,.,.,.,.,.,.,.,.,.,.,.,.,.,.,.,.,.,.,.,.,.,.,.,.,.,.=.m._._._._._._._._._._._._._._._.",
"_._._._._._._._._._._._._._._._._.i ,.,.,.,.,.,.,.,.,.,.,.,.,.,.,.,.,.,.,.,.,.,.,.,.,.,.,.,.,.,.o.U._._._._._._._._._._._._._._.",
"_._._._._._._._._._._._._._._._.f ,.,.,.,.,.,.,.,.,.,.,.,.,.,.,.,.,.,.,.,.,.,.,.,.,.,.,.,.,.,.,.,.3 _._._._._._._._._._._._._._.",
"_._._._._._._._._._._._._._._.c :.,.,.,.,.,.,.,.,.,.,.,.,.,.,.,.,.,.,.,.,.,.,.,.,.,.,.,.,.,.,.,.,.,.c _._._._._._._._._._._._._.",
"_._._._._._._._._._._._._._.I.@.,.,.,.,.,.,.,.,.,.,.,.,.,.,.,.,.,.,.,.,.,.,.,.,.,.,.,.,.,.,.,.,.,.,./ _._._._._._._._._._._._._.",
"_._._._._._._._._._._._._._.3 ,.,.,.,.,.,.,.,.,.,.,.,.,.,.,.,.,.,.,.,.,.,.,.,.,.,.,.,.,.,.,.,.,.,.,.,.r _._._._._._._._._._._._.",
"_._._._._._._._._._._._._.P.%.,.,.,.,.,.,.,.,.,.,.,.,.,.,.,.,.,.,.,.,.,.,.,.,.,.,.,.,.,.,.,.,.,.,.,.,.@.R._._._._._._._._._._._.",
"_._._.b.P._._._._._._._._.e ,.,.,.,.,.,.,.,.,.,.,.,.,.,.,.,.,.,.,.,.,.,.,.,.,.,.,.,.,.,.,.,.,.,.,.,.,.,.7 _._._._._._._.G.b._._.",
"_._._.j :.#.Y Z._._._._._.U ,.,.,.,.,.,.,.,.,.,.,.,.,.,.,.,.,.,.,.,.,.,.,.,.,.,.,.,.,.,.,.,.,.,.,.,.,.,.#.T._._._.B.R %.,.m._._.",
"_._._.G.E %.,.,.R Y._._._.+.,.,.,.,.,.,.,.,.,.,.,.,.,.,.,.,.,.,.,.,.,.,.,.,.,.,.,.,.,.,.,.,.,.,.,.,.,.,.,.i _.J.! ,.,.#.F T._._.",
"_._._._.t j.V ( ,.@.M._.L.%.,.,.,.,.,.,.,.,.,.,.,.,.,.,.,.,.,.,.,.,.,.,.,.,.,.,.,.,.,.,.,.,.,.,.,.,.,.,.,.! C =.,.~ { l.6 _._._.",
"_._._._.x x.c.d.E ,.&.M.D.:.,.,.,.,.,.,.,.,.,.O.,.,.,.,.,.,.,.,.,.,.,.,.,.,.,.,.,.,.,.,.,.,.,.,.,.,.,.,.,.S =.,.D f.c.x.v._._._.",
"_._._._.R.a.c.c.| =.,.@.y ,.,.,.,.,.,.,.,.,.o.o.,.,.,.,.,.,.,.,.,.,.,.,.,.,.,.,.,.,.,.,.,.,.,.,.,.,.,.,.W =.,.=.r.c.x.w._._._._.",
"_._._._._.u c.c.x.N ,.,.O.E ~ ,.,.,.,.,.,.:.* ,.,.,.,.,.,.,.,.,.,.,.,.,.,.,.,.,.,.,.,.,.,.,.,.,.,.,.J J $.,.,.B c.c.x.g _._._._.",
"_._._._._.J.g.c.c.a.X.,.,.^ %.,.,.,.,.,.,.J = ,.,.,.,.,.,.,.,.,.,.,.,.,.,.,.,.,.,.,.,.,.,.,.,.,.,.,.O.@.,.,.~ f.c.c.d.I._._._._.",
"_._._._._._.i c.c.c.{ ;.,.G ,.,.,.,.,.,.,.Z , ,.,.,.,.,.,.,.,.,.,.,.,.,.,.,.,.,.,.,.,.,.,.,.,.,.,.,.;.^ ,.#.e.c.c.c.p _._._._._.",
"_._._._._._.Q.r.c.c.g.@ =.- ,.,.#.,.,.,.=.+., ,.,.,.,.,.,.,.,.,.,.,.,.,.,.,.,.,.,.,.,.,.,.,.,.,.,.,.,.> +.; z.c.c.q._._._._._._.",
"_._._._._._._.m l.c.c.K ,.M ,.,.= ,.,.,.O.:.Q ;.,.,.,.,.,.,.,.,.,.,.,.,.,.,.;.,.,.,.,.,.,.,.,.,.,.,.,.- ,.H c.c.g.N._._._._._._.",
"_._._._._._._._.6 c.x.F ,.L ,.,.G ,.,.,.^ ;.=.( ,.,.,.,.,.,.,.,.,.,.,.,.,.,.< < J :.,.,.,.,.,.,.,.,.,.M ,.F c.z.p _._._._._._._.",
"_._._._._._._._._.4 l./ ,.~ ,.,.@.@.,.,.@.;.,.: ,.,.,.,.,.,.,.,.,.,.,.,.,.,.: ,.,.! J ,.,.,.,.,./ ,.,.L :.G l.5 _._._._._._._._.",
"_._._._._._._._._.).. ,.,./ ,.,.< > ,.,.=.o.,.%.~ ,.,.=.# < > K ;.,.,.,.,.,.* ,.,.,.:.< :.,.,.,.=.~ ,.L ,.=.6 _._._._._._._._._.",
"_._._._._._._._._._._.d #.W ,.,.Z @./ ,.,.Z ,.,.( ~ ,.,.Z :.,.,.+., ;.,.,.,.: ,.,.,.,.,.> ,.,.,.,.= ,.< O.g _._._._._._._._._._.",
"_._._._._._._._._._._._.2 A ,.:.Q ,./ X.,.J ;.,.,.%.: $.,., =.,.,.,.W ^ ,.,.# ,.,.,.,.,.W ;.:.=.=.L ,.# ; _._._._._._._._._._._.",
"_._._._._._._._._._._._.z X.,.;.~ ,.,.#.> / # # ;.,.,.%.- o.Q W ,.,.,.%.M ,.& ,.,.,.,.,.=.@.,.=.O.#.#.~ N._._._._._._._._._._._.",
"_._._._._._._._._._._._._.X.,.;.~ ,.,.,.,.,.,.,.,.,.,.,.,.;.< J > @.,.,.:., A :.,.,.,.,.4.o.,.^ :.=.X.0 _._._._._._._._._._._._.",
"_._._._._._._._._._._._._.v ,.,.S ,.,.,.,.,.,.,.,.,.,.,.,.,.,.,.^ + Q ,.,.,.+ $.,.,.,.k.-./ ,.: ,.K $ _._._._._._._._._._._._._.",
"_._._._._._._._._._._._._._.0 ,., ,.,.,.,.,.,.,.,.,.,.,.,.,.,.,.,.,.6.<.,.,.,.@ ,.,.k.7.O.< Q =.,.v W._._._._._._._._._._._._._.",
"_._._._._._._._._._._._._._._.w - ( ,.,.,.,.,.,.,.,.,.,.,.,.,.,.,.,.,.2.7.3.5.2.5.c.h.,.Z , O.,.7 _._._._._._._._._._._._._._._.",
"_._._._._._._._._._._._._._._._.b P.q ;.,.,.,.,.,.,.,.,.,.,.,.,.,.,.,.,.,.6.c.c.c.c.7.<.  X %.k _._._._._._._._._._._._._._._._.",
"_._._._._._._._._._._._._._._._._._._.G.Q ,.:.o.,.,.,.,.,.,.,.,.,.,.,.,.,.,.2.,.,.>.F i._.5 U._._._._._._._._._._._._._._._._._.",
"_._._._._._._._._._._._._._._._._._._._.J.o.,.u.M.7 P %.;.,.,.,.,.,.,.,.,.;.@.D p K._._._._._._._._._._._._._._._._._._._._._._.",
"_._._._._._._._._._._._._._._._._._._._._.E.e - n /._._.I.A.v.$ S S Z J % T._._._._._._._._._._._._._._._._._._._._._._._._._._.",
"_._._._._._._._._._._._._._._._._._._._._._._._._._._._._.^.h :.,.,.,.,.;.1 t._._._._._._._._._._._._._._._._._._._._._._._._._.",
"_._._._._._._._._._._._._._._._._._._._._._._._._._._._._._ = ,.,.,.,.,.,.Z ,.i._._._._._._._._._._._._._._._._._._._._._._._._.",
"_._._._._._._._._._._._._._._._._._._._._._._._._._._._.0.,.= ,.,.<.<.<.,.^ :.$.H._._._._._._._._._._._._._._._._._._._._._._._.",
"_._._._._._._._._._._._._._._._._._._._._._._._._._._.A.&.,.= ,.2.2.2.2.<.~ ;.,.&.G._._._._._._._._._._._._._._._._._._._._._._.",
"_._._._._._._._._._._._._._._._._._._._._._._._._._._.0.,.,.< ,.2.2.2.2.2.1 ) ,.[ _._._._._._._._._._._._._._._._._._._._._._._.",
"_._._._._._._._._._._._._._._._._._._._._._._._._._._._.[  .!.D 2.2.2.2.2.8 _.P._._._._._._._._._._._._._._._._._._._._._._._._.",
"_._._._._._._._._._._._._._._._._._._._._._._._._._._._._._._.9.>.<.1.-.-.` _._._._._._._._._._._._._._._._._._._._._._._._._._.",
"_._._._._._._._._._._._._._._._._._._._._._._._._._._._._._._.8.,.,.b. .,.%._._._._._._._._._._._._._._._._._._._._._._._._._._.",
"_._._._._._._._._._._._._._._._._._._._._._._._._._._._._._._.0.,.,.8.' ,.:.C._._._._._._._._._._._._._._._._._._._._._._._._._.",
"_._._._._._._._._._._._._._._._._._._._._._._._._._._._._._._.d ,.,.) R ,.,.| _._._._._._._._._._._._._._._._._._._._._._._._._.",
"_._._._._._._._._._._._._._._._._._._._._._._._._._._._._._._.V.9.d t.f ..y.K._._._._._._._._._._._._._._._._._._._._._._._._._.",
"_._._._._._._._._._._._._._._._._._._._._._._._._._._._._._._._._._._._._._._._._._._._._._._._._._._._._._._._._._._._._._._._."
};
