/* XPM */
static char *aa5516c0d1874ad2c684a5b9731bda99ez0gg9dAHRcjNjkQ[] = {
/* columns rows colors chars-per-pixel */
"64 64 203 2 ",
"   c None",
".  c #757C36",
"X  c #646746",
"o  c #757A5D",
"O  c #757A4A",
"+  c #636262",
"@  c #6B6A6B",
"#  c #6E7064",
"$  c #777968",
"%  c #6C6F70",
"&  c #716F70",
"*  c #727475",
"=  c #7B7B7D",
"-  c #7E8537",
";  c #788121",
":  c #7E8546",
">  c #7B805C",
",  c #7E8076",
"<  c #8A9427",
"1  c #838A38",
"2  c #8C953B",
"3  c #8A9532",
"4  c #929B35",
"5  c #919C27",
"6  c #99A42C",
"7  c #9AA627",
"8  c #9AA53C",
"9  c #9EA93B",
"0  c #A5B22A",
"q  c #AEBB2C",
"w  c #A9B62C",
"e  c #A2AD34",
"r  c #ABB73B",
"t  c #AAB734",
"y  c #B0BE33",
"u  c #B2BE3C",
"i  c #A0AD29",
"p  c #B5C32E",
"a  c #BAC92F",
"s  c #B8C72F",
"d  c #B5C333",
"f  c #B8C634",
"g  c #BECD30",
"h  c #B4C13A",
"j  c #BECC3A",
"k  c #B9C738",
"l  c #C0CF32",
"z  c #C4D332",
"x  c #CBDC34",
"c  c #C5D33A",
"v  c #CCDC38",
"b  c #D3E436",
"n  c #D9EA37",
"m  c #D5E63A",
"M  c #DCED3B",
"N  c #D6E837",
"B  c #DFF139",
"V  c #E2F43B",
"C  c #E6F93B",
"Z  c #ECFF3C",
"A  c #828849",
"S  c #8E964D",
"D  c #939B47",
"F  c #8C9358",
"G  c #92995D",
"H  c #858B5A",
"J  c #9DA648",
"K  c #9BA453",
"L  c #9FA65C",
"P  c #A7B146",
"I  c #AAB54D",
"U  c #AEB94C",
"Y  c #A9B443",
"T  c #B2BE49",
"R  c #A4AD52",
"E  c #A2AB59",
"W  c #AAB556",
"Q  c #B1BB56",
"!  c #A1AA42",
"~  c #868B6D",
"^  c #868A6A",
"/  c #8D926C",
"(  c #8D9363",
")  c #959B66",
"_  c #86897A",
"`  c #8F9373",
"'  c #9A9E76",
"]  c #95997B",
"[  c #9CA269",
"{  c #9EA47A",
"}  c #A4AC6A",
"|  c #ACB46C",
" . c #B5BD6A",
".. c #B0B960",
"X. c #A6AB7B",
"o. c #ABB375",
"O. c #B3BB72",
"+. c #B2B97A",
"@. c #B9C649",
"#. c #B7C25C",
"$. c #BAC657",
"%. c #BBC560",
"&. c #B9C16C",
"*. c #BFC872",
"=. c #BCC576",
"-. c #C4D246",
";. c #CDDB4B",
":. c #C6D44C",
">. c #D0DF48",
",. c #C1CC5D",
"<. c #C1CD56",
"1. c #C7D451",
"2. c #D1DF59",
"3. c #D4E344",
"4. c #DCED43",
"5. c #D5E34C",
"6. c #DDEC4D",
"7. c #D9E75C",
"8. c #C4CD6E",
"9. c #C8D26C",
"0. c #C4CD74",
"q. c #C0C979",
"w. c #CDD775",
"e. c #7F8083",
"r. c #858887",
"t. c #8A8C82",
"y. c #8A8B8C",
"u. c #868686",
"i. c #91928F",
"p. c #8B8E91",
"a. c #8E9192",
"s. c #919396",
"d. c #929598",
"f. c #9A9C9B",
"g. c #9EA388",
"h. c #9FA193",
"j. c #A4A88A",
"k. c #AEB28B",
"l. c #A6A993",
"z. c #B4B99B",
"x. c #B5BB8D",
"c. c #9C9EA0",
"v. c #9FA0A2",
"b. c #A3A4A5",
"n. c #A6A7A8",
"m. c #ADAEAD",
"M. c #A9ABA4",
"N. c #ADB1A9",
"B. c #B5B8A7",
"V. c #B9BBB4",
"C. c #B7BAB9",
"Z. c #BBBCBB",
"A. c #B5B6B6",
"S. c #BBC285",
"D. c #BEC3A6",
"F. c #C3CB84",
"G. c #C3CB8D",
"H. c #CAD286",
"J. c #C6CC97",
"K. c #CBD294",
"L. c #CDD49E",
"P. c #D1DA94",
"I. c #D6DE9E",
"U. c #C3C8A7",
"Y. c #CDD3A7",
"T. c #D3D9AE",
"R. c #C5CAB2",
"E. c #C6C9BD",
"W. c #C5C9B8",
"Q. c #CDD2BC",
"!. c #D4DBB6",
"~. c #D1D5BB",
"^. c #D4D9B5",
"/. c #DAE1A5",
"(. c #E0E7AE",
"). c #E2E7B1",
"_. c #BCBFC2",
"`. c #BDC0C3",
"'. c #C2C4C3",
"]. c #C6C9C4",
"[. c #CACCC3",
"{. c #C4C6C8",
"}. c #C7CACC",
"|. c #CBCDCC",
" X c #CFD3CC",
".X c #CED1C3",
"XX c #D7DBC2",
"oX c #D1D4CB",
"OX c #D6DBCC",
"+X c #DBDFCC",
"@X c #CECFD1",
"#X c #CFD0D1",
"$X c #D3D4D4",
"%X c #D5D9D7",
"&X c #DADCD4",
"*X c #D5D7DA",
"=X c #D6D8D9",
"-X c #DADBDC",
";X c #DFE0D8",
":X c #DEDFE0",
">X c #DFE0E1",
",X c #E4E5E5",
"<X c #E6E7E8",
/* pixels */
"                                                                        `                                                       ",
"                                                                      Q.-.Z.                                                    ",
"                                                                      K 4.g.                                                    ",
"                                                                    U.M 4.[                                                     ",
"                                                                    r Z V E   &XC.                                              ",
"                                                                  X.Z Z V I W.G Z.                                              ",
"                                                                E.x Z Z V r D  .                                                ",
"                                                                P Z Z Z C M 5.B.                                                ",
"                                                              X.C Z Z Z Z Z 7.                                                  ",
"                                                            R.v Z Z Z Z Z C 7.                                                  ",
"                                                          oXT Z Z Z Z Z Z C 7.                                                  ",
"                                                           .C Z Z Z Z Z Z Z 7.                                                  ",
"                                                        S.M Z Z Z Z Z Z Z Z 6.B.                                                ",
"                                                      L.>.Z Z Z Z Z Z Z Z Z 4. .                                                ",
"                                                    Y.-.Z Z Z Z Z Z Z Z Z Z Z 5.U.                                              ",
"                                                  L.-.V Z Z Z Z Z Z Z Z Z Z Z V $. X                                            ",
"                                              %XK.>.C Z Z Z Z Z Z Z Z Z Z Z Z Z 4.=.%X                                          ",
"                      Z.                    E.0.M Z Z Z Z Z Z Z Z Z Z Z Z Z Z Z Z 4.F.                                          ",
"                    oX) J.                U.,.4.Z Z Z Z Z Z Z Z Z Z Z Z Z Z Z Z Z Z 3.K.                                        ",
"                    XXP 8.E.          $XH.;.V Z Z Z Z Z Z Z Z Z Z Z Z Z Z Z Z Z Z Z C 5.Y.                                      ",
"                    XXu m F.        [.*.3.C Z Z Z Z Z Z Z Z Z Z Z Z Z Z Z Z Z Z Z Z Z C ;.Y.                                    ",
"                    XXu C :.U.    Q.#.4.Z Z Z Z Z Z Z Z Z Z Z Z Z Z Z Z Z Z Z Z Z Z Z Z V 1.T.                                  ",
"                    OXU C m #.].Q.$.V Z Z Z Z Z Z Z Z Z Z Z Z Z Z Z Z Z Z Z Z Z Z Z Z Z Z V <.~.          {.j.| &X              ",
"                    %X[ p p 4.I Q V Z Z Z Z Z Z Z Z Z Z Z Z Z Z Z Z Z Z Z Z Z Z Z Z Z Z Z Z V #..X    E.=.7.5.r OX              ",
"                      N.> J x p B Z Z Z Z Z Z Z Z Z Z Z Z Z Z Z Z Z Z Z Z Z Z Z Z Z Z Z Z Z Z B *.E.S.2.M B z : ;X              ",
"                      _.+ K x b Z Z Z Z Z Z Z Z Z Z Z Z Z Z Z Z Z Z Z Z Z Z Z Z Z Z Z Z Z Z Z Z c @.5.C y G ] r.                ",
"                        d.o e Z Z Z Z Z Z Z Z Z Z Z Z Z Z Z Z Z Z Z Z Z Z Z Z Z Z Z Z Z Z Z Z n z N C 8 ~ a.y._.                ",
"                        C.: b Z Z Z Z Z Z Z Z Z Z Z Z Z Z Z Z Z Z Z Z Z Z Z Z Z Z Z Z Z Z Z V l x Z u / a.d.% @X                ",
"                        oXQ Z Z Z Z Z Z Z Z Z Z Z Z Z Z Z Z Z Z Z Z Z Z Z Z Z Z Z Z Z Z Z Z z z C Z E r.d.d.= *X                ",
"                        T.c Z Z Z Z Z Z Z Z Z Z Z Z Z Z Z Z Z Z Z Z Z Z Z Z Z Z Z Z Z Z Z g p C Z d / d.d.p._.                  ",
"                        P.C Z Z Z Z Z Z C Z Z Z Z Z Z Z Z Z Z Z Z Z Z Z Z Z Z Z Z Z Z N 0 p Z Z C E r.d.d.%  X                  ",
"                      |.W Z Z Z Z Z Z t ' $ 1 c Z Z Z Z b . < n Z Z Z Z Z Z Z Z Z Z Z C x x Z Z r ~ d.d.a.a.:X                  ",
"                      !.f Z Z Z Z Z b S.$X<X,X|.t.: l V C C . b.$ 4 V Z Z Z Z Z Z Z Z Z l 0 Z f H i.s.s.& `.                    ",
"                      ).n Z Z C C Z 9 B.<X<X<X<X<X<X*Xf.O y B e |.>Xt.e C Z Z Z Z Z Z Z z a x 7 ( s.s.s.* @X                    ",
"                      I.Z Z V b B Z ..Z.<X<X<X<X<X<X<X<X<X-Xy.2 $ <X<X.X: V Z Z Z Z Z Z B b B y ^ s.s.# X |.                    ",
"                      F.Z Z B b C B H.-X<X<X<X<X<X<X<X<X<X<X,X,Xi.<X<X<X$XA V Z Z Z Z Z Z b x y ^ s.e.U 1 [.                    ",
"                      =.Z Z n b C x G.,X<X<X<X,X<X<X<X<X<X<X<X<X<X<X<X<X<X.X8 Z C V Z Z Z z l z ) t.S b 2 E.                    ",
"                    :X=.Z Z n l b z J.-X@X$X-X,X<X<X<X<X<X<X<X<X>X:X#X-X<X-Xk.M n x Z Z Z l q B R X q Z D {.                    ",
"                      F.Z Z z 5 z l G.s.+ = s.#X<X<X<X<X<X<X,X}.m.b.+ v.<X,X~.f c y Z Z Z l q B q 7 x Z E #X                    ",
"                      T.Z Z z i l z K.m.u.i.u.'.,X<X<X<X<X<X<Xy.@ & @ Z.<X<X~.3 D L n Z Z q 7 l b q z Z o.$X                    ",
"                      ).B Z x z f 8 X.].>X<X<X<X<X<X<X<X<X<X<X<X<X<X<X<X<X<XE.: h.W.9 Z Z q 7 B Z a x n Y.                      ",
"                      ^.c Z b b U ] i.B.;X<X<X<X<X<X<X<X<X<X<X<X<X<X<X<X<X<X].$ :X|.| C C b b Z n b V d T.                      ",
"                      +X..C b b 8.#X<X<X<X<X<X<X<X<X<X,X<X<X<X<X<X<X<X<X<X<X-X'.<X-XG.n b z C Z z x Z J [.                      ",
"                        K.m b l H.:X<X<X<X:X$X#X#X#X#X*X*X>X,X<X<X<X<X<X<X<X<X<X>X].L z x l Z B z b n S.                        ",
"                        XX@.b l 0.$X<X<X<X{.b.v.c.v.b.n.m.Z.A.A.<X<X<X<X<X<X<X<X.X} w l z M C z x Z u R.                        ",
"                          G.e w %.V.<X<X<X|.i.y.a.s.s.s.s.p.* b.<X<X<X<X<X<X,X[.o.t a q 0 V y y B b O.%X                        ",
"                          +X^ 1 6 / #X,X<X<XZ.b.a.e.e.e.e.f.b.,X<X<X<X<X<X:XB.&.f h - 3 7 @.' Q B @.R.                          ",
"                            #X' 2 1 ' |.,X<X<X-XZ.n.n.n.n.{.,X<X<X<X<X,X|.k.$.c $.' = ~ G D.  S.8 x.                            ",
"                                g.S S } z.|.,X<X<X<X<X<X<X<X<X,X,X,X[.l.8.h -.=.B.}.$X#X'.    E.h.&X                            ",
"                                #XA.D.} R  .X.h.C.|.$X$X$X$X|.m.j.+.9.r h 0.T.*X                                                ",
"                                      &XY.| 4 ! ,.w.0.8.8.9.w.T 9 < W P.^.%X                                                    ",
"                                           X!./.P.q.O.4 w q a b z 5 F                                                           ",
"                                                    %XS l l l B x p @.x.                                                        ",
"                                                      z. .l V Z z n z <.                                                        ",
"                                                      A.R.r C Z 0 n j I                                                         ",
"                                                      B.k.< C Z < j !.+X                                                        ",
"                                                      M.J x 0 7 p X.                                                            ",
"                                                      ,.b - 1 m V M.                                                            ",
"                                                    oX6.V j.l.Z Z `                                                             ",
"                                                      R V P [.V C (                                                             ",
"                                                    C.U C f '.c Z K                                                             ",
"                                                    j.Y ) l.3.C Z )                                                             ",
"                                                            ' ' B.                                                              ",
"                                                                                                                                "
};
