/* XPM */
static char * gnmB_xpm[] = {
"64 64 332 2",
"  	c #8F9251",
". 	c #969A52",
"+ 	c #9EA35A",
"@ 	c #ADB262",
"# 	c #C3C980",
"$ 	c #8D8B52",
"% 	c #8B8551",
"& 	c #C5BB92",
"* 	c #B4AC7B",
"= 	c #C3BB8C",
"- 	c #C2BB85",
"; 	c #C1BC7D",
"> 	c #A59B67",
", 	c #A19E56",
"' 	c #999B3C",
") 	c #A19E4D",
"! 	c #A4AB44",
"~ 	c #A4AA4C",
"{ 	c #959B43",
"] 	c #A7A961",
"^ 	c #B7B182",
"/ 	c #BFB98A",
"( 	c #B5AC82",
"_ 	c #C7C192",
": 	c #BAAE83",
"< 	c #B2A67B",
"[ 	c #C1B68B",
"} 	c #C0B685",
"| 	c #C9BE9A",
"1 	c #A59B73",
"2 	c #D1C59C",
"3 	c #B1A66C",
"4 	c #B8AB76",
"5 	c #D5CAA4",
"6 	c #D9CEA5",
"7 	c #B3AC74",
"8 	c #A99E6C",
"9 	c #9D9668",
"0 	c #ACA474",
"a 	c #CAC38C",
"b 	c #ABA46C",
"c 	c #A39C64",
"d 	c #A4A35B",
"e 	c #918E45",
"f 	c #B2AD6C",
"g 	c #C8BD8E",
"h 	c #A99E72",
"i 	c #B5B373",
"j 	c #B6B871",
"k 	c #B3B36C",
"l 	c #AEAA73",
"m 	c #ADA37A",
"n 	c #D4CCA2",
"o 	c #A9A55E",
"p 	c #AAAD4D",
"q 	c #AEB16B",
"r 	c #BCB383",
"s 	c #AFAA7A",
"t 	c #B9AE7D",
"u 	c #A49C6B",
"v 	c #C9BD93",
"w 	c #C2B591",
"x 	c #B1A673",
"y 	c #9A945C",
"z 	c #918D4C",
"A 	c #9C9B54",
"B 	c #99954A",
"C 	c #ADAB6B",
"D 	c #9E9968",
"E 	c #959359",
"F 	c #9D9B5B",
"G 	c #938B5B",
"H 	c #CEC5A0",
"I 	c #D3CB9C",
"J 	c #CDC995",
"K 	c #A0955C",
"L 	c #B9B574",
"M 	c #AAAC5B",
"N 	c #ADB25C",
"O 	c #9DA14B",
"P 	c #A5A95B",
"Q 	c #B6B17B",
"R 	c #BEB48A",
"S 	c #CEC99B",
"T 	c #D6CB9B",
"U 	c #928D54",
"V 	c #A9A464",
"W 	c #A29D5D",
"X 	c #BEBA84",
"Y 	c #B1A581",
"Z 	c #CCC49A",
"` 	c #B5BA64",
" .	c #A5AA54",
"..	c #ABB14B",
"+.	c #A5A264",
"@.	c #A5A26A",
"#.	c #CBC393",
"$.	c #BAB37C",
"%.	c #A09670",
"&.	c #BFB591",
"*.	c #999454",
"=.	c #918E3F",
"-.	c #9A9C4B",
";.	c #B1AE64",
">.	c #C5C28B",
",.	c #C4C284",
"'.	c #BBC156",
").	c #9EA252",
"!.	c #979261",
"~.	c #716F71",
"{.	c #BDBA7B",
"].	c #CCC98B",
"^.	c #A6A073",
"/.	c #898B35",
"(.	c #949736",
"_.	c #AAAC54",
":.	c #B3B363",
"<.	c #AFB172",
"[.	c #BEC369",
"}.	c #ADB254",
"|.	c #9DA343",
"1.	c #A4AB3B",
"2.	c #949C2D",
"3.	c #988D62",
"4.	c #724648",
"5.	c #D5D4D5",
"6.	c #A19565",
"7.	c #94944C",
"8.	c #A8A753",
"9.	c #BCC373",
"0.	c #949B3C",
"a.	c #949B33",
"b.	c #703030",
"c.	c #8C1818",
"d.	c #8D9244",
"e.	c #767433",
"f.	c #9C9463",
"g.	c #B2B45C",
"h.	c #8D923C",
"i.	c #95994A",
"j.	c #ACAB64",
"k.	c #858342",
"l.	c #811414",
"m.	c #FF1212",
"n.	c #C3C3C3",
"o.	c #878A40",
"p.	c #9E9A63",
"q.	c #C1BB79",
"r.	c #B6B96B",
"s.	c #868948",
"t.	c #8E9249",
"u.	c #7E7D44",
"v.	c #C61010",
"w.	c #752625",
"x.	c #838081",
"y.	c #7A7D2C",
"z.	c #88873D",
"A.	c #959352",
"B.	c #7C7C3C",
"C.	c #8C8858",
"D.	c #EC1111",
"E.	c #5D1011",
"F.	c #9A9C44",
"G.	c #92875C",
"H.	c #D5D29A",
"I.	c #84843B",
"J.	c #7E8138",
"K.	c #7B7C34",
"L.	c #746E39",
"M.	c #837F50",
"N.	c #735B5C",
"O.	c #F41111",
"P.	c #D5D7DB",
"Q.	c #A2A44B",
"R.	c #A1A543",
"S.	c #A99E79",
"T.	c #D6D1A3",
"U.	c #6C6C26",
"V.	c #DA0F0F",
"W.	c #6D3334",
"X.	c #A3A453",
"Y.	c #929444",
"Z.	c #8B8C44",
"`.	c #D1CA94",
" +	c #C9C483",
".+	c #8D8B4A",
"++	c #76782A",
"@+	c #722C2C",
"#+	c #898543",
"$+	c #821B1B",
"%+	c #858249",
"&+	c #847D43",
"*+	c #828535",
"=+	c #724D4E",
"-+	c #77676A",
";+	c #BAAE89",
">+	c #8B854C",
",+	c #91933D",
"'+	c #8A8C3C",
")+	c #DADADD",
"!+	c #951515",
"~+	c #938889",
"{+	c #988D5D",
"]+	c #899031",
"^+	c #7C6465",
"/+	c #9B9393",
"(+	c #BCBB74",
"_+	c #BEC479",
":+	c #DCD3AA",
"<+	c #B6BB5A",
"[+	c #92191A",
"}+	c #9E999E",
"|+	c #B2B1B4",
"1+	c #E31212",
"2+	c #C7C8CC",
"3+	c #B9B66E",
"4+	c #BABC5B",
"5+	c #AAAE43",
"6+	c #B3B653",
"7+	c #7D7545",
"8+	c #A19CA1",
"9+	c #BABC65",
"0+	c #B3BA53",
"a+	c #9BA334",
"b+	c #6C393A",
"c+	c #BABB6B",
"d+	c #D31010",
"e+	c #CED1D6",
"f+	c #C8C77E",
"g+	c #CAC982",
"h+	c #868B3C",
"i+	c #C7BC98",
"j+	c #811817",
"k+	c #C2C474",
"l+	c #857B4A",
"m+	c #7D8034",
"n+	c #807F3C",
"o+	c #7B1E1E",
"p+	c #CACCD2",
"q+	c #5B191A",
"r+	c #725456",
"s+	c #7F696C",
"t+	c #661515",
"u+	c #713739",
"v+	c #933132",
"w+	c #CB1111",
"x+	c #964848",
"y+	c #7F2021",
"z+	c #ACA9A9",
"A+	c #AC0D0D",
"B+	c #9C0C0B",
"C+	c #AE1212",
"D+	c #9B1515",
"E+	c #898180",
"F+	c #6B0908",
"G+	c #DC1111",
"H+	c #6E1414",
"I+	c #D40F0F",
"J+	c #8B0A0A",
"K+	c #959296",
"L+	c #7C0909",
"M+	c #830B0A",
"N+	c #C60E0E",
"O+	c #81100D",
"P+	c #75696A",
"Q+	c #D8100F",
"R+	c #CC0F0F",
"S+	c #950A0B",
"T+	c #BD0D0D",
"U+	c #848B34",
"V+	c #C5C27D",
"W+	c #D7100F",
"X+	c #740808",
"Y+	c #7C8125",
"Z+	c #716265",
"`+	c #624643",
" @	c #7A7737",
".@	c #A50C0C",
"+@	c #D4D9E0",
"@@	c #4E0606",
"#@	c #B20C0D",
"$@	c #BABBC1",
"%@	c #9CA23C",
"&@	c #AFAEB0",
"*@	c #62494B",
"=@	c #370404",
"-@	c #BFC3C9",
";@	c #271E1E",
">@	c #878B29",
",@	c #ACB343",
"'@	c #A2A63B",
")@	c #470505",
"!@	c #8C932B",
"~@	c #B1B845",
"{@	c #731919",
"]@	c #85892C",
"^@	c #B51212",
"/@	c #A21111",
"(@	c #A9A7A7",
"_@	c #B0AE59",
":@	c #B8BABF",
"<@	c #7A7575",
"[@	c #B7B5B8",
"}@	c #573838",
"|@	c #3B0404",
"1@	c #2C0303",
"2@	c #1D1011",
"3@	c #CAC9CA",
"4@	c #909829",
"5@	c #878D1F",
"6@	c #8E9524",
"7@	c #C9C1C1",
"8@	c #150A0B",
"9@	c #0B0101",
"0@	c #A31D1D",
"a@	c #ABB33C",
"b@	c #916A6B",
"c@	c #010000",
"d@	c #9C8A8E",
"e@	c #5B0707",
"f@	c #BD1414",
"g@	c #922728",
"h@	c #AAAF3D",
"i@	c #BAB7BC",
"j@	c #826668",
"k@	c #A19A9D",
"l@	c #A59697",
"m@	c #B81D1D",
"n@	c #5D5052",
"o@	c #8D8A8B",
"p@	c #B5B94B",
"q@	c #C5C85A",
"  . + @ # $ % & * = - ; > , ' ) ! ~ { . ] ^ / ^ ^ ( / _ = : < [ } [ | [ 1 2 3 4 4 } [ 5 6 5 [ 7 4 8 9 0 a b c d , , e f b 4 g h ",
"i j k j l 9 m n a 0 - 4 4 o ) p ~ { { .   + q ^ 9 ^ r s } t u 0 [ & [ v [ } } h < r w | | 5 [ } < < r } a x y z A B o C t x v h ",
"D y E F G r H I J - b K c i L M N O ~ N . P P q F b Q / v = R : = = } g v 4 } > 0 : R S T 6 } < 0 1 g = = } b U V W i ; } } : 1 ",
"X $ $ ^ Y & Z v c , W o y 7 3 f `  .~ ~ ..N  .P +.E @.& [ } #.< [ } } $.- g g %.Y &.R _ T 6 2 4 < < [ = = = t *.c U 3 i a g [ 1 ",
"Q E c #.v &.R $.e =.-. .;.7 >.,.@ N ~ ! '.! ! ).B F G !.< [ [ t ~.} {.3 4 ].T * ^.&.^ J T g T } 1 < } w | T Z < y E @.* - = R u ",
"i l g g & / 0 z /.' (._.:.C ,.<.N [.}.|.1.2.|.~ -.W U 3.r = R r 4.5.f , , y I / ^.^ s ^ } } T } < } } v T | | } 6.s 0 >.* = * u ",
"Q b } v _ [ 0 7.8.8.}.}.{ ] +.>.9.9.[.~ 0.a...[.M z y * [ R ( : b.c.W A d.e.,.<.Q s c 0 b t Z [ < < } w | 5 | g D 0 s ^ r * 0 f.",
"$.4 } g = v - f ) g.[.|.).j <.+.+ . N  .0.h.{ i.j.k.U * R : : R l.m.n.d A o.j F A p.c i > t t ( } < [ w v 6 v t 1 m s r * Q p.% ",
"< q.( [ R = = Q 3 j.r.@ q C   s.t.+ ).+ t.o.    u.$ 0 r r [ w r v.m.w.x.o -.y.h.z.t.E y f.( 6.} [ < } w v T [ 0 0 m 0 X / 7 p.u.",
"w w [ ( ( * * !.r >.<.. q A.k.t.o.s.  +   B.C._ Q Q ^ ^ r : [ Z m.m.D.E.j.A /.~ F.t.t.p.^ G.^.r } q.} g #.2 [ 8 f./ * - a b A.B.",
"} w [ ( * 7 $.c 0 X H.@.k q s.I.J.K.L.B.u.M.C.^ ^ ^ / ^ r = & N.m.m.m.O.P.M Q.R.h.).A.G r R _ * S.} : [ J v $.h u 0 ^ 7 - - F s.",
"} g g t b b +.F X T.H.J j A z.U.o.+ @.@.C.M.C.^ ^ ^ r * / R & V.m.m.m.m.W.j.X.Y.{ Z.B.@.g n v _ < < } q.`.- Q 0 u 7 - }  +a C .+",
"} g g ; V j.A W ^ s = ,.F B o ++U.+.i C @.l s s D / ^ 9 ^ v @+m.m.m.m.m.O.F 3 d d C K * J v n Z w < < 4 r - t x x t 4 > l a F W ",
"} } T g Q + F C Q @.- @.A *.L #+e.*.V i F E +.$.0 s = _ ^ N.m.m.m.m.m.m.m.$+q.t t r r = g & J S T : 0 * 3 - 4 3 0 $.t > $.z f z ",
"& 2 6 5 Q   . ] >.X J %+$.b y } &+z A B *+7.A V j J _ r =+m.m.m.m.m.m.m.m.m.-+[ ;+;+} t Q #./ Z 5 S < 0 > 7 $.b x t } $.&+L.>+A.",
"/ 2 [ 6 J C 0 Q >.I 2 u Q 8 : u +.A.A -.,+F.'+d.,.X )+!+m.m.m.m.m.m.m.m.m.m.m.~+[ w } } - $.J J _ H.r p.W {+$.8 $.r $.} > y U W ",
"X Q @.J H.@.D >._ & 5 5 _ Z H r >.e.i.h.{ ]+y.Q.] ^+O.m.m.m.m.m.m.m.m.m.m.m.m.m./+} - q.W ] .+(+7.I.#+W W $.- } g * R * Q 7 3 V ",
"+ ] <._+#   @.X _ _ Z :+Z &.R = - + '+N 0.]+<+N [+m.m.m.m.m.m.m.m.m.m.m.m.m.m.m.O.}+q.d d , o q.Q.p _.-., j L f.* 0 u 1 t t < y ",
"K.J.t.s.s.J.+ >.,.s {+1 H r S X >.C F o.{  .|+1+m.m.m.m.m.m.m.m.m.m.m.m.m.m.m.m.m.D.2+f X.3+j.r.4+5+! 6+N :.j.{.>.G 7+G.Y ( m 1 ",
"d.O ).O t.. (+# i y C.!./ / R X >.X + t.+ 8+O.m.m.m.m.m.m.m.m.m.m.m.m.m.m.m.m.m.m.m.v.i f j.j.9+0+a+..' _.M (+q.,.- 1 v R %.;+S.",
"J.t.).).+ i.@ t.{.V 0 = 2 g v [ R Z Q s.|+O.m.m.m.m.m.m.m.m.m.m.m.m.m.m.m.m.m.m.m.m.m.b+L ;.3+c+p ! ..}. .c+r.f ,.a t } h < r G.",
" .d.N h.{ @ d.+.{..+s Q v v [ v _ S T.l d+m.m.m.m.m.m.m.m.m.m.m.m.m.m.m.m.m.m.m.m.m.m.m.e+z f+g+g.). .-.).i.j.f i F x Q 7 _ > G ",
"_+9.t.d.o.h+d.F C p.u [ : } w | &.i+S !+m.m.m.m.m.m.m.m.m.m.m.m.m.m.m.m.m.m.m.m.m.m.m.m.j+i f z Y.k+` X.. o d A.i W &+3 } } {+l+",
"# _+P ).] m+J.J.U E 0 ( [ [ w w &.H /+m.m.m.m.m.m.m.m.m.m.m.m.m.m.m.m.m.m.m.m.m.m.m.m.m.m.5.V z + j.Z.7.] A A V n+4 > 4 t ;+3.l+",
"+ + . t.t.t.P J.] Q X = m ( i+[ &.v v.m.m.m.m.m.m.m.m.m.m.m.m.m.m.m.m.m.m.m.m.m.m.m.m.m.m.o+= l U *.W W ,.(+*.c V t > 8 ; > 3.M.",
"  . P O ).O h.i.+._+,.9 x ;+;+v & p+m.m.m.m.m.m.m.m.m.m.m.m.m.m.m.m.m.m.m.m.m.m.m.m.m.m.m.O.T = % &+> - U 4 3 c x q.x x < 8 6.6.",
"  ).t.{ N ` N O j.d q+^+)+= [ v = r+m.m.m.m.m.m.m.m.m.m.m.m.m.m.m.m.m.m.m.m.m.m.m.m.m.m.m.m.=+n v v Z s+t+$.b b 4 t 7 $.x h 8 6.",
"s.J.d.d. .[.[.N ` @ u+m.O.v+r ^ = j+m.m.m.m.m.m.m.m.m.m.m.m.m.m.m.m.m.m.m.m.m.m.m.m.m.m.m.m.w+T.2 x+O.m.y+- * t 4 7 b t 4 > 8 > ",
"j . I.K.m+{  .O N _+z+A+B+m.C+} } C+m.m.m.m.m.m.m.m.m.m.m.m.m.m.m.m.m.m.m.m.m.m.m.m.m.m.m.m.m.e+D+m.C+A+E+= Q 0 i Q @.l 4 y b i ",
"X X I.K.y./. ._.O P + 1+m.F+m.D+t G+m.m.m.m.m.m.m.m.m.m.m.m.m.m.m.m.m.m.m.m.m.m.m.m.m.m.m.m.m.F+m.F+m.O.Q X 7 C l C E + L +.+.+.",
"{+D +.k.K.I.m+h+A P C H+m.m.I+m.W.O.m.m.m.m.m.m.J+m.m.m.m.m.m.m.m.m.m.m.m.m.m.m.m.m.m.m.m.m.J+m.O.O.m.!+r ^ r +.+.A t.i.N  .{ |.",
"9 G * @.V t.. o.o.s.B.K+m.m.L+m.m.M+V.m.m.m.m.m.N+m.m.m.m.m.m.m.m.m.m.m.m.m.m.m.m.m.m.m.D.A+m.m.O+m.m.P+/ @.p.A.. i.O h.0.).a.! ",
"{+( Q r s l k.A.B..+y X V.m.O.N+m.D.O.m.m.m.m.J+Q+m.m.m.m.m.m.m.m.m.m.m.m.m.m.m.m.m.m.m.m.R+m.G+D.m.D.>.Q . o.h+O { t.` M [._...",
"0 * ^ g 0 * s l+7+7 U = =+m.m.S+O.T+m.m.m.m.m.S+T+m.m.m.m.m.m.m.m.m.m.m.m.m.m.m.m.m.m.m.m.S+m.O+m.m.w.@.F s.O m+U+).t.).7.V+) ) ",
"y y c : R ( r ^ u 1 ^ Q * W+m.D.B+L+m.R+m.m.m.1+M+m.m.m.m.m.m.m.m.m.m.m.m.m.m.m.m.m.m.m.m.X+B+d+m.D.J.e.+ ).).U+Y+P (+Q * } *.K ",
"^.x {+Q R * = s X = r 7 Q Z+m.O.O.M+m.D.m.m.O.O.X+m.m.m.m.m.m.m.m.m.m.m.L+m.m.m.m.m.m.m.m.J+m.O.m.`+ @t.i.m+h.d.h+t.<./ _ & x 4 ",
": t } g } b *.f k :.] W ] j H+O.O.J+m.O.1+m.m.D.V.m.m.m.m.m.m.m.m.m.m.D.m.A+A+m.m.m.m.O.m..@m.1+O++.C y k.d ).Y.d.. C / & i+m Y ",
": [ h >+*.A , X.c+ .N -.O i.+@@@m.S+m.O.X+m.m.I+m.B+m.m..@.@Q+m.m.m.m.D.m.m.m.X+m.m.m.B+m.#@m.M+2+p.L.p.i (+7.X.7.t.$ D R w Y &.",
"v q.`.q.W d ).-._.[.{ p |.|.|.e+N+L+m.#@I+O.m.J+m.I+1+m.S+m.m.A+T+m.m.O.m.m.m.m.A+m.m.O.O.S+I+$@/ ( h * - 7 3+7.A +.l r & m Y ;+",
"g g - - ; k+o  .[.g.N |.|...%@0.&@X+m.L+m.L+m.S+m.m.I+B+m.F+m.m.O.M+m.O.O.m.m.m.L+m.m.m.A+X+*@Y R : R / l {.j A.7.A F X s ( &.&.",
"} 8 - q.q.;.:.X.@ O N ~ O 0.0.U+ @V.m.X+m.m.J+.@=@N+m.m.J+N+X+m.m.m.X+O.O.m.m.m.R+m.m.O.X+N+S.m ( : Q - l U .++..+A *.F s _ | ( ",
"q.K k K ) ) (.) h.O h+P d.d.++I.7 y+m.X+m.m.m.m.m.m.m.m.m.m.X+S+N+m.m.M+T+m.m.m.I+m.N+m.F+b+3.m < } * - g +.f ] (+d I.A s.l Z %.",
"K ) o 4+}...R.' |.O M *++.q s.X r -@m..@m.m.m.m.m.m.m.m.m.m.m.m.S+m.m.m.F+m.m.m.N+I+X+m.;@u b x < R * r b 7 Q >.].o o.Y.. (+i @.",
"=.>@' 6+,@'@,@'@}.N :.j.i C {.^ & m r+G+m.m.m.m.m.m.m.m.m.m.m.m.m.m.m.m.I+m.m.m.J+J+O.!+; f y > 7 0 = $.R Q Q 0 C t.Y.X.r.(+j ] ",
"a.>@'@'@,@1.%@0+}.M d 3 f 3 *.c X * / =+N.m.m.m.m.m.m.m.m.m.m.m.m.m.m.m.m.m.m.m.)@A+w+; 3+e , ;.$.r 7 r 9 @./ _ X . ).O  .}.P r.",
"!@!@a+5+~@a+'@p ) r.f+; c *.A.s.>+Q X * $.n.!+m.O.m.m.m.m.m.m.m.m.m.m.m.m.m.m.!+n.{@k :.8.]@,+z.3+W W +.0 ^ S >.J # ). .|.h+@ q ",
"'+,+(.p ! %@0+p Q.9+, 3 V $.t 3 X +.C A A.c W D.^@^+/@D.m.m.m.m.m.O.m.m.V.o+(@_@k V /.*+>@6+(.'@) B X.d ] ,.^ Z ^ @.9.9.{ t.q q ",
"Z.i.-.F.|.! ' ! g., f - x $.7 7 y 7.*.W +.A , :@[+<@X.M [@x.}@=@|@1@2@3@o '+Y.g.-.,+F.>@4@5@6@'@'@_@) ) <.s ^ ^ _ _+].+ t.s.+ ^ ",
"c A.n+e t.).M -.+ +.y > 7 : < } < l V ] *., V W V (+j.X.o 7@8@9@9@9@9@0@q.g.F.X. .}.,@1.'.a@a@a@Q., f ].r * h 1 r i 3+3+i.B.%+s ",
"F W *.d O + @ @ k {.$.r t 6.} < r Q 3 C *.A V 4 Q V z #+Y.G+9@9@9@9@9@M+[+R.F.Q.g...~@a@a@a@~@a@' =.;.].J ^ s 0 ,.{.C V k.%+% l ",
"r = r = >.H.>.@.$.>.c c 3 3 3 q.* > *.c f q.- ].- > *.U b@m.9@9@c@c@9@)@m.d@-.g. .%@1.,@a+a+a+1.'@6+_@) ].`.x t >.- a 7 0 c D @.",
";+S #.= X J / <.X = - b {+} 3 4 * Q 4 q.V c 4 a g * b $@D.m.9@c@c@c@c@e@m.f@j.3+M F.4@2.a+2.4@'.~@'@6+8., g+g u ^ r = $.* ^.9 9 ",
"&./ / S T.T./ ^.9 %.2 t q.v q.3 4 : 7 q.L $.r & #./ - r G+1+;@c@c@c@c@x.g@d@A.j.3+O !@6@2.2.a+'.h@'@6+p B o 8 4 S.S.w w v x 3.G.",
"R = / _ S S S S H Z & < | | < q.4 } 4 $.; r / & &./ 2 _ Q * i@8@c@c@1@j@C 0 U $ 3+{ a+2.4@a+1.1.h@'@5+F.B B b g < S.w [ i+1 3.G.",
"0 r a a J H.S I T._ [ | v [ q.S.: } 4 t 4 ;+R w | w & - t } p+m.1+k@m.v+m / _ / {.-.|.a.4@a+,@..4+g.q._.) ) 8 7 [ Y ;+i+w : 6.G.",
"* Q / >.>.].X J s s < 8 [ S.} Y [ [ * t t ;+[ Z H Z R Q - = ^ m.m.l@m.m@Y ;+i+_ r A X.%@%@2.%@}., ;._@g.o f L - v [ ;+S.[ } 8 K ",
"Y / >.X #   t.+ @.<.i C.7 * = * w [ S.< } [ | | 5 Z t q.- - p+9@9@9@c@c@0 | & 5 J +.A *+*+|.h.).j.] P P X.).i.+ $.#.= s * * u > ",
"^ E E <.. o.  . + (+i l u X * R [ w < Y Y [ = 2 #.g t 4 q.; 6.P+n@o@`+8+= & Z Z I a C 9.O @ P +.+ k P O F.{ O h+d i ^ J * 0 b 0 ",
"<.<.r.O J.m+{ { i.:.+.V 6.( ;+< | w S.( < } v v H.Q 3+o *.z >+&+< w } x g r _ _ _ a j (+P  .(+(+g+_+@ |.0.|.%@0. .3+i {.- 0 * ^.",
"  t.J.h.J.0.{ { i.. A.%+0 [ Y [ w Y } > > v T g >.d W :.;.n+&+t ( w $. +7 ,.a a -  +{.f Y.Y.-.X.3+@ M F.0.%@]+]+d.@ q X - ^ * ^.",
"N ` O { h.0.{ N _+f y 8 x < &.w [ ;+: < Q +.i g+k A Q.B =.e f - [ g q.B , , , q.f+q.q.z.(./.F., :.:.X.Q.O h.h.h.t.t.+.{.r ^ * ^.",
"O + O h. .{ { + k A.*.f.3.< ;+[ [ } g q.y A.{.d :.:._. .8.e y } [ < q.8._.,+' ) , ;.o , F.F.=.'+, f j.B h+h+o.o.+ E C @.r ^ ( 1 ",
"[.. o.).t.).@ _+C C $ &+8 8 3 } } x - V d ;.A (+` g.6+O ,+e *.4 : 4 ) p@4+5+a.4+_._@k ;., { =.=.n+> $.U .+C p.s.E Q 0 D m R ( Y ",
"+ q P t.+ . + ] ,.E U 6.K K 3 4 t t ; g+d d k ` :. .R.,+=.B &+b 3 ; 4+'@p@q@q@'@(.=.k q.B F.=.*.z > 3 t ^ ^ ^ ^ Q Q 9 C.1 m &.%."};
