/* XPM */
static char *result[] = {
/* columns rows colors chars-per-pixel */
"64 64 176 2 ",
"   c #0B0909",
".  c #1D0404",
"X  c #1F0807",
"o  c #2C0000",
"O  c #220707",
"+  c #3E0302",
"@  c #310505",
"#  c #2F1300",
"$  c #291717",
"%  c #3B1818",
"&  c #242021",
"*  c #2D292A",
"=  c #362C2D",
"-  c #363737",
";  c #363738",
":  c #3A3738",
">  c #3B3B3C",
",  c #393637",
"<  c #4D0100",
"1  c #520100",
"2  c #5D0100",
"3  c #4B1C1C",
"4  c #4B1616",
"5  c #531111",
"6  c #620100",
"7  c #6C0100",
"8  c #6B0807",
"9  c #650F0E",
"0  c #720100",
"q  c #7D0201",
"w  c #790807",
"e  c #720B0A",
"r  c #7A0E0D",
"t  c #63100F",
"y  c #7B100F",
"u  c #651413",
"i  c #671818",
"p  c #751A1A",
"a  c #4D2324",
"s  c #572425",
"d  c #48393A",
"f  c #523535",
"g  c #593636",
"h  c #602D2C",
"j  c #742C2C",
"k  c #663334",
"l  c #743A3A",
"z  c #413F40",
"x  c #3F4041",
"c  c #434243",
"v  c #494748",
"b  c #464849",
"n  c #4E4D4E",
"m  c #494647",
"M  c #544243",
"N  c #584445",
"B  c #5C4A4B",
"V  c #544649",
"C  c #4F5052",
"Z  c #5C5A5B",
"A  c #555455",
"S  c #6A4848",
"D  c #604A4C",
"F  c #784A4A",
"G  c #614E50",
"H  c #6A5758",
"J  c #67595B",
"K  c #7F5757",
"L  c #745859",
"P  c #5F5F61",
"I  c #5F6061",
"U  c #656464",
"Y  c #6A6768",
"T  c #6B6C6E",
"R  c #766464",
"E  c #6D6E70",
"W  c #6E7073",
"Q  c #747374",
"!  c #7B7274",
"~  c #777878",
"^  c #7B7B7C",
"/  c #840100",
"(  c #8B0100",
")  c #860B0B",
"_  c #940201",
"`  c #990302",
"'  c #9A0907",
"]  c #9F1100",
"[  c #851C1C",
"{  c #8B1514",
"}  c #9D1515",
"|  c #9D1817",
" . c #951E1D",
".. c #A30201",
"X. c #AC0302",
"o. c #B20100",
"O. c #BD0201",
"+. c #B40807",
"@. c #B40D0C",
"#. c #B90E0D",
"$. c #A01B1A",
"%. c #B51110",
"&. c #8F2424",
"*. c #822A2A",
"=. c #882F2F",
"-. c #942322",
";. c #912A2A",
":. c #A52323",
">. c #C50200",
",. c #CC0200",
"<. c #D30200",
"1. c #DB0200",
"2. c #D10807",
"3. c #C81918",
"4. c #E50301",
"5. c #EB0200",
"6. c #EA0C0A",
"7. c #F30200",
"8. c #FF0200",
"9. c #874648",
"0. c #854D4E",
"q. c #925858",
"w. c #9D5152",
"e. c #B65B5C",
"r. c #856C6D",
"t. c #876566",
"y. c #906464",
"u. c #957A7B",
"i. c #977678",
"p. c #A37E7F",
"a. c #C54142",
"s. c #DF4A4B",
"d. c #7E7E81",
"f. c #838385",
"g. c #898384",
"h. c #85878A",
"j. c #878A8D",
"k. c #8E8A8A",
"l. c #958587",
"z. c #8C8E91",
"x. c #8F9295",
"c. c #919497",
"v. c #969799",
"b. c #9B9B9D",
"n. c #A79A9A",
"m. c #9E9FA0",
"M. c #9CA0A5",
"N. c #A4A3A4",
"B. c #A7AAAF",
"V. c #ADAEAE",
"C. c #A8A5AB",
"Z. c #B3A8AB",
"A. c #AAAEB3",
"S. c #B1AEB3",
"D. c #AFB2B5",
"F. c #B5B5B6",
"G. c #B6B7B8",
"H. c #BCBCBD",
"J. c #C0A6AB",
"K. c #C2C2C3",
"L. c #C8C7C7",
"P. c #C6C8CB",
"I. c #CCCDCE",
"U. c #C2C5C9",
"Y. c #CECFD2",
"T. c #CCD1D8",
"R. c #D2D2D3",
"E. c #D8D7D7",
"W. c #D3D6DA",
"Q. c #DBDCDD",
"!. c #ECD3D3",
"~. c #DCDEE1",
"^. c #DEE0E2",
"/. c #E3E4E5",
"(. c #E6E7E8",
"). c None",
/* pixels */
").).).).).).).).).).).).).).).).).).).).).).).).).).).).).).).).).).).).).).).).).).).).).).).).).).).).).).).).).).).).).).).).",
").).).).).).).).).).).).).).).).).).).).).).).).).).).).).).).).).^ ).).).).).).).).).).).).).).).).).).).).).).).).).).).).).).",
").).).).).).).).).).).).).).).).).).).).).).).).).).).).).).).).).s.).).).).).).).).).).).).).).).).).).).).).).).).).).).).).).",
").).).).).).).).).).).).).).).).).).).).).).).).).).).).).).).).).3.;.).).).).).).).).).).).).).).).).).).).).).).).).).).).).).",
").).).).).).).).).).).).).).).).).).).).).).).).).).).).).).).).).o.8.b.).).).).).).).).).).).).).).).).).).).).).).).).).).).).",
").).).).).).).).).).).).).).).).).).).).).).).).).).).).).).).).).o.8.l ).).).).).).).).).).).).).).).).).).).).).).).).).).).).",
").).).).).).).).).).).).).).).).).).).).).).).).).).).).).).).).).8.8.4.T ).).).).).).).).).).).).).).).).).).).).).).).).).).).",
").).).).).).).).).).).).).).).).).).).).).).).).).).).).).).).).g.8.8.8.O C.).).).).).).).).).).).).).).).).).).).).).).).).).).",
").).).).).).).).).).).).).).).).).).).).).).).).).).).).).).).).| 8.8.8.8.9 ).).).).).).).).).).).).).).).).).).).).).).).).).).",
").).).).).).).).).).).).).).).).).).).).).).).).).).).).).).).Z.8.8.8.8.8.8.P.).).).).).).).).).).).).).).).).).).).).).).).).).",
").).).).).).).).).).).).).).).).).).).).).).).).).).).).).).).X.8.8.8.8.8.8.{ ).).).).).).).).).).).).).).).).).).).).).).).).).",
").).).).).).).).).).).).).).).).).).).).).).).).).).).).).).k 8.8.8.8.8.8.8.7.f.).).).).).).).).).).).).).).).).).).).).).).).).",
").).).).).).).).).).).).).).).).).).).).).).).).).).).).).0.8.8.8.8.8.8.8.8.8.>.).).).).).).).).).).).).).).).).).).).).).).).).",
").).).).).).).).).).).).).).).).).).).).).).).).).).).).u 8.8.8.8.8.8.8.8.8.8.8.a ).).).).).).).).).).).).).).).).).).).).).).).",
").).).).).).).).).).).).).).).).).).).).).).).).).).k.` 8.8.8.8.8.8.8.8.8.8.8.8.8.f ).).).).).).).).).).).).).).).).).).).).).).",
").).).).).).).).).).).).).).).).).).).).).).).).W.g 8.8.8.8.8.8.8.8.8.8.8.8.8.8.8.8.w.).).).).).).).).).).).).).).).).).).).).).",
").).).).).).).).).).).).).).).).).).).).).).).x.,.8.8.8.8.8.8.8.8.8.8.8.8.8.8.8.8.8.8.3 ).).).).).).).).).).).).).).).).).).).).",
").).).).).).).).).).).).).).).).).).).).).).9.8.8.8.8.8.8.8.8.8.8.8.8.8.8.8.8.8.8.8.8.8.f ).).).).).).).).).).).).).).).).).).).",
").).).).).).).).).).).).).).).).).).).).).p 8.8.8.8.8.8.8.8.8.8.8.8.8.8.8.8.8.8.8.8.8.8.8.Z.).).).).).).).).).).).).).).).).).).",
").).).).).).).).).).).).).).).).).).).).-.8.8.8.8.8.8.8.8.8.8.8.8.8.8.8.8.8.8.8.8.8.8.8.8.>.W.).).).).).).).).).).).).).).).).).",
").).).).).).).).).).).).).).).).).).).*.8.8.8.8.8.8.8.8.8.8.8.8.8.8.8.8.8.8.8.8.8.8.8.8.8.8.t ).).).).).).).).).).).).).).).).).",
").).).).).).).).).).).).).).).).).).= 8.8.8.8.8.8.8.8.8.8.8.8.8.8.8.8.8.8.8.8.8.8.8.8.8.8.8.8.b.).).).).).).).).).).).).).).).).",
").).).).).).).).).).).).).).).).).l.7.8.8.8.8.8.8.8.8.8.8.8.8.8.8.8.8.8.8.8.8.8.8.8.8.8.8.8.8.r ).).).).).).).).).).).).).).).).",
").).).).).).).).).).).).).).).).^.>.8.8.8.8.8.8.8.8.8.8.8.8.8.8.8.8.8.8.8.8.8.8.8.8.8.8.8.8.8.8.f.).).).).).).).).).).).).).).).",
").).).).).).).).).).).).).).).).u.8.8.8.8.8.8.8.8.8.8.8.8.8.8.8.8.8.8.8.8.8.8.8.8.8.8.8.8.8.8.8.} ).).).).).).).).).).).).).).).",
").).).).).).).).).).).).).).).)._ 8.8.8.8.8.8.8.8.8.8.8.8.8.8.8.8.8.8.8.8.8.8.8.8.8.8.8.8.8.8.8.8.E.).).).).).).).).).).).).).).",
").).).).).).).).).).).).).).).R.8.8.8.8.8.8.8.8.8.8.8.8.8.8.8.8.8.8.8.8.8.8.8.8.8.8.8.8.8.8.8.8.8.*.).).).).).).).).).).).).).).",
").).).).).).).X.F d.).).).).).L 8.8.8.8.8.8.8.8.8.8.8.8.8.8.8.8.8.8.8.8.8.8.8.8.8.8.8.8.8.8.8.8.8.7.).).).).~.V $.B ).).).).).).",
").).).).).).).o.8.8.0 A.).).).a.8.8.8.8.8.8.8.8.8.8.8.8.8.8.8.8.8.8.8.8.8.8.8.8.8.8.8.8.8.8.8.8.8.8.G ).).l 4.8.8.Y ).).).).).).",
").).).).).).).d f O.8.5.z.).)...8.8.8.8.8.8.8.8.8.8.8.8.8.8.8.8.8.8.8.8.8.8.8.8.8.8.8.8.8.8.8.8.8.8.@.).{ 8.8.@ N ~.).).).).).).",
").).).).).).).M.c.x.i 8.4.C.)...8.8.8.8.8.8.8.4.8.8.8.8.8.8.8.8.8.8.8.8.8.8.8.8.8.8.8.8.8.8.8.8.8.8.7.-.8.<.Z c.- ).).).).).).).",
").).).).).).).).j.c.c.w 8.>.T.o.8.8.8.8.8.8.8.8.3 j ,.8.8.8.8.8.8.8.8.8.8.8.8.8.8.8.8.8.8.8.8.8.8.8.1 8.8.> c.c.j.).).).).).).).",
").).).).).).).).x c.c.C 8.8.#.8.8.8.8.8.8.8.8.O.E.(.^.F.k o.8.8.8.8._ s 0 7.8.8.8.8.8.8.8.8.8.8.8.O.8.8._ c.c.c.H.).).).).).).).",
").).).).).).).).P.z.c.c.( 8.8.1 0 8.8.8.8.8.8.l.(.(.(.(.(.(.V.K _ 8.8.<.V.Y.Y ' 8.8.8.8.8.8.8.8.q <.8.8.V c.c.b ).).).).).).).).",
").).).).).).).).).d.c.c.C 8.8.8.1.8.8.8.8.8.1.(.(.(.(.(.(.(.(.(.~.N.4 4.@./././.! 1.8.8.8.8.8.8.q 8.8.q x.c.c.~ ).).).).).).).).",
").).).).).).).).).W c.c.c.+ 8.1.8.8.8.8.8.8.% (.(.(.(.(.(.(.(.(.(.(.(.(.N.E.(.(.(.I.e 8.8.8.8.8.O.8.4.E c.c.h.).).).).).).).).).",
").).).).).).).).).).W c.c.M O.2 8.8.1.8.8.8.k.(.(.(.(.(.(.(.(.(.(.(.(.(.(.(.(.(.(.(.^.,.8.8.8.8...8.w c.c.c.c ).).).).).).).).).",
").).).).).).).).).).f.c.x.g.8.q 8.8./ 8.8.8.S./.(.(.(.(.(.(.(.(.(.(.(.(.(.(.(.(.(.(.(.r.8.8.8.8.5.8.' c.c.T ).).).).).).).).).).",
").).).).).).).).).).).> c.h.8./ 8.8.o 8.8.8./.(.(.(.(.(.(.(.(.(.(.(.(.(.(.(.(.(.(.(.(.~ 8.8.q 8.8.8.( c.h.z.).).).).).).).).).).",
").).).).).).).).).).).R.T H 8.` 8.8._ 8.8.8.k.(.(.c & H.K.E.(.(.(.(.(.(.(.K.Z m E F.(.Q.8.8.7 8.8.8.8.v.> ).).).).).).).).).).).",
").).).).).).).).).).).).v._ 8.8.8.8.1 >.8.8.k./.(.v.& Z = n (.(.(.(.(.(.(.* K.T > /.(.Q.8.8.6 8.8.8.8.$ ).).).).).).).).).).).).",
").).).).).).).).).).).).).n.4.>.8.8.4.2 8.8.4 (.(.(.(.(.(.(.(.(.(.(.(.(.(.(.(.(.(.(.(.f.8.X.8.<.8.8.8 ).).).).).).).).).).).).).",
").).).).).).).).).).).).).).~ o 8.8.4.< ) 8.6.(./.(.(.(.(.(.(.(.(.(.(.(.(.(.(.(.(.(.(.r.8.. 8...5.# ).).).).).).).).).).).).).).",
").).).).).).).).).).).).).).).o.8.8.5.7.H.w 8.l T (.(.(.(.(.(.(.(.(.(.!.K.K.(.(.(.(.(.=.M e 8.....[ ).).).).).).).).).).).).).).",
").).).).).).).).).).).).).).)...8.8.4.8.Z (.H.H.(.(.(.(.(.U J , > I I T T ~ (.(.(.(.(.d.G.7.8./ 4.P.).).).).).).).).).).).).).).",
").).).).).).).).).).).).).).).U 8.8.5.8.1.I.(.(.(.(.(.(.(.Q.m T E E W T c /.(.(.(.(.(.(.5 8.8.2 ;.).).).).).).).).).).).).).).).",
").).).).).).).).).).).).).).).)._ 8.4.8.8.X.I.(.(.(.(.(.(.(.(.c.M.A b.N./.(.(.(.(.(.(.- 8.8.8.  ).).).).).).).).).).).).).).).).",
").).).).).).).).).).).).).).).).!.<.+ 8.8.8.4.U (.(.(.(.(.(.(.(.(.(.(.(.(.(.(.(.(.(.g ) 8.8.t ).).).).).).).).).).).).).).).).).",
").).).).).).).).).).).).).).).).).S.  u 8.8.8.'  .I /.(.(.(.(.(.(.(.(.(.(./.(.(.C.q 8.6 8.+.).).).).).).).).).).).).).).).).).).",
").).).).).).).).).).).).).).).).).).).).R X.8.8.( 8._ 0.f.^.(.(.(.(.(./.(./.g.y 7.7.0.! -.).).).).).).).).).).).).).).).).).).).",
").).).).).).).).).).).).).).).).).).).).).F.5._ 5 4.8.8.7.5.' O O X O O ' 4.8.4.p ).).I.).).).).).).).).).).).).).).).).).).).).",
").).).).).).).).).).).).).).).).).).).).).).y.8.B /.B.j < <.,.8.8.8.4.<.( 0 J.U.).).).).).).).).).).).).).).).).).).).).).).).).",
").).).).).).).).).).).).).).).).).).).).).).).N.F W ).).).I.8.>.<.,.8.8.7.7.l.).).).).).).).).).).).).).).).).).).).).).).).).).",
").).).).).).).).).).).).).).).).).).).).).).).).).).).).).:.8.8.7.r.u.} 5.,.5.).).).).).).).).).).).).).).).).).).).).).).).).).",
").).).).).).).).).).).).).).).).).).).).).).).).).).).).b.8.8.8.S (.(.E.4.,.8.%.).).).).).).).).).).).).).).).).).).).).).).).).",
").).).).).).).).).).).).).).).).).).).).).).).).).).).).e.8.8.O.I.(.(.(.{ %.8.t.).).).).).).).).).).).).).).).).).).).).).).).).",
").).).).).).).).).).).).).).).).).).).).).).).).).).).).).#.L D I.(.(.(.* (.!.).).).).).).).).).).).).).).).).).).).).).).).).).",
").).).).).).).).).).).).).).).).).).).).).).).).).).).).).).).).:.c.c.i.5.R.).).).).).).).).).).).).).).).).).).).).).).).).).).",
").).).).).).).).).).).).).).).).).).).).).).).).).).).).).).).~.8.8.W.1.8.Y.).).).).).).).).).).).).).).).).).).).).).).).).).).",
").).).).).).).).).).).).).).).).).).).).).).).).).).).).).).).~.8.8.d.2.8.u.).).).).).).).).).).).).).).).).).).).).).).).).).).",
").).).).).).).).).).).).).).).).).).).).).).).).).).).).).).).).8.8.q.8.8.s ).).).).).).).).).).).).).).).).).).).).).).).).).).",
").).).).).).).).).).).).).).).).).).).).).).).).).).).).).).).).7.8.p 8.7.[ ).).).).).).).).).).).).).).).).).).).).).).).).).).",
").).).).).).).).).).).).).).).).).).).).).).).).).).).).).).).).).).).).).).).).).).).).).).).).).).).).).).).).).).).).).).).).",
").).).).).).).).).).).).).).).).).).).).).).).).).).).).).).).).).).).).).).).).).).).).).).).).).).).).).).).).).).).).).).).)."
};
