/* XPM */
static char * gnmF_xpm[] = {
"64 64 377 2",
"  	c #8F9251",
". 	c #969A52",
"+ 	c #9EA35A",
"@ 	c #ADB262",
"# 	c #C3C980",
"$ 	c #8D8B52",
"% 	c #8B8551",
"& 	c #C5BB92",
"* 	c #B4AC7B",
"= 	c #C3BB8C",
"- 	c #C2BB85",
"; 	c #C1BC7D",
"> 	c #A59B67",
", 	c #A19E56",
"' 	c #999B3C",
") 	c #A19E4D",
"! 	c #A4AB44",
"~ 	c #A4AA4C",
"{ 	c #959B43",
"] 	c #A7A961",
"^ 	c #B7B182",
"/ 	c #BFB98A",
"( 	c #B5AC82",
"_ 	c #C7C192",
": 	c #BAAE83",
"< 	c #B2A67B",
"[ 	c #C1B68B",
"} 	c #C0B685",
"| 	c #C9BE9A",
"1 	c #A59B73",
"2 	c #D1C59C",
"3 	c #B1A66C",
"4 	c #B8AB76",
"5 	c #D5CAA4",
"6 	c #D9CEA5",
"7 	c #B3AC74",
"8 	c #A99E6C",
"9 	c #9D9668",
"0 	c #ACA474",
"a 	c #CAC38C",
"b 	c #ABA46C",
"c 	c #A39C64",
"d 	c #A4A35B",
"e 	c #918E45",
"f 	c #B2AD6C",
"g 	c #C8BD8E",
"h 	c #A99E72",
"i 	c #B5B373",
"j 	c #B6B871",
"k 	c #B3B36C",
"l 	c #AEAA73",
"m 	c #ADA37A",
"n 	c #D4CCA2",
"o 	c #A9A55E",
"p 	c #AAAD4D",
"q 	c #AEB16B",
"r 	c #BCB383",
"s 	c #AFAA7A",
"t 	c #B9AE7D",
"u 	c #A49C6B",
"v 	c #7B7B7C",
"w 	c #C9BD93",
"x 	c #C2B591",
"y 	c #B1A673",
"z 	c #9A945C",
"A 	c #918D4C",
"B 	c #9C9B54",
"C 	c #99954A",
"D 	c #ADAB6B",
"E 	c #9E9968",
"F 	c #959359",
"G 	c #9D9B5B",
"H 	c #938B5B",
"I 	c #CEC5A0",
"J 	c #D3CB9C",
"K 	c #CDC995",
"L 	c #A0955C",
"M 	c #B9B574",
"N 	c #AAAC5B",
"O 	c #ADB25C",
"P 	c #9DA14B",
"Q 	c #A5A95B",
"R 	c #B6B17B",
"S 	c #BEB48A",
"T 	c #DF4A4B",
"U 	c #CEC99B",
"V 	c #D6CB9B",
"W 	c #928D54",
"X 	c #A9A464",
"Y 	c #A29D5D",
"Z 	c #BEBA84",
"` 	c #B1A581",
" .	c #CCC49A",
"..	c #B5BA64",
"+.	c #A5AA54",
"@.	c #ABB14B",
"#.	c #A5A264",
"$.	c #A5A26A",
"%.	c #CBC393",
"&.	c #C81918",
"*.	c #912A2A",
"=.	c #BAB37C",
"-.	c #A09670",
";.	c #BFB591",
">.	c #999454",
",.	c #918E3F",
"'.	c #9A9C4B",
").	c #B1AE64",
"!.	c #C5C28B",
"~.	c #C4C284",
"{.	c #BBC156",
"].	c #9EA252",
"^.	c #979261",
"/.	c #B20100",
"(.	c #FF0200",
"_.	c #9B9B9D",
":.	c #CCC98B",
"<.	c #A6A073",
"[.	c #898B35",
"}.	c #949736",
"|.	c #AAAC54",
"1.	c #B3B363",
"2.	c #AFB172",
"3.	c #BEC369",
"4.	c #ADB254",
"5.	c #9DA343",
"6.	c #A4AB3B",
"7.	c #949C2D",
"8.	c #988D62",
"9.	c #743A3A",
"0.	c #A19565",
"a.	c #94944C",
"b.	c #A8A753",
"c.	c #BCC373",
"d.	c #949B3C",
"e.	c #949B33",
"f.	c #C1BB79",
"g.	c #E50301",
"h.	c #6B6C6E",
"i.	c #767433",
"j.	c #9C9463",
"k.	c #B2B45C",
"l.	c #8D923C",
"m.	c #95994A",
"n.	c #ACAB64",
"o.	c #858342",
"p.	c #898384",
"q.	c #220707",
"r.	c #A8A5AB",
"s.	c #9E9A63",
"t.	c #B6B96B",
"u.	c #868948",
"v.	c #8E9249",
"w.	c #878A40",
"x.	c #7E7D44",
"y.	c #9D1817",
"z.	c #650F0E",
"A.	c #7A7D2C",
"B.	c #88873D",
"C.	c #959352",
"D.	c #7C7C3C",
"E.	c #8C8858",
"F.	c #B3A8AB",
"G.	c #C6C8CB",
"H.	c #9A9C44",
"I.	c #92875C",
"J.	c #D5D29A",
"K.	c #84843B",
"L.	c #7E8138",
"M.	c #7B7C34",
"N.	c #746E39",
"O.	c #837F50",
"P.	c #AC0302",
"Q.	c #8B1514",
"R.	c #A1A543",
"S.	c #A99E79",
"T.	c #D6D1A3",
"U.	c #6C6C26",
"V.	c #663334",
"W.	c #F30200",
"X.	c #838385",
"Y.	c #8B8C44",
"Z.	c #D1CA94",
"`.	c #C9C483",
" +	c #8D8B4A",
".+	c #76782A",
"++	c #854D4E",
"@+	c #C50200",
"#+	c #898543",
"$+	c #651413",
"%+	c #4D2324",
"&+	c #858249",
"*+	c #847D43",
"=+	c #828535",
"-+	c #8E8A8A",
";+	c #990302",
">+	c #523535",
",+	c #8B854C",
"'+	c #91933D",
")+	c #8A8C3C",
"!+	c #8D9244",
"~+	c #D3D6DA",
"{+	c #593636",
"]+	c #9D5152",
"^+	c #988D5D",
"/+	c #899031",
"(+	c #8F9295",
"_+	c #CC0200",
":+	c #4B1C1C",
"<+	c #BCBB74",
"[+	c #BEC479",
"}+	c #DCD3AA",
"|+	c #874648",
"1+	c #A2A44B",
"2+	c #751A1A",
"3+	c #BABC5B",
"4+	c #AAAE43",
"5+	c #B3B653",
"6+	c #BDBA7B",
"7+	c #7D7545",
"8+	c #942322",
"9+	c #BABC65",
"0+	c #B3BA53",
"a+	c #9BA334",
"b+	c #BAAE89",
"c+	c #822A2A",
"d+	c #63100F",
"e+	c #BABB6B",
"f+	c #362C2D",
"g+	c #868B3C",
"h+	c #958587",
"i+	c #7A0E0D",
"j+	c #929444",
"k+	c #C2C474",
"l+	c #A3A453",
"m+	c #857B4A",
"n+	c #7D8034",
"o+	c #DEE0E2",
"p+	c #807F3C",
"q+	c #C7BC98",
"r+	c #957A7B",
"s+	c #9D1515",
"t+	c #940201",
"u+	c #D8D7D7",
"v+	c #D2D2D3",
"w+	c #784A4A",
"x+	c #7E7E81",
"y+	c #745859",
"z+	c #DCDEE1",
"A+	c #544649",
"B+	c #A01B1A",
"C+	c #5C4A4B",
"D+	c #720100",
"E+	c #AAAEB3",
"F+	c #C54142",
"G+	c #614E50",
"H+	c #6A6768",
"I+	c #48393A",
"J+	c #BD0201",
"K+	c #EB0200",
"L+	c #8C8E91",
"M+	c #A30201",
"N+	c #B40D0C",
"O+	c #310505",
"P+	c #584445",
"Q+	c #9CA0A5",
"R+	c #919497",
"S+	c #671818",
"T+	c #D30200",
"U+	c #5C5A5B",
"V+	c #363737",
"W+	c #878A8D",
"X+	c #790807",
"Y+	c #CCD1D8",
"Z+	c #742C2C",
"`+	c #520100",
" @	c #3B3B3C",
".@	c #3F4041",
"+@	c #4F5052",
"@@	c #B90E0D",
"#@	c #E6E7E8",
"$@	c #B5B5B6",
"%@	c #572425",
"&@	c #BCBCBD",
"*@	c #8B0100",
"=@	c #ADAEAE",
"-@	c #7F5757",
";@	c #CECFD2",
">@	c #9A0907",
",@	c #7D0201",
"'@	c #464849",
")@	c #848B34",
"!@	c #C5C27D",
"~@	c #DB0200",
"{@	c #A4A3A4",
"]@	c #4B1616",
"^@	c #E3E4E5",
"/@	c #7B7274",
"(@	c #777878",
"_@	c #7C8125",
":@	c #6E7073",
"<@	c #3E0302",
"[@	c #3B1818",
"}@	c #CCCDCE",
"|@	c #720B0A",
"1@	c #6D6E70",
"2@	c #85878A",
"3@	c #544243",
"4@	c #5D0100",
"5@	c #434243",
"6@	c #840100",
"7@	c #B1AEB3",
"8@	c #856C6D",
"9@	c #2C0000",
"0@	c #B9B66E",
"a@	c #6A5758",
"b@	c #242021",
"c@	c #C2C2C3",
"d@	c #494647",
"e@	c #DBDCDD",
"f@	c #6C0100",
"g@	c #969799",
"h@	c #4E4D4E",
"i@	c #2D292A",
"j@	c #620100",
"k@	c #291717",
"l@	c #A79A9A",
"m@	c #6B0807",
"n@	c #4D0100",
"o@	c #860B0B",
"p@	c #EA0C0A",
"q@	c #1D0404",
"r@	c #2F1300",
"s@	c #878B29",
"t@	c #ACB343",
"u@	c #A2A63B",
"v@	c #ECD3D3",
"w@	c #882F2F",
"x@	c #851C1C",
"y@	c #9CA23C",
"z@	c #656464",
"A@	c #67595B",
"B@	c #393637",
"C@	c #5F6061",
"D@	c #B6B7B8",
"E@	c #8C932B",
"F@	c #B1B845",
"G@	c #C8C77E",
"H@	c #531111",
"I@	c #555455",
"J@	c #0B0909",
"K@	c #B0AE59",
"L@	c #951E1D",
"M@	c #B40807",
"N@	c #ABB33C",
"O@	c #766464",
"P@	c #7B100F",
"Q@	c #1F0807",
"R@	c #906464",
"S@	c #A7AAAF",
"T@	c #C0A6AB",
"U@	c #C2C5C9",
"V@	c #909829",
"W@	c #CAC982",
"X@	c #8E9524",
"Y@	c #AAAF3D",
"Z@	c #A52323",
"`@	c #6A4848",
" #	c #B51110",
".#	c #B65B5C",
"+#	c #876566",
"@#	c #604A4C",
"##	c #977678",
"$#	c #D10807",
"%#	c #925858",
"&#	c #B5B94B",
"*#	c #C5C85A",
"  . + @ # $ % & * = - ; > , ' ) ! ~ { . ] ^ / ^ ^ ( / _ = : < [ } [ | [ 1 2 3 4 4 } [ 5 6 5 [ 7 4 8 9 0 a b c d , , e f b 4 g h ",
"i j k j l 9 m n a 0 - 4 4 o ) p ~ { { .   + q ^ 9 ^ r s } t u 0 [ v [ w [ } } h < r x | | 5 [ } < < r } a y z A B C o D t y w h ",
"E z F G H r I J K - b L c i M N O P ~ O . Q Q q G b R / w = S : = T } g w 4 } > 0 : S U V 6 } < 0 1 g = = } b W X Y i ; } } : 1 ",
"Z $ $ ^ ` &  .w c , Y o z 7 3 f ..+.~ ~ @.O +.Q #.F $.& [ } %.< [ &.*.=.- g g -.` ;.S _ V 6 2 4 < < [ = = = t >.c W 3 i a g [ 1 ",
"R F c %.w ;.S =.e ,.'.+.).7 !.~.@ O ~ ! {.! ! ].C G H ^.< [ [ t t /.(._.4 :.V * <.;.^ K V g V } 1 < } x | V  .< z F $.* - = S u ",
"i l g g & / 0 A [.' }.|.1.D ~.2.O 3.4.5.6.7.5.~ '.Y W 8.r = S r t /.(.9., z J / <.^ s ^ } } V } < } } w V | | } 0.s 0 !.* = * u ",
"R b } w _ [ 0 a.b.b.4.4.{ ] #.!.c.c.3.~ d.e.@.3.N A z * [ S ( : f.(.(.g.h.i.~.2.R s c 0 b t  .[ < < } x | 5 | g E 0 s ^ r * 0 j.",
"=.4 } g = w - f ) k.3.5.].j 2.#.+ . O +.d.l.{ m.n.o.W * S : : S p.(.(.(.q.r.j G B s.c i > t t ( } < [ x w 6 w t 1 m s r * R s.% ",
"< f.( [ S = = R 3 n.t.@ q D   u.v.+ ].+ v.w.    x.$ 0 r r [ x r y.(.(.(.(.z.A.l.B.v.F z j.( 0.} [ < } x w V [ 0 0 m 0 Z / 7 s.x.",
"x x [ ( ( * * ^.r !.2.. q C.o.v.w.u.  +   D.E._ R R ^ ^ r : [ F.(.(.(.(.(.(.G.~ H.v.v.s.^ I.<.r } f.} g %.2 [ 8 j./ * - a b C.D.",
"} x [ ( * 7 =.c 0 Z J.$.k q u.K.L.M.N.D.x.O.E.^ ^ ^ / ^ r = & P.(.(.(.(.(.(.Q.R.l.].C.H r S _ * S.} : [ K w =.h u 0 ^ 7 - - G u.",
"} g g t b b #.G Z T.J.K j B B.U.w.+ $.$.E.O.E.^ ^ ^ r * / S V.(.(.(.(.(.(.(.W.X.{ Y.D.$.g n w _ < < } f.Z.- R 0 u 7 - } `.a D  +",
"} g g ; X n.B Y ^ s = ~.G C o .+U.#.i D $.l s s E / ^ 9 ^ ++(.(.(.(.(.(.(.(.(.@+d D L * K w n  .x < < 4 r - t y y t 4 > l a G Y ",
"} } V g R + G D R $.- $.B >.M #+i.>.X i G F #.=.0 s = _ $+(.(.(.(.(.(.(.(.(.(.(.%+r r = g & K U V : 0 * 3 - 4 3 0 =.t > =.A f A ",
"& 2 6 5 R   . ] !.Z K &+=.b z } *+A B C =+a.B X j K -+;+(.(.(.(.(.(.(.(.(.(.(.(.(.>+} t R %./  .5 U < 0 > 7 =.b y t } =.*+N.,+C.",
"/ 2 [ 6 K D 0 R !.J 2 u R 8 : u #.C.B '.'+H.)+!+~+{+(.(.(.(.(.(.(.(.(.(.(.(.(.(.(.(.]+} - =.K K _ J.r s.Y ^+=.8 =.r =.} > z W Y ",
"Z R $.K J.$.E !._ & 5 5 _  .I r !.i.m.l.{ /+A.(+_+(.(.(.(.(.(.(.(.(.(.(.(.(.(.(.(.(.(.:+Y ]  +<+a.K.#+Y Y =.- } g * S * R 7 3 X ",
"+ ] 2.[+#   $.Z _ _  .}+ .;.S = - + )+O d./+|+(.(.(.(.(.(.(.(.(.(.(.(.(.(.(.(.(.(.(.(.(.>+, o f.1+p |.'., j M j.* 0 u 1 t t < z ",
"M.L.v.u.u.L.+ !.~.s ^+1 I r U Z !.D G w.{ 2+(.(.(.(.(.(.(.(.(.(.(.(.(.(.(.(.(.(.(.(.(.(.(.F.n.t.3+4+! 5+O 1.n.6+!.H 7+I.` ( m 1 ",
"!+P ].P v.. <+# i z E.^./ / S Z !.Z + v.8+(.(.(.(.(.(.(.(.(.(.(.(.(.(.(.(.(.(.(.(.(.(.(.(.@+~+9+0+a+@.' |.N <+f.~.- 1 w S -.b+S.",
"L.v.].].+ m.@ v.6+X 0 = 2 g w [ S  .R c+(.(.(.(.(.(.(.(.(.(.(.(.(.(.(.(.(.(.(.(.(.(.(.(.(.(.d+e+p ! @.4.+.e+t.f ~.a t } h < r I.",
"+.!+O l.{ @ !+#.6+ +s R w w [ w _ U f+(.(.(.(.(.(.(.(.(.(.(.(.(.(.(.(.(.(.(.(.(.(.(.(.(.(.(.(._.k.].+.'.].m.n.f i G y R 7 _ > H ",
"[+c.v.!+w.g+!+G D s.u [ : } x | ;.h+W.(.(.(.(.(.(.(.(.(.(.(.(.(.(.(.(.(.(.(.(.(.(.(.(.(.(.(.(.i+j+k+..l+. o d C.i Y *+3 } } ^+m+",
"# [+Q ].] n+L.L.W F 0 ( [ [ x x o+@+(.(.(.(.(.(.(.(.(.(.(.(.(.(.(.(.(.(.(.(.(.(.(.(.(.(.(.(.(.(.X.n.Y.a.] B B X p+4 > 4 t b+8.m+",
"+ + . v.v.v.Q L.] R Z = m ( q+[ r+(.(.(.(.(.(.(.(.(.(.(.(.(.(.(.(.(.(.(.(.(.(.(.(.(.(.(.(.(.(.(.s+>.Y Y ~.<+>.c X t > 8 ; > 8.O.",
"  . Q P ].P l.m.#.[+~.9 y b+b+w t+(.(.(.(.(.(.(.(.(.(.(.(.(.(.(.(.(.(.(.(.(.(.(.(.(.(.(.(.(.(.(.(.u+> - W 4 3 c y f.y y < 8 0.0.",
"  ].v.{ O ..O P n.d i i = = [ v+(.(.(.(.(.(.(.(.(.(.(.(.(.(.(.(.(.(.(.(.(.(.(.(.(.(.(.(.(.(.(.(.(.c+ .%.y =.b b 4 t 7 =.y h 8 0.",
"u.L.!+!++.3.3.P.w+x+X i ,+z r y+(.(.(.(.(.(.(.(.(.(.(.(.(.(.(.(.(.(.(.(.(.(.(.(.(.(.(.(.(.(.(.(.(.W.g } = - z+A+B+C+b t 4 > 8 > ",
"j . K.M.n+{ +./.(.(.D+E+#.0 S F+(.(.(.(.(.(.(.(.(.(.(.(.(.(.(.(.(.(.(.(.(.(.(.(.(.(.(.(.(.(.(.(.(.(.G+g =.9.g.(.(.H+$.l 4 z b i ",
"Z Z K.M.A.[.+.I+>+J+(.K+L+r r M+(.(.(.(.(.(.(.(.(.(.(.(.(.(.(.(.(.(.(.(.(.(.(.(.(.(.(.(.(.(.(.(.(.(.N+} Q.(.(.O+P+z+F + M #.#.#.",
"^+E #.o.M.K.n+Q+R+(+S+(.g.r.[ M+(.(.(.(.(.(.(.g.(.(.(.(.(.(.(.(.(.(.(.(.(.(.(.(.(.(.(.(.(.(.(.(.(.(.W.8+(.T+U+R+V+B v.m.O +.{ 5.",
"9 H * $.X v.. w.W+R+R+X+(.@+Y+/.(.(.(.(.(.(.(.(.:+Z+_+(.(.(.(.(.(.(.(.(.(.(.(.(.(.(.(.(.(.(.(.(.(.(.`+(.(. @R+R+W+m.P l.d.].e.! ",
"^+( R r s l o.C..@R+R++@(.(.@@(.(.(.(.(.(.(.(.J+u+#@o+$@V./.(.(.(.(.t+%@D+W.(.(.(.(.(.(.(.(.(.(.(.J+(.(.t+R+R+R+&@{ v...N 3.|.@.",
"0 * ^ g 0 * s m+G.L+R+R+*@(.(.`+D+(.(.(.(.(.(.h+#@#@#@#@#@#@=@-@t+(.(.T+=@;@H+>@(.(.(.(.(.(.(.(.,@T+(.(.A+R+R+'@)@].v.].a.!@) ) ",
"z z c : S ( r ^ u x+R+R++@(.(.(.~@(.(.(.(.(.~@#@#@#@#@#@#@#@#@#@z+{@]@g.N+^@^@^@/@~@(.(.(.(.(.(.,@(.(.,@(+R+R+(@_@Q <+R * } >.L ",
"<.y ^+R S * = s Z :@R+R+R+<@(.~@(.(.(.(.(.(.[@#@#@#@#@#@#@#@#@#@#@#@#@#@{@u+#@#@#@}@|@(.(.(.(.(.J+(.g.1@R+R+2@!+g+v.2./ _ & y 4 ",
": t } g } b >.f k 1.:@R+R+3@J+4@(.(.~@(.(.(.-+#@#@#@#@#@#@#@#@#@#@#@#@#@#@#@#@#@#@#@o+_+(.(.(.(.M+(.X+R+R+R+5@j+!+. D / & q+m ` ",
": [ h ,+>.B , l+e++.X.R+(+p.(.,@(.(.6@(.(.(.7@^@#@#@#@#@#@#@#@#@#@#@#@#@#@#@#@#@#@#@#@8@(.(.(.(.K+(.>@R+R+h.a.l+a.v.$ E S x ` ;.",
"w f.Z.f.Y d ].'.|.3.{  @R+2@(.6@(.(.9@(.(.(.^@#@#@#@#@#@#@#@#@#@#@#@#@#@#@#@#@#@#@#@#@(@(.(.,@(.(.(.*@R+2@L+0@a.B #.l r & m ` b+",
"g g - - ; k+o +.3.k.O v+h.a@(.;+(.(.t+(.(.(.-+#@#@5@b@&@c@u+#@#@#@#@#@#@#@c@U+d@1@$@#@e@(.(.f@(.(.(.(.g@ @6+j C.a.B G Z s ( ;.;.",
"} 8 - f.f.).1.l+@ P O ~ g@t+(.(.(.(.`+@+(.(.-+^@#@g@b@U+f+h@#@#@#@#@#@#@#@i@c@h. @^@#@e@(.(.j@(.(.(.(.k@l W  +#. +B >.G s _ | ( ",
"f.L k L ) ) }.) l.P g+Q !+l@g.@+(.(.g.4@(.(.]@#@#@#@#@#@#@#@#@#@#@#@#@#@#@#@#@#@#@#@#@X.(.P.(.T+(.(.m@- g #.f ] <+d K.B u.l  .-.",
"L ) o 3+4.@.R.' 5.P N =+#.q (@9@(.(.g.n@o@(.p@#@^@#@#@#@#@#@#@#@#@#@#@#@#@#@#@#@#@#@#@8@(.q@(.M+K+r@* r b 7 R !.:.o w.j+. <+i $.",
",.s@' 5+t@u@t@u@4.O 1.n.i D 6+/.(.(.K+W.&@X+(.9.h.#@#@#@#@#@#@#@#@#@#@v@c@c@#@#@#@#@#@w@3@|@(.M+M+x@= =.S R R 0 D v.j+l+t.<+j ] ",
"e.s@u@u@t@6.y@0+4.N d 3 f 3 >.M+(.(.g.(.U+#@&@&@#@#@#@#@#@z@A@B@ @C@C@h.h.(@#@#@#@#@#@x+D@W.(.6@g.G.7 r 9 $./ _ Z . ].P +.4.Q t.",
"E@E@a+4+F@a+u@p ) t.G@; c >.C.z@(.(.K+(.~@}@#@#@#@#@#@#@#@e@d@h.1@1@:@h.5@^@#@#@#@#@#@#@H@(.(.4@*.Y Y #.0 ^ U !.K # ].+.5.g+@ q ",
")+'+}.p ! y@0+p 1+9+, 3 X =.t 3 t+(.g.(.(.P.}@#@#@#@#@#@#@#@#@R+Q+I@_.{@^@#@#@#@#@#@#@V+(.(.(.J@) C l+d ] ~.^  .^ $.c.c.{ v.q q ",
"Y.m.'.H.5.! ' ! k., f - y =.7 7 v@T+<@(.(.(.g.z@#@#@#@#@#@#@#@#@#@#@#@#@#@#@#@#@#@#@{+o@(.(.d+u@u@K@) ) 2.s ^ ^ _ [+:.+ v.u.+ ^ ",
"c C.p+e v.].N '.+ #.z > 7 : < } < 7@J@$+(.(.(.>@L@C@^@#@#@#@#@#@#@#@#@#@#@^@#@#@r.,@(.j@(.M@N@N@1+, f :.r * h 1 r i 0@0@m.D.&+s ",
"G Y >.d P + @ @ k 6+=.r t 0.} < r R 3 D O@P.(.(.*@(.t+++X.o+#@#@#@#@#@^@#@^@p.P@W.W.++/@8+N@F@N@' ,.).:.K ^ s 0 ~.6+D X o.&+% l ",
"r = r = !.J.!.$.=.!.c c 3 3 3 f.* > >.c f $@K+t+H@g.(.(.W.K+>@q.q.Q@q.q.>@g.(.g.2+y@6.}@a+a+a+6.u@5+K@) :.Z.y t !.- a 7 0 c E $.",
"b+U %.= Z K / 2.Z = - b ^+} 3 4 * R 4 f.X c R@(.C+^@S@Z+n@T+_+(.(.(.g.T+*@D+T@U@N H.V@7.a+7.V@{.F@u@5+b., W@g u ^ r = =.* <.9 9 ",
";./ / U T.T./ <.9 -.2 t f.w f.3 4 : 7 f.M =.r {@w+:@- r 6+}@(.@+T+_+(.(.W.W.h+n.0@P E@X@7.7.a+{.Y@u@5+p C o 8 4 S.S.x x w y 8.I.",
"S = / _ U U U U I  .& < | | < f.4 } 4 =.; r / & ;./ 2 _ R Z@(.(.W.8@r+s+K+_+K+$ 0@{ a+7.V@a+6.6.Y@u@4+H.C C b g < S.x [ q+1 8.I.",
"0 r a a K J.U J T._ [ | w [ f.S.: } 4 t 4 b+S x | x & - _.(.(.(.`@#@#@u+g._+(. #6+'.5.e.V@a+t@@.3+k.f.|.) ) 8 7 [ ` b+q+x : 0.I.",
"* R / !.!.:.Z K s s < 8 [ S.} ` [ [ * t t b+[  .I  .S R .#(.(.J+}@#@#@#@Q. #(.+#r B l+y@y@7.y@4., ).K@k.o f M - w [ b+S.[ } 8 L ",
"` / !.Z #   v.+ $.2.i E.7 * = * x [ S.< } [ | | 5  .t f.- @@y+@#}@#@#@#@i@#@v@5 K #.B =+=+5.l.].n.] Q Q l+].m.+ =.%.= s * * u > ",
"^ F F 2.. w.  . + <+i l u Z * S [ x < ` ` [ = 2 %.g t 4 f.; 0.m+Z@R+R+##K+v+ . .J a D c.P @ Q #.+ k Q P H.{ P g+d i ^ K * 0 b 0 ",
"2.2.t.P L.n+{ { m.1.#.X 0.( b+< | x S.( < } w w J.R 0@o >.A ,+z+(.(.~+~@(.;@_ _ _ a j <+Q +.<+<+W@[+@ 5.d.5.y@d.+.0@i 6+- 0 * <.",
"  v.L.l.L.d.{ { m.. C.&+0 [ ` [ x ` } > > w V g !.d Y 1.).p+*+z+(.(.x+$#(.r+a a - `.6+f j+j+'.l+0@@ N H.d.y@/+/+!+@ q Z - ^ * <.",
"O ..P { l.d.{ O [+f z 8 y < ;.x [ b+: < R #.i W@k B 1+C ,.e f - (.(.%#(.(.%@, f.G@f.f.B.}.[.H., 1.1.l+1+P l.l.l.v.v.#.6+r ^ * <.",
"P + P l.+.{ { + k C.>.j.8.< b+[ [ } g f.z C.6+d 1.1.|.+.b.e z } W.(.2+(.W.x@' ) , ).o , H.H.,.)+, f n.C g+g+w.w.+ F D $.r ^ ( 1 ",
"3.. w.].v.].@ [+D D $ *+8 8 3 } } y - X d ).B <+..k.5+P '+e >.4 : 4 ) &#3+4+e.3+|.K@k )., { ,.,.p+> =.W  +D s.u.F R 0 E m S ( ` ",
"+ q Q v.+ . + ] ~.F W 0.L L 3 4 t t ; W@d d k ..1.+.R.'+,.C *+b 3 ; 3+u@&#*#*#u@}.,.k f.C H.,.>.A > 3 t ^ ^ ^ ^ R R 9 E.1 m ;.-."};
