/* XPM */
static char *result[] = {
/* columns rows colors chars-per-pixel */
"64 64 172 2 ",
"   c #010101",
".  c #0A0506",
"X  c #0C0809",
"o  c #190004",
"O  c #2C0006",
"+  c #310006",
"@  c #2E1F22",
"#  c #322123",
"$  c #343131",
"%  c #410009",
"&  c #4E060F",
"*  c #5D0510",
"=  c #62000D",
"-  c #68010D",
";  c #6F0210",
":  c #6A0915",
">  c #7F0616",
",  c #7E0E1C",
"<  c #750B18",
"1  c #75101D",
"2  c #6E1823",
"3  c #671B24",
"4  c #701621",
"5  c #7B1926",
"6  c #7B1421",
"7  c #472F32",
"8  c #6B212A",
"9  c #6A2B33",
"0  c #722732",
"q  c #65353B",
"w  c #6B323A",
"e  c #5C3B41",
"r  c #633D42",
"t  c #6C3B42",
"y  c #59484C",
"u  c #545255",
"i  c #5D5C5E",
"p  c #595358",
"a  c #7F595E",
"s  c #74565B",
"d  c #625F60",
"f  c #735F63",
"g  c #66646E",
"h  c #69676A",
"j  c #6C6C6D",
"k  c #79686A",
"l  c #7C6E71",
"z  c #766B70",
"x  c #6E7072",
"c  c #737172",
"v  c #797778",
"b  c #787578",
"n  c #840414",
"m  c #8D0113",
"M  c #8E0719",
"N  c #8E0B1B",
"B  c #940214",
"V  c #9A0115",
"C  c #94091B",
"Z  c #9B0719",
"A  c #A30115",
"S  c #AB0116",
"D  c #AA061B",
"F  c #A9081C",
"G  c #A60B1F",
"H  c #B50219",
"J  c #BD021A",
"K  c #B40A1F",
"L  c #861121",
"P  c #8A1221",
"I  c #901021",
"U  c #981E2E",
"Y  c #A80D20",
"T  c #B30D21",
"R  c #BA0B21",
"E  c #A71B2D",
"W  c #B11125",
"Q  c #BA1025",
"!  c #A41F31",
"~  c #822936",
"^  c #9E2434",
"/  c #9B2837",
"(  c #922A38",
")  c #98323F",
"_  c #A12D3D",
"`  c #C4031B",
"'  c #CE021B",
"]  c #D3031C",
"[  c #DC031D",
"{  c #E3021E",
"}  c #EC021F",
"|  c #F1021F",
" . c #CB0720",
".. c #C70A22",
"X. c #DF0722",
"o. c #D00821",
"O. c #E40521",
"+. c #EE0320",
"@. c #F40220",
"#. c #FF0221",
"$. c #8C3A45",
"%. c #8D3C48",
"&. c #933440",
"*. c #933D48",
"=. c #8F434F",
"-. c #94444E",
";. c #8B4852",
":. c #944F59",
">. c #86535B",
",. c #935E66",
"<. c #8B656B",
"1. c #856D73",
"2. c #906971",
"3. c #84797B",
"4. c #9A777B",
"5. c #7E7F81",
"6. c #7D798A",
"7. c #807F80",
"8. c #927C82",
"9. c #838485",
"0. c #8B8486",
"q. c #8D8688",
"w. c #8D8B8C",
"e. c #86888B",
"r. c #9E8086",
"t. c #9B888F",
"y. c #938A8B",
"u. c #8C8E91",
"i. c #8E899D",
"p. c #8B869A",
"a. c #908F90",
"s. c #9C8E93",
"d. c #8E9194",
"f. c #939294",
"g. c #929598",
"h. c #999798",
"j. c #98999C",
"k. c #989394",
"l. c #A68B91",
"z. c #A29C9F",
"x. c #A99CA2",
"c. c #A2A4A7",
"v. c #ABAAAC",
"b. c #B4A6AA",
"n. c #AFAFB0",
"m. c #B1ADB2",
"M. c #B9AFB2",
"N. c #B3B3B4",
"B. c #B7B5BC",
"V. c #B7B8B9",
"C. c #BDBCBD",
"Z. c #C3BEBE",
"A. c #BEBFC0",
"S. c #C3C4C5",
"D. c #C4C6CB",
"F. c #C8C7CE",
"G. c #C6C8CD",
"H. c #CCCCCD",
"J. c #C9C0C1",
"K. c #CACED4",
"L. c #D5CED1",
"P. c #D4D4D4",
"I. c #D2D5DA",
"U. c #DBDCDD",
"Y. c #D8D4D8",
"T. c #DEDFE0",
"R. c #DFE0E1",
"E. c #E3E4E5",
"W. c #E6E7E8",
"Q. c #EBF1F8",
"!. c #FEFEFF",
"~. c None",
/* pixels */
"~.~.~.~.~.~.~.~.~.~.~.~.~.~.~.~.~.~.~.~.~.~.~.~.~.~.~.~.~.~.~.~.~.~.~.~.~.~.~.~.~.~.~.~.~.~.~.~.~.~.~.~.~.~.~.~.~.~.~.~.~.~.~.~.",
"~.~.~.~.~.~.~.~.~.~.~.~.~.~.~.~.~.~.~.~.~.~.~.~.~.~.~.~.~.~.~.~.~.~.~.~.~.~.~.~.~.~.~.~.~.~.~.~.~.~.~.~.~.~.~.~.~.~.~.~.~.~.~.~.",
"~.~.~.~.~.~.~.~.~.~.~.~.~.~.~.~.~.~.~.~.~.~.~.~.~.~.~.~.~.~.~.~.~.~.~.~.~.~.~.~.~.~.~.~.~.~.~.~.~.~.~.~.~.~.~.~.~.~.~.~.~.~.~.~.",
"~.~.~.~.~.~.~.~.~.~.~.~.~.~.~.~.~.~.~.~.~.~.~.~.~.~.~.s.U.~.~.~.~.~.~.~.~.~.~.~.~.~.~.~.~.~.~.~.~.~.~.~.~.~.~.~.~.~.~.~.~.~.~.~.",
"~.~.~.~.~.~.~.~.~.~.~.~.~.~.~.~.~.~.~.~.~.~.~.~.~.~.~.) U ~.~.~.~.~.~.~.~.~.~.~.~.~.~.~.~.~.~.~.~.~.~.~.~.~.~.~.~.~.~.~.~.~.~.~.",
"~.~.~.~.~.~.~.~.~.~.~.~.~.~.~.~.~.~.~.~.~.~.~.~.~.~.~.W #.B.~.~.~.~.~.~.~.~.~.~.~.~.~.~.~.~.~.~.~.~.~.~.~.~.~.~.~.~.~.~.~.~.~.~.",
"~.~.~.~.~.~.~.~.~.~.~.~.~.~.~.~.~.~.~.~.~.~.~.~.I.~.~.X.#.Y ~.~.~.~.~.~.~.~.~.~.~.~.~.~.~.~.~.~.~.~.~.~.~.~.~.~.~.~.~.~.~.~.~.~.",
"~.~.~.~.~.~.~.~.~.~.~.~.~.~.~.~.~.~.~.~.~.~.~.~.~.~ ~.@.#.#.s.~.~.~.~.~.~.~.~.~.~.~.~.~.~.~.~.~.~.~.~.~.~.~.~.~.~.~.~.~.~.~.~.~.",
"~.~.~.~.~.~.~.~.~.~.~.~.~.~.~.~.~.~.~.~.~.~.~.~.~.*.%.@.#.#.{ ~.~.~.~.~.~.~.~.~.~.~.~.~.~.~.~.~.~.~.~.~.~.~.~.~.~.~.~.~.~.~.~.~.",
"~.~.~.~.~.~.~.~.~.~.~.~.~.~.~.~.~.~.~.~.~.~.~.~.~.F.#.#.#.#.#.*.~.~.~.~.~.~.~.~.~.~.~.~.~.~.~.~.~.~.~.~.~.~.~.~.~.~.~.~.~.~.~.~.",
"~.~.~.~.~.~.~.~.~.~.~.~.~.~.~.~.~.~.~.~.~.~.~.~.~.~.@.#.#.#.#.@.J.~.~.~.~.~.~.~.~.~.~.~.~.~.~.~.~.~.~.~.~.~.~.~.~.~.~.~.~.~.~.~.",
"~.~.~.~.~.~.~.~.~.~.~.~.~.~.~.~.~.~.~.~.~.~.~.~.~.~.{ #.#.#.#.#. .~.~.~.~.~.~.~.~.~.~.~.~.~.~.~.~.~.~.~.~.~.~.~.~.~.~.~.~.~.~.~.",
"~.~.~.~.~.~.~.~.~.~.~.~.~.~.~.~.~.~.~.~.~.~.~.~.~.~.} #.#.#.#.#.#.*.~.~.~.~.~.~.~.~.~.~.~.~.~.~.~.~.~.~.~.~.~.~.~.~.~.~.~.~.~.~.",
"~.~.~.~.~.~.~.~.~.~.~.~.~.~.~.~.~.~.~.~.~.~.~.~.~.I.#.#.#.#.#.#.#.#.x.~.~.~.~.~.~.~.~.~.~.~.~.~.~.~.~.~.~.~.~.~.~.~.~.~.~.~.~.~.",
"~.~.~.~.~.~.~.~.~.~.~.~.~.~.~.~.~.~.~.~.~.~.~.~.~.,.#.#.#.#.#.#.#.#.+.K.~.~.~.~.~.~.~.~.~.~.~.~.~.~.~.~.~.~.~.~.~.~.~.~.~.~.~.~.",
"~.~.~.~.~.~.~.~.~.~.~.~.~.~.~.~.~.~.~.~.~.~.~.~.~.{ #.#.#.#.#.#.#.#.#.o.~.~.~.~.~.~.~.~.~.~.~.~.~.~.~.~.~.~.~.~.~.~.~.~.~.~.~.~.",
"~.~.~.~.~.~.~.~.~.~.~.~.~.~.~.~.~.~.~.~.~.~.~.~.( #.#.#.#.#.#.#.#.#.#.#...~.~.~.~.~.~.~.~.~.~.~.~.~.~.~.~.~.~.~.~.~.~.~.~.~.~.~.",
"~.~.~.~.~.~.~.~.~.~.~.~.~.~.~.~.~.~.~.~.~.~.~.2.#.#.#.#.#.#.#.#.#.#.#.#.#.] F.~.~.~.~.~.~.~.~.~.~.~.~.~.~.~.~.~.~.~.~.~.~.~.~.~.",
"~.~.~.~.~.~.~.~.~.~.~.~.~.~.~.~.~.~.~.~.~.~.M.@.#.#.#.#.#.#.#.#.#.#.#.#.#.#.+.l.~.~.~.~.~.~.~.~.r.~.~.~.~.~.~.~.~.~.~.~.~.~.~.~.",
"~.~.~.~.~.~.~.~.~.~.~.~.~.~.~.~.~.~.~.~.~.P.@.#.#.#.#.#.#.#.#.#.#.#.#.#.#.#.#.#.&.~.~.~.~.~.~.~.{ Y.~.~.~.~.~.~.~.~.~.~.~.~.~.~.",
"~.~.~.~.~.~.~.~.~.~.~.~.~.~.~.~.~.~.~.~.~.] #.#.#.#.#.#.#.#.#.#.#.#.#.#.#.#.#.#.#.K ~.~.~.~.~.$.#.m.~.~.~.~.~.~.~.~.~.~.~.~.~.~.",
"~.~.~.~.~.~.~.~.~.~.~.~.~.~.~.~.~.~.~.~.R #.#.#.#.#.#.#.#.#.#.#.#.#.#.#.#.#.#.#.#.#.[ Y.~.~.L.@.#.M.~.~.~.~.~.~.~.~.~.~.~.~.~.~.",
"~.~.~.~.~.~.~.~.~.~.~.1.Z.~.~.~.~.~.~.^ #.#.#.#.#.#.#.#.#.#.#.#.#.#.#.#.#.#.#.#.#.#.#.[ F.~.T #.#.P.~.~.~.~.~.~.~.~.~.~.~.~.~.~.",
"~.~.~.~.~.~.~.~.~.~.~.4.#.O.-.~.~.~.;.#.#.#.#.#.#.#.#.#.#.#.#.#.#.#.#.#.#.#.#.#.#.#.#.#.[ w #.B ] ~.~.~.~.~.~.~.~.~.~.~.~.~.~.~.",
"~.~.~.~.~.~.~.~.~.~.~.D.F @.#.@.8.s.#.#.#.#.#.#.#.#.#.#.#.#.#.#.#.#.#.#.#.#.#.#.#.#.#.#.#.S #.e i ~.~.~.~.~.~.~.~.~.~.~.~.~.~.~.",
"~.~.~.~.~.~.~.~.~.~.~.~.9.w.5 #.#.m #.#.#.#.#.#.#.#.#.#.#.#.#.#.#.#.#.#.#.#.#.#.#.#.#.#.#.#.A c 5.~.~.~.~.~.~.~.~.~.~.~.~.~.~.~.",
"~.~.~.~.~.~.~.~.~.~.~.~.u g.g.0 #.| J #.#.#.#.#.#.#.#.#.#.#.#.#.#.#.#.#.#.#.#.#.#.#.#.#.#.#.' b ~.~.~.~.~.~.~.~.~.~.~.~.~.~.~.~.",
"~.~.~.~.~.~.~.~.~.~.~.~.9.g.g.g.} #.} [ #.#.#.#.#.#.#.#.#.#.#.#.#.#.#.#.#.#.#.#.#.#.#.#.#.#.#.z ~.~.~.~.~.~.~.~.~.~.~.~.~.~.~.~.",
"~.~.~.~.~.~.~.~.~.~.~.~.~.u.g.g.0 #.#.` @.#.#.#.#.#.#.#.#.#.#.#.#.#.#.#.#.#.#.#.#.#.#.#.#.#.#.E ~.~.~.~.~.~.~.~.~.~.~.~.~.~.~.~.",
"~.~.~.~.~.~.~.~.~.~.~.~.~.i g.g.e.@.#.#.B ` #.#.#.#.#.#.#.#.#.#.#.#.#.#.#.#.#.#.#.#.#.#.#.#.#.@.~.~.~.~.~.~.~.~.~.~.~.~.~.~.~.~.",
"~.~.~.~.~.~.~.~.~.~.~.~.~.j.g.g.g.w #.#.#.[ #.#.#.#.#.#.#.#.#.#.J & [ #.#.#.{ 6 3.f #.#.#.#.#.#.v.~.~.~.~.~.~.~.~.~.~.~.~.~.~.~.",
"~.~.~.~.~.~.~.~.~.~.~.~.~.~.x g.g.d.m #.J #.#.#.#.#.#.#.#.} 9 N.q #.#.[ 5 w.R.W.W.W., #.#.#.#.#.%.~.~.~.~.~.~.~.~.~.~.~.~.~.~.~.",
"~.~.~.~.~.~.~.~.~.~.~.~.~.~.# g.g.g.` @.n #.#.#.#.#.| | M S.E.k +.2 k.T.W.W.W.W.W.W.q.#.#.A #.#.Q ~.~.~.~.~.~.~.~.~.~.~.~.~.~.~.",
"~.~.~.~.~.~.~.~.~.~.~.~.~.~.P y g.g.Y #.A #.#.#.#.#.#.3 W.W.W.7 H.W.W.W.W.W.W.W.W.W.P.#.#.B #.#.X.~.~.~.~.~.~.~.~.~.~.~.~.~.~.~.",
"~.~.~.~.~.~.~.~.~.~.~.~.~.~.I { 9.g.` #.' #.#.#.#.#.F E.W.W.W.W.W.W.W.W.W.W.W.W.W.W.W.] #.B #.#.+.~.~.~.~.~.~.~.~.~.~.~.~.~.~.~.",
"~.~.~.~.~.~.~.~.~.~.~.~.~.~.P #.* 5.| #.{ #.#.#.S #.k.W.W.W.W.W.W.W.W.W.W.W.W.W.W.W.W.` #.= #.#.| ~.~.~.~.~.~.~.~.~.~.~.~.~.~.~.",
"~.~.~.~.~.~.~.~.~.~.~.~.~.~.5 #.B A @.#.| #.#.#.M { E.W.U.v h.N.W.W.W.W.W.W.W.v d i H.H #.V #.#.{ ~.~.~.~.~.~.~.~.~.~.~.~.~.~.~.",
"~.~.~.~.~.~.~.~.~.~.~.~.~.~.r #.J #.H ] } #.#.n l ' W.W.W.z v.a.E.W.W.W.W.W.W.N.U.N.W.` ` @.@.#.[ ~.~.~.~.~.~.~.~.~.~.~.~.~.~.~.",
"~.~.~.~.~.~.~.~.~.~.~.~.~.~.z.#.} #.#.| [ | #.j.R.B W.W.W.W.W.W.W.W.W.W.W.W.W.W.W.W.w.C ` | { #.E ~.~.~.~.~.~.~.~.~.~.~.~.~.~.~.",
"~.~.~.~.~.~.~.~.~.~.~.~.~.~.~.| #.H #.#.A #.+.R.W.9.E.W.W.W.W.W.W.W.W.W.W.W.W.W.W.W.W.W.3 #.' #.,.~.~.~.~.~.~.~.~.~.~.~.~.~.~.~.",
"~.~.~.~.~.~.~.~.~.~.~.~.~.~.~.C #.A | #.H #.Z E.W.W.W.W.W.W.W.W.W.W.W.W.W.W.W.W.W.W.W.W.q.#.` #.I.~.~.~.~.~.~.~.~.~.~.~.~.~.~.~.",
"~.~.~.~.~.~.~.~.~.~.~.~.~.~.~.b #.#.' | | { V 9 W.W.W.W.W.W.W.W.T.G.S.V.v.v.v.c.T.W.W.W.y.#.] W ~.~.~.~.~.~.~.~.~.~.~.~.~.~.~.~.",
"~.~.~.~.~.~.~.~.~.~.~.~.~.~.~.~.` #.] | #.B ' #.a W.W.W.W.W.W.W.p p.i.i.i.i.i.6.E.W.W.W.t @.} m.~.~.~.~.~.~.~.~.~.~.~.~.~.~.~.~.",
"~.~.~.~.~.~.~.~.~.~.~.~.~.~.~.~.l #.| 9.} H A D | r W.W.W.W.W.W.E.g p.i.i.i.g S.W.W.W.H.` < ~ ~.~.~.~.~.~.~.~.~.~.~.~.~.~.~.~.~.",
"~.~.~.~.~.~.~.~.~.~.~.~.~.~.~.~.~.1 4 ~.D.: v.K.! #., D.W.W.W.E.E.W.Y.N.A.T.W.W.W.W.L.Z { N.~.~.~.~.~.~.~.~.~.~.~.~.~.~.~.~.~.~.",
"~.~.~.~.~.~.~.~.~.~.~.~.~.~.~.~.~.~.N.~.~.~.~.~.~.<.+.+.q P.W.E.W.W.W.W.W.W.W.W.E.3.' l y ~.~.~.~.~.~.~.~.~.~.~.~.~.~.~.~.~.~.~.",
"~.~.~.~.~.~.~.~.~.~.~.~.~.~.~.~.~.~.~.~.~.~.~.~.~.~.~.=.{ } 1 k n.H.U.R.P.C.f.w ` K L.c.~.~.~.~.~.~.~.~.~.~.~.~.~.~.~.~.~.~.~.~.",
"~.~.~.~.~.~.~.~.~.~.~.~.~.~.~.~.~.~.~.~.~.~.~.~.~.~.~.~.~.z.< ] } @.@.@.| @.{ / c.~.~.~.~.~.~.~.~.~.~.~.~.~.~.~.~.~.~.~.~.~.~.~.",
"~.~.~.~.~.~.~.~.~.~.~.~.~.~.~.~.~.~.~.~.~.~.~.~.~.~.~.~.~.~.X [ | {   O v.~.~.~.~.~.~.~.~.~.~.~.~.~.~.~.~.~.~.~.~.~.~.~.~.~.~.~.",
"~.~.~.~.~.~.~.~.~.~.~.~.~.~.~.~.~.~.~.~.~.~.~.~.~.~.~.~.~.K.{ #.#.O . >.) ~.~.~.~.~.~.~.~.~.~.~.~.~.~.~.~.~.~.~.~.~.~.~.~.~.~.~.",
"~.~.~.~.~.~.~.~.~.~.~.~.~.~.~.~.~.~.~.~.~.~.~.~.~.~.~.~.~.R #.| O   m.<.+.~.~.~.~.~.~.~.~.~.~.~.~.~.~.~.~.~.~.~.~.~.~.~.~.~.~.~.",
"~.~.~.~.~.~.~.~.~.~.~.~.~.~.~.~.~.~.~.~.~.~.~.~.~.~.~.~.~.@.#.%     j _ | b.~.~.~.~.~.~.~.~.~.~.~.~.~.~.~.~.~.~.~.~.~.~.~.~.~.~.",
"~.~.~.~.~.~.~.~.~.~.~.~.~.~.~.~.~.~.~.~.~.~.~.~.~.~.~.~.~.B.>.    - { n <.~.~.~.~.~.~.~.~.~.~.~.~.~.~.~.~.~.~.~.~.~.~.~.~.~.~.~.",
"~.~.~.~.~.~.~.~.~.~.~.~.~.~.~.~.~.~.~.~.~.~.~.~.~.~.~.~.~.~.l.} - ;.[ #.M.~.~.~.~.~.~.~.~.~.~.~.~.~.~.~.~.~.~.~.~.~.~.~.~.~.~.~.",
"~.~.~.~.~.~.~.~.~.~.~.~.~.~.~.~.~.~.~.~.~.~.~.~.~.~.~.~.~.~.:.| Y Q.8.#.@ p ~.~.~.~.~.~.~.~.~.~.~.~.~.~.~.~.~.~.~.~.~.~.~.~.~.~.",
"~.~.~.~.~.~.~.~.~.~.~.~.~.~.~.~.~.~.~.~.~.~.~.~.~.~.~.~.~.~._ | =.!.n.o . u ~.~.~.~.~.~.~.~.~.~.~.~.~.~.~.~.~.~.~.~.~.~.~.~.~.~.",
"~.~.~.~.~.~.~.~.~.~.~.~.~.~.~.~.~.~.~.~.~.~.~.~.~.~.~.~.~.~.&.= . q.~.~.~.~.~.~.~.~.~.~.~.~.~.~.~.~.~.~.~.~.~.~.~.~.~.~.~.~.~.~.",
"~.~.~.~.~.~.~.~.~.~.~.~.~.~.~.~.~.~.~.~.~.~.~.~.~.~.~.~.~.~.~.h $ j.~.~.~.~.~.~.~.~.~.~.~.~.~.~.~.~.~.~.~.~.~.~.~.~.~.~.~.~.~.~.",
"~.~.~.~.~.~.~.~.~.~.~.~.~.~.~.~.~.~.~.~.~.~.~.~.~.~.~.~.~.~.~.~.~.~.~.~.~.~.~.~.~.~.~.~.~.~.~.~.~.~.~.~.~.~.~.~.~.~.~.~.~.~.~.~.",
"~.~.~.~.~.~.~.~.~.~.~.~.~.~.~.~.~.~.~.~.~.~.~.~.~.~.~.~.~.~.~.~.~.~.~.~.~.~.~.~.~.~.~.~.~.~.~.~.~.~.~.~.~.~.~.~.~.~.~.~.~.~.~.~.",
"~.~.~.~.~.~.~.~.~.~.~.~.~.~.~.~.~.~.~.~.~.~.~.~.~.~.~.~.~.~.~.~.~.~.~.~.~.~.~.~.~.~.~.~.~.~.~.~.~.~.~.~.~.~.~.~.~.~.~.~.~.~.~.~.",
"~.~.~.~.~.~.~.~.~.~.~.~.~.~.~.~.~.~.~.~.~.~.~.~.~.~.~.~.~.~.~.~.~.~.~.~.~.~.~.~.~.~.~.~.~.~.~.~.~.~.~.~.~.~.~.~.~.~.~.~.~.~.~.~.",
"~.~.~.~.~.~.~.~.~.~.~.~.~.~.~.~.~.~.~.~.~.~.~.~.~.~.~.~.~.~.~.~.~.~.~.~.~.~.~.~.~.~.~.~.~.~.~.~.~.~.~.~.~.~.~.~.~.~.~.~.~.~.~.~.",
"~.~.~.~.~.~.~.~.~.~.~.~.~.~.~.~.~.~.~.~.~.~.~.~.~.~.~.~.~.~.~.~.~.~.~.~.~.~.~.~.~.~.~.~.~.~.~.~.~.~.~.~.~.~.~.~.~.~.~.~.~.~.~.~."
};
