/* XPM */
static char * gnmR_xpm[] = {
"64 64 379 2",
"  	c #8F9251",
". 	c #969A52",
"+ 	c #9EA35A",
"@ 	c #ADB262",
"# 	c #C3C980",
"$ 	c #8D8B52",
"% 	c #8B8551",
"& 	c #C5BB92",
"* 	c #B4AC7B",
"= 	c #C3BB8C",
"- 	c #C2BB85",
"; 	c #C1BC7D",
"> 	c #A59B67",
", 	c #A19E56",
"' 	c #999B3C",
") 	c #A19E4D",
"! 	c #A4AB44",
"~ 	c #A4AA4C",
"{ 	c #959B43",
"] 	c #A7A961",
"^ 	c #B7B182",
"/ 	c #BFB98A",
"( 	c #B5AC82",
"_ 	c #C7C192",
": 	c #BAAE83",
"< 	c #B2A67B",
"[ 	c #C1B68B",
"} 	c #C0B685",
"| 	c #C9BE9A",
"1 	c #A59B73",
"2 	c #D1C59C",
"3 	c #B1A66C",
"4 	c #B8AB76",
"5 	c #D5CAA4",
"6 	c #D9CEA5",
"7 	c #B3AC74",
"8 	c #A99E6C",
"9 	c #9D9668",
"0 	c #ACA474",
"a 	c #CAC38C",
"b 	c #ABA46C",
"c 	c #A39C64",
"d 	c #A4A35B",
"e 	c #918E45",
"f 	c #B2AD6C",
"g 	c #C8BD8E",
"h 	c #A99E72",
"i 	c #B5B373",
"j 	c #B6B871",
"k 	c #B3B36C",
"l 	c #AEAA73",
"m 	c #ADA37A",
"n 	c #D4CCA2",
"o 	c #A9A55E",
"p 	c #AAAD4D",
"q 	c #AEB16B",
"r 	c #BCB383",
"s 	c #AFAA7A",
"t 	c #B9AE7D",
"u 	c #A49C6B",
"v 	c #C9BD93",
"w 	c #C2B591",
"x 	c #B1A673",
"y 	c #9A945C",
"z 	c #918D4C",
"A 	c #9C9B54",
"B 	c #99954A",
"C 	c #ADAB6B",
"D 	c #9E9968",
"E 	c #959359",
"F 	c #9D9B5B",
"G 	c #938B5B",
"H 	c #CEC5A0",
"I 	c #D3CB9C",
"J 	c #CDC995",
"K 	c #A0955C",
"L 	c #B9B574",
"M 	c #AAAC5B",
"N 	c #ADB25C",
"O 	c #9DA14B",
"P 	c #A5A95B",
"Q 	c #B6B17B",
"R 	c #BEB48A",
"S 	c #CEC99B",
"T 	c #D6CB9B",
"U 	c #928D54",
"V 	c #A9A464",
"W 	c #A29D5D",
"X 	c #BEBA84",
"Y 	c #B1A581",
"Z 	c #CCC49A",
"` 	c #B5BA64",
" .	c #A5AA54",
"..	c #ABB14B",
"+.	c #A5A264",
"@.	c #A5A26A",
"#.	c #9C8E93",
"$.	c #DBDCDD",
"%.	c #CBC393",
"&.	c #BAB37C",
"*.	c #A09670",
"=.	c #BFB591",
"-.	c #999454",
";.	c #918E3F",
">.	c #9A9C4B",
",.	c #B1AE64",
"'.	c #C5C28B",
").	c #C4C284",
"!.	c #BBC156",
"~.	c #9EA252",
"{.	c #98323F",
"].	c #981E2E",
"^.	c #BDBA7B",
"/.	c #CCC98B",
"(.	c #A6A073",
"_.	c #898B35",
":.	c #949736",
"<.	c #AAAC54",
"[.	c #B3B363",
"}.	c #AFB172",
"|.	c #BEC369",
"1.	c #ADB254",
"2.	c #9DA343",
"3.	c #A4AB3B",
"4.	c #949C2D",
"5.	c #B11125",
"6.	c #FF0221",
"7.	c #B7B5BC",
"8.	c #A19565",
"9.	c #94944C",
"0.	c #A8A753",
"a.	c #BCC373",
"b.	c #949B3C",
"c.	c #949B33",
"d.	c #D2D5DA",
"e.	c #DF0722",
"f.	c #A80D20",
"g.	c #C1BB79",
"h.	c #8D9244",
"i.	c #767433",
"j.	c #9C9463",
"k.	c #B2B45C",
"l.	c #8D923C",
"m.	c #95994A",
"n.	c #ACAB64",
"o.	c #822936",
"p.	c #F40220",
"q.	c #878A40",
"r.	c #9E9A63",
"s.	c #B6B96B",
"t.	c #868948",
"u.	c #8E9249",
"v.	c #7E7D44",
"w.	c #933D48",
"x.	c #8D3C48",
"y.	c #E3021E",
"z.	c #7A7D2C",
"A.	c #88873D",
"B.	c #979261",
"C.	c #959352",
"D.	c #858342",
"E.	c #7C7C3C",
"F.	c #8C8858",
"G.	c #C8C7CE",
"H.	c #92875C",
"I.	c #9A9C44",
"J.	c #D5D29A",
"K.	c #84843B",
"L.	c #7E8138",
"M.	c #7B7C34",
"N.	c #746E39",
"O.	c #837F50",
"P.	c #C9C0C1",
"Q.	c #A2A44B",
"R.	c #A1A543",
"S.	c #A99E79",
"T.	c #D6D1A3",
"U.	c #6C6C26",
"V.	c #CB0720",
"W.	c #988D5D",
"X.	c #A3A453",
"Y.	c #929444",
"Z.	c #8B8C44",
"`.	c #D1CA94",
" +	c #C9C483",
".+	c #8D8B4A",
"++	c #76782A",
"@+	c #EC021F",
"#+	c #898543",
"$+	c #A99CA2",
"%+	c #858249",
"&+	c #847D43",
"*+	c #828535",
"=+	c #935E66",
"-+	c #EE0320",
";+	c #CACED4",
">+	c #BAAE89",
",+	c #8B854C",
"'+	c #91933D",
")+	c #8A8C3C",
"!+	c #D00821",
"~+	c #C7BC98",
"{+	c #899031",
"]+	c #922A38",
"^+	c #C70A22",
"/+	c #BCBB74",
"(+	c #BEC479",
"_+	c #DCD3AA",
":+	c #B6BB5A",
"<+	c #906971",
"[+	c #D3031C",
"}+	c #B9AFB2",
"|+	c #A68B91",
"1+	c #B9B66E",
"2+	c #9E8086",
"3+	c #AAAE43",
"4+	c #B3B653",
"5+	c #7D7545",
"6+	c #D4D4D4",
"7+	c #933440",
"8+	c #BABC65",
"9+	c #D8D4D8",
"0+	c #868B3C",
"a+	c #B40A1F",
"b+	c #8C3A45",
"c+	c #B1ADB2",
"d+	c #BABB6B",
"e+	c #BA0B21",
"f+	c #DC031D",
"g+	c #D5CED1",
"h+	c #856D73",
"i+	c #C3BEBE",
"j+	c #9E2434",
"k+	c #B30D21",
"l+	c #857B4A",
"m+	c #7D8034",
"n+	c #9A777B",
"o+	c #E40521",
"p+	c #94444E",
"q+	c #8B4852",
"r+	c #6B323A",
"s+	c #940214",
"t+	c #807F3C",
"u+	c #988D62",
"v+	c #C4C6CB",
"w+	c #A9081C",
"x+	c #927C82",
"y+	c #AB0116",
"z+	c #5C3B41",
"A+	c #5D5C5E",
"B+	c #838485",
"C+	c #8D8B8C",
"D+	c #7B1926",
"E+	c #8D0113",
"F+	c #A30115",
"G+	c #737172",
"H+	c #7E7F81",
"I+	c #545255",
"J+	c #929598",
"K+	c #722732",
"L+	c #F1021F",
"M+	c #BD021A",
"N+	c #CE021B",
"O+	c #787578",
"P+	c #766B70",
"Q+	c #8C8E91",
"R+	c #C4031B",
"S+	c #A71B2D",
"T+	c #86888B",
"U+	c #98999C",
"V+	c #4E060F",
"W+	c #7B1421",
"X+	c #84797B",
"Y+	c #735F63",
"Z+	c #ABAAAC",
"`+	c #6E7072",
" @	c #8E9194",
".@	c #6A2B33",
"+@	c #B3B3B4",
"@@	c #65353B",
"#@	c #DFE0E1",
"$@	c #E6E7E8",
"%@	c #7E0E1C",
"&@	c #322123",
"*@	c #840414",
"=@	c #8E0719",
"-@	c #C3C4C5",
";@	c #E3E4E5",
">@	c #79686A",
",@	c #6E1823",
"'@	c #989394",
")@	c #DEDFE0",
"!@	c #8D8688",
"~@	c #BA1025",
"{@	c #8A1221",
"]@	c #59484C",
"^@	c #671B24",
"/@	c #472F32",
"(@	c #CCCCCD",
"_@	c #848B34",
":@	c #C5C27D",
"<@	c #901021",
"[@	c #7C8125",
"}@	c #5D0510",
"|@	c #62000D",
"1@	c #7A7737",
"2@	c #797778",
"3@	c #999798",
"4@	c #625F60",
"5@	c #B50219",
"6@	c #9A0115",
"7@	c #633D42",
"8@	c #7C6E71",
"9@	c #908F90",
"0@	c #A29C9F",
"a@	c #94091B",
"b@	c #C2C474",
"c@	c #9CA23C",
"d@	c #9B0719",
"e@	c #C6C8CD",
"f@	c #B7B8B9",
"g@	c #A2A4A7",
"h@	c #938A8B",
"i@	c #BABC5B",
"j@	c #7F595E",
"k@	c #595358",
"l@	c #8B869A",
"m@	c #8E899D",
"n@	c #7D798A",
"o@	c #6C3B42",
"p@	c #878B29",
"q@	c #ACB343",
"r@	c #A2A63B",
"s@	c #AA061B",
"t@	c #66646E",
"u@	c #750B18",
"v@	c #B3BA53",
"w@	c #75101D",
"x@	c #701621",
"y@	c #6A0915",
"z@	c #A41F31",
"A@	c #BEBFC0",
"B@	c #8C932B",
"C@	c #9BA334",
"D@	c #B1B845",
"E@	c #C8C77E",
"F@	c #8B656B",
"G@	c #85892C",
"H@	c #8F434F",
"I@	c #AFAFB0",
"J@	c #BDBCBD",
"K@	c #939294",
"L@	c #9B2837",
"M@	c #909829",
"N@	c #878D1F",
"O@	c #8E9524",
"P@	c #B0AE59",
"Q@	c #0C0809",
"R@	c #010101",
"S@	c #2C0006",
"T@	c #ABB33C",
"U@	c #0A0506",
"V@	c #86535B",
"W@	c #410009",
"X@	c #6C6C6D",
"Y@	c #A12D3D",
"Z@	c #B4A6AA",
"`@	c #CAC982",
" #	c #68010D",
".#	c #AAAF3D",
"+#	c #944F59",
"@#	c #EBF1F8",
"##	c #2E1F22",
"$#	c #FEFEFF",
"%#	c #190004",
"&#	c #69676A",
"*#	c #343131",
"=#	c #B5B94B",
"-#	c #C5C85A",
"  . + @ # $ % & * = - ; > , ' ) ! ~ { . ] ^ / ^ ^ ( / _ = : < [ } [ | [ 1 2 3 4 4 } [ 5 6 5 [ 7 4 8 9 0 a b c d , , e f b 4 g h ",
"i j k j l 9 m n a 0 - 4 4 o ) p ~ { { .   + q ^ 9 ^ r s } t u 0 [ & [ v [ } } h < r w | | 5 [ } < < r } a x y z A B o C t x v h ",
"D y E F G r H I J - b K c i L M N O ~ N . P P q F b Q / v = R : = = } g v 4 } > 0 : R S T 6 } < 0 1 g = = } b U V W i ; } } : 1 ",
"X $ $ ^ Y & Z v c , W o y 7 3 f `  .~ ~ ..N  .P +.E @.#.$.} %.< [ } } &.- g g *.Y =.R _ T 6 2 4 < < [ = = = t -.c U 3 i a g [ 1 ",
"Q E c %.v =.R &.e ;.>. .,.7 '.).@ N ~ ! !.! ! ~.B F G {.].[ [ t t } ^.3 4 /.T * (.=.^ J T g T } 1 < } w | T Z < y E @.* - = R u ",
"i l g g & / 0 z _.' :.<.[.C ).}.N |.1.2.3.4.2.~ >.W U 5.6.7.R r t ; f , , y I / (.^ s ^ } } T } < } } v T | | } 8.s 0 '.* = * u ",
"Q b } v _ [ 0 9.0.0.1.1.{ ] +.'.a.a.|.~ b.c...|.d.z y e.6.f.( : g.g.W A h.i.).}.Q s c 0 b t Z [ < < } w | 5 | g D 0 s ^ r * 0 j.",
"&.4 } g = v - f ) k.|.2.~.j }.+.+ . N  .b.l.{ m.n.o.U p.6.6.#.R } x -.d A q.j F A r.c i > t t ( } < [ w v 6 v t 1 m s r * Q r.% ",
"< g.( [ R = = Q 3 n.s.@ q C   t.u.+ ~.+ u.q.    v.w.x.p.6.6.y.r } K 4 V o >.z.l.A.u.E y j.( 8.} [ < } w v T [ 0 0 m 0 X / 7 r.v.",
"w w [ ( ( * * B.r '.}.. q C.D.u.q.t.  +   E.F._ Q G.6.6.6.6.6.w.g.H.3 3 n.A _.~ I.u.u.r.^ H.(.r } g.} g %.2 [ 8 j./ * - a b C.E.",
"} w [ ( * 7 &.c 0 X J.@.k q t.K.L.M.N.E.v.O.F.^ ^ ^ p.6.6.6.6.p.P.U y 3 j M Q.R.l.~.C.G r R _ * S.} : [ J v &.h u 0 ^ 7 - - F t.",
"} g g t b b +.F X T.J.J j A A.U.q.+ @.@.F.O.F.^ ^ ^ y.6.6.6.6.6.V.y W.b i n.X.Y.{ Z.E.@.g n v _ < < } g.`.- Q 0 u 7 - }  +a C .+",
"} g g ; V n.A W ^ s = ).F B o ++U.+.i C @.l s s D / @+6.6.6.6.6.6.w.D c F F 3 d d C K * J v n Z w < < 4 r - t x x t 4 > l a F W ",
"} } T g Q + F C Q @.- @.A -.L #+i.-.V i F E +.&.0 d.6.6.6.6.6.6.6.6.$+c y K g.t t r r = g & J S T : 0 * 3 - 4 3 0 &.t > &.z f z ",
"& 2 6 5 Q   . ] '.X J %+&.b y } &+z A B *+9.A V j =+6.6.6.6.6.6.6.6.-+;+x 7 g [ >+>+} t Q %./ Z 5 S < 0 > 7 &.b x t } &.&+N.,+C.",
"/ 2 [ 6 J C 0 Q '.I 2 u Q 8 : u +.C.A >.'+I.)+h.).y.6.6.6.6.6.6.6.6.6.!+^ r & ~+[ w } } - &.J J _ J.r r.W W.&.8 &.r &.} > y U W ",
"X Q @.J J.@.D '._ & 5 5 _ Z H r '.i.m.l.{ {+z.Q.]+6.6.6.6.6.6.6.6.6.6.6.^+w H | ~+} - g.W ] .+/+9.K.#+W W &.- } g * R * Q 7 3 V ",
"+ ] }.(+#   @.X _ _ Z _+Z =.R = - + )+N b.{+:+<+6.6.6.6.6.6.6.6.6.6.6.6.6.[+G.H v >+g.d d , o g.Q.p <.>., j L j.* 0 u 1 t t < y ",
"M.L.u.t.t.L.+ '.).s W.1 H r S X '.C F q.{  .}+p.6.6.6.6.6.6.6.6.6.6.6.6.6.6.-+|+~+g t f X.1+n.s.2+3+! 4+N [.n.^.'.G 5+H.Y ( m 1 ",
"h.O ~.O u.. /+# i y F.B./ / R X '.X + u.+ 6+p.6.6.6.6.6.6.6.6.6.6.6.6.6.6.6.6.6.7+r  +i f n.n.8+y.9+..' <.M /+g.).- 1 v R *.>+S.",
"L.u.~.~.+ m.@ u.^.V 0 = 2 g v [ R Z Q t.0+[+6.6.6.6.6.6.6.6.6.6.6.6.6.6.6.6.6.6.6.a+} a L ,.1+b+6.c+..1. .d+s.f ).a t } h < r H.",
" .h.N l.{ @ h.+.^..+s Q v v [ v _ S T.l e+6.6.6.6.6.6.6.6.6.6.6.6.6.6.6.6.6.6.6.6.6.f+9+V z g+p.6.}+ .>.~.m.n.f i F x Q 7 _ > G ",
"(+a.u.h.q.0+h.F C r.u h+i+} w | =.~+S j+6.6.6.6.6.6.6.6.6.6.6.6.6.6.6.6.6.6.6.6.6.6.6.f+G.i k+6.6.6+` X.. o d C.i W &+3 } } W.l+",
"# (+P ~.] m+L.L.U E 0 n+6.o+p+w =.H q+6.6.6.6.6.6.6.6.6.6.6.6.6.6.6.6.6.6.6.6.6.6.6.6.6.f+r+6.s+[+n.Z.9.] A A V t+4 > 4 t >+u+l+",
"+ + . u.u.u.P L.] Q X v+w+p.6.p.x+#.6.6.6.6.6.6.6.6.6.6.6.6.6.6.6.6.6.6.6.6.6.6.6.6.6.6.6.y+6.z+A+-.W W )./+-.c V t > 8 ; > u+O.",
"  . P O ~.O l.m.+.(+).9 B+C+D+6.6.E+6.6.6.6.6.6.6.6.6.6.6.6.6.6.6.6.6.6.6.6.6.6.6.6.6.6.6.6.F+G+H+&+> - U 4 3 c x g.x x < 8 8.8.",
"  ~.u.{ N ` N O n.d i i I+J+J+K+6.L+M+6.6.6.6.6.6.6.6.6.6.6.6.6.6.6.6.6.6.6.6.6.6.6.6.6.6.6.N+O+v v Z %.x &.b b 4 t 7 &.x h 8 8.",
"t.L.h.h. .|.|.N ` @ V i B+J+J+J+@+6.@+f+6.6.6.6.6.6.6.6.6.6.6.6.6.6.6.6.6.6.6.6.6.6.6.6.6.6.6.P+2 v g } = - * t 4 7 b t 4 > 8 > ",
"j . K.M.m+{  .O N (+j - +.Q+J+J+K+6.6.R+p.6.6.6.6.6.6.6.6.6.6.6.6.6.6.6.6.6.6.6.6.6.6.6.6.6.6.S+g a - g &.= Q 0 i Q @.l 4 y b i ",
"X X K.M.z._. .<.O P + +.l A+J+J+T+p.6.6.s+R+6.6.6.6.6.6.6.6.6.6.6.6.6.6.6.6.6.6.6.6.6.6.6.6.6.p.} J } } Q X 7 C l C E + L +.+.+.",
"W.D +.D.M.K.m+0+A P C Q Q U+J+J+J+r+6.6.6.f+6.6.6.6.6.6.6.6.6.6.M+V+f+6.6.6.y.W+X+Y+6.6.6.6.6.6.Z+=.r >+r ^ r +.+.A u.m.N  .{ 2.",
"9 G * @.V u.. q.q.t.E.X _ / `+J+J+ @E+6.M+6.6.6.6.6.6.6.6.@+.@+@@@6.6.f+D+C+#@$@$@$@%@6.6.6.6.6.x.w R & / @.r.C.. m.O l.b.~.c.! ",
"W.( Q r s l D.C.E..+y X r : &@J+J+J+R+p.*@6.6.6.6.6.L+L+=@-@;@>@-+,@'@)@$@$@$@$@$@$@!@6.6.F+6.6.~@F.^ '.Q . q.0+O { u.` M |.<...",
"0 * ^ g 0 * s l+5+7 U = &.* {@]@J+J+f.6.F+6.6.6.6.6.6.^@$@$@$@/@(@$@$@$@$@$@$@$@$@$@6+6.6.s+6.6.e.J +.@.F t.O m+_@~.u.~.9.:@) ) ",
"y y c : R ( r ^ u 1 ^ Q * ^ <@y.B+J+R+6.N+6.6.6.6.6.w+;@$@$@$@$@$@$@$@$@$@$@$@$@$@$@$@[+6.s+6.6.-+u.L.i.+ ~.~._@[@P /+Q * } -.K ",
"(.x W.Q R * = s X = r 7 Q g {@6.}@H+L+6.y.6.6.6.y+6.'@$@$@$@$@$@$@$@$@$@$@$@$@$@$@$@$@R+6.|@6.6.L+A 1@u.m.m+l.h.0+u.}./ _ & x 4 ",
": t } g } b -.f k [.] W ] j D+6.s+F+p.6.L+6.6.6.=@y.;@$@$.2@3@+@$@$@$@$@$@$@$@2@4@A+(@5@6.6@6.6.y.+.C y D.d ~.Y.h.. C / & ~+m Y ",
": [ h ,+-.A , X.d+ .N >.O m.7@6.M+6.5@[+@+6.6.*@8@N+$@$@$@P+Z+9@;@$@$@$@$@$@$@+@$.+@$@R+R+p.p.6.f+r.N.r.i /+9.X.9.u.$ D R w Y =.",
"v g.`.g.W d ~.>.<.|.{ p 2.2.0@6.@+6.6.L+f+L+6.U+#@s+$@$@$@$@$@$@$@$@$@$@$@$@$@$@$@$@C+a@R+L+y.6.S+( h * - 7 1+9.A +.l r & m Y >+",
"g g - - ; b@o  .|.k.N 2.2...c@L+6.5@6.6.F+6.-+#@$@B+;@$@$@$@$@$@$@$@$@$@$@$@$@$@$@$@$@$@^@6.N+6.=+: R / l ^.j C.9.A F X s ( =.=.",
"} 8 - g.g.,.[.X.@ O N ~ O b.b.a@6.F+L+6.5@6.d@;@$@$@$@$@$@$@$@$@$@$@$@$@$@$@$@$@$@$@$@$@!@6.R+6.d.: Q - l U .++..+A -.F s _ | ( ",
"g.K k K ) ) :.) l.O 0+P h.h.++O+6.6.N+L+L+y.6@.@$@$@$@$@$@$@$@$@)@e@-@f@Z+Z+Z+g@)@$@$@$@h@6.[+5.< } * - g +.f ] /+d K.A t.l Z *.",
"K ) o i@1...R.' 2.O M *++.q t.X R+6.[+L+6.s+N+6.j@$@$@$@$@$@$@$@k@l@m@m@m@m@m@n@;@$@$@$@o@p.@+c+< R * r b 7 Q './.o q.Y.. /+i @.",
";.p@' 4+q@r@q@r@1.N [.n.i C ^.^ 8@6.L+B+@+5@F+s@L+7@$@$@$@$@$@$@;@t@l@m@m@m@t@-@$@$@$@(@R+u@o.> 7 0 = &.R Q Q 0 C u.Y.X.s./+j ] ",
"c.p@r@r@q@3.c@v@1.M d 3 f 3 -.c X w@x@* v+y@Z+;+z@6.%@v+$@$@$@;@;@$@9++@A@)@$@$@$@$@g+d@y.+@, ,.&.r 7 r 9 @./ _ X . ~.O  .1.P s.",
"B@B@C@3+D@C@r@p ) s.E@; c -.C.t.,+Q +@* &.* Q 7 /+F@-+-+@@6+$@;@$@$@$@$@$@$@$@$@;@X+N+8@]@G@'+A.1+W W +.0 ^ S '.J # ~. .2.0+@ q ",
")+'+:.p ! c@v@p Q.8+, 3 V &.t 3 X +.C A C.c W o g.[.k H@y.@+w@>@I@(@$.#@6+J@K@r+R+a+g+g@p@4+:.r@) B X.d ] ).^ Z ^ @.a.a.{ u.q q ",
"Z.m.>.I.2.! ' ! k., f - x &.7 7 y 9.-.W +.A , W d+k X.M N 0@u@[+@+p.p.p.L+p.y.L@g@'+I.p@M@N@O@r@r@P@) ) }.s ^ ^ _ (+/.+ u.t.+ ^ ",
"c C.t+e u.~.M >.+ +.y > 7 : < } < l V ] -., V W V /+n.X.o X.Q@f+L+y.R@S@Z+k.I.X. .1.q@3.!.T@T@T@Q., f /.r * h 1 r i 1+1+m.E.%+s ",
"F W -.d O + @ @ k ^.&.r t 8.} < r Q 3 C -.A V 4 Q V z #+Y.;+y.6.6.S@U@V@{.R.I.Q.k...D@T@T@T@D@T@' ;.,./.J ^ s 0 ).^.C V D.%+% l ",
"r = r = '.J.'.@.&.'.c c 3 3 3 g.* > -.c f g.- /.- > -.U A e+6.L+S@R@c+F@-+4+>.k. .c@3.q@C@C@C@3.r@4+P@) /.`.x t '.- a 7 0 c D @.",
">+S %.= X J / }.X = - b W.} 3 4 * Q 4 g.V c 4 a g * b y z p.6.W@R@R@X@Y@L+Z@n.1+M I.M@4.C@4.M@!.D@r@4+0., `@g u ^ r = &.* (.9 9 ",
"=./ / S T.T./ (.9 *.2 t g.v g.3 4 : 7 g.L &.r & %./ - r ^.7.V@R@R@ #y.*@F@C C.n.1+O B@O@4.4.C@!..#r@4+p B o 8 4 S.S.w w v x u+H.",
"R = / _ S S S S H Z & < | | < g.4 } 4 &.; r / & =./ 2 _ Q * |+@+ #q+f+6.}+0 U $ 1+{ C@4.M@C@3.3..#r@3+I.B B b g < S.w [ ~+1 u+H.",
"0 r a a J J.S I T._ [ | v [ g.S.: } 4 t 4 >+R w | w & - t } +#L+f.@#x+6.##k@_ / ^.>.2.c.M@C@q@..i@k.g.<.) ) 8 7 [ Y >+~+w : 8.H.",
"* Q / '.'./.X J s s < 8 [ S.} Y [ [ * t t >+[ Z H Z R Q - = Y@L+H@$#I@%#U@I+~+_ r A X.c@c@4.c@1., ,.P@k.o f L - v [ >+S.[ } 8 K ",
"Y / '.X #   u.+ @.}.i F.7 * = * w [ S.< } [ | | 5 Z t g.- - 7+|@U@!@} [ 0 | & 5 J +.A *+*+2.l.~.n.] P P X.~.m.+ &.%.= s * * u > ",
"^ E E }.. q.  . + /+i l u X * R [ w < Y Y [ = 2 %.g t 4 g.; 8.&#*#U+} %.= & Z Z I a C a.O @ P +.+ k P O I.{ O 0+d i ^ J * 0 b 0 ",
"}.}.s.O L.m+{ { m.[.+.V 8.( >+< | w S.( < } v v J.Q 1+o -.z ,+&+< w } x g r _ _ _ a j /+P  ./+/+`@(+@ 2.b.2.c@b. .1+i ^.- 0 * (.",
"  u.L.l.L.b.{ { m.. C.%+0 [ Y [ w Y } > > v T g '.d W [.,.t+&+t ( w &. +7 ).a a -  +^.f Y.Y.>.X.1+@ M I.b.c@{+{+h.@ q X - ^ * (.",
"N ` O { l.b.{ N (+f y 8 x < =.w [ >+: < Q +.i `@k A Q.B ;.e f - [ g g.B , , , g.E@g.g.A.:._.I., [.[.X.Q.O l.l.l.u.u.+.^.r ^ * (.",
"O + O l. .{ { + k C.-.j.u+< >+[ [ } g g.y C.^.d [.[.<. .0.e y } [ < g.0.<.'+' ) , ,.o , I.I.;.)+, f n.B 0+0+q.q.+ E C @.r ^ ( 1 ",
"|.. q.~.u.~.@ (+C C $ &+8 8 3 } } x - V d ,.A /+` k.4+O '+e -.4 : 4 ) =#i@3+c.i@<.P@k ,., { ;.;.t+> &.U .+C r.t.E Q 0 D m R ( Y ",
"+ q P u.+ . + ] ).E U 8.K K 3 4 t t ; `@d d k ` [. .R.'+;.B &+b 3 ; i@r@=#-#-#r@:.;.k g.B I.;.-.z > 3 t ^ ^ ^ ^ Q Q 9 F.1 m =.*."};
