/* XPM */
static char * gnmW_xpm[] = {
"64 64 378 2",
"  	c #8F9251",
". 	c #969A52",
"+ 	c #9EA35A",
"@ 	c #ADB262",
"# 	c #C3C980",
"$ 	c #8D8B52",
"% 	c #8B8551",
"& 	c #C5BB92",
"* 	c #B4AC7B",
"= 	c #C3BB8C",
"- 	c #C2BB85",
"; 	c #C1BC7D",
"> 	c #A59B67",
", 	c #A19E56",
"' 	c #999B3C",
") 	c #A19E4D",
"! 	c #A4AB44",
"~ 	c #A4AA4C",
"{ 	c #959B43",
"] 	c #A7A961",
"^ 	c #B7B182",
"/ 	c #BFB98A",
"( 	c #B5AC82",
"_ 	c #C7C192",
": 	c #BAAE83",
"< 	c #B2A67B",
"[ 	c #C1B68B",
"} 	c #C0B685",
"| 	c #C9BE9A",
"1 	c #A59B73",
"2 	c #D1C59C",
"3 	c #B1A66C",
"4 	c #B8AB76",
"5 	c #D5CAA4",
"6 	c #D9CEA5",
"7 	c #B3AC74",
"8 	c #A99E6C",
"9 	c #9D9668",
"0 	c #ACA474",
"a 	c #CAC38C",
"b 	c #ABA46C",
"c 	c #A39C64",
"d 	c #A4A35B",
"e 	c #918E45",
"f 	c #B2AD6C",
"g 	c #C8BD8E",
"h 	c #A99E72",
"i 	c #B5B373",
"j 	c #B6B871",
"k 	c #B3B36C",
"l 	c #AEAA73",
"m 	c #ADA37A",
"n 	c #D4CCA2",
"o 	c #A9A55E",
"p 	c #AAAD4D",
"q 	c #AEB16B",
"r 	c #BCB383",
"s 	c #AFAA7A",
"t 	c #B9AE7D",
"u 	c #A49C6B",
"v 	c #C9BD93",
"w 	c #C2B591",
"x 	c #B1A673",
"y 	c #9A945C",
"z 	c #918D4C",
"A 	c #9C9B54",
"B 	c #99954A",
"C 	c #ADAB6B",
"D 	c #9E9968",
"E 	c #959359",
"F 	c #9D9B5B",
"G 	c #938B5B",
"H 	c #CEC5A0",
"I 	c #D3CB9C",
"J 	c #CDC995",
"K 	c #A0955C",
"L 	c #B9B574",
"M 	c #AAAC5B",
"N 	c #ADB25C",
"O 	c #9DA14B",
"P 	c #A5A95B",
"Q 	c #B6B17B",
"R 	c #9C8E91",
"S 	c #BEB48A",
"T 	c #CEC99B",
"U 	c #D6CB9B",
"V 	c #928D54",
"W 	c #A9A464",
"X 	c #A29D5D",
"Y 	c #BEBA84",
"Z 	c #B1A581",
"` 	c #CCC49A",
" .	c #B5BA64",
"..	c #A5AA54",
"+.	c #ABB14B",
"@.	c #A5A264",
"#.	c #A5A26A",
"$.	c #CC031C",
"%.	c #CBC393",
"&.	c #BAB37C",
"*.	c #A09670",
"=.	c #BFB591",
"-.	c #999454",
";.	c #918E3F",
">.	c #9A9C4B",
",.	c #B1AE64",
"'.	c #C5C28B",
").	c #C4C284",
"!.	c #BBC156",
"~.	c #9EA252",
"{.	c #979261",
"].	c #CBC7C8",
"^.	c #FF0221",
"/.	c #94656C",
"(.	c #BDBA7B",
"_.	c #CCC98B",
":.	c #A6A073",
"<.	c #898B35",
"[.	c #949736",
"}.	c #AAAC54",
"|.	c #B3B363",
"1.	c #AFB172",
"2.	c #BEC369",
"3.	c #ADB254",
"4.	c #9DA343",
"5.	c #A4AB3B",
"6.	c #949C2D",
"7.	c #988D62",
"8.	c #997E85",
"9.	c #E40420",
"0.	c #A19565",
"a.	c #94944C",
"b.	c #A8A753",
"c.	c #BCC373",
"d.	c #949B3C",
"e.	c #949B33",
"f.	c #766B70",
"g.	c #88545D",
"h.	c #953543",
"i.	c #C1BB79",
"j.	c #8D9244",
"k.	c #767433",
"l.	c #9C9463",
"m.	c #B2B45C",
"n.	c #8D923C",
"o.	c #95994A",
"p.	c #ACAB64",
"q.	c #858342",
"r.	c #946C73",
"s.	c #883F49",
"t.	c #8B4B54",
"u.	c #F50220",
"v.	c #BBBABC",
"w.	c #878A40",
"x.	c #9E9A63",
"y.	c #B6B96B",
"z.	c #868948",
"A.	c #8E9249",
"B.	c #7E7D44",
"C.	c #EB021F",
"D.	c #771925",
"E.	c #BD0C22",
"F.	c #7A7D2C",
"G.	c #88873D",
"H.	c #959352",
"I.	c #7C7C3C",
"J.	c #8C8858",
"K.	c #AA162A",
"L.	c #9A9C44",
"M.	c #92875C",
"N.	c #D5D29A",
"O.	c #84843B",
"P.	c #7E8138",
"Q.	c #7B7C34",
"R.	c #746E39",
"S.	c #837F50",
"T.	c #843D47",
"U.	c #D5D5D9",
"V.	c #A2A44B",
"W.	c #A1A543",
"X.	c #A99E79",
"Y.	c #D6D1A3",
"Z.	c #6C6C26",
"`.	c #B41025",
" +	c #A3A453",
".+	c #929444",
"++	c #8B8C44",
"@+	c #D1CA94",
"#+	c #C9C483",
"$+	c #8D8B4A",
"%+	c #76782A",
"&+	c #8E313F",
"*+	c #898543",
"=+	c #AE9DA0",
"-+	c #858249",
";+	c #847D43",
">+	c #828535",
",+	c #BAB7B8",
"'+	c #C7C8CE",
")+	c #BAAE89",
"!+	c #8B854C",
"~+	c #91933D",
"{+	c #8A8C3C",
"]+	c #DA0620",
"^+	c #CCCED3",
"/+	c #C7BC98",
"(+	c #988D5D",
"_+	c #899031",
":+	c #D30720",
"<+	c #CCCCCD",
"[+	c #BCBB74",
"}+	c #BEC479",
"|+	c #DCD3AA",
"1+	c #B6BB5A",
"2+	c #A28488",
"3+	c #AA989E",
"4+	c #B1B1B2",
"5+	c #87414D",
"6+	c #B9B66E",
"7+	c #BABC5B",
"8+	c #AAAE43",
"9+	c #9B838A",
"0+	c #B6AFB3",
"a+	c #7D7545",
"b+	c #DCDCDD",
"c+	c #B20D21",
"d+	c #BABC65",
"e+	c #B3BA53",
"f+	c #9BA334",
"g+	c #E5021E",
"h+	c #868B3C",
"i+	c #D3021C",
"j+	c #DB031D",
"k+	c #C3B3B5",
"l+	c #BABB6B",
"m+	c #8A3B46",
"n+	c #8C5B65",
"o+	c #B00A1F",
"p+	c #A99197",
"q+	c #C8C77E",
"r+	c #CAC982",
"s+	c #C8C0C2",
"t+	c #6C333B",
"u+	c #8A6167",
"v+	c #A12031",
"w+	c #958286",
"x+	c #C5021A",
"y+	c #AA969B",
"z+	c #857B4A",
"A+	c #7D8034",
"B+	c #BA162A",
"C+	c #A7A2A8",
"D+	c #58131B",
"E+	c #8C0112",
"F+	c #BB031A",
"G+	c #BDC2C8",
"H+	c #807F3C",
"I+	c #B5B5BC",
"J+	c #F1021F",
"K+	c #672D34",
"L+	c #757678",
"M+	c #8A868B",
"N+	c #929598",
"O+	c #930113",
"P+	c #695A5D",
"Q+	c #666769",
"R+	c #555254",
"S+	c #694046",
"T+	c #6D6D6E",
"U+	c #828183",
"V+	c #A30115",
"W+	c #743F48",
"X+	c #8F9194",
"Y+	c #66444A",
"Z+	c #595759",
"`+	c #D1CDCD",
" @	c #9C9B9D",
".@	c #675558",
"+@	c #9B0215",
"@@	c #6E0916",
"#@	c #6B111D",
"$@	c #A9A7A8",
"%@	c #715F62",
"&@	c #680613",
"*@	c #9C0C1E",
"=@	c #898384",
"-@	c #B4041A",
";@	c #A7061A",
">@	c #E6E7E8",
",@	c #7D0E1C",
"'@	c #362527",
")@	c #981122",
"!@	c #B20117",
"~@	c #7B6E71",
"{@	c #E4E5E6",
"]@	c #6E4E53",
"^@	c #C5C7CB",
"/@	c #820F1D",
"(@	c #57393E",
"_@	c #831E2B",
":@	c #840112",
"<@	c #A4A3A4",
"[@	c #7D7B7C",
"}@	c #848B34",
"|@	c #C5C27D",
"1@	c #8C0718",
"2@	c #970E1F",
"3@	c #929295",
"4@	c #AC0116",
"5@	c #D3D3D4",
"6@	c #7C8125",
"7@	c #71000F",
"8@	c #77676A",
"9@	c #8E737A",
"0@	c #4B4849",
"a@	c #663D43",
"b@	c #A09FA0",
"c@	c #8B8B8D",
"d@	c #DFE0E1",
"e@	c #ACACAD",
"f@	c #6B2B34",
"g@	c #C2C474",
"h@	c #9CA23C",
"i@	c #70262F",
"j@	c #932634",
"k@	c #920718",
"l@	c #A28D93",
"m@	c #550C15",
"n@	c #C3C4C5",
"o@	c #BEBFC0",
"p@	c #79212C",
"q@	c #BDC0C7",
"r@	c #8A8893",
"s@	c #8F8A9E",
"t@	c #767282",
"u@	c #705A5D",
"v@	c #878B29",
"w@	c #B3B653",
"x@	c #ACB343",
"y@	c #A2A63B",
"z@	c #5C5759",
"A@	c #7E7A8B",
"B@	c #6E6B79",
"C@	c #9C9EA1",
"D@	c #8C932B",
"E@	c #B1B845",
"F@	c #66252E",
"G@	c #75111E",
"H@	c #686265",
"I@	c #8C0C1C",
"J@	c #A11E2F",
"K@	c #AB0419",
"L@	c #D00A22",
"M@	c #909829",
"N@	c #878D1F",
"O@	c #8E9524",
"P@	c #B0AE59",
"Q@	c #A69397",
"R@	c #010001",
"S@	c #220005",
"T@	c #681823",
"U@	c #ABB33C",
"V@	c #8C2F3C",
"W@	c #68000D",
"X@	c #89646B",
"Y@	c #5D000C",
"Z@	c #A31326",
"`@	c #130205",
" #	c #343232",
".#	c #AAAF3D",
"+#	c #998688",
"@#	c #0E0909",
"##	c #2E2A2B",
"$#	c #9D1B2C",
"%#	c #544348",
"&#	c #887F81",
"*#	c #B5B94B",
"=#	c #C5C85A",
"  . + @ # $ % & * = - ; > , ' ) ! ~ { . ] ^ / ^ ^ ( / _ = : < [ } [ | [ 1 2 3 4 4 } [ 5 6 5 [ 7 4 8 9 0 a b c d , , e f b 4 g h ",
"i j k j l 9 m n a 0 - 4 4 o ) p ~ { { .   + q ^ 9 ^ r s } t u 0 [ & [ v [ } } h < r w | | 5 [ } < < r } a x y z A B o C t x v h ",
"D y E F G r H I J - b K c i L M N O ~ N . P P q F b Q / v R S : = = } g v 4 } > 0 : S T U 6 } < 0 1 g = = } b V W X i ; } } : 1 ",
"Y $ $ ^ Z & ` v c , X o y 7 3 f  ...~ ~ +.N ..P @.E #.& [ $.%.< [ } } &.- g g *.Z =.S _ U 6 2 4 < < [ = = = t -.c V 3 i a g [ 1 ",
"Q E c %.v =.S &.e ;.>...,.7 '.).@ N ~ ! !.! ! ~.B F G {.].^./.t t } (.3 4 _.U * :.=.^ J U g U } 1 < } w | U ` < y E #.* - = S u ",
"i l g g & / 0 z <.' [.}.|.C ).1.N 2.3.4.5.6.4.~ >.X V 7.8.^.9.r t ; f , , y I / :.^ s ^ } } U } < } } v U | | } 0.s 0 '.* = * u ",
"Q b } v _ [ 0 a.b.b.3.3.{ ] @.'.c.c.2.~ d.e.+.2.M z f.* g.^.^.h.i.i.X A j.k.).1.Q s c 0 b t ` [ < < } w | 5 | g D 0 s ^ r * 0 l.",
"&.4 } g = v - f ) m.2.4.~.j 1.@.+ . N ..d.n.{ o.p.q.r.s.t.^.^.u.v.x -.d A w.j F A x.c i > t t ( } < [ w v 6 v t 1 m s r * Q x.% ",
"< i.( [ S = = Q 3 p.y.@ q C   z.A.+ ~.+ A.w.    B.$ 0 C.D.^.^.^.E.K 4 W o >.F.n.G.A.E y l.( 0.} [ < } w v U [ 0 0 m 0 Y / 7 x.B.",
"w w [ ( ( * * {.r '.1.. q H.q.A.w.z.  +   I.J._ Q Q ^ K.^.^.^.^.^./.3 3 p.A <.~ L.A.A.x.^ M.:.r } i.} g %.2 [ 8 l./ * - a b H.I.",
"} w [ ( * 7 &.c 0 Y N.#.k q z.O.P.Q.R.I.B.S.J.^ ^ ^ / T.^.^.^.^.^.u.U.3 j M V.W.n.~.H.G r S _ * X.} : [ J v &.h u 0 ^ 7 - - F z.",
"} g g t b b @.F Y Y.N.J j A G.Z.w.+ #.#.J.S.J.^ ^ ^ r t.^.^.^.^.^.^.`.b i p. +.+{ ++I.#.g n v _ < < } i.@+- Q 0 u 7 - } #+a C $+",
"} g g ; W p.A X ^ s = ).F B o %+Z.@.i C #.l s s D / ^ &+^.^.^.^.^.^.^.t.F F 3 d d C K * J v n ` w < < 4 r - t x x t 4 > l a F X ",
"} } U g Q + F C Q #.- #.A -.L *+k.-.W i F E @.&.0 s = $.^.^.^.^.^.^.^.^.=+K i.t t r r = g & J T U : 0 * 3 - 4 3 0 &.t > &.z f z ",
"& 2 6 5 Q   . ] '.Y J -+&.b y } ;+z A B >+a.A W j J ,+^.^.^.^.^.^.^.^.^.C.'+g [ )+)+} t Q %./ ` 5 T < 0 > 7 &.b x t } &.;+R.!+H.",
"/ 2 [ 6 J C 0 Q '.I 2 u Q 8 : u @.H.A >.~+L.{+j.).Y E.^.^.^.^.^.^.^.^.^.^.]+^+/+[ w } } - &.J J _ N.r x.X (+&.8 &.r &.} > y V X ",
"Y Q #.J N.#.D '._ & 5 5 _ ` H r '.k.o.n.{ _+F.V.] s.^.^.^.^.^.^.^.^.^.^.^.^.:+<+/+} - i.X ] $+[+a.O.*+X X &.- } g * S * Q 7 3 W ",
"+ ] 1.}+#   #.Y _ _ ` |+` =.S = - + {+N d._+1+N 2+^.^.^.^.^.^.^.^.^.^.^.^.^.^.u.3+)+i.d d , o i.V.p }.>., j L l.* 0 u 1 t t < y ",
"Q.P.A.z.z.P.+ '.).s (+1 H r T Y '.C F w.{ ..m.4+u.^.^.^.^.^.^.^.^.^.^.^.^.^.^.^.u.5+t f  +6+p.y.7+8+9+0+N |.p.(.'.G a+M.Z ( m 1 ",
"j.O ~.O A.. [+# i y J.{./ / S Y '.Y + A.+ { b+9.^.^.^.^.^.^.^.^.^.^.^.^.^.^.^.^.^.^.c+i f p.p.d+e+f+g+9+}.M [+i.).- 1 v S *.)+X.",
"P.A.~.~.+ o.@ A.(.W 0 = 2 g v [ S ` Q z.h+.+i+^.^.^.^.^.^.^.^.^.^.^.^.^.^.^.^.^.^.^.^.j+k+,.6+l+p m+^.n+..l+y.f ).a t } h < r M.",
"..j.N n.{ @ j.@.(.$+s Q v v [ v _ T Y.l z.o+^.^.^.^.^.^.^.^.^.^.^.^.^.^.^.^.^.^.^.^.^.^.u.p+q+r+s+u.^.r.~.o.p.f i F x Q 7 _ > G ",
"}+c.A.j.w.h+j.F C x.u [ t+u+'+| =./+T J v+^.^.^.^.^.^.^.^.^.^.^.^.^.^.^.^.^.^.^.^.^.^.^.^.u.w+z x+u.^.y+. o d H.i X ;+3 } } (+z+",
"# }+P ~.] A+P.P.V E 0 ( r.^.^.B+C+H T 5+^.^.^.^.^.^.^.^.^.^.^.^.^.^.^.^.^.^.^.^.^.^.^.^.^.^.u.D+^.E+F+G+] A A W H+4 > 4 t )+7.z+",
"+ + . A.A.A.P P.] Q Y = I+D.$.^.^.h.9+^.^.^.^.^.^.^.^.^.^.^.^.^.^.^.^.^.^.^.^.^.^.^.^.^.^.^.^.j+J+K+L+X ).[+-.c W t > 8 ; > 7.S.",
"  . P O ~.O n.o.@.}+).9 x M+N+t+^.^.E+^.^.^.^.^.^.^.^.^.^.^.^.^.^.^.^.^.^.^.^.^.^.^.^.^.^.^.^.^.O+P+Q+- V 4 3 c x i.x x < 8 0.0.",
"  ~.A.{ N  .N O p.d i i = R+N+N+S+^.^.O+^.^.^.^.^.^.^.^.^.^.^.^.^.^.^.^.^.^.^.^.^.^.^.^.^.^.^.^.J+T+` %.x &.b b 4 t 7 &.x h 8 0.",
"z.P.j.j...2.2.N  .@ W i !+U+N+N+N+$.^.^.V+^.^.^.^.^.^.^.^.^.^.^.^.^.^.^.^.^.^.^.^.^.^.^.^.^.^.^.^.W+g } = - * t 4 7 b t 4 > 8 > ",
"j . O.Q.A+{ ..O N }+j - @.0 X+N+N+Y+^.^.u.$.^.^.^.^.^.^.^.^.^.^.^.^.^.^.^.^.^.^.^.^.^.^.^.^.^.^.^.:+- g &.= Q 0 i Q #.l 4 y b i ",
"Y Y O.Q.F.<...}.O P + @.l r Z+N+N+X+i+^.^.$.V+^.^.^.^.^.^.^.^.^.^.^.^.^.^.^.^.^.^.^.^.^.^.^.^.^.^.^.`+} Q Y 7 C l C E + L @.@.@.",
"(+D @.q.Q.O.A+h+A P C Q Q /  @N+N+N+.@^.^.^.+@^.^.^.^.^.^.^.^.^.^.i+@@#@u.^.^.^.F+K+$@%@^.^.^.^.^.^.g.)+r ^ r @.@.A A.o.N ..{ 4.",
"9 G * #.W A.. w.w.z.I.Y _ / )+Q+N+N+N+&@u.J+u.^.^.^.^.^.^.^.^.*@=@v.-@^.J+;@S+0+>@>@>@>@,@^.^.^.^.^.c+& / #.x.H.. o.O n.d.~.e.! ",
"(+( Q r s l q.H.I.$+y Y r : ( '@N+N+N+)@J+!@^.^.^.^.^.^.^.g+~@{@{@E.-@]@^@>@>@>@>@>@>@>@=@^.J+V+J+^.C.'.Q . w.h+O { A. .M 2.}.+.",
"0 * ^ g 0 * s z+a+7 V = &.* : /@(@N+N+_@^.:@^.^.^.^.^.^.j+4+>@>@<@[@>@>@>@>@>@>@>@>@>@>@^+^.J++@J+^.^.#.F z.O A+}@~.A.~.a.|@) ) ",
"y y c : S ( r ^ u 1 ^ Q * ^ / 1@C.L+N+2@^.:@^.^.^.^.^.^.3@>@>@>@>@>@>@>@>@>@>@>@>@>@>@>@>@$.J+4@^.^.^.5@+ ~.~.}@6@P [+Q * } -.K ",
":.x (+Q S * = s Y = r 7 Q g * _@^.:@=@g+J+4@^.^.J+V+J+/@>@>@>@>@>@>@>@>@>@>@>@>@>@>@>@>@>@o+J+7@^.^.^.^@o.A+n.j.h+A.1./ _ & x 4 ",
": t } g } b -.f k |.] X ] j @.D.^.V+!@C.^.$.^.^.^.E+^.8@>@>@[@R+,+5@>@>@>@>@>@>@>@9@L+0@5@-@^.E+^.^.^.y q.d ~..+j.. C / & /+m Z ",
": [ h !+-.A ,  +l+..N >.O o.o.a@^.$.^.$.x+x+^.^.J+<@C.4+>@>@b@c@c@T+>@>@>@>@>@>@d@e@^@e@>@F+i+^.9.^.^.x.i [+a. +a.A.$ D S w Z =.",
"v i.@+i.X d ~.>.}.2.{ p 4.4.4.<@^.u.C.^.J++@^.^.K+>@f@,+>@>@>@>@>@>@>@>@>@>@>@>@>@>@>@>@ @;@!@^.$.^.j+* - 7 6+a.A @.l r & m Z )+",
"g g - - ; g@o ..2.m.N 4.4.+.h@d.u.^.V+^.^.O+^.^. @>@U.<@>@>@>@>@>@>@>@>@>@>@>@>@>@>@>@>@b+{@i@^.!@^.j@/ l (.j H.a.A F Y s ( =.=.",
"} 8 - i.i.,.|. +@ O N ~ O d.d.}@k@^.F+^.^.j+^.J+,+>@>@>@>@>@>@>@>@>@>@>@>@>@>@>@>@>@>@>@>@>@3@^.4@^.l@- l V $+@.$+A -.F s _ | ( ",
"i.K k K ) ) [.) n.O h+P j.j.%+O.f.^.^.4@^.^.!@J+m@>@>@>@>@>@>@>@>@>@{@{@5@^+n@o@n@,+>@>@>@>@<@^.4@9.* - g @.f ] [+d O.A z.l ` *.",
"K ) o 7+3.+.W.' 4.O M >+@.q z.Y r x+^.j+C.^.!@u.i+p@>@>@>@>@>@>@>@q@L+r@s@s@s@s@s@t@{@>@>@>@u@^.$.n+* r b 7 Q '._.o w..+. [+i #.",
";.v@' w@x@y@x@y@3.N |.p.i C (.^ & ~@^.^.z@g+J+@@&@^.D.b+>@>@>@>@>@>@3@A@s@s@s@s@B@v.>@>@>@b+-@+@2@0 = &.S Q Q 0 C A..+ +y.[+j ] ",
"e.v@y@y@x@5.h@e+3.M d 3 f 3 -.c Y * /@F+^ <+1@,+Z+h.^.o+e@>@>@>@>@>@>@d@b@c@C@^@>@>@>@>@d@#@g+=@^+r 7 r 9 #./ _ Y . ~.O ..3.P y.",
"D@D@f+8+E@f+y@p ) y.q+; c -.H.z.!+Q U..@&.* Q 7 [+6+9+9.u.i@n@>@>@>@>@>@>@>@>@{@>@>@>@<@;@S+F@G.6+X X @.0 ^ T '.J # ~...4.h+@ q ",
"{+~+[.p ! h@e+p V.d+, 3 W &.t 3 Y @.C A H.c X o i.|.k  .t.C.C.G@~@s+>@>@>@{@>@{@v.H@I@j+p+c@[.y@) B  +d ] ).^ ` ^ #.c.c.{ A.q q ",
"++o.>.L.4.! ' ! m., f - x &.7 7 y a.-.X @.A , X l+k  +M N V.l@J@9.u.j+K@K@K@!@g+J+L@n+v@M@N@O@y@y@P@) ) 1.s ^ ^ _ }+_.+ A.z.+ ^ ",
"c H.H+e A.~.M >.+ @.y > 7 : < } < l W ] -., W X W [+p. +o  +Q@)@R@R@S@4@+@O+T@R ^+3.x@5.!.U@U@U@V., f _.r * h 1 r i 6+6+o.I.-+s ",
"F X -.d O + @ @ k (.&.r t 0.} < r Q 3 C -.A W 4 Q W z *+.+V@^.W@R@R@R@g+^.^.^.^.X@+.E@U@U@U@E@U@' ;.,._.J ^ s 0 ).(.C W q.-+% l ",
"r = r = '.N.'.#.&.'.c c 3 3 3 i.* > -.c f i.- _.- > -.V A 9.^.Y@R@R@R@R@&+g+^.^.j@h@5.x@f+f+f+5.y@w@P@) _.@+x t '.- a 7 0 c D #.",
")+T %.= Y J / 1.Y = - b (+} 3 4 * Q 4 i.W c 4 a g * b y z q@Z@U+R@R@R@R@d@n@,+y+M L.M@6.f+6.M@!.E@y@w@b., r+g u ^ r = &.* :.9 9 ",
"=./ / T Y.Y./ :.9 *.2 t i.v i.3 4 : 7 i.L &.r & %./ - r (.b 8 w+F+`@R@R@ #C H.p.6+O D@O@6.6.f+!..#y@w@p B o 8 4 X.X.w w v x 7.M.",
"S = / _ T T T T H ` & < | | < i.4 } 4 &.; r / & =./ 2 _ Q ].c+^.J+J+`@W@u.9@V $ 6+{ f+6.M@f+5.5..#y@8+L.B B b g < X.w [ /+1 7.M.",
"0 r a a J N.T I Y._ [ | v [ i.X.: } 4 t 4 )+S w | w & - +#J+^.^.J@b+& Z@^.u.9@<+e@>.4.e.M@f+x@+.7+m.i.}.) ) 8 7 [ Z )+/+w : 0.M.",
"* Q / '.'._.Y J s s < 8 [ X.} Z [ [ * t t )+[ ` H ` S Q @#V+$.3+w /+S & `.^.u.R@##A  +h@h@6.h@3., ,.P@m.o f L - v [ )+X.[ } 8 K ",
"Z / '.Y #   A.+ #.1.i J.7 * = * w [ X.< } [ | | 5 ` t i.C@R@3@(+t = } [ 0 $#$.R@J @.A >+>+4.n.~.p.] P P  +~.o.+ &.%.= s * * u > ",
"^ E E 1.. w.  . + [+i l u Y * S [ w < Z Z [ = 2 %.g t 4 i.%#&#z+t : } %.= & M+` I a C c.O @ P @.+ k P O L.{ O h+d i ^ J * 0 b 0 ",
"1.1.y.O P.A+{ { o.|.@.W 0.( )+< | w X.( < } v v N.Q 6+o -.z !+;+< w } x g r _ _ _ a j [+P ..[+[+r+}+@ 4.d.4.h@d...6+i (.- 0 * :.",
"  A.P.n.P.d.{ { o.. H.-+0 [ Z [ w Z } > > v U g '.d X |.,.H+;+t ( w &.#+7 ).a a - #+(.f .+.+>. +6+@ M L.d.h@_+_+j.@ q Y - ^ * :.",
"N  .O { n.d.{ N }+f y 8 x < =.w [ )+: < Q @.i r+k A V.B ;.e f - [ g i.B , , , i.q+i.i.G.[.<.L., |.|. +V.O n.n.n.A.A.@.(.r ^ * :.",
"O + O n...{ { + k H.-.l.7.< )+[ [ } g i.y H.(.d |.|.}...b.e y } [ < i.b.}.~+' ) , ,.o , L.L.;.{+, f p.B h+h+w.w.+ E C #.r ^ ( 1 ",
"2.. w.~.A.~.@ }+C C $ ;+8 8 3 } } x - W d ,.A [+ .m.w@O ~+e -.4 : 4 ) *#7+8+e.7+}.P@k ,., { ;.;.H+> &.V $+C x.z.E Q 0 D m S ( Z ",
"+ q P A.+ . + ] ).E V 0.K K 3 4 t t ; r+d d k  .|...W.~+;.B ;+b 3 ; 7+y@*#=#=#y@[.;.k i.B L.;.-.z > 3 t ^ ^ ^ ^ Q Q 9 J.1 m =.*."};
