/* XPM */
static char *result[] = {
/* columns rows colors chars-per-pixel */
"64 64 169 2 ",
"   c #010001",
".  c #0E0909",
"X  c #130205",
"o  c #220005",
"O  c #2E2A2B",
"+  c #362527",
"@  c #343232",
"#  c #5D000C",
"$  c #550C15",
"%  c #58131B",
"&  c #68000D",
"*  c #71000F",
"=  c #6E0916",
"-  c #680613",
";  c #7D0E1C",
":  c #6B111D",
">  c #75111E",
",  c #681823",
"<  c #771925",
"1  c #57393E",
"2  c #66252E",
"3  c #70262F",
"4  c #79212C",
"5  c #6B2B34",
"6  c #672D34",
"7  c #6C333B",
"8  c #663D43",
"9  c #743F48",
"0  c #4B4849",
"q  c #544348",
"w  c #555254",
"e  c #595759",
"r  c #5C5759",
"t  c #694046",
"y  c #66444A",
"u  c #6E4E53",
"i  c #675558",
"p  c #695A5D",
"a  c #705A5D",
"s  c #715F62",
"d  c #666769",
"f  c #6D6D6E",
"g  c #686265",
"h  c #77676A",
"j  c #6E6B79",
"k  c #7B6E71",
"l  c #766B70",
"z  c #757678",
"x  c #7C7779",
"c  c #7D7B7C",
"v  c #7C7274",
"b  c #840112",
"n  c #8C0112",
"m  c #8C0718",
"M  c #820F1D",
"N  c #8C0C1C",
"B  c #930113",
"V  c #9B0215",
"C  c #920718",
"Z  c #970E1F",
"A  c #9C0C1E",
"S  c #85111F",
"D  c #A30115",
"F  c #AC0116",
"G  c #A7061A",
"H  c #AB0419",
"J  c #A6081C",
"K  c #B20117",
"L  c #B4041A",
"P  c #BB031A",
"I  c #B00A1F",
"U  c #831E2B",
"Y  c #9D1B2C",
"T  c #981122",
"R  c #B20D21",
"E  c #BD0C22",
"W  c #A31326",
"Q  c #A11E2F",
"!  c #AA162A",
"~  c #B41025",
"^  c #BA162A",
"/  c #8C2F3C",
"(  c #932634",
")  c #8E313F",
"_  c #A12031",
"`  c #C5021A",
"'  c #CC031C",
"]  c #D3021C",
"[  c #DB031D",
"{  c #E5021E",
"}  c #EB021F",
"|  c #F1021F",
" . c #D30720",
".. c #DA0620",
"X. c #D00A22",
"o. c #E40420",
"O. c #F50220",
"+. c #FF0221",
"@. c #8A3B46",
"#. c #883F49",
"$. c #843D47",
"%. c #953543",
"&. c #87414D",
"*. c #8B4B54",
"=. c #88545D",
"-. c #875A60",
";. c #8C5B65",
":. c #8A6167",
">. c #89646B",
",. c #94656C",
"<. c #946C73",
"1. c #986A70",
"2. c #8E737A",
"3. c #767282",
"4. c #7E7A8B",
"5. c #887F81",
"6. c #997E85",
"7. c #828183",
"8. c #898384",
"9. c #8B8B8D",
"0. c #8A868B",
"q. c #958286",
"w. c #9B838A",
"e. c #998688",
"r. c #8F8A9E",
"t. c #8A8893",
"y. c #9C8E91",
"u. c #8F9194",
"i. c #929295",
"p. c #9B9395",
"a. c #929598",
"s. c #9C9B9D",
"d. c #A28488",
"f. c #A28D93",
"g. c #A99197",
"h. c #AA969B",
"j. c #AA989E",
"k. c #A69397",
"l. c #9C9EA1",
"z. c #A09FA0",
"x. c #AE9DA0",
"c. c #A4A3A4",
"v. c #A7A2A8",
"b. c #A9A7A8",
"n. c #ACACAD",
"m. c #B6AFB3",
"M. c #B1B1B2",
"N. c #B5B5BC",
"B. c #BAB7B8",
"V. c #BBBABC",
"C. c #C3B3B5",
"Z. c #BEBFC0",
"A. c #BDC0C7",
"S. c #BDC2C8",
"D. c #C3C4C5",
"F. c #C8C0C2",
"G. c #C5C7CB",
"H. c #CBC7C8",
"J. c #C7C8CE",
"K. c #CCCCCD",
"L. c #D1CDCD",
"P. c #CCCED3",
"I. c #D3D3D4",
"U. c #DCDCDD",
"Y. c #D5D5D9",
"T. c #DFE0E1",
"R. c #E4E5E6",
"E. c #E6E7E8",
"W. c None",
/* pixels */
"W.W.W.W.W.W.W.W.W.W.W.W.W.W.W.W.W.W.W.W.W.W.W.W.W.W.W.W.W.W.W.W.W.W.W.W.W.W.W.W.W.W.W.W.W.W.W.W.W.W.W.W.W.W.W.W.W.W.W.W.W.W.W.W.",
"W.W.W.W.W.W.W.W.W.W.W.W.W.W.W.W.W.W.W.W.W.W.W.W.W.W.W.W.W.W.W.W.W.W.W.W.W.W.W.W.W.W.W.W.W.W.W.W.W.W.W.W.W.W.W.W.W.W.W.W.W.W.W.W.",
"W.W.W.W.W.W.W.W.W.W.W.W.W.W.W.W.W.W.W.W.W.W.W.W.W.W.W.W.W.y.W.W.W.W.W.W.W.W.W.W.W.W.W.W.W.W.W.W.W.W.W.W.W.W.W.W.W.W.W.W.W.W.W.W.",
"W.W.W.W.W.W.W.W.W.W.W.W.W.W.W.W.W.W.W.W.W.W.W.W.W.W.W.W.W.' W.W.W.W.W.W.W.W.W.W.W.W.W.W.W.W.W.W.W.W.W.W.W.W.W.W.W.W.W.W.W.W.W.W.",
"W.W.W.W.W.W.W.W.W.W.W.W.W.W.W.W.W.W.W.W.W.W.W.W.W.W.W.W.H.+.,.W.W.W.W.W.W.W.W.W.W.W.W.W.W.W.W.W.W.W.W.W.W.W.W.W.W.W.W.W.W.W.W.W.",
"W.W.W.W.W.W.W.W.W.W.W.W.W.W.W.W.W.W.W.W.W.W.W.W.W.W.W.W.6.+.o.W.W.W.W.W.W.W.W.W.W.W.W.W.W.W.W.W.W.W.W.W.W.W.W.W.W.W.W.W.W.W.W.W.",
"W.W.W.W.W.W.W.W.W.W.W.W.W.W.W.W.W.W.W.W.W.W.W.W.W.W.l W.=.+.+.%.W.W.W.W.W.W.W.W.W.W.W.W.W.W.W.W.W.W.W.W.W.W.W.W.W.W.W.W.W.W.W.W.",
"W.W.W.W.W.W.W.W.W.W.W.W.W.W.W.W.W.W.W.W.W.W.W.W.W.W.<.#.*.+.+.O.V.W.W.W.W.W.W.W.W.W.W.W.W.W.W.W.W.W.W.W.W.W.W.W.W.W.W.W.W.W.W.W.",
"W.W.W.W.W.W.W.W.W.W.W.W.W.W.W.W.W.W.W.W.W.W.W.W.W.W.W.} < +.+.+.E W.W.W.W.W.W.W.W.W.W.W.W.W.W.W.W.W.W.W.W.W.W.W.W.W.W.W.W.W.W.W.",
"W.W.W.W.W.W.W.W.W.W.W.W.W.W.W.W.W.W.W.W.W.W.W.W.W.W.W.! +.+.+.+.+.,.W.W.W.W.W.W.W.W.W.W.W.W.W.W.W.W.W.W.W.W.W.W.W.W.W.W.W.W.W.W.",
"W.W.W.W.W.W.W.W.W.W.W.W.W.W.W.W.W.W.W.W.W.W.W.W.W.W.W.$.+.+.+.+.+.O.Y.W.W.W.W.W.W.W.W.W.W.W.W.W.W.W.W.W.W.W.W.W.W.W.W.W.W.W.W.W.",
"W.W.W.W.W.W.W.W.W.W.W.W.W.W.W.W.W.W.W.W.W.W.W.W.W.W.W.*.+.+.+.+.+.+.~ W.W.W.W.W.W.W.W.W.W.W.W.W.W.W.W.W.W.W.W.W.W.W.W.W.W.W.W.W.",
"W.W.W.W.W.W.W.W.W.W.W.W.W.W.W.W.W.W.W.W.W.W.W.W.W.W.W.) +.+.+.+.+.+.+.*.W.W.W.W.W.W.W.W.W.W.W.W.W.W.W.W.W.W.W.W.W.W.W.W.W.W.W.W.",
"W.W.W.W.W.W.W.W.W.W.W.W.W.W.W.W.W.W.W.W.W.W.W.W.W.W.W.' +.+.+.+.+.+.+.+.x.W.W.W.W.W.W.W.W.W.W.W.W.W.W.W.W.W.W.W.W.W.W.W.W.W.W.W.",
"W.W.W.W.W.W.W.W.W.W.W.W.W.W.W.W.W.W.W.W.W.W.W.W.W.W.B.+.+.+.+.+.+.+.+.+.} J.W.W.W.W.W.W.W.W.W.W.W.W.W.W.W.W.W.W.W.W.W.W.W.W.W.W.",
"W.W.W.W.W.W.W.W.W.W.W.W.W.W.W.W.W.W.W.W.W.W.W.W.W.W.E +.+.+.+.+.+.+.+.+.+...P.W.W.W.W.W.W.W.W.W.W.W.W.W.W.W.W.W.W.W.W.W.W.W.W.W.",
"W.W.W.W.W.W.W.W.W.W.W.W.W.W.W.W.W.W.W.W.W.W.W.W.W.#.+.+.+.+.+.+.+.+.+.+.+.+. .K.W.W.W.W.W.W.W.W.W.W.W.W.W.W.W.W.W.W.W.W.W.W.W.W.",
"W.W.W.W.W.W.W.W.W.W.W.W.W.W.W.W.W.W.W.W.W.W.W.W.d.+.+.+.+.+.+.+.+.+.+.+.+.+.+.O.j.W.W.W.W.W.W.W.W.W.W.W.W.W.W.W.W.W.W.W.W.W.W.W.",
"W.W.W.W.W.W.W.W.W.W.W.W.W.W.W.W.W.W.W.W.W.W.W.M.O.+.+.+.+.+.+.+.+.+.+.+.+.+.+.+.O.&.W.W.W.W.W.W.W.W.w.m.W.W.W.W.W.W.W.W.W.W.W.W.",
"W.W.W.W.W.W.W.W.W.W.W.W.W.W.W.W.W.W.W.W.W.W.U.o.+.+.+.+.+.+.+.+.+.+.+.+.+.+.+.+.+.+.R W.W.W.W.W.W.W.{ w.W.W.W.W.W.W.W.W.W.W.W.W.",
"W.W.W.W.W.W.W.W.W.W.W.W.W.W.W.W.W.W.W.W.W.W.] +.+.+.+.+.+.+.+.+.+.+.+.+.+.+.+.+.+.+.+.[ C.W.W.W.W.@.+.;.W.W.W.W.W.W.W.W.W.W.W.W.",
"W.W.W.W.W.W.W.W.W.W.W.W.W.W.W.W.W.W.W.W.W.I +.+.+.+.+.+.+.+.+.+.+.+.+.+.+.+.+.+.+.+.+.+.O.g.W.W.F.O.+.<.W.W.W.W.W.W.W.W.W.W.W.W.",
"W.W.W.W.W.W.W.W.W.W.W.W.7 :.J.W.W.W.W.W._ +.+.+.+.+.+.+.+.+.+.+.+.+.+.+.+.+.+.+.+.+.+.+.+.O.q.W.` O.+.h.W.W.W.W.W.W.W.W.W.W.W.W.",
"W.W.W.W.W.W.W.W.W.W.W.W.<.+.+.^ v.W.W.&.+.+.+.+.+.+.+.+.+.+.+.+.+.+.+.+.+.+.+.+.+.+.+.+.+.+.O.% +.n P S.W.W.W.W.W.W.W.W.W.W.W.W.",
"W.W.W.W.W.W.W.W.W.W.W.W.N.< ' +.+.%.w.+.+.+.+.+.+.+.+.+.+.+.+.+.+.+.+.+.+.+.+.+.+.+.+.+.+.+.+.[ | 6 z W.W.W.W.W.W.W.W.W.W.W.W.W.",
"W.W.W.W.W.W.W.W.W.W.W.W.W.0.a.7 +.+.n +.+.+.+.+.+.+.+.+.+.+.+.+.+.+.+.+.+.+.+.+.+.+.+.+.+.+.+.+.B p d W.W.W.W.W.W.W.W.W.W.W.W.W.",
"W.W.W.W.W.W.W.W.W.W.W.W.W.w a.a.t +.+.B +.+.+.+.+.+.+.+.+.+.+.+.+.+.+.+.+.+.+.+.+.+.+.+.+.+.+.+.| f W.W.W.W.W.W.W.W.W.W.W.W.W.W.",
"W.W.W.W.W.W.W.W.W.W.W.W.W.7.a.a.a.' +.+.D +.+.+.+.+.+.+.+.+.+.+.+.+.+.+.+.+.+.+.+.+.+.+.+.+.+.+.+.9 W.W.W.W.W.W.W.W.W.W.W.W.W.W.",
"W.W.W.W.W.W.W.W.W.W.W.W.W.W.u.a.a.y +.+.O.' +.+.+.+.+.+.+.+.+.+.+.+.+.+.+.+.+.+.+.+.+.+.+.+.+.+.+. .W.W.W.W.W.W.W.W.W.W.W.W.W.W.",
"W.W.W.W.W.W.W.W.W.W.W.W.W.W.e a.a.u.] +.+.' D +.+.+.+.+.+.+.+.+.+.+.+.+.+.+.+.+.+.+.+.+.+.+.+.+.+.+.L.W.W.W.W.W.W.W.W.W.W.W.W.W.",
"W.W.W.W.W.W.W.W.W.W.W.W.W.W.s.a.a.a.i +.+.+.V +.+.+.+.+.+.+.+.+.+.] = : O.+.+.+.P 6 b.s +.+.+.+.+.+.=.W.W.W.W.W.W.W.W.W.W.W.W.W.",
"W.W.W.W.W.W.W.W.W.W.W.W.W.W.W.d a.a.a.- O.| O.+.+.+.+.+.+.+.+.A 8.V.L +.| G t m.E.E.E.E.; +.+.+.+.+.R W.W.W.W.W.W.W.W.W.W.W.W.W.",
"W.W.W.W.W.W.W.W.W.W.W.W.W.W.W.+ a.a.a.T | K +.+.+.+.+.+.+.{ k R.R.E L u G.E.E.E.E.E.E.E.8.+.| D | +.} W.W.W.W.W.W.W.W.W.W.W.W.W.",
"W.W.W.W.W.W.W.W.W.W.W.W.W.W.W.M 1 a.a.U +.b +.+.+.+.+.+.[ M.E.E.c.c E.E.E.E.E.E.E.E.E.E.P.+.| V | +.+.W.W.W.W.W.W.W.W.W.W.W.W.W.",
"W.W.W.W.W.W.W.W.W.W.W.W.W.W.W.m } z a.Z +.b +.+.+.+.+.+.i.E.E.E.E.E.E.E.E.E.E.E.E.E.E.E.E.' | F +.+.+.I.W.W.W.W.W.W.W.W.W.W.W.W.",
"W.W.W.W.W.W.W.W.W.W.W.W.W.W.W.U +.b 8.{ | F +.+.| D | M E.E.E.E.E.E.E.E.E.E.E.E.E.E.E.E.E.I | * +.+.+.G.W.W.W.W.W.W.W.W.W.W.W.W.",
"W.W.W.W.W.W.W.W.W.W.W.W.W.W.W.< +.D K } +.' +.+.+.n +.h E.E.c w B.I.E.E.E.E.E.E.E.2.z 0 I.L +.n +.+.+.W.W.W.W.W.W.W.W.W.W.W.W.W.",
"W.W.W.W.W.W.W.W.W.W.W.W.W.W.W.8 +.' +.' ` ` +.+.| c.} M.E.E.z.9.9.f E.E.E.E.E.E.T.n.G.n.E.P ] +.o.+.+.W.W.W.W.W.W.W.W.W.W.W.W.W.",
"W.W.W.W.W.W.W.W.W.W.W.W.W.W.W.c.+.O.} +.| V +.+.6 E.5 B.E.E.E.E.E.E.E.E.E.E.E.E.E.E.E.E.s.G K +.' +.[ W.W.W.W.W.W.W.W.W.W.W.W.W.",
"W.W.W.W.W.W.W.W.W.W.W.W.W.W.W.W.O.+.D +.+.B +.+.s.E.Y.c.E.E.E.E.E.E.E.E.E.E.E.E.E.E.E.E.U.R.3 +.K +.( W.W.W.W.W.W.W.W.W.W.W.W.W.",
"W.W.W.W.W.W.W.W.W.W.W.W.W.W.W.W.C +.P +.+.[ +.| B.E.E.E.E.E.E.E.E.E.E.E.E.E.E.E.E.E.E.E.E.E.i.+.F +.f.W.W.W.W.W.W.W.W.W.W.W.W.W.",
"W.W.W.W.W.W.W.W.W.W.W.W.W.W.W.W.l +.+.F +.+.K | $ E.E.E.E.E.E.E.E.E.R.R.I.P.D.Z.D.B.E.E.E.E.c.+.F o.W.W.W.W.W.W.W.W.W.W.W.W.W.W.",
"W.W.W.W.W.W.W.W.W.W.W.W.W.W.W.W.W.` +.[ } +.K O.] 4 E.E.E.E.E.E.E.A.z t.r.r.r.r.r.3.R.E.E.E.a +.' ;.W.W.W.W.W.W.W.W.W.W.W.W.W.W.",
"W.W.W.W.W.W.W.W.W.W.W.W.W.W.W.W.W.k +.+.r { | = - +.< U.E.E.E.E.E.E.i.4.r.r.r.r.j V.E.E.E.U.L V Z W.W.W.W.W.W.W.W.W.W.W.W.W.W.W.",
"W.W.W.W.W.W.W.W.W.W.W.W.W.W.W.W.W.W.M P W.K.m B.e %.+.I n.E.E.E.E.E.E.T.z.9.l.G.E.E.E.E.T.: { 8.P.W.W.W.W.W.W.W.W.W.W.W.W.W.W.W.",
"W.W.W.W.W.W.W.W.W.W.W.W.W.W.W.W.W.W.Y.i W.W.W.W.W.W.w.o.O.3 D.E.E.E.E.E.E.E.E.R.E.E.E.c.G t 2 W.W.W.W.W.W.W.W.W.W.W.W.W.W.W.W.W.",
"W.W.W.W.W.W.W.W.W.W.W.W.W.W.W.W.W.W.W.W.W.W.W.W.W.W.W.W.*.} } > k F.E.E.E.R.E.R.V.g N [ g.9.W.W.W.W.W.W.W.W.W.W.W.W.W.W.W.W.W.W.",
"W.W.W.W.W.W.W.W.W.W.W.W.W.W.W.W.W.W.W.W.W.W.W.W.W.W.W.W.W.W.f.Q o.O.[ H H H K { | X.;.W.W.W.W.W.W.W.W.W.W.W.W.W.W.W.W.W.W.W.W.W.",
"W.W.W.W.W.W.W.W.W.W.W.W.W.W.W.W.W.W.W.W.W.W.W.W.W.W.W.W.W.W.k.T     o F V B , y.P.W.W.W.W.W.W.W.W.W.W.W.W.W.W.W.W.W.W.W.W.W.W.W.",
"W.W.W.W.W.W.W.W.W.W.W.W.W.W.W.W.W.W.W.W.W.W.W.W.W.W.W.W.W./ +.&       { +.+.+.+.>.W.W.W.W.W.W.W.W.W.W.W.W.W.W.W.W.W.W.W.W.W.W.W.",
"W.W.W.W.W.W.W.W.W.W.W.W.W.W.W.W.W.W.W.W.W.W.W.W.W.W.W.W.W.o.+.#         ) { +.+.( W.W.W.W.W.W.W.W.W.W.W.W.W.W.W.W.W.W.W.W.W.W.W.",
"W.W.W.W.W.W.W.W.W.W.W.W.W.W.W.W.W.W.W.W.W.W.W.W.W.W.W.W.W.A.W 7.        T.D.B.h.W.W.W.W.W.W.W.W.W.W.W.W.W.W.W.W.W.W.W.W.W.W.W.W.",
"W.W.W.W.W.W.W.W.W.W.W.W.W.W.W.W.W.W.W.W.W.W.W.W.W.W.W.W.W.W.W.q.P X     @ W.W.W.W.W.W.W.W.W.W.W.W.W.W.W.W.W.W.W.W.W.W.W.W.W.W.W.",
"W.W.W.W.W.W.W.W.W.W.W.W.W.W.W.W.W.W.W.W.W.W.W.W.W.W.W.W.W.H.R +.| | X & O.2.W.W.W.W.W.W.W.W.W.W.W.W.W.W.W.W.W.W.W.W.W.W.W.W.W.W.",
"W.W.W.W.W.W.W.W.W.W.W.W.W.W.W.W.W.W.W.W.W.W.W.W.W.W.W.W.e.| +.+.Q U.W.W +.O.2.K.n.W.W.W.W.W.W.W.W.W.W.W.W.W.W.W.W.W.W.W.W.W.W.W.",
"W.W.W.W.W.W.W.W.W.W.W.W.W.W.W.W.W.W.W.W.W.W.W.W.W.W.W.W.. D ' j.W.W.W.W.~ +.O.  O W.W.W.W.W.W.W.W.W.W.W.W.W.W.W.W.W.W.W.W.W.W.W.",
"W.W.W.W.W.W.W.W.W.W.W.W.W.W.W.W.W.W.W.W.W.W.W.W.W.W.W.W.l.  i.W.W.W.W.W.W.Y '   W.W.W.W.W.W.W.W.W.W.W.W.W.W.W.W.W.W.W.W.W.W.W.W.",
"W.W.W.W.W.W.W.W.W.W.W.W.W.W.W.W.W.W.W.W.W.W.W.W.W.W.W.W.W.q 5.W.W.W.W.W.W.W.0.W.W.W.W.W.W.W.W.W.W.W.W.W.W.W.W.W.W.W.W.W.W.W.W.W.",
"W.W.W.W.W.W.W.W.W.W.W.W.W.W.W.W.W.W.W.W.W.W.W.W.W.W.W.W.W.W.W.W.W.W.W.W.W.W.W.W.W.W.W.W.W.W.W.W.W.W.W.W.W.W.W.W.W.W.W.W.W.W.W.W.",
"W.W.W.W.W.W.W.W.W.W.W.W.W.W.W.W.W.W.W.W.W.W.W.W.W.W.W.W.W.W.W.W.W.W.W.W.W.W.W.W.W.W.W.W.W.W.W.W.W.W.W.W.W.W.W.W.W.W.W.W.W.W.W.W.",
"W.W.W.W.W.W.W.W.W.W.W.W.W.W.W.W.W.W.W.W.W.W.W.W.W.W.W.W.W.W.W.W.W.W.W.W.W.W.W.W.W.W.W.W.W.W.W.W.W.W.W.W.W.W.W.W.W.W.W.W.W.W.W.W.",
"W.W.W.W.W.W.W.W.W.W.W.W.W.W.W.W.W.W.W.W.W.W.W.W.W.W.W.W.W.W.W.W.W.W.W.W.W.W.W.W.W.W.W.W.W.W.W.W.W.W.W.W.W.W.W.W.W.W.W.W.W.W.W.W.",
"W.W.W.W.W.W.W.W.W.W.W.W.W.W.W.W.W.W.W.W.W.W.W.W.W.W.W.W.W.W.W.W.W.W.W.W.W.W.W.W.W.W.W.W.W.W.W.W.W.W.W.W.W.W.W.W.W.W.W.W.W.W.W.W.",
"W.W.W.W.W.W.W.W.W.W.W.W.W.W.W.W.W.W.W.W.W.W.W.W.W.W.W.W.W.W.W.W.W.W.W.W.W.W.W.W.W.W.W.W.W.W.W.W.W.W.W.W.W.W.W.W.W.W.W.W.W.W.W.W."
};
