/* XPM */
static char *result[] = {
/* columns rows colors chars-per-pixel */
"64 64 136 2 ",
"   c #553E17",
".  c #583D16",
"X  c #563E1A",
"o  c #5B3C1D",
"O  c #613E1F",
"+  c #5D3720",
"@  c #5E3C21",
"#  c #633D23",
"$  c #693F25",
"%  c #6C3F29",
"&  c #3E4F0B",
"*  c #375607",
"=  c #3C5506",
"-  c #365D04",
";  c #3B5A05",
":  c #3E5409",
">  c #3E5D09",
",  c #356402",
"<  c #3C6405",
"1  c #346C02",
"2  c #3B6C04",
"3  c #346708",
"4  c #3D6309",
"5  c #3E6A09",
"6  c #357102",
"7  c #3B7203",
"8  c #3E7A04",
"9  c #4C460E",
"0  c #454D0C",
"q  c #4A4B0D",
"w  c #435407",
"e  c #435B07",
"r  c #43530B",
"t  c #4A540D",
"y  c #445B0B",
"u  c #4A5B0E",
"i  c #4D4512",
"p  c #4D4C13",
"a  c #4F4F18",
"s  c #534315",
"d  c #594217",
"f  c #524B15",
"g  c #554319",
"h  c #5A411C",
"j  c #534A19",
"k  c #455211",
"l  c #4D5313",
"z  c #465C11",
"x  c #4A5B11",
"c  c #525213",
"v  c #515D13",
"b  c #5A5F14",
"n  c #585C18",
"m  c #62411F",
"M  c #66511F",
"N  c #63591C",
"B  c #6A5D1F",
"V  c #426206",
"C  c #426906",
"Z  c #43630B",
"A  c #4C630B",
"S  c #426A09",
"D  c #4C6B0D",
"F  c #536A0D",
"G  c #447C04",
"H  c #487A07",
"J  c #44720A",
"K  c #4B7409",
"L  c #45780B",
"P  c #50750D",
"I  c #4F6810",
"U  c #566610",
"Y  c #5F631B",
"T  c #5B7011",
"R  c #5B7817",
"E  c #64641D",
"W  c #6D631F",
"Q  c #636C1A",
"!  c #65741A",
"~  c #5F4120",
"^  c #654124",
"/  c #6A4226",
"(  c #6E4B27",
")  c #6D4429",
"_  c #6E482C",
"`  c #714527",
"'  c #704C27",
"]  c #72462B",
"[  c #754A2C",
"{  c #7A4D2E",
"}  c #665024",
"|  c #695425",
" . c #6A5B22",
".. c #725529",
"X. c #7D512E",
"o. c #725B28",
"O. c #7A5A2C",
"+. c #774B30",
"@. c #7D4E31",
"#. c #7E5031",
"$. c #6D6122",
"%. c #6C6B24",
"&. c #746526",
"*. c #746328",
"=. c #79652A",
"-. c #7F6A2E",
";. c #81512F",
":. c #804F31",
">. c #835333",
",. c #895735",
"<. c #845833",
"1. c #8A5936",
"2. c #875739",
"3. c #8A5739",
"4. c #875839",
"5. c #8D5B39",
"6. c #925E3B",
"7. c #846735",
"8. c #886832",
"9. c #8F683A",
"0. c #95613E",
"q. c #99643F",
"w. c #92683A",
"e. c #9A683F",
"r. c #976340",
"t. c #9D6642",
"y. c #9F6844",
"u. c #A06743",
"i. c #A06843",
"p. c #468104",
"a. c #4A8404",
"s. c #4D8803",
"d. c #4A830A",
"f. c #528B05",
"g. c #518C09",
"h. c #579007",
/* pixels */
"{ #.>.{ X ] r.y.y.5.] # :.q.y.q.y.y.y.i.i.m o q 2 w d ;.0.t.r.{ [ >.0.,.< [ >.i.y.y.y.y.y.u.i.y.y.>.q @.y.0.>.X.{ X.` % ,.y.y.6.",
"O #.@.[ l ] _ ) / / $ : o # / ` ] #.>.{ [ s h 6.0.{ [ ] / # o @ X X i 3 6 i [ { 6.y.y.u.y.y.i.y.*.T 7 t . o o # ` ) 0 [ 5.y.q.0.",
"2 0 0 = Z t r q p q 1 O ) / o s 0 w = < 1 p 2.y.6.>.y.y.y.y.r.#.,.>.{ Z S ) o o { 6.y.y.u.y.y.0.2 8 p.q.6.>./ o r 1 2 i ) >.i.0.",
"^ { { >.6.r.y.q.r.+.5 ^ q.r.t.r.6.5.{ g 6 [ y.y.y.y.y.y.y.y.4.#.y.y.@.y Z :.6.` + @ @.6.y.y.t.{ 7 g.D 7.u.>.y.y.o g @.o ; i ) ,.",
") y.y.y.y.y.y.y.6.{ 5 ^ 0.6.y.y.y.0.) , f t.y.y.y.y.y.y.y.y.y.y.y.y.@.y z 5.y.0.#./ X O @.q.#. .6 , =.y.t.6.y.` e [ y.0.{ @ Z 0 ",
"o >.,.y.u.y.y.y.0.{ < # y.1.y.y.i.>.@ 7 ] y.y.y.y.y.y.y.y.y.y.y.5.,.:.u g 5.u.y.y.t.>.O 0 @ @.y A o.u.y.y.>.#.X g 6.y.y.w.6.o ^ ",
"- # 1.y.y.y.y.t.q.{ < ^ y.y.u.y.y.#.p f 5.y.y.y.y.u.i.i.y.t.5.5.r.t.:.t @ >.t.t.r.y.t.t.` X ,   6.y.y.y.6.q.[ e ` t.6.y.u.:.o 6.",
"/ > # 5.y.y.y.6.X.` 2 $ r.y.y.y.t.{ < ) y.>.y.y.@.3.i.y.y.y.y.3.5.y.O.2 u y.0.@.X.t.y.,.t.[ Z { y.y.y.,.6.,.o f >.>.6.y.y.+.o r.",
"5.# > % ,.y.,.@.o ; C r o :.y.0.0.^ Z { X.2.r.5.@.#.y.u.y.i.y.2.>.w.U a.| y.i.y.y.y.6.6.@.  y s 0.y.y.y.t.[ , / >.y.y.y.0.# # 1.",
"y.>./ 0 ) 0.@.r f [ ,.[ @ q # ^ X r 6 ; w i d @ # ) { >.1.6.q.#.6.0.K 8 P q.y.t.6.y.6.{ s s >.s # >.y.5.0.o y 1.u.i.y.y.{ o ^ >.",
"6.#.X.[ i ^ d u { u.i.q.,.) 5 y d @ h o d p l y 4 1 , : q o # _ { <.a.7 8 q.6.#.r.r.{ s f 6.t.[ r @.y.r.` , o y.y.i.i.y.{ g / y.",
"0.5.y.t.{ i < ) 0.e.i.y.y.@.o #.r.y.t.>.#.r.6.3.>.+._ # @ d s r * ; 6 1 6 ~ { 5.y.X.i l 2.q.6.q.o s y.r.d 2 #.y.y.q.q.y.>.f # ,.",
"y.y.y.t.3.$ # #.q.5.t.y.>.>.# +.y.y.y.y.2.6.y.y.y.y.y.y.y.2.>.,.1.[ h 2 d.7 - o { 0 f 4.y.y.y.y.@.Z ;.[ , f #.#.>.>.2.y.0.g O #.",
"y.q.#.@.+.o t.0.5.y.y.y.u.r.{ / >.6.>.q.,.5.y.y.y.y.y.y.y.r.y.t.y.{ i g N l j Z , Z #.,.t.y.u.1.2.s o : 7 # 5.y.y.y.y.y.>.o h #.",
"y.X.) o 9 # y.i.t.y.y.y.y.u.t.+ 5.y.y.6.2.y.y.y.y.y.y.y.y.y.u.y.{ i o y.i.y.y.2.O 4 p [ 0.{ { # o q 1 6 7 +.y.y.y.y.i.y.>.# f #.",
") s X [ @.o 2.0.6.y.r.y.y.u.3.# ] 0.y.q.y.y.u.y.y.y.y.y.u.y.1.{   # q.y.i.y.y.y.y.,.j ; ^ g - 2 x h ) g 2 # >.r.r.y.y.i.r.] Z 1.",
"X ] 3.y.6.@.+ @.r.y.1.y.y.y.0.[ + #.y.y.y.y.y.y.y.y.y.y.y.:.@.X # q.y.y.y.y.y.r.,.2.) 6 1 S d ` r.i.y.t.^ 1 s [ { { X.1.y.{ 6 i ",
">.>.r.y.i.y.@.z } w.1.y.y.y.y.2.a ` y.y.y.y.t.y.y.y.y.y.0.{ o _ u.1.1.3.y.y.y.y.y.0.s 6 g [ r.y.u.i.y.y.1.# 4 3 - : s # [ o 7 g ",
"y.y.y.y.y.i.y.b g.r @.6.y.y.1.#.d j +.] ^ # o # / ) { 5.;.  # y.q.u.y.6.y.0.1.>.) X 6 ~ 6.2.y.y.y.u.y.y.y.5.p ^ / f 2 7 1 r / #.",
"r.y.y.y.y.i.0.F d.r 9 / @.] # 0 1 1 r 0 f h o o o   i - ; j 6.0.0.q.:.@.] # o o ) ) 1 / t.0.y.y.y.u.5.2.<.{ t >.q.#.[ o 6 # X.y.",
"0.i.i.q.0.9.7.1 7 ( #.# q , V @ / { { @.;.,.r.y.y.q.X.j 6 / +.] / o   X # [ 3.0.q.{ 5 o 6.y.0.5.y.r.q.y.q./ s 0.y.y.y.{ z i >.:.",
"t.y.i.0.E ! K 8 7 b r.y.` y { 6.y.u.u.y.y.y.y.y.y.y.6.o 2 r > e < o 3.6.y.y.,.] ) ^ 5 d r.6.0.q.i.6.y.6.>.o # y.y.y.y.5.o 7 i +.",
"@.>.1.X.> 6 a.8 7 R r.r.{ t 1.6.>.6.y.y.y.y.y.y.6.6.{ 0 # 6.6.r.@.p ^ 6.[ o 9 9 o [ ) y @.6.y.y.i.y.y.y.>.r @.y.y.y.0.6.) 2 l o ",
"# o o 0 < G 7 7 8 f.Z h i 6 $ y.y.u.y.y.y.y.y.y.y.#.) Z #.y.6.y.y.[ t * s $ @.5.q.y.,.t _ y.y.i.i.i.y.y./ y 6.y.y.y.y.X.  j >.y.",
"6.% Z ^ { E 1 A | A 1 d O o p 6.y.y.y.y.y.y.6.0.y.>.X o 5.y.y.y.y.@.{ x / y.y.t.y.y.6.h o q.y.r.t.t.t.0.o h q.2.y.y.y.[ r ,.y.i.",
"y.{ j 6.y.y.w.q.u.y.8.0.y.@.y / y.y.y.y.y.y.r.u.6.@.r ) q.y.y.y.>.y.q./ r / 5.y.y.y.t.@ y { r.t.r.t.6.X.p x ;.>.y.y.#.o ^ e.y.y.",
"y.>.# # q.y.u.6.0.q.y.y.y.,.@ s 5.y.y.y.y.y.y.y.y.) y { t.r.y.y.y.y.y.:.# < # <.' o s 0 6 X #.t.y.t.y.{ 2 H q.0.t.@.[ r >.y.y.y.",
"y.y.[ s { 2.>.{ #.0.y.y.t.>.[ < { t.>.q.u.y.y.y.q.@ f 5.q.t.t.0.y.y.y.y.>.o 1 : 0 o [ #.[ p s X.,.t.y.c a.K y.i.y.{ o d X.>.t.y.",
"y.>.@.l ` t.y.y.y.y.y.q.>.q.>.j O #.y.u.q.i.y.y.2.r + r.y.y.0.,.,.y.y.y.y.5.a # 1.t.t.t.t.>.o r M #.I 6 6 7 J 0.6./ , ) 0.y.y.y.",
"0.{ / e i ,.y.y.y.y.y.6.y.y.y.# > / { { @.;.#.,.` < >.y.y.y.y.t.y.6.u.u.r.% d >.t.y.y.y.y.y.0.d 7 a.7 6 G 8 7 v ] > f @.t.y.y.y.",
">.@.o [ o # r.u.y.y.y.>.;.y.t.{ 2 3 w & : w - * - g y.y.t.y.y.y.y.3.6.>.) r / t.>.y.y.y.y.y.y.0.Z 6 , 3 G f.H ; ; l X / 5.y.y.6.",
"{ # ) 2.5.o +.y.y.y.y.;.y.y.{ # V { 6.6.6.1.>.# u e 5.0.t.t.t.0.#.) o 0 > 7 ` y.y.y.y.,.,.,.r.5.%.s y #.S 7 %.$.[ s @.$ # @.,.>.",
"` # #.6.u.:.o [ >.>.#.,.y.q.@.t h q.y.y.y.y.q.2.] x o >.y.q.{ m r < s #...y @ y.t.6.y.y.y.y.y.y.X.o ^ >.>.&.=.y.,.) X y.[ o [ >.",
"+ #.q.y.y.{ # w 9 s o @ O ^ o 6 / ;.6.y.y.y.>.y.y.[ r # ;./ r 1 f ) t.y.,.% 0 >.t.y.y.y.y.y.i.u.@.s 5.y.y.y.y.i.y.1.s # ,.{ X o ",
"+.y.y.y.q.[ r [ 0.>.) $ o o l 5 @.y.y.y.y.t.q.y.y.y.#.k ; 1 f / #.e.y.y.y.,.o ^ 0.0.y.y.0.y.0.{ # g 0.y.y.y.6.y.2.{ t h o $ { o ",
"6.y.y.y.#.o h q.y.y.y.0.X.2.o t >.y.y.y.y.1.y.y.y.y.i.$ 2 # q.y.5.y.y.i.y.y.[ > # #.0.t.>.{ / o > l ,.y.y.y.1.y.#.[ p 6.>.o q o ",
"r.y.y.2.` > >.y.y.y.y.y.,.y.# g 2.6.y.y.y.y.y.y.y.y.6.g j 6.y.y.y.y.y.y.q.{ o y l = g @ X   ) ,.o 2 ` 6.r.6.y.y.>.O o 6.i.0.` l ",
"6.3.6.@.s g 0.y.y.y.y.>.r.0./ j y.y.y.y.y.y.y.y.,.@.` , f >.y.0.1.y.y.5.:.# 4 [ >.) f 1 # 5.2.0.# 6 , X ) @.1.y.>.p [ q.6.y.y.{ ",
"$ @.[ + e X { >.y.y.u.r.y.>.] p q.0.5.y.y.y.y.e.w.,.o # 5 # X.6.y.y.y.#.] ; / 0.0.;.{ g >.y.y.t./ 5 [ / q 9 # { [ y 2.y.y.y.1.X.",
"; o # 2.>.O g @ >.y.y.y.y.y.#.u #.@.>.y.t.y.t.0.a. .g 0.# r { q.y.i.t.{ i s t.>.t.t.{ o >.0.y.0.[ l q.u.y.{ o 0 : t ;.y.0.y.y.6.",
"/ 0.i.i.y.y.@.d & $ ,.,.5.>.o 7 9 # ^ h o h o d 6 s.a.6.,.h d >.y.2.{ i V >.y.y.y.y.[ d #.5.y.>.^ o ,.>.6.y.y.1./ s # :.3.i.u.>.",
"r.y.y.y.y.y.1.# S r s s s o / g u g g g j d h f C 7 7 Z L ' < ^ 5.{ 9 1 / y.y.y.y.y.#.t @.#.>.o < o 2.y.y.y.y.u.y.2.o # :.u.y.# ",
"y.y.y.y.r.>.@.X / 0.0.2.,.0.y.[ o 3.t.r.r.q.e.y.=.s., D p., 1 , ) s 6 g q.y.y.y.y.y.4.4 X o r 4 d # [ t.y.y.y.y.y.6.#.# # >.6.o ",
">.1.y.y.y.y.#.+ @.1.y.y.y.y.y.2.# [ t.3.r.y.y.y.y.Y W 6.>.( ^ s 1 6 Z >.y.y.i.y.q.>.@.x 6 y @ >.t.,.# ,.y.q.y.y.X.1.6.>.# $ ` X ",
"r.r.t.i.y.y.#.@ q.t.t.y.y.y.y.1.[ o 6.5.y.y.y.y.y.y.y.y.y.2.,.y.l 6 @ y.t.y.y.i.y.>.[ p # >.i.u.t.X.+ X.y.>.6.i.y.y.y.t.>.o = s ",
"@ # ] @.6.t.@.+ y.y.y.y.y.y.q.2.:.o / 5.y.y.u.r.y.y.y.y.,.0.i.0.h 2 +.#.>.y.i.i.y.,.+ 5.y.y.0.0.y.>.o { 0.#.r.u.y.5.{ >.@.@ c ^ ",
"@.@./ + + @ $ # y.y.y.y.y.i.y.6.{ 0 q @.q.y.6.>.q.y.y.y.y.y.y.1.h 2 { r.y.y.y.i.5.^ X y.y.y.>.y.y.>.i ) 6.5.y.i.y.r.y.y.>.o y.y.",
"y.6.5.2.@./ t X 6.y.y.i.y.r.#.# 0 y S o >.2.6.u.y.y.y.y.y.y.y.#.# 7 ) y.y.q.y.1.@.0 ) :.{ #.#.>.1.:.y @ @.5.0.r.q.0.2.{ / + r.y.",
"y.y.y.r.r.@.) Z $ t.t.t.<.) 9 q # 5.` < ) :.y.0.>.X.#.X.@.{ $ o > 2 q X.y.>.2.@.X l @ o X 9 i o O s 1 1 > i o o s i : ; @ 1.>.y.",
"y.y.y.0.0.,.X.o < / { / i i / 6.y.y.#.d > / [ [ / ^ o i = ; s O ) { h 9 { 0.@.@ h y.5.>.,.>.[ / f 6 O ) # @ h h h h Z h @.t.y.y.",
"r.y.y.y.y.i.y./ 2 1 , i ] q.y.y.y.1.,.[ 2 1 , , 1 u j O ` >.q.5.6.y.r./ w ) # s >.i.y.y.i.y.y.y._ u >.0.5.1.5.6.t.5.g # #.,.y.y.",
"y.i.i.,.6.r.6.[ 2 7 o 0.y.i.r.r.0.,.y.@.Z o # ` @.{ >.,.t.y.y.,.y.y.y.6.# 2 y ,.#.6.q.y.i.y.y.t.^ A E i.y.y.y.y.y.6.l q { #.t.y.",
"y.y.y.y.:.@.)   6 l ,.y.y.y.y.y.t.t.6./ > X.0.t.2.t.y.y.y.i.y.y.y.y.y.>.$ 6 # t.#.#.2.6.y.y.i.0.D h.K 0.>.y.y.y.u.:.g 2 o % @.r.",
"t.r.:.:.) i , l ~ k #.0.y.,.t.y.y.y.,.# Z 4.t.y.0.@.5.y.y.y.i.q.q.X.>.{ X u >.y.y.y.y.y.i.i.y.w.7 8 A ..q.y.i.i.y.6.h j ,.] O { ",
"[ @./ 0 r h #.,.+.p @ >.y.0.5.t.>.y.;.o 1 ` t.t.y.{ #.0.i.y.y.2.{ t.y.{ y # 0.y.y.y.y.y.u.6.q.e.1 G F q.u.y.y.i.y.6.@ o u.:.@.# ",
", - i ) 0.q.y.t.5.] r ` y.y.5.y.r.y.2.f l d 1.t.y.y.y.y.y.y.y.>.;.y.5./ < :.y.0.>.y.y.y.r.X.2.>.1 7 O.y.y.y.q.0.>./ w # q.t.3.:.",
"7 g 6.y.y.y.y.y.y.0.+ i 5.i.>.y.y.y.{ p @.q [ 0.y.y.y.y.y.y.y.y.0.y.#.X j y.6.@.0.y.y.y.y.t.i.q.Z w u.6.:.@.[ # + # h # 2.>.t.t.",
"[ s @.-.0.5.,.y.y.r.@.l @ 5.@.>.>.>.` $ t./ i @.y.y.y.y.y.y.y.y.y.t.#.r $ ,.>.6.y.y.y.y.t.y.u.{ V # :.[ $ o # [ @.>./ @ q.t.t.5.",
"t.@ A 1 5.;.q.y.y.y.0./ 2 o # ^ # ^ s ,.r.:.p / 2.y.i.y.u.y.u.y.y.6.` 4 { { r.0.0.,.,.>.<.6.>./ 6 0 X # [ @.2.t.y.u.` @ 0.y.y.X.",
"y.O.8 8 B y.0.y.i.y.@.@ t ) ` ) ` # l / q.q.# t { t.r.1.y.y.q.1.@./ s 2 o @ # # # O # o O o o 0 c ) { 6.t.t.y.y.y.r.` o #.y.y.#.",
"t.0.J a.G y.y.>.t.@.o i +.2.>.#.>.{ / 9 ,.y.#.p o >.@.@.` # X q = 0 l Z f l l l l c p j g h o u / 2.q.q.6.t.y.y.y.t.] o #.y.y.,.",
"0.t.p.G 7 2.Q { [   X @.#.r.y.>.2.t.{ g ^ t.r.% 1 q r - 3 l o # ] >.[ c #.#.#.#.@.{ >.@.;.>.{ # i 2.>.5.y.y.y.y.t.r.+.h 5.y.y.0.",
"q.5.-.A A f.n   i # [ y.y.5.t.0.5.i.6.) i #.y.3.j Z d # ] { { >.t.y.#.X @.q.2.@.>.t.e.y.y.y.y.>.  / 2.y.y.y.y.y.t.#.@.p @.>.X.>.",
">.@.y.0.{ < q / 2.{ # t.i.y.y.y.y.y.y.<.o ) y.5.# ` #.#.>.0.u.y.y.y.2.` # 0.y.q.X.y.y.y.y.y.y.0.] s { y.y.y.y.y.y.t.{ 4 X     o "
};
