/* XPM */
static char *result[] = {
/* columns rows colors chars-per-pixel */
"64 64 224 2 ",
"   c #6C6C26",
".  c #76782A",
"X  c #7A7D2C",
"o  c #746E39",
"O  c #767433",
"+  c #7A7737",
"@  c #7B7C34",
"#  c #7C7C3C",
"$  c #7D7545",
"%  c #7E7D44",
"&  c #807F3C",
"*  c #847D43",
"=  c #857B4A",
"-  c #837F50",
";  c #7C8125",
":  c #7D8034",
">  c #7E8138",
",  c #878D1F",
"<  c #878B29",
"1  c #85892C",
"2  c #8E9524",
"3  c #8C932B",
"4  c #909829",
"5  c #949C2D",
"6  c #828535",
"7  c #848B34",
"8  c #898B35",
"9  c #84843B",
"0  c #88873D",
"q  c #868B3C",
"w  c #8A8C3C",
"e  c #918E3F",
"r  c #899031",
"t  c #8D923C",
"y  c #949736",
"u  c #949B33",
"i  c #91933D",
"p  c #949B3C",
"a  c #999B3C",
"s  c #9BA334",
"d  c #9CA23C",
"f  c #A2A63B",
"g  c #A4AB3B",
"h  c #AAAF3D",
"j  c #ABB33C",
"k  c #858342",
"l  c #898543",
"z  c #878A40",
"x  c #8B8C44",
"c  c #858249",
"v  c #8B854C",
"b  c #868948",
"n  c #8D8B4A",
"m  c #918E45",
"M  c #918D4C",
"N  c #8D9244",
"B  c #8E9249",
"V  c #929444",
"C  c #959B43",
"Z  c #9A9C44",
"A  c #94944C",
"S  c #99954A",
"D  c #95994A",
"F  c #9A9C4B",
"G  c #8B8551",
"H  c #8D8B52",
"J  c #8C8858",
"K  c #928D54",
"L  c #92875C",
"P  c #938B5B",
"I  c #988D5D",
"U  c #8F9251",
"Y  c #959352",
"T  c #999454",
"R  c #969A52",
"E  c #9C9B54",
"W  c #959359",
"Q  c #9A945C",
"!  c #9D9B5B",
"~  c #A19E4D",
"^  c #A19E56",
"/  c #A0955C",
"(  c #A29D5D",
")  c #9DA343",
"_  c #9DA14B",
"`  c #9EA252",
"'  c #9EA35A",
"]  c #A1A543",
"[  c #A4AB44",
"{  c #AAAE43",
"}  c #A2A44B",
"|  c #A4AA4C",
" . c #AAAD4D",
".. c #ACB343",
"X. c #ABB14B",
"o. c #B1B845",
"O. c #B5B94B",
"+. c #A3A453",
"@. c #A8A753",
"#. c #A5AA54",
"$. c #AAAC54",
"%. c #A4A35B",
"&. c #A9A55E",
"*. c #A5A95B",
"=. c #AAAC5B",
"-. c #B0AE59",
";. c #ADB254",
":. c #ADB25C",
">. c #B3B653",
",. c #B3BA53",
"<. c #B2B45C",
"1. c #B6BB5A",
"2. c #BABC5B",
"3. c #988D62",
"4. c #979261",
"5. c #9C9463",
"6. c #9E9A63",
"7. c #9D9668",
"8. c #9E9968",
"9. c #A19565",
"0. c #A59B67",
"q. c #A39C64",
"w. c #A49C6B",
"e. c #A99E6C",
"r. c #A09670",
"t. c #A59B73",
"y. c #A99E72",
"u. c #A99E79",
"i. c #A5A264",
"p. c #A9A464",
"a. c #A7A961",
"s. c #ACAB64",
"d. c #A5A26A",
"f. c #ABA46C",
"g. c #ADAB6B",
"h. c #B1AE64",
"j. c #B1A66C",
"k. c #B2AD6C",
"l. c #ADB262",
"z. c #AEB16B",
"x. c #B3B363",
"c. c #B5BA64",
"v. c #BABC65",
"b. c #B3B36C",
"n. c #B9B66E",
"m. c #B6B96B",
"M. c #BABB6B",
"N. c #A6A073",
"B. c #ACA474",
"V. c #AEAA73",
"C. c #ADA37A",
"Z. c #AFAA7A",
"A. c #B1A673",
"S. c #B3AC74",
"D. c #B8AB76",
"F. c #B2A67B",
"G. c #B4AC7B",
"H. c #B9AE7D",
"J. c #AFB172",
"K. c #B5B373",
"L. c #B9B574",
"P. c #B6B871",
"I. c #BCBB74",
"U. c #B6B17B",
"Y. c #BAB37C",
"T. c #BDBA7B",
"R. c #C1BB79",
"E. c #C1BC7D",
"W. c #BBC156",
"Q. c #BEC369",
"!. c #BCC373",
"~. c #BEC479",
"^. c #C5C85A",
"/. c #C4C96C",
"(. c #C2C474",
"). c #C5C27D",
"_. c #C8C77E",
"`. c #CDD075",
"'. c #B1A581",
"]. c #B5AC82",
"[. c #BAAE83",
"{. c #BAAE89",
"}. c #B7B182",
"|. c #BCB383",
" X c #BEBA84",
".X c #BEB48A",
"XX c #BFB98A",
"oX c #BFB591",
"OX c #C0B685",
"+X c #C2BB85",
"@X c #C1B68B",
"#X c #C3BB8C",
"$X c #C8BD8E",
"%X c #C2B591",
"&X c #C5BB92",
"*X c #C9BD93",
"=X c #C7BC98",
"-X c #C9BE9A",
";X c #C4C284",
":X c #C9C483",
">X c #C3C980",
",X c #CAC982",
"<X c #C5C28B",
"1X c #CAC38C",
"2X c #CCC98B",
"3X c #D1CD8D",
"4X c #C7C192",
"5X c #CBC393",
"6X c #CDC995",
"7X c #CCC49A",
"8X c #CEC99B",
"9X c #D1CA94",
"0X c #D1C59C",
"qX c #D6CB9B",
"wX c #D3CB9C",
"eX c #D5D29A",
"rX c #CEC5A0",
"tX c #D4CCA2",
"yX c #D5CAA4",
"uX c #D9CEA5",
"iX c #D6D1A3",
"pX c #DAD1A2",
"aX c #DCD3AA",
"sX c #E1D9A9",
/* pixels */
"U R ' l.>XH G &XG.#X+XE.0.^ a ~ [ | C R a.}.XX}.}.].XX4X#X[.F.@XOX@X-X@Xt.0Xj.D.D.OX@XyXuXyX@XS.D.e.7.B.1Xf.q.%.^ ^ m k.f.D.$Xy.",
"K.P.b.P.V.7.C.tX1XB.+XD.D.&.~  .| C C R U ' z.}.7.}.|.Z.OXH.w.B.@X&X@X*X@XOXOXy.F.|.%X-X-XyX@XOXF.F.|.OX1XA.Q M E S &.g.H.A.*Xy.",
"8.Q W ! P |.rXwX6X+Xf./ q.K.L.=.:._ | :.R *.*.z.! f.U.XX*X#X.X[.#X#XOX$X*XD.OX0.B.[..X8XqXuXOXF.B.t.$X#X#XOXf.K p.( K.E.OXOX[.t.",
" XH H }.'.&X7X*Xq.^ ( &.Q S.j.k.c.#.| | X.:.#.*.i.W d.&X@XOX5XF.@XOXOXY.+X$X$Xr.'.oX.X4XqXuX0XD.F.F.@X#X#X#XH.T q.K j.K.1X$X@Xt.",
"U.W q.5X*XoX.XY.m e F #.h.S.<X;Xl.:.| [ W.[ [ ` S ! P 4.F.@X@XH.H.OXT.j.D.2XqXG.N.oX}.6XqX$XqXOXt.F.OX%X-XqX7XF.Q W d.G.+X#X.Xw.",
"K.V.$X$X&XXXB.M 8 a y $.x.g.;XJ.:.Q.;.) g 5 ) | F ( K 3.|.#X.X|.H.E.k.^ ^ Q wXXXN.}.Z.}.OXOXqXOXF.OXOX*XqX-X-XOX9.Z.B.<XG.#XG.w.",
"U.f.OX*X4X@XB.A @.@.;.;.C a.i.<X!.!.Q.| p u X.Q.=.M Q G.@X.X].[.R.R.( E N O ;XJ.U.Z.q.B.f.H.7X@XF.F.OX%X-XyX-X$X8.B.Z.}.|.G.B.5.",
"Y.D.OX$X#X*X+Xk.~ <.Q.) ` P.J.i.' R :.#.p t C D s.k K G..X[.[..XOXA.T %.E z P.! E 6.q.K.0.H.H.].OXF.@X%X*XuX*XH.t.C.Z.|.G.U.6.G ",
"F.R.].@X.X#X#XU.j.s.m.l.z.g.U b B ' ` ' B z U U % H B.|.|.@X%X|.OX/ D.p.&.F X t 0 B W Q 5.].9.OX@XF.OX%X*XqX@XB.B.C.B. XXXS.6.% ",
"%X%X@X].].G.G.4.|.<XJ.R z.Y k B z b U ' U # J 4XU.U.}.}.|.[.@X7XR.L j.j.s.E 8 | Z B B 6.}.L N.|.OXR.OX$X5X0X@Xe.5.XXG.+X1Xf.Y # ",
"OX%X@X].G.S.Y.q.B. XeXd.b.z.b 9 > @ o # % - J }.}.}.XX}.|.#X&X#XY.K Q j.P.=.} ] t ` Y P |..X4XG.u.OX[.@X6X*XY.y.w.B.}.S.+X+X! b ",
"OX$X$XH.f.f.i.!  XiXeX6XP.E 0   z ' d.d.J - J }.}.}.|.G.XX.X&X6X5XQ I f.K.s.+.V C x # d.$XtX*X4XF.F.OXR.9X+XU.B.w.S.+XOX:X1Xg.n ",
"OX$X$XE.p.s.E ( }.Z.#X;X! S &..   i.K.g.d.V.Z.Z.8.XX}.7.}.*X+X4XwXF.8.q.! ! j.%.%.g./ G.6X*XtX7X%XF.F.D.|.+XH.A.A.H.D.0.V.1X! ( ",
"OXOXqX$XU.' ! g.U.d.+Xd.E T L.l O T p.K.! W i.Y.B.Z.#X4X}.}.+X$X0X#XC.q.Q / R.H.H.|.|.#X$X&X6X8XqX[.B.G.j.+XD.j.B.Y.H.0.Y.M k.M ",
"&X0XuXyXU.U R a.<X X6Xc Y.f.Q OX* M E S 6 A E p.P.6X4X|.N.4.K XX4XXX}.B.A.S.$X@X{.{.OXH.U.5XXX7XyX8XF.B.0.S.Y.f.A.H.OXY.* o v Y ",
"XX0X@XuX6Xg.B.U.<XwX0Xw.U.e.[.w.i.Y E F i Z w N ;X X&X4XJ $ H #X&X&X<XU.}.|.&X=X@X%XOXOX+XY.6X6X4XeX|.6.( I Y.e.Y.|.Y.OX0.Q K ( ",
" XU.d.6XeXd.8.<X4X&XyXyX4X7XrX|.<XO D t C r X } a.;XN.Z.'.7.[.$X<X X$X.X@X%XrX-X=XOX+XR.( a.n I.A 9 l ( ( Y.+XOX$XG..XG.U.S.j.p.",
"' a.J.~.>XU d. X4X4X7XaX7XoX.X#X+X' w :.p r 1.:.!.<X;X}.Z.N.|.XX#X#X#X$X{.%X-XrX*X{.R.%.%.^ &.R.}  .$.F ^ P.L.5.G.B.w.t.H.H.F.Q ",
"@ > B b b > ' <X;XZ.I t.rX|.8X X<Xg.! z C #.<.l.!.P.U.N.J C.}. X#X&X#X|.@X=X=X7X=X$XH.k.+.n.s.m.2.{ [ >.:.x.s.T.<XP $ L '.].C.t.",
"N _ ` _ B R I.>XK.Q J 4.XXXX.X X<X X' B ' C :.D a.J.<XXX8.U.U. XXXXX#XY.|.@X-X7X=X|.:XK.k.s.s.v.,.s X.a $.=.I.R.;X+Xt.*X.Xr.{.u.",
"> B ` ` ' D l.B T.p.B.#X0X$X*X@X.X7XU.b q V z E z.g.B.U.5.H.D.#XXX|. X<Xf.+X0X0X-X|.OX1XL.h.n.M. .[ X.;.#.M.m.k.;X1XH.OXy.F.|.L ",
"#.N :.t C l.N i.T.n Z.U.*X*X@X*X4X8XiXV.b B z.! 6.6.6.}.Y.$XS.H.XX|.V.b.P.+X1X0X0X#XS.U.p.M _.,X<.` #.F ` D s.k.K.! A.U.S.4X0.P ",
"~.!.B N z q N ! g.6.w.@X[.OX%X-XoX=X8X6XV.n ' K H J G.#X X#XH.|.XXZ.! M n.n.+X5X.X.X5.H.q.K.k.M V (.c.+.R &.%.Y K.( * j.OXOXI = ",
">X~.*.` a.: > > K W B.].@X@X%X%XoXrX8X#XH ! W H d.4.#XXX#X@X|.G. X6.A V V %.>X1X&X@X*XB.K f.p.M ' s.x A a.E E p.& D.0.D.H.{.3.= ",
"' ' R B B B *.> a.U. X#XC.].=X@XoX*XtXXXY.|.d.G G.#X&X}.@X@X@X|.d.n R &.} 8 k.+X}.4X&XpXqXeX#XV.K T ( ( ;XI.T q.p.H.0.e.E.0.3.- ",
"U R *._ ` _ t D i.~.;X7.A.{.{.*X&X=X7XU.U.Y.U.G.XX&X.X.X@X%X@XOXY W m Z Z E A p.XX<X8X8XpXtXqX#XG * 0.+XK D.j.q.A.R.A.A.F.e.9.9.",
"U ` B C :.c.:._ s.%.K.K.#X#X@X*X#X*X$XG.+XB.[.#XXX&X.X.X*X*X@X|.V.W V 0 8 N l ! Z.}.5X8X6XtXaXtX*X*X7X5XA.Y.f.f.D.H.S.Y.A.y.e.9.",
"b > N N #.Q.Q.:.c.l.p.K.v Q |.}.#XOX|.G.$Xe.F.OX.X%X.X.X=X%X{.OX+XT.k.8 6 F W ! c K }.6X$X8X0XiX0X*X$XOX#X+XG.H.D.S.f.H.D.0.e.0.",
"P.R 9 @ : C #._ :.~.P.+Xi.B..XOXOXG.D.OXOXy.].OX&X7X$X[.[.[.{.OXY.T.M k 9 l k S.U W ;X;X6X5XiX7X$X1X+X$XY.#XU.B.K.U.d.V.D.Q f.K.",
" X X9 @ X 8 #.$._ *.' i.V.|.|.#XH.F.OX*XH.y.F.H.@X*X*XOX[.[.OXOX|.$X( x l Y i.g.V.g.g.Y Q U.7X4XOX6XOXOXU. XS.g.V.g.W ' L.i.i.i.",
"I 8.i.k @ 9 : q E *.g.U.U.XX@X].F.].$X*XF.F.F.F.[.OX$X$XOXH.OXH.$X}.T.S.V.! U.g.g.g.A B z V.4XtX7XoX|.{.|.}.|.i.i.E B D :.#.C ) ",
"7.P G.d.p.B R z z b #  X4XXX{..XA.F.$XOXA.D.A.D.Y.D.OX$XOXH.H.[.|.#X.X|.U.K.U.g.E a.l.c.z.z.<X4X7X%X.X&XXXd.6.Y R D _ t p ` u [ ",
"I ].U.|.Z.V.k Y # n Q  X|.[.].{.F.H.OXD.f.k.k.#.S S h.h.K.E.G.|.@X[.@X{.[.f.Q n.6 E t 7 ; > q >  XJ }.<XU.R z q _ C B c.=.Q.$.X.",
"B.G.}.$XB.G.Z.= $ S.K #XY.G.[.|.e.OX+XT ( ~ i Z >.] } +.^ f.|.}.|..X@X{.}.S.&.E z _ $.$.) p q b P.6Xi.d.! b _ : 7 ` B ` A ).~ ~ ",
"Q Q q.[..X].|.}.w.t.}.U.G.}.XXG.H.R.K.k.R. .| ] a a | =.( ( Q XX@X[.].].OXE.b.A &.M.#._ t 7 N ' ,XB > O ' ` ` 7 ; *.I.U.G.OXT / ",
"N.A.I U..XG.#XZ. X#X|.S.U.$XG.S.k.^ =.x.Z ] y [ u y a C %.l J.V.OX[.@X@X+X0.A m m _.F w C > ' z.K.E + B D : t N q B J.XX4X&XA.D.",
"[.H.OX$XOXf.T k.b.x.a.( a.P.i.g.Y @.x.2./.>.W.,.X.[ } 7 : Y g. XOXH.|.B.f.M l b.,X,X^ F 0 z J.c ;Xi.g.Q k %.` V N R g.XX&X=XC.'.",
"[.@Xy.v T E ^ +.M.#.:.F _ D D z F S =.v.>./.$. .X.1.) 8 x > W U.OXE.@XF.H.q.l k.,XeX3XK.i.i.U.G.+X6.o 6.K.I.A +.A B H 8..X%X'.oX",
"*XR.9XR.( %.` F $.Q.C  .) ) ) ) F F =.@.c.<.`./.2.Z 8 V @ b * d.Y.U.H.[.OXY.( E.1X1X9XS.6.d.C.&XXX].y.G.+XS.n.A E i.V.|.&XC.'.{.",
"$X$X+X+XE.(.&.#.Q.<.:.) ) X.d p X Q m m +.(.=.x.#.#.F N n U v d.H.H.[.@XA.B.Q R.$XwXsX#XB.d.C.'..X[..XXXV.T.P.Y A E !  XZ.].oXoX",
"OXe.+XR.R.h.x.+.l._ :.| _ p p 7 + / p.p. Xk.&.( %.h.%.& l v c 4.|.|.F.@XOXY.S.+X.X8X0X7XB.w.u.C.].[.U.+XV.K n i.n E T ! Z.4X-X].",
"R./ b./ ~ ~ y ~ t _ q *.N N . 9 S.y.#XG.S.$XS.T n.k.n.k p.0.K d.OX@X].[.[.OXY..XXX#XtXpXB.S.3.C.F.OXG.+X$Xi.k.a.I.%.9 E b V.7Xr.",
"/ ~ &.2.;.X.] a ) _ =.6 i.z.b  X|.].C.C.F.H.+XY.K.S.j.n g.f.i.Y.|.@X{.{.OX$X+X+XC.#X7XpXY.w.f.A.F..XG.|.f.S.U.<X2X&.z V R I.K.d.",
"e < a >...f ..f ;.:.x.s.K.g.T.}.&XC.&X*X@XOX5X9Xj.E.T ( v i.0.U.|.{..X@X[.E.Y.D.G.[.#XeXE.k.Q 0.S.B.#XY..XU.U.B.g.B V +.m.I.P.a.",
"u < f f ..g d ,.;.=.%.j.k.j.T q. XG.XXG.}.$XY.p.j.k.%.M 9 @ M b H.{.@X*X+XY.D.L.B.S.R.E.n.m ^ h.Y.|.S.|.7.d.XX4X XR ` _ #.;.*.m.",
"3 3 s { o.s f  .~ m._.E.q.T Y b v U. XG.Y.G.U.S.I.n.n.x.S E V z H.|.#X$X+XP.&.K j.;Xb.x.@.1 i 0 n.( ( i.B.}.8X<X6X>X` #.) q l.z.",
"w i y  .[ d ,. .} v.^ j.p.Y.H.j. Xi.g.E Y q.( &.R.x.b.c.l.:.F Y j.H.#X+X2XR.x.-.b.p.8 6 < >.y f ~ S +.%.a.;X}.7X}.d.!.!.C B z.z.",
"x D F Z ) [ a [ <.^ k.+XA.Y.S.S.Q A T ( i.E ^ ( M.b.+.=.:.} C ` T.XX$XY.&.w V <.F i Z < 4 , 2 f f -.~ ~ J.Z.}.}.4X~.2X' B b ' }.",
"q.Y & m B ` =.F ' i.Q 0.S.[.F.OXF.V.p.a.T ^ p.( p.I.s.+.&.+.Z I. X4XB.T.R.<.Z +.#.;...g W.j j j } ^ k.2X|.G.y.t.|.K.n.n.D # c Z.",
"! ( T %._ ' l.l.b.T.Y.|.H.9.OXF.|.U.j.g.T E p.D.U.p.M l V ^ +.( <XXXB.k./.] Z } <.X.o.j j j o.j a e h.2X6X}.Z.B.;XT.g.p.k c G V.",
"|.#X|.#X<XeX<Xd.Y.<Xq.q.j.j.j.R.G.0.T q.k.R.+X2X+X0.T K E E M & U.;Xi.I.<.>.F <.#.d g ..s s s g f >.-.~ 2X9XA.H.<X+X1XS.B.q.8.d.",
"{.8X5X#X X6XXXJ. X#X+Xf.I OXj.D.G.U.D.R.p.q.D.1X$XG.f.Q M + k i.<X<X;Xj.x.+.s.n.=.Z 4 5 s 5 4 W.o.f >.@.^ ,X$Xw.}.|.#XY.G.N.7.7.",
"oXXXXX8XiXiXXXN.7.r.0XH.R.*XR.j.D.[.S.R.L.Y.|.&X5XXX+X|.T.f.e.U.+X X+XT.a.g.Y s.n._ 3 2 5 5 s W.h f >. .S &.e.D.u.u.%X%X*XA.3.L ",
".X#XXX4X8X8X8X8XrX7X&XF.-X-XF.R.D.OXD.Y.E.|.XX&XoXXX0X4XU.G.OX#X#X#X4X.Xg.B.K H n.C s 5 4 s g g h f { Z S S f.$XF.u.%X@X=Xt.3.L ",
"B.|.1X1X6XeX8XwXiX4X@X-X*X@XR.u.[.OXD.H.D.{..X%X-X%X&X+XH.OXOX[.@X%X&XF.C.XX4XXXT.F ) u 4 s ..X.2.<.R.$.~ ~ e.S.@X'.{.=X%X[.9.L ",
"G.U.XX<X<X2X X6XZ.Z.F.e.@Xu.OX'.@X@XG.H.H.{.@X7XrX7X.XU.+X#X}.#X%X=X.X&X'.{.=X4X|.E +.d d 5 d ;.^ h.-.<.&.k.L.+X*X@X{.u.@XOXe./ ",
"'.XX<X X>XU B ' d.J.K.J S.G.#XG.%X@Xu.F.OX@X-X-XyX7XH.R.+X+XD.I H.#XOX@XB.-X&XyX6Xi.E 6 6 ) t ` s.a.*.*.+.` D ' Y.5X#XZ.G.G.w.0.",
"}.W W J.R z U R ' I.K.V.w. XG..X@X%XF.'.'.@X#X0X5X$XH.D.R.E.9.= H.[.OX5X#X&X7X7XwX1Xg.!._ l.*.i.' b.*._ Z C _ q %.K.}.6XG.B.f.B.",
"J.J.m._ > : C C D x.i.p.9.].{.F.-X%Xu.].F.OX*X*XeXU.n.&.T M v * F.%XOXA.$X|.4X4X4X1XP.I.*.#.I.I.,X~.l.) p ) d p #.n.K.T.+XB.G.N.",
"U B > t > p C C D R Y c B.@X'.@X%X'.OX0.0.*XqX$X<X%.( x.h.& * H.].%XY.:XS.;X1X1X+X:XT.k.V V F +.n.l.=.Z p d r r N l.z. X+X}.G.N.",
":.c._ C t p C :.~.k.Q e.A.F.oX%X@X{.[.F.U.i.K.,Xb.E } S e m k.+X@X$XR.S ^ ^ ^ R._.R.R.0 y 8 Z ^ x.x.+.} _ t t t B B i.T.|.}.G.N.",
"_ ' _ t #.C C ' b.Y T 5.3.F.{.@X@XOX$XR.Q Y T.%.x.x.$.#.@.m Q OX@XF.R.@.$.i a ~ ^ h.&.^ Z Z e w ^ k.s.S q q z z ' W g.d.|.}.].t.",
"Q.R z ` B ` l.~.g.g.H * e.e.j.OXOXA.+Xp.%.h.E I.c.<.>._ i m T D.[.D.~ O.2.{ u 2.$.-.b.h.^ C e e & 0.Y.K n g.6.b W U.B.8.C..X].'.",
"' z.*.B ' R ' a.;XW K 9./ / j.D.H.H.E.,X%.%.b.c.x.#.] i e S * f.j.E.2.f O.^.^.f y e b.R.S Z e T M 0.j.H.}.}.}.}.U.U.7.J t.C.oXr."
};
