/* XPM */
static char *result[] = {
/* columns rows colors chars-per-pixel */
"64 64 228 2 ",
"   c #1F1E01",
".  c #242301",
"X  c #292701",
"o  c #262901",
"O  c #2C2C02",
"+  c #27250B",
"@  c #2D2C0B",
"#  c #312E03",
"$  c #332E0B",
"%  c #2F3202",
"&  c #2F340B",
"*  c #343303",
"=  c #383504",
"-  c #363805",
";  c #3C3B04",
":  c #34330B",
">  c #3A340C",
",  c #37380B",
"<  c #3D3B0C",
"1  c #3B3512",
"2  c #383514",
"3  c #3E3D13",
"4  c #3D3C20",
"5  c #403907",
"6  c #433D0B",
"7  c #433D13",
"8  c #473B18",
"9  c #453D1B",
"0  c #3F4106",
"q  c #3E420B",
"w  c #444305",
"e  c #4A4405",
"r  c #494A04",
"t  c #44430B",
"y  c #4B450C",
"u  c #464909",
"i  c #4B4B0B",
"p  c #524A0B",
"a  c #524C0D",
"s  c #4E510B",
"d  c #53530C",
"f  c #59550D",
"g  c #54580F",
"h  c #454313",
"j  c #4B4414",
"k  c #474C11",
"l  c #4D4B14",
"z  c #45421B",
"x  c #4C441B",
"c  c #4D4A1B",
"v  c #524717",
"b  c #534D14",
"n  c #594F16",
"m  c #534C1B",
"M  c #594E1A",
"N  c #4E531D",
"B  c #555314",
"V  c #5A5415",
"C  c #575914",
"Z  c #5B5B15",
"A  c #55531B",
"S  c #5B541C",
"D  c #57581E",
"F  c #5C5B1C",
"G  c #62590E",
"H  c #615C14",
"J  c #61551D",
"K  c #625C1C",
"L  c #685C19",
"P  c #5E6115",
"I  c #5E611B",
"U  c #67660F",
"Y  c #636315",
"T  c #666A16",
"R  c #696B14",
"E  c #63631C",
"W  c #6A651D",
"Q  c #66691B",
"!  c #6A6B1D",
"~  c #726D1F",
"^  c #6D711D",
"/  c #76781E",
"(  c #4C4522",
")  c #484524",
"_  c #4D4B23",
"`  c #4D4529",
"'  c #514621",
"]  c #534D23",
"[  c #5A4E23",
"{  c #52472C",
"}  c #544C2A",
"|  c #594F2A",
" . c #565123",
".. c #5B5423",
"X. c #575924",
"o. c #5D5A23",
"O. c #565229",
"+. c #5C542A",
"@. c #5E5A2B",
"#. c #565432",
"$. c #5D5532",
"%. c #5D5A31",
"&. c #5E5938",
"*. c #615625",
"=. c #635C24",
"-. c #695E23",
";. c #62562C",
":. c #645C2B",
">. c #695E2C",
",. c #625632",
"<. c #645C32",
"1. c #695E32",
"2. c #655C3A",
"3. c #6A5F38",
"4. c #5E6122",
"5. c #5E612B",
"6. c #5E6134",
"7. c #646324",
"8. c #6A6424",
"9. c #666822",
"0. c #6C6B24",
"q. c #64632A",
"w. c #6C642B",
"e. c #656B2B",
"r. c #6C6B2C",
"t. c #716424",
"y. c #726D25",
"u. c #786D27",
"i. c #72652C",
"p. c #736B2C",
"a. c #796C2D",
"s. c #6D7226",
"d. c #6F712B",
"f. c #737324",
"g. c #797325",
"h. c #767A26",
"j. c #787A26",
"k. c #73732B",
"l. c #79742D",
"z. c #75782A",
"x. c #7A7B2C",
"c. c #656232",
"v. c #6C6433",
"b. c #676B34",
"n. c #6D6B33",
"m. c #66603A",
"M. c #6D653A",
"N. c #6E683A",
"B. c #716633",
"V. c #736B33",
"C. c #796C33",
"Z. c #71653A",
"A. c #746B3B",
"S. c #7A6E3A",
"D. c #6F7233",
"F. c #747333",
"G. c #7B7333",
"H. c #757933",
"J. c #7B7B33",
"K. c #74733A",
"L. c #7C733B",
"P. c #7D7A3B",
"I. c #6A6441",
"U. c #756C42",
"Y. c #7A6E42",
"T. c #796F4E",
"R. c #757343",
"E. c #7C7342",
"W. c #7C7844",
"Q. c #7C7448",
"!. c #82792E",
"~. c #827435",
"^. c #827B35",
"/. c #897C35",
"(. c #81753C",
"). c #847B3C",
"_. c #8A7D3C",
"`. c #827642",
"'. c #847B43",
"]. c #8A7D43",
"[. c #82764A",
"{. c #857C4A",
"}. c #8A7E4C",
"|. c #877C54",
" X c #7F8036",
".X c #7F8039",
"XX c #7F8346",
"oX c #81822E",
"OX c #818231",
"+X c #86813C",
"@X c #8C823D",
"#X c #94863F",
"$X c #858344",
"%X c #8C8243",
"&X c #858348",
"*X c #8E834A",
"=X c #918544",
"-X c #938A44",
";X c #9B8B46",
":X c #93864A",
">X c #948A4C",
",X c #9A8C4D",
"<X c #999248",
"1X c #9B914C",
"2X c #8B8453",
"3X c #918652",
"4X c #958B53",
"5X c #9A8F53",
"6X c #928758",
"7X c #998B5A",
"8X c #979155",
"9X c #9D9254",
"0X c #9C9159",
"qX c #A4954E",
"wX c #A59D4A",
"eX c #A29453",
"rX c #A89C55",
"tX c #A3955A",
"yX c #A69A5B",
"uX c #AB9C5C",
"iX c #ADA154",
"pX c #AEA159",
"aX c #B1A15E",
"sX c #9E9464",
"dX c #A89C61",
"fX c #B2A363",
"gX c #B7AA63",
"hX c #B3A668",
/* pixels */
". O j e.N . x 4.F.G.i.:.i.a !.0.G.tX(.).].[.Y.Z.~.-.i.-.S ..:.F y.z.f.r y.; w 7.k.l.k.p.-.X.X.S =.q.H y.f.y.C F e.q.D 5.l K.K.4.",
";. .o.K K.l 0 7.! ! W 8.y.k.G.p.a.:X5X].S.,.[ *.*.~.[ B.[.] >.W.8.f H G.a S ).8.W d C K S q. .v.q.@.j 8.k.q.- * : O * h 3 O , < ",
"q.q.r.K q < < < k.f.~ J.l.y.l.G.i.`.(.(.`.>.*.>.Z.i.~.a.0X(.%X_.@X0.K 8.8.t.8.p.*...7.@X-.].J S S -.@.6 c 7.k.! l.H E i.i.0.7.r.",
"n.c t * 3 D.e.% b l ; f.x.! i.V i.i.C.(.~.i.i.S.~.C.(._.].*X9X(.%X%Xa.y.u.8.G V.w.:.=.4Xa.9Xi.w.p.:.*.+...=.8.9.y.l.f %X-.].w.0.",
", < c n.<.o.K S @.x % k.0.I e.K r.=.=.w.i.P.B.v.;.J =X>XyX%X}.].:X:Xa.~.=X=Xa.i...1.V.w.C.-.L.4XD S } x x < =.G.L.(.C.4XK.L.L.G.",
"c.} h m C.j 7 >  .P., o ; k.F.q.=.F F w.8.v. .m :.*.%X(.'.S.S.L.'.8.C.5X:X=X@XK.;.j c =.C.3X'.V.*.@.+.I.1  .D A v.E.2XW...i.v.S.",
"] ( U.S @X:.U.;.D F n.R.- P w w H.o.7.C S < 7 } Z.Y.V.q.S.c.>.E.>.(.].V.].p.(.C.:.[  .*.L.'.7XA.{.1.x ` ` } @. .;.' <.;. .>. ...",
"' <.6XL.V.=X].S.@.h t l I H.P u i r.H Z C c 7 7 ] v.w.v.A.N.M.c.m `.*Xi.-.r._.w.| ( +.+.:.>.`.E.v.>.2.&.#.x l [ [ ] *.c @.v.@.=.",
"3.Y.}.tX'.i.+X_.w.1.J z.! ! 0.y.E f z.z.Q e.X.l :.=.8.n.q.X._ _ ] h v.V.w.V y.D [ ) z x @.*.1.;.A.;.} { } x @.w.h ..6 X.M j M :.",
"1.7X(.~.C.-.M w.l.y.x.l.Y f.f.l.E ! f.OX^ Q 9.C B 7.E 8.N x O.X.x N A q.n.p.K b +.2.( ( ;.v.Z.;.+.;.' ( z x 7.S 6 q.@.j ..l @.@.",
"|.Y.(.t.k.B b b Y / U Y B o.y o.:.V K V b %Xy.R wXf.0.w.S e.A o.D X.q.7.n.F f.f.Q Y h ( { T.U.} ( $.8 8 M. .V 0.l.9.^.H.r.7.-X).",
",.1.S y.Q k.D.k.z.y.8.b x %.;.S.S.C.5Xw.w.4X>XiXiXwX=XV.S i e.F A b q.q.7.F N D 7.C 7.l A F B } 1 ] <.>.*X-.K l.x.s.k.P.y.+X).(.",
"8 j w.l.f.Q d.F V B +.I.R.@.b >X(.).=X9XP.).S.0X>X;XoXa.+.x C 7.n.o.A A A 5.N D 6.X.4.8.r.E o...v.V.9X(.~.=Xw.V F p.e.:.m y V.K.",
"*.-.G.G.F X.X.; b F @.N.N.n.S G._.C.C.w.*X).B.B.C.@Xg.C.+.> 7.o.n.e.D X.n.F w e.# : D P z.e.A.q.8.t.#X/.eXa.S.S.v. .h h A h w.J ",
"@.l D u j o.7.E k.E i.F =.S.p `.(.(.3XS...;. .4X].].B.m h A e.F.e.F.o.7.e.E s q + + m x.j.q.@.m >.i.a.a.:XB.S.:.=.D .., @.q.-.F ",
">.b.; N e.f.f.j.J.r.V F b Y.J t.>X(.A.' 2.{ E.yX].E.x $.N.q.e.A 7.q.7.d.9. Xh.5.4 + ; H.Q 7.} @.[ J i.i.(.v.*.:.y =.b.k c.F.d.Y ",
"x , , X.H.h./ / x.i.V.V.V.w.V.C.fX(.B.3.{ 8 M.:.G.:.+.( x h t X.A B i e. X^ 4.o + + h H.! d. .c ] ;.' 1.v A.=.8.0.e.X.< 4.4.9.Q ",
"7 $ & & t k. XR ! k.J.f.i.L /.;XpX_.=.| 8  .6 8 [ w.S A.x 3 } _ _ c q.I 4.P P N 3 . < k H.A h h z > 8 <.l K E 8.r.S * . o X.7.d ",
"+.} c o   - T / / f.j.^ y.u.a._.~.t.v.[ ( b j 2.sX4X%X(.{.} ) _ b...o. .e.0.T f.XXX.o O & 7 6 c 8 > ( } X.B P 9.r.e.t o.l K.4.n.",
"S =.8.r.N.% 0 Q f.Y E g J.K w.C.C.:.v.m m @...`.*X$X=Xl.=X{.7 q.C e.e.n.D.9.8.J.I k b., ; P.C :. .m ..@.B d.^ D.; * e.C I C S e.",
";.>.S q.c j %X-Xx.a H.D.B Z V e r.w.V.D o.D w.=.C.'.*X(.B.V.c h c q.J.d C 5.D t r - % 4.e.S =.:.V.=.y K i E E +XD ; c.y t r.w.S ",
"|.M.y y ..S 9X-X#XF.i b 0.x.l.! K J.7.l A 7.w.K 8.K.L.v.:.X.t _ z n. Xu i < , D H.s.H.W.N.*.S.2.| @.S S F A :.o.* l 1...;.4Xa.8.",
"M.Y.,.@.S.]._.t.%Xr.V.n.F 0.J.OXl.W P d r.E r.b b S N.;.m 7 h h 5.q.F.F u c U.m 0.! 0.F b M @.` 8 | S w.N...X B e.K :.>.>.tX_.#X",
"|.2.,.v `.`.a.C.L =.o.t 4.d.y.y.! Y y.0.y.i.E 8.b b m +.m <.+.F I B % O l W.< c V W $XB ..V.:.,.j 8.Z 0.w 7.m 0.H K =.C.C.a.W pX",
"j } ,.x v.:.}.].).n a A 7.7.K W @XG #X^._.).K A D b :.n.D m A i I ; x 2 @.o.z 2X7.~.4XS.4XB.8X=.V Z g.R / f.z.f.l.<Xt.4Xw.%XJ i.",
"x ( 8 ( O.N.1.i.-.C.K F F J 8.@X;X#X;Xl.K ).G.r.w.S.w.e.e.C r.e.n.o A c.q z M.K.'._.dX4X7X4X'.V.i.W H t.z.OXY y.).,X).*X'...S A.",
"*.7 > } +. ...S F 8.y.8.=.:.(.].].;X).C.p._.e =.m A ; F u 7.0.u o t &X=.7 ` m.v.v.S.*X{.E...y m Y.@.S.*.P.K.e J i.8.w.w.q.m } %.",
"F.F e f 8.F p B :.A b =.w.M `.Z...*.:.@.=.wXu.:X:.j  ._ o , * F.! y.=.x +.+.{ 2.7 @.S.V.A.m 8 t.:X;XqXa.5X4X3XV.i.V.c.M h b.7.D ",
"i q.e.P.r.P.V.q.L.w.F p.=.*.>.+.m 8 ' 3 ;.%X`.[.U.[ m k 6.: * A k.F.A c ( | x +. .b q.w.m x ..:X,X]._.~.tXC.p.i.9Xi.].m j w.o.D.",
"% h 5.F.i =.w # - ; Z Z S *.S A 7 v x _ { Q.,.| 8 S b A & 3 A.e.i 9.V o. .m b @.=.0.E r.j j 1.l.~.].a.~._.L a._.eX%X*XV.D b A b ",
"4.o o % . * V.F.E g ! Q k.F B l o.>.@.x O.x 8 [ y n i.j : X i z.x.R f.0.K Y F 7.r.F.E F b A S.q.S [ *.Z.J _./.@X!.@Xp.G.*.V.:...",
"& & o k j * o.e.7.F Y k.E E k.F.0.F.N.c.c.w.M ).t.H 7...)   l r.E Z F H.r.e.F q.P.y.i r.w.P.v y  .[ ,.1.>.C.L t.W u.~.,XG.tX*.-.",
"D.6.& _ q.*.q.C.B ).G.K V 7.0.u.y.V J M w.(.(.tXa.(.p...8 2 1 : O * X ) z %.6.* q I e.C K S n ..>.M +.x j *.[ w.).(.-X9X5X4X`.w.",
"_ % q e.S w.S >XK 3X=.Z.D 7.S K 7.J v v ;.J K.'.C.4Xw.@.+.` #.$.@. .@ & : o o . * j F.F 0.y.L =.S 8.F l m x [ 1.L.(.%X).*XG._.dX",
"< h N h n *Xw.].=.B.v.[ Z.@.b =.].V.3X;.;.*.8 1.Z.Z.>.w.} m b C C 4.5.k k k #.) . o q.q.8.-Xy.=Xl.y.I d.o.b.x M.@.M v.V 0.a.$XP.",
"V.c 3 ..u.G.G.K.c.m 6XJ >X-.B.-.(.eXrXi.*.+.*.1.S.v.>.c...@.{ c 5.@.o.q.q.A X.c.e.% d.y.^.dX:XrXt.r.F X.w.A b ..M m Z.;.m >.G.G.",
"=.h 6 @.*.w.1.M.| | }.C.=X].>.*.]._._.a.i...M c.2XX.M m m.] (  . .X.A 7...S 8.A c = c D a.#X/.).w.@.M.W.m 7.p.i.[ b ..=.S b -.-.",
"..j o.c 8 1 x +.> m `.~.i.S.M 6 i.C.y.i.(.i.B.-.;.v.' $ $ 9 j X.D q.=.F S 3X%X-.l :.c h i L L ,.,.'  .M.=.F 0.V.S S E e.k.K b S ",
"m D 9.e.O.+.6 > > [ C._.-.i.*.>.V.9X/.5X-.*.*.D b  .;.h 7 x t b b k F l *.}.}.}.8.=.r.0.8.-.S x [ +.,.:.V.w.W K =.y.! P k.k.S.A.",
"@.5.I Z 7.8.D *.[ 1.:.C.~.v v.S.(.=X(.5X:.A.A.;.x @.q.S e.w.w.e.r.e.K y S *.[ M *.^.! E 7.=.;.l *.:...m q.D V.=.7.p.Y f.E 7.q.:.",
"b.n.D P ^ T 9.d.N.A.>.-.a.5X*.S.].%Xi.i.w.,.+.j @.n.r.0.Z 7.7.V.D.7.e.r.w. .=X-.i.7X-.b w.w.G.E k.b *.}.*.c.:.S.S r.C J.F =.m m ",
"b :.D 7.h.T ^ 4.w...S a._.fX~.tX:XL G.w.V. .@.[ @.q.e.! Q 7.@.F 4.D n.o.w...%Xl.).S.>.S.S i.8.r.*XV.C.}.w.A.[ w.S S V.w.F K >.M ",
"V M m q.g P s.I *.m >.C.@XpX;XrXG.~.^.`. .F p.F n.7.n.E k.q.A c o.e.F D ..-.w.J 1X).(.=XB.j M.R.Q.{.3.v.>.;.1.`.L.*.M j R.sX:XB.",
"7.B < j x.z.z.4.e.v.M  .~./.=Xi.*.=...w.B.Y C B V E 7.7.G.F.A o.A F o.o.o.7.p.a.1X-X=Xa.C.;.] <.@.N.{.S.A.'.*.S.B.A.B.[ *.3X{.*X",
"B e.q.* Q J.x.9.l.e m M 8.C.0.S.>.>.*.D S S 7.q.P.o.D A A 4.o.I s 7.5.D q.B a.G.>X@X1Xp.(.C.V.v M S A.*.0X(.C.C.B.S 7...:.=.J P.",
"E P.b.O K.e.G.E i i.F p.C.-.J J S K q.8.F K P.C s f F d.Y I I d.7.F 7.F X.o.M P.'.-X(.J.i.G.a.w.*.V.=.w.3X(.*.n =.o.F b a D b =.",
"J.b ; . 6 5 i 8.V E G.C.a S 8.8.-.8.G.l.0.J.; Y s.g.OXh.T ! h.! J.7.7.D o.D q.).%X_.$Xk.^.G.y.t.K K i.i.>.w.C.X.h A @.b.N.x [ c ",
"i = 7.n.q.F S B F.(.P.4XV.G.C.P.G.E f.! f.; = n.B r.d s k.f.T 9.H.e.C 7.o.c.G.x.x.l.i.u.W J p.V L a.-.>.B.B.*.N.c. ._ N @.3 h X.",
"P.u - P.W V E q.P.L.`.;.[ J i.Z 8.! ! R x.<.m.O O o m n.q.9.h. XF e.H.k.A  .C ! f.F w.K i.V >X~.9X%X].S b m 1.o.F e.q.i I 7.I d.",
"l D F Z B V K C.-.b 8 v B.S V 0.f.f.y.x.z.c - o * R.q.e.u ! ^ I n.o.0 = ; } P.+Xe.i.-.w.).(.>X).eX%X9Xv.v [ [ -.f.x.s.f.Q ^  Xx.",
"A F.d.P m w.S J y v B.>.n.V.i.0.l.! x.z.0.0 XX% < D.r.7.F.d.^ e.x = i  Xq.O * c  .b b 8._.~./.-.8.S.S.>.*.+.m A D 7.F 0.f.= w  X",
"7.e.7.F -.'.i.*Xt.C.fX~.>X_.L d ! i.0.J.l - j B D l O % = u I O % D.F.9.q.x O = 6 *.y V W g.l.G.-.`.A.*.A.Z.+.z ..<.A w.w F z.0.",
"8.S *.i.!.gXeXG.L ~.=X~.tXt./.C.L =.r.- t < J.g.! K :.b.F.d.O A q.5.l o.-.i.A...l.-X^.y.i.y.l.C.B.B.1.+.+.+. .A A t o.$XF.. i d.",
"J w.8.(./.=X-Xi.>.i.w.(.`.S.B.>.b q.q.n.o l .XY Z V.R.A.k.E F O c.c.m D M i.4X`.%X^.%Xk.K W 8.n :.+.8 x x m b e.H.d.7.F ; F i F.",
"%Xb ].C.'.>XhXZ.*.>.B.A.Y.<.Z.M m w.n.o D c F f 0.n 8 b 7.J.k.u x 3 } c.i.L J J ;XG.-.i.=.W 8.K M <.| x c A k.^.E x.I r '.7.* D ",
"`.C.tX(.$X{.2X ...]  .v...A.*.v.e.X.D q 5. .B 8.G.P.b 5 o.r.P ; z } z } *.].a.a.uX%X(.w.7.V Z S >.] +.' ;.G.x.W p.V B p.0.%Xe i ",
"S.S.(.B.'.{.[.c 7 6 < c.D Y 9.E p.D q < 3 A n.'.5X].V...j =.E e.6.) &.$.*.G.:X~.dXP.w.>.D 8.! F n.w.} m o.E ! E =.m C '.Z =XQ <X",
"Y.>.S.B.>.v... .> 1  ._ I f ! Q 0.d O @._ w.4X].].(.,XM ..M e.b.c z m.O.j ).4X(.:X3X*.+.L.W j.e.7.7.A S b V 0.'.>.q.E.8X%XJ.0.).",
";.;.B.L.w.>.>.>.[ ] ..o.D k.k.8.7.w i q.A w.B.S.t.t.:X>Xw.M.c c O._ 3 c @.E.{.4XL.Q.U.t l y.f.E r.0.C C i K q.i.E.V.`.4X'.V.P.V.",
"| m *.*.:.i.:.c.N. . .x m '.P.(.8.V.=.-.n.P.J 8.i.a.p.B.v.@.O._ _ X.<  .;.>.v.A.q.E. .m y H 0.d.d.0.Q 9.V.r.N.q.p.V.w.i.K.=.`.}.",
"M =.E E .... .@.<.1.v 2.Y.'.2Xi.i.w.S *.:.*.=.*.V.+.,.+.$.$.) 9 3 z _ } _ z x @.q.w.S J S b F 0.k.G.E 0.F i e.>.1.S S J eXu.!.uX",
"x c.G.p.-.-.8.G.P.w.b @.V.(.tXV (.hXC.n S m b >.3.m 7 m x 7 7 _ &.z  .x h h A V 8.7.C r.V 8.A b r.e.C F F 8.Y w.m v b (.hX,X_.aX",
"@.1.;.w.V 7.0.i.r.V.M x L ~.gX#XqXgXeXrX~.A.] ' *.M m m *.A @.m m c D ..D B 0.f.f.y.0.J.E * V.F.q.S A B d.J.G.P.>.V a.:X,X,X_.].",
"J S m b B.D S c [ m | ,.S./.qXwXqXqX;X=X(.;.v  . .m o.8.r.w.q.* l F.r.E 0.f.OX^ ^ j.j.0.p.; 7.5 l e.i d.8.e.0.K J ).~._.a.a.~.i."
};
