/* XPM */
static char *e96a1dff64fe40c9a1fa05b3b75c0108FpiRqvJtB81ccjNX[] = {
/* columns rows colors chars-per-pixel */
"64 64 205 2 ",
"   c #010200",
".  c #0B0400",
"X  c #040B00",
"o  c #0A0D01",
"O  c #150700",
"+  c #130A00",
"@  c #1B0B00",
"#  c #051200",
"$  c #0C1401",
"%  c #071B00",
"&  c #0B1C00",
"*  c #161500",
"=  c #141D02",
"-  c #200E00",
";  c #241200",
":  c #2C1500",
">  c #2C1D00",
",  c #321500",
"<  c #351A00",
"1  c #3B1B00",
"2  c #0D2300",
"3  c #0E2B00",
"4  c #142301",
"5  c #1A2402",
"6  c #122C00",
"7  c #1D2C02",
"8  c #143300",
"9  c #1D3402",
"0  c #163B00",
"q  c #1A3C00",
"w  c #2C2400",
"e  c #202E03",
"r  c #292801",
"t  c #362800",
"y  c #233303",
"u  c #2A3500",
"i  c #233A02",
"p  c #2A3B04",
"a  c #323B00",
"s  c #3A3800",
"d  c #411E00",
"f  c #432200",
"g  c #4C2500",
"h  c #532600",
"j  c #592600",
"k  c #552900",
"l  c #5B2B00",
"z  c #453600",
"x  c #4B3501",
"c  c #543200",
"v  c #5A3300",
"b  c #632D00",
"n  c #633500",
"m  c #6D3400",
"M  c #6C3B00",
"N  c #723600",
"B  c #753A00",
"V  c #7B3C00",
"C  c #164200",
"Z  c #1C4400",
"A  c #1E4B00",
"S  c #1E5100",
"D  c #234301",
"F  c #2E4204",
"G  c #234C01",
"H  c #294C01",
"J  c #314604",
"K  c #344B04",
"L  c #235400",
"P  c #2A5701",
"I  c #255B00",
"U  c #2A5C01",
"Y  c #335403",
"T  c #3B5505",
"R  c #335B03",
"E  c #3D5A05",
"W  c #266100",
"Q  c #2A6500",
"!  c #2C6C00",
"~  c #3C6304",
"^  c #336C01",
"/  c #3C6D03",
"(  c #2E7200",
")  c #2E7900",
"_  c #317400",
"`  c #3A7401",
"'  c #337C00",
"]  c #3A7B02",
"[  c #544800",
"{  c #415C06",
"}  c #634900",
"|  c #7A4701",
" . c #6A5D00",
".. c #755C00",
"X. c #446306",
"o. c #486405",
"O. c #446A05",
"+. c #4A6B06",
"@. c #5B6800",
"#. c #437403",
"$. c #4C7305",
"%. c #427C03",
"&. c #497A03",
"*. c #527507",
"=. c #547907",
"-. c #557908",
";. c #567A08",
":. c #597E08",
">. c #6F6D00",
",. c #823C00",
"<. c #844300",
"1. c #8C4500",
"2. c #884B00",
"3. c #954800",
"4. c #9C4D00",
"5. c #965500",
"6. c #A14F00",
"7. c #A15100",
"8. c #AC5500",
"9. c #AB5D00",
"0. c #B35600",
"q. c #B45A00",
"w. c #BC5D00",
"e. c #886100",
"r. c #986500",
"t. c #A46301",
"y. c #BB6701",
"u. c #C05F00",
"i. c #C16000",
"p. c #C87301",
"a. c #368200",
"s. c #3A8501",
"d. c #3C8901",
"f. c #438502",
"g. c #488304",
"h. c #438C02",
"j. c #4D8C04",
"k. c #588407",
"l. c #568D06",
"z. c #5C8308",
"x. c #5E8A08",
"c. c #469102",
"v. c #4A9403",
"b. c #4E9903",
"n. c #559405",
"m. c #539D04",
"M. c #5B9A06",
"N. c #608709",
"B. c #618B09",
"V. c #639208",
"C. c #699509",
"Z. c #659C08",
"A. c #6D9B0A",
"S. c #709F0A",
"D. c #56A104",
"F. c #5BA405",
"G. c #5EA805",
"H. c #63AB06",
"J. c #68A807",
"K. c #6BA509",
"L. c #72A30A",
"P. c #76A90A",
"I. c #79AD0B",
"U. c #66B006",
"Y. c #6BB307",
"T. c #6FB807",
"R. c #6EB508",
"E. c #70B707",
"W. c #71BB07",
"Q. c #72B509",
"!. c #7DB30B",
"~. c #73BA08",
"^. c #79BE09",
"/. c #7CC309",
"(. c #79C409",
"). c #80B70B",
"_. c #83BC0B",
"`. c #83C40B",
"'. c #8AC50C",
"]. c #84CA0A",
"[. c #8CCC0C",
"{. c #91CF0D",
"}. c #87D10A",
"|. c #8CD20B",
" X c #93D50D",
".X c #98D70E",
"XX c #95DA0D",
"oX c #99DA0E",
"OX c #99DB0E",
"+X c #9ADE0D",
"@X c #9BDD0E",
"#X c #9EE00E",
"$X c #9FE30E",
"%X c #A0E50E",
"&X c #A1E50E",
"*X c #A1E70E",
"=X c #A4E90E",
"-X c #A4EA0E",
";X c #A4EA0F",
":X c #A5EB0F",
">X c #A6ED0F",
",X c #A8ED0F",
"<X c #AAF10F",
"1X c #AAEE10",
"2X c #ACF110",
/* pixels */
"                                                                                                              X       .         ",
"o o o o o o o o o o o o o o o o o $ o o $ o o o X                             X o $ $ $ $ $ $ $ $ $ $ * $ $ $ $ $ $ $ $ $ $ o X ",
"p p i p p p p p i p p p p p p p p p p p p F p y 5 o                         o = y p J J J J p J F F J F J F F J K J J J F p 5 o ",
"*.*.*.*.*.*.*.;.;.;.;.*.-.-.=.;.;.;.:.:.k.z.-.X.p =                         $ y E *.N.N.z.:.z.:.z.:.:.z.:.:.z.:.:.N.N.N.:.o.K 5 ",
"I.!.!.!.I.!.!.!.!.!.!.!.!.!.!.!.!.!.!.!._._.I.N.{ e o                     X = K k.L.)._._.).!.^.).)._._._.)._._._._.`._.!.C.+.p ",
"OXOXOXOXOXOXOXOXOXOXOXOXXXOXOX@X@X@X@X@XOX{.`.C.+.y $ X X o * $ = $ $ X o o 7 E N.!.{..XOXOX$X$X@X@X@X@X@X@X@X@X+XOX*X+X.X_.B.T ",
"=X=X=X:X=X:X=X=X:X:X=X=X=X:X=X:X>X>X1X@X{._.A.k.E D 6 6 9 p J K K J J 9 9 6 i Y $.V.I.'.OX=X1X>X1X*X>X>X*X:X:X>X:X:X1X1X*X{.P.:.",
"=X=X=X:X=X:X=X=X:X:X=X=X=X:X:X>X2X2X:X.XI.N.+.Y H G G R / -.:.N.N.N.k.O.R H G G Y X.;.L.'.*X1X1X1X*X*X*X=X*X*X:X=X:X:X:X%X.X'.I.",
"%X%X%X%X%X%X%X*X&X&X*X*X$X&X$X*X=X:X@X_.V.{ p 9 q L ^ f.M.P._._.'._.!.K.j.` U Z 9 y Y :.!..X*X=X%X%X%X%X%X%X%X%X%X%X%X%X%X@X.X{.",
"#X*X+X%X%X%X%X@X$X$X$X$X$X&X*X@X@X.X[.P.;.K y 9 H ^ h.G.~.[.@X$X%XOX{.^.H.v.] P q y J o.C.).{.OX@X%X%X%X%X%X#X%X+X%X%X#X%X%X%X%X",
"%X%X%X%X+X*X*X*X$X$X$X&X*X=X*XOX[.).A.N.+.{ T E #.j.G.~.}.XX*X2X>X:X+X}./.U.n.&.X.T T X.;.C.P._. X%X=X&X%X@X%X%X%X%X#X%X#X%X=X:X",
"%X#X+X*X*X+X+X*X$X$X$X&X=X>X*X XI.N.+.{ o.*.:.V.K.Q.(./.XX#X*X>X>X=X*XOX|./.~.Q.Z.B.:.+.{ { ;.A.'.%X:X:X%X%X@X%X#X%X%X#X%X%X%X%X",
"%X%X%X#X$X*X$X*X*X@X$X*X*X*X@X'.C.{ p F X.V.!.'.[.|. X@X@X@X*X$X*X$X+X@XXXXX|.|.{.`.A.*.K y K ;.I. X%X:X%X%X%X%X%X#X%X%X%X#X%X%X",
"+X%X#X%X$X$X$X+X$X$X*X$X@XOX'.L.+.p = e { A.{.*X*X*X$X$X*X+X$X*X$X$X$X$X+X*X$X=X*XOX!.*.p = 7 E B.).{..XOX%X%X%X%X%X#X#X#X%X#X%X",
"%X%X%X%X$X$X*X*X*X*X*X@X{.!.C.+.J = o 5 { S. X:X2X*X$X$X*X$X*X+X*X*X$X*X*X*X*X1X1X+X!.;.y o $ y { z.S._..X%X=X=X%X@X#X%X%X%X%X%X",
"#X#X%X#X*X$X@X*X=X=X*X.X!.B.{ p =     5 { S.XX*X2X:X*X$X$X*X$X$X$X$X$X$X*X%X*X1X1X@X!.;.p X   o 7 K *.L.'.%X=X1X%X%X%X%X#X#X%X#X",
"%X#X%X#X%X#X%X%X%X%X+X[.S.+.p = X   o e X.L.{.%X:X&X*X$X&X$X$X$X#X%X$X%X%X#X%X=X:X@X_.:.J $   X $ e T N.)..X+X&X&X&X#X%X%X#X%X#X",
"%X%X#X%X%X%X%X@XOX.X'.I.N.{ p 5 * = 7 K ;.I.{.%X&X$X$X$X&X$X*X$X%X$X$X#X#X%X%X%X=X.X_.V.{ p 5 4 5 y K *.A.).'..XOX#X%X%X#X%X%X%X",
"%X%X%X%X%X%X%X.X[.I.C.z.*.X.{ T T T X.;.A._..X%X&X&X$X%X$X$X$X$X#X%X#X%X%X%X%X%X*XOX'.I.B.*.X.{ { X.o.+.*.N.S._.{.&X&X&X%X&X#X%X",
"%X%X%X#X%X=X%X X!.N.o.{ { *.N.C.A.A.L.I._.{.@X&X&X%X$X$X$X$X$X$X$X%X%X$X%X#X%X%X*X+X.X'.).P.L.L.S.C.z.o.T T *.A.'.&X:X%X%X#X%X#X",
"%X+X$X$X%X=X%X{.S.+.p y K :.).[.|.{.{.|..X@X#X#X&X$X$X$X$X%X$X%X$X#X%X$X%X%X#X%X%X*X@X.X|.[.[.|.{._.A.X.y y T B.`.OX:X&X%X#X&X#X",
"[.XXOX$X=X=X=X{.A.{ 7 = K N.`.+X*XOXXXXXOX@X+X%X$X$X$X$X$X%X$X%X%X%X%X%X#X%X%X#X%X+X@X XXXXXXX$X%X.XL.X.e = J :._.$X>X:X#X&X%X&X",
"(.]. X%X=X,X=X XS.T 5 = K N.'.$X@X}././.]. X#X%X%X&X%X#X$X%X&X&X%X=X%X%X%X%X%X%X&X+X@X}./.(./.XX#XOXP.o.7 = p :._.&X>X>X%X%X%X&X",
"H.^.|.OX=X1X,X{.A.{ e = K B.'.OX}.(.G.U.~.[..X%X&X&X$X%X%X&X%X=X%X%X%X%X%X+X%X%X&X@X X/.U.G.Y./. X[.L.X.e = J :._.&X>X&X%X#X%X%X",
"m.Y.].@X*X=X+X'.C.T e = J z._.}.(.G.v.b.J./.XX*X*X*X$X$X+X+X+X+XOX@X#X#X#X$X$X$X$X$X}.Q.m.v.m.R.].].A.X.e = p *.I.{.$X%X#X%XOX+X",
"v.H.].XX+X.X_.L.=.J = = F *.P.~.U.b.d.c.H./.XX*X*X=X%X+X X}.[.].].].[. XXX#X$X:X*X$X|.R.m.h.c.G.R.Q.x.E 5 $ e { N.I.'..XOX#XOX{.",
"v.U.].XX{.).B.+.K 5 o $ 9 / l.G.m.c.d.c.H./.@X*X1X=X+XOX]./.R.U.U.Y.~./.|.OX&X>X=X$X}.Q.b.d.d.v.D.M.%.J = o $ e T ;.A._.OX@X|.(.",
"b.Y.]. X_.C.X.p = o   o 7 U %.c.c.d.s.v.H./.OX*X=X*X$X}.~.G.m.c.h.n.D.R.].OX&X:X:X$X{.Q.m.d.s.d.h.h./ D $ X X $ 5 K *.L.[.XX/.R.",
"v.H./.`.P.*.F = o   o & 9 U ] d.s.a.s.c.G./.|.$X%XOX X/.U.m.d.a.a.s.c.F.~.}.OX#X@XOX].U.m.d.a.d.d.s./ G 6 = o o $ 7 E N.!./.R.m.",
"h.n.K.A.x.{ i 4 = 5 9 F T #.g.h.c.d.s.h.m.U./.].].]./.R.D.h.' ) ) ) s.v.H.~./.].]./.R.G.c.s.s.d.v.c.g.O.Y F 9 4 2 9 Y $.x.Z.n.j.",
"' ` #.+.E Y D Z H T O.-.l.Z.H.H.b.c.a.d.c.m.G.J.Y.K.G.m.c.s.( ) ) ) ' h.b.D.H.H.U.G.M.c.d.s.d.b.G.J.J.Z.x.*.O.Y G D H Y E O./ ` ",
"^ P H i i G L Q ` l.K.).`.'.`./.U.b.d.a.s.h.h.v.v.v.c.h.d.s.a.' ' _ a.s.h.c.v.v.v.v.h.d.s.d.c.G.Q.].[.'.`.I.Z.j.` Q G q 9 y G U ",
"^ G 6 & 2 0 U ] m.U.].@X$X$X+X|.^.G.v.d.d.s.h.h.h.h.h.h.h.h.d.h.d.d.d.h.h.h.h.h.h.h.h.s.d.h.m.T.].OX$X*X*X}./.G.c.( A 3 % & 9 U ",
"` H 4 X % 0 W s.D.(.XX=X1X1X=XOX].Q.G.m.m.b.b.m.b.m.m.m.m.m.m.m.m.D.M.m.m.m.m.m.m.m.m.m.m.G.U./. X*X,X=X:X$X}.Y.v._ A 2 # % q ~ ",
"l.E 7 o % 8 I d.F.(.XX2X2X2X>X$X X].~.Q.Y.E.Q.~.Y.~.~.~.Q.^.~.~.~.~.~.~.~.~.~.~.~.~.R.~.~.~.`.}.OX*X,X2X<X$X].T.v._ A 2 o = F &.",
"K.+.y $ % 8 I s.D.(.}.$X1X=X*X$XOX X X}.|.[.[.|.|.|.[.|.|.}.|.}.|.|.}.|.|.|.|.|.|.|.}.|.[. X XXX@X*X=X=X$X$X/.H.c._ A 3 % 4 K x.",
"!.*.p % & 0 I s.b.H.`.[. X XOXOXXXXX$X$X$X+X$X+XOXXXXXXXXX$X+X+X$X@X$X@XOX XXXXXXX$X$X$X$X$X$XXXOX X X X'._.T.M.h.( A 3 # 5 T C.",
"!.;.a $ % 0 W ' h.n.V.A.P.P.^./.|.$X%X*X=X=X=X+XXX].].]. XOX%X=X=X&X$XOX[.].].}.@X*X*X*X=X$X+XXX].^.P.K.Z.V.l.j.d.( A 3 $ 5 { C.",
").:.p = 2 0 W ] ' / ~ X.+.j.M.U./. X+X=X1X,X=XOX`.~.U.~.`.XX$X>X=X&XOX}.^.Y.Y.^.|.$X=X1X:X=XXX].T.H.j.$.X.R ~ / ` ( S 6 $ 5 T A.",
"!.;.p & & 0 U _ Q H 9 9 D R %.m.Y./.XX*X=X=X@X}.~.G.m.D.~.}.OX=X*X*XXX`.H.m.m.H./. X$X*X=X@X}.^.G.h.^ H 9 7 q P ! ! S 6 $ 5 { C.",
"!.;.p = & 8 S W I q 2 2 8 G ( h.F.W.].XXXXXX|.(.H.b.h.m.U.[.@X*X>X*X X^.G.j.c.m.R.]. XXXXX}./.U.b.a.W Z 3 4 6 A I I C 2 $ 5 T C.",
").;.p $ o 2 0 A Z 0 8 3 C S ! s.b.G.~././.(.^.U.m.h.s.v.U.[.$X=X1X*XOX^.G.h.s.c.G.Y.^./.(.~.Y.D.c.' Q A 0 8 8 q Z q 6 % X 5 { S.",
"I.;.p O   X 2 6 q q Z A I ! ) a.c.v.D.G.H.G.D.m.h.d.s.b.U.[.$X=X1X=XOX/.G.h.s.s.v.m.F.F.F.F.m.v.d.' ( W I A Z 0 8 2 %   . = { C.",
").:.p $     X & 6 Z I ! _ ' ' a.d.d.d.c.h.h.h.s.s.a.s.b.U.].XX=X*X+X X^.G.h.a.a.s.d.h.d.h.d.s.s.s.' ' _ ) ! L q 4 o     o 5 { C.",
"_.z.K 4 X     X 2 Z ! ' a.d.a.' _ ) ! ( ( ) ' ' ' a.s.v.H./.}. XXX|.].R.D.h.a.' ' a._ ) ( ! ! _ _ a.s.a.a.) I 8 $       $ 9 ~ V.",
"`.V.~ q & X     2 Z ! a.d.d.a.' ! I L L I ! ) ' ' ' a.c.m.U.~.(./.^.Y.H.b.h.a.' a.( ) W L A L W ) ' d.d.d.' I 8 %   X % 6 H / n.",
"'.J.%.U 0 & X X 2 C ! a.d.d.s._ W Z 8 8 A I _ a.a.a.s.d.c.m.D.F.F.F.m.b.h.s.a.a.a.' ! L q 8 0 A Q ' d.d.s._ U 8 # X $ 6 G Q ] c.",
"[.T.b.` L 8 & # 2 C W a.a.a.' ! L 8 & 2 0 I ( a.a.a.' a.a.s.f.s.s.s.s.s.s.' a.a.a.' ! A 6 & 2 0 I ) a.a.' ( I 8 % $ 3 A Q ( ] ] ",
"}.Q.D.s.W Z 6 2 6 Z L Q ! ! ! I q 2 o % 8 L _ a.a.d.a.) _ ! ! W W W ! ! ) ' a.a.a.' ! Z 2 X # 3 A W ! ! Q I G 0 6 6 q I _ ' _ ( ",
"}.~.D.d.( I A 0 0 q Z A A A Z q 3 #   # 3 S _ a.d.d.' ) W L Z C C C A I ! ' a.d.d.a.! Z 2 X X $ 3 0 Z C Z C q 0 q Z L ! _ _ ! I ",
"|.~.D.d.) ! W I Z q 6 2 2 2 4 2 #     # 8 I _ s.d.s.' ! L 8 2 2 & 2 3 Z I ( a.d.d.a.! A 2 X   X $ 2 & 2 2 2 6 Z G W ( ' _ ( I q ",
"}.Q.m.d.' ' ) ! I q 2 o X X X X o     $ 8 L ( ' a.' ) W Z 2 #       $ 6 G Q ) a.' ) Q G 4 $ .       X X o & 6 A Q _ ' a.a.! L 6 ",
"|.Q.m.d.] a.a.) Q A 6 % X       . @ - w u H U Q Q Q W A 3 #           2 0 S W W W W P F u < ; O .     X # 2 q L ( a.a.d.a.! G 3 ",
"}.~.m.d.a.a.a.' ( U G 0 2 #     @ 1 h c z a D C C C 0 3 % X           X & 8 0 C C Z F s x c g , O   X % 6 Z I ! ) a.d.d.' ! A 6 ",
"[.~.m.d.' ' a.a.' _ Q I 0 2 X + , l V | n s r & 2 % % % #             X # % % % & 2 r z M <.B h ; . % 3 A W ! _ ' a.d.a.a.! G 3 ",
"|.~.D.d.a.) ' a.' ' ) Q A 6 = ; g V 4.4.B f *   X X o + o . . . . . . o o + o X X o ; h <.7.4.N d ; = 0 L ! _ a.' a.a.a.' ! G 6 ",
"}.~.m.s.' ' ' a._ ( ! P H u w g N 4.0.8.V d +   . @ : < < < < < 1 < < < < , ; @ .   - j 1.0.0.1.n f w u H U W ) ) a.a.a.a.! S 3 ",
"}.~.m.d.' ' a.' ( W A D u z v N 3.0.u.8.V 1 + . - d l n m N M M M N N M m m j 1 @ . @ h 1.q.w.8.1.N v s p C S W ( ' d.a.) ! S 6 ",
"|.~.D.s.a.) a._ W A 8 5 t v <.6.0.u.i.7.B 1 + @ 1 m 1.4.7.4.4.4.4.4.4.4.4.4.<.l , + @ g <.0.i.i.0.4.| c w 4 8 S ! ' a.d.a.! S 6 ",
"|.^.G.d.d.a.a._ W C 2 = t m 5.9.y.y.0.4.N f ; , k 1.8.w.w.q.8.8.8.8.0.q.y.w.7.V g : > g V 7.y.q.y.9.2.v w = 8 S ! ' d.d.d.` U 8 ",
"OX/.Y.m.v.h.d.' W A 8 7 s } e.r.t.4.2.V b g f k V 6.w.u.q.7.3.1.1.1.3.6.0.u.0.3.N h f j m V 2.5.5.e...[ a 9 0 S ) d.d.m.m.j.~ 9 ",
"$XXX/.T.H.m.c.a.) W L H T @.>.>...} v j j b m ,.4.0.w.0.3.V n h g h b V 6.0.u.0.3.V m b j h c }  .>.@.o.Y L I W ) d.D.U.R.J.$.D ",
"%XOXOX}.^.H.v.s.) ( ! ^ ` #.=.$.T a w 1 h N 4.8.q.w.w.6.V g , @ @ ; 1 l ,.8.u.u.q.7.1.n g > w a E $.&.#.^ ! ! ( ' d.D.Y./.!.k.K ",
" XOX@XOX].U.c._ ( ! ( ! _ _ _ ^ P 9 5 w c 2.t.y.p.p.y.4.n w +   X $ r x | t.y.p.p.y.t.| x w 9 H ^ f.f.s._ ( ! ! ( _ j.J.!.P.x.E "
};
