/* XPM */
static char * wall3_xpm[] = {
"64 64 448 2",
"  	c #8F9251",
". 	c #969A52",
"+ 	c #9EA35A",
"@ 	c #ADB262",
"# 	c #C3C980",
"$ 	c #8D8B52",
"% 	c #8B8551",
"& 	c #C5BB92",
"* 	c #B4AC7B",
"= 	c #C3BB8C",
"- 	c #C2BB85",
"; 	c #C1BC7D",
"> 	c #A59B67",
", 	c #A19E56",
"' 	c #999B3C",
") 	c #A19E4D",
"! 	c #A4AB44",
"~ 	c #A4AA4C",
"{ 	c #959B43",
"] 	c #A7A961",
"^ 	c #B7B182",
"/ 	c #BFB98A",
"( 	c #B5AC82",
"_ 	c #C7C192",
": 	c #BAAE83",
"< 	c #B2A67B",
"[ 	c #C1B68B",
"} 	c #C0B685",
"| 	c #C9BE9A",
"1 	c #A59B73",
"2 	c #D1C59C",
"3 	c #B1A66C",
"4 	c #B8AB76",
"5 	c #D5CAA4",
"6 	c #D9CEA5",
"7 	c #B3AC74",
"8 	c #A99E6C",
"9 	c #9D9668",
"0 	c #ACA474",
"a 	c #CAC38C",
"b 	c #ABA46C",
"c 	c #A39C64",
"d 	c #A4A35B",
"e 	c #918E45",
"f 	c #B2AD6C",
"g 	c #C8BD8E",
"h 	c #A99E72",
"i 	c #B5B373",
"j 	c #B6B871",
"k 	c #B3B36C",
"l 	c #AEAA73",
"m 	c #ADA37A",
"n 	c #D4CCA2",
"o 	c #A9A55E",
"p 	c #AAAD4D",
"q 	c #AEB16B",
"r 	c #BCB383",
"s 	c #AFAA7A",
"t 	c #B9AE7D",
"u 	c #A49C6B",
"v 	c #C9BD93",
"w 	c #C2B591",
"x 	c #B1A673",
"y 	c #9A945C",
"z 	c #918D4C",
"A 	c #9C9B54",
"B 	c #99954A",
"C 	c #ADAB6B",
"D 	c #9E9968",
"E 	c #959359",
"F 	c #9D9B5B",
"G 	c #938B5B",
"H 	c #CEC5A0",
"I 	c #D3CB9C",
"J 	c #CDC995",
"K 	c #A0955C",
"L 	c #B9B574",
"M 	c #AAAC5B",
"N 	c #ADB25C",
"O 	c #9DA14B",
"P 	c #A5A95B",
"Q 	c #B6B17B",
"R 	c #BEB48A",
"S 	c #CEC99B",
"T 	c #D6CB9B",
"U 	c #928D54",
"V 	c #A9A464",
"W 	c #A29D5D",
"X 	c #BEBA84",
"Y 	c #B1A581",
"Z 	c #CCC49A",
"` 	c #B5BA64",
" .	c #A5AA54",
"..	c #ABB14B",
"+.	c #A5A264",
"@.	c #A5A26A",
"#.	c #CBC393",
"$.	c #576930",
"%.	c #A09670",
"&.	c #BFB591",
"*.	c #999454",
"=.	c #BAB37C",
"-.	c #918E3F",
";.	c #9A9C4B",
">.	c #B1AE64",
",.	c #C5C28B",
"'.	c #C4C284",
").	c #BBC156",
"!.	c #9EA252",
"~.	c #979261",
"{.	c #758221",
"].	c #CCC98B",
"^.	c #A6A073",
"/.	c #898B35",
"(.	c #949736",
"_.	c #AAAC54",
":.	c #B3B363",
"<.	c #AFB172",
"[.	c #BEC369",
"}.	c #ADB254",
"|.	c #9DA343",
"1.	c #A4AB3B",
"2.	c #949C2D",
"3.	c #988D62",
"4.	c #63783B",
"5.	c #6E6F14",
"6.	c #7A811F",
"7.	c #888519",
"8.	c #797618",
"9.	c #666214",
"0.	c #A19565",
"a.	c #94944C",
"b.	c #A8A753",
"c.	c #BCC373",
"d.	c #949B3C",
"e.	c #949B33",
"f.	c #6B7026",
"g.	c #9B9413",
"h.	c #B4AA0B",
"i.	c #B4A711",
"j.	c #B5AC05",
"k.	c #ACA10B",
"l.	c #8C8512",
"m.	c #767433",
"n.	c #9C9463",
"o.	c #B2B45C",
"p.	c #8D923C",
"q.	c #95994A",
"r.	c #676424",
"s.	c #A69B0B",
"t.	c #ABA314",
"u.	c #6A691B",
"v.	c #9E9A63",
"w.	c #C1BB79",
"x.	c #ACAB64",
"y.	c #B6B96B",
"z.	c #868948",
"A.	c #8E9249",
"B.	c #878A40",
"C.	c #56541D",
"D.	c #847909",
"E.	c #9B9109",
"F.	c #92860A",
"G.	c #897C0A",
"H.	c #88873D",
"I.	c #7E7D44",
"J.	c #959352",
"K.	c #858342",
"L.	c #7C7C3C",
"M.	c #8C8858",
"N.	c #515A1C",
"O.	c #8B840D",
"P.	c #A39B15",
"Q.	c #817513",
"R.	c #847A17",
"S.	c #9A9C44",
"T.	c #92875C",
"U.	c #D5D29A",
"V.	c #84843B",
"W.	c #7E8138",
"X.	c #7B7C34",
"Y.	c #746E39",
"Z.	c #837F50",
"`.	c #4A5528",
" +	c #625D1B",
".+	c #837B0C",
"++	c #59540C",
"@+	c #A99E79",
"#+	c #D6D1A3",
"$+	c #6C6C26",
"%+	c #635A0C",
"&+	c #736B1A",
"*+	c #7B7412",
"=+	c #7B730E",
"-+	c #564D13",
";+	c #423C12",
">+	c #8B8C44",
",+	c #D1CA94",
"'+	c #C9C483",
")+	c #8D8B4A",
"!+	c #587444",
"~+	c #76782A",
"{+	c #534C04",
"]+	c #726C14",
"^+	c #766C16",
"/+	c #4A450B",
"(+	c #544D0B",
"_+	c #6C670D",
":+	c #393A16",
"<+	c #48573A",
"[+	c #6D6A13",
"}+	c #818423",
"|+	c #433C0C",
"1+	c #493619",
"2+	c #5A5414",
"3+	c #3B350C",
"4+	c #635D14",
"5+	c #453B0D",
"6+	c #6B6414",
"7+	c #454113",
"8+	c #938814",
"9+	c #3D390C",
"0+	c #5A561D",
"a+	c #4B4513",
"b+	c #3D3A13",
"c+	c #4D541C",
"d+	c #847D43",
"e+	c #8B854C",
"f+	c #5A5722",
"g+	c #28250C",
"h+	c #3A3514",
"i+	c #988D5D",
"j+	c #494B1A",
"k+	c #342D0C",
"l+	c #1D1A0D",
"m+	c #261B0A",
"n+	c #656119",
"o+	c #6B641B",
"p+	c #586017",
"q+	c #898543",
"r+	c #BEC479",
"s+	c #181508",
"t+	c #322D16",
"u+	c #555215",
"v+	c #556649",
"w+	c #5D5A1B",
"x+	c #938B0C",
"y+	c #645C25",
"z+	c #524D1C",
"A+	c #29331C",
"B+	c #5D5824",
"C+	c #B3B653",
"D+	c #BDBA7B",
"E+	c #7D7545",
"F+	c #8D9244",
"G+	c #BCBB74",
"H+	c #3A3419",
"I+	c #615419",
"J+	c #586856",
"K+	c #BAAE89",
"L+	c #5D5C15",
"M+	c #474928",
"N+	c #BABB6B",
"O+	c #353215",
"P+	c #4A451C",
"Q+	c #35311A",
"R+	c #555223",
"S+	c #56492A",
"T+	c #4C6348",
"U+	c #857B4A",
"V+	c #7D8034",
"W+	c #282817",
"X+	c #2C2B1A",
"Y+	c #39432A",
"Z+	c #807F3C",
"`+	c #242313",
" @	c #15140B",
".@	c #2A241A",
"+@	c #45411C",
"@@	c #2B2414",
"#@	c #332C1B",
"$@	c #3A2924",
"%@	c #181911",
"&@	c #0E1508",
"*@	c #231C12",
"=@	c #293525",
"-@	c #22140B",
";@	c #546B54",
">@	c #34241B",
",@	c #3C543E",
"'@	c #4C5C4A",
")@	c #3D291C",
"!@	c #3A2716",
"~@	c #2B1B14",
"{@	c #140F0B",
"]@	c #383E33",
"^@	c #3B4838",
"/@	c #383929",
"(@	c #192315",
"_@	c #422B17",
":@	c #422614",
"<@	c #3C261B",
"[@	c #452B26",
"}@	c #43261B",
"|@	c #475845",
"1@	c #4A2B15",
"2@	c #543523",
"3@	c #4D6751",
"4@	c #4B5444",
"5@	c #484B42",
"6@	c #46483B",
"7@	c #64675A",
"8@	c #331E15",
"9@	c #7B4A2C",
"0@	c #643E26",
"a@	c #4C3222",
"b@	c #534543",
"c@	c #594848",
"d@	c #5C464A",
"e@	c #5D4B4B",
"f@	c #525649",
"g@	c #868B3C",
"h@	c #867573",
"i@	c #5E5551",
"j@	c #5E2D25",
"k@	c #543D41",
"l@	c #545C4C",
"m@	c #848B34",
"n@	c #C5C27D",
"o@	c #5C524D",
"p@	c #CAC982",
"q@	c #7C8125",
"r@	c #583925",
"s@	c #4B2D1A",
"t@	c #534B43",
"u@	c #4D3C3A",
"v@	c #614848",
"w@	c #624D4C",
"x@	c #684331",
"y@	c #634D51",
"z@	c #65504E",
"A@	c #655152",
"B@	c #858249",
"C@	c #929444",
"D@	c #C7BC98",
"E@	c #A3A453",
"F@	c #BABC65",
"G@	c #483727",
"H@	c #6B442A",
"I@	c #74452C",
"J@	c #744725",
"K@	c #572E0E",
"L@	c #7A5635",
"M@	c #53321C",
"N@	c #424234",
"O@	c #6A5354",
"P@	c #7A6867",
"Q@	c #6C5559",
"R@	c #84716E",
"S@	c #6E6E63",
"T@	c #725558",
"U@	c #B9B66E",
"V@	c #C2C474",
"W@	c #9CA23C",
"X@	c #7A7D2C",
"Y@	c #432B1B",
"Z@	c #865835",
"`@	c #555637",
" #	c #A88E92",
".#	c #B59B9B",
"+#	c #A58C8A",
"@#	c #8C8D80",
"##	c #7A7737",
"$#	c #8A6437",
"%#	c #9B8383",
"&#	c #AE9E9C",
"*#	c #957C7C",
"=#	c #836B6C",
"-#	c #836A6A",
";#	c #735B5C",
">#	c #AD9493",
",#	c #512E18",
"'#	c #87847B",
")#	c #8C7C79",
"!#	c #6B5956",
"~#	c #785D61",
"{#	c #6F4F55",
"]#	c #BABC5B",
"^#	c #A1A543",
"/#	c #828535",
"(#	c #936C42",
"_#	c #967A78",
":#	c #B8A09F",
"<#	c #B9A2A1",
"[#	c #878B29",
"}#	c #ACB343",
"|#	c #A2A63B",
"1#	c #744A2D",
"2#	c #774B31",
"3#	c #744D43",
"4#	c #A1837D",
"5#	c #BA9EA7",
"6#	c #7B6564",
"7#	c #4A3636",
"8#	c #5F4E50",
"9#	c #5A4545",
"0#	c #9A8686",
"a#	c #B3BA53",
"b#	c #665634",
"c#	c #664528",
"d#	c #7C5329",
"e#	c #986836",
"f#	c #A47843",
"g#	c #8C932B",
"h#	c #9BA334",
"i#	c #AAAE43",
"j#	c #B1B845",
"k#	c #C8C77E",
"l#	c #87522C",
"m#	c #57371B",
"n#	c #B07D44",
"o#	c #3C2B2A",
"p#	c #8A8C3C",
"q#	c #91933D",
"r#	c #A2A44B",
"s#	c #A5723A",
"t#	c #442E30",
"u#	c #443532",
"v#	c #865629",
"w#	c #A46E38",
"x#	c #53423B",
"y#	c #A77635",
"z#	c #957230",
"A#	c #2F2725",
"B#	c #A58A8A",
"C#	c #6A534E",
"D#	c #B19895",
"E#	c #A1958D",
"F#	c #AB918D",
"G#	c #653D1D",
"H#	c #99817E",
"I#	c #B0AE59",
"J#	c #2A0F07",
"K#	c #523E3D",
"L#	c #899031",
"M#	c #7B625A",
"N#	c #B5B94B",
"O#	c #C5C85A",
"  . + @ # $ % & * = - ; > , ' ) ! ~ { . ] ^ / ^ ^ ( / _ = : < [ } [ | [ 1 2 3 4 4 } [ 5 6 5 [ 7 4 8 9 0 a b c d , , e f b 4 g h ",
"i j k j l 9 m n a 0 - 4 4 o ) p ~ { { .   + q ^ 9 ^ r s } t u 0 [ & [ v [ } } h < r w | | 5 [ } < < r } a x y z A B o C t x v h ",
"D y E F G r H I J - b K c i L M N O ~ N . P P q F b Q / v = R : = = } g v 4 } > 0 : R S T 6 } < 0 1 g = = } b U V W i ; } } : 1 ",
"X $ $ ^ Y & Z v c , W o y 7 3 f `  .~ ~ ..N  .P +.E @.& [ } #.< [ } } $.- g g %.Y &.R _ T 6 2 4 < < [ = = = t *.c U 3 i a g [ 1 ",
"Q E c #.v &.R =.e -.;. .>.7 ,.'.@ N ~ ! ).! ! !.B F G ~.< [ [ t t } $.{.4 ].T * ^.&.^ J T g T } 1 < } w | T Z < y E @.* - = R u ",
"i l g g & / 0 z /.' (._.:.C '.<.N [.}.|.1.2.|.~ ;.W U 3.r 4.5.6.7.{.8.9.4.y I / ^.^ s ^ } } T } < } } v T | | } 0.s 0 ,.* = * u ",
"Q b } v _ [ 0 a.b.b.}.}.{ ] +.,.c.c.[.~ d.e...[.M z f.5.g.h.i.j.h.j.k.h.l.m.'.<.Q s c 0 b t Z [ < < } w | 5 | g D 0 s ^ r * 0 n.",
"=.4 } g = v - f ) o.[.|.!.j <.+.+ . N  .d.p.{ q.r.g.s.j.j.h.i.j.i.i.i.j.t.u.j F A v.c i > t t ( } < [ w v 6 v t 1 m s r * Q v.% ",
"< w.( [ R = = Q 3 x.y.@ q C   z.A.+ !.+ A.B.    C.D.i.h.j.j.i.j.s.E.j.F.F.G.u.p.H.A.E y n.( 0.} [ < } w v T [ 0 0 m 0 X / 7 v.I.",
"w w [ ( ( * * ~.r ,.<.. q J.K.A.B.z.  +   L.M._ N.O.P.E.h.i.D.F.l.l.l.Q.R.P.t.{.S.A.A.v.^ T.^.r } w.} g #.2 [ 8 n./ * - a b J.L.",
"} w [ ( * 7 =.c 0 X U.@.k q z.V.W.X.Y.L.I.Z.M.^ `. +.+G.O..+Q.Q.Q.F.E.D.Q.Q.Q.++p.!.J.G r R _ * @+} : [ J v =.h u 0 ^ 7 - - F z.",
"} g g t b b +.F X #+U.J j A H.$+B.+ @.@.M.Z.`.u.%+&+*+Q.8.8.Q.8.Q.i.P.G.=+%+-+;+{ >+L.@.g n v _ < < } w.,+- Q 0 u 7 - } '+a C )+",
"} g g ; V x.A W ^ s = '.F !+!+~+$++.i C @.`.r.%+{+]+^+/+(+*+_+{+&+.+Q.=+=+&+/+;+:+<+K * J v n Z w < < 4 r - t x x t 4 > l a F W ",
"} } T g Q + F C Q @.- @.4.P.[+4.f.5.8.{.}+&+++|+1+2+(+3+-+4+^+&+/+5+6+^+*+[+7+5+7+|+:+= g & J S T : 0 * 3 - 4 3 0 =.t > =.z f z ",
"& 2 6 5 Q   . ] ,.X $.l.%+g.++(+8+k.k.E.G.Q.=+&+2+9+0+;+;+5+-+/+5+a+&+&+&+{+b+/+u.6+ +c+Q #./ Z 5 S < 0 > 7 =.b x t } =.d+Y.e+J.",
"/ 2 [ 6 J C 0 Q ,.I f+7.R..+.+8+P.k.k.k.D.*+^+^+^+=+=+4+4+4+5+5+g+3+3+{+]+2+h+5+]+]+^+&+`.=.J J _ U.r v.W i+=.8 =.r =.} > y U W ",
"X Q @.J U.@.D ,._ & 5 j+[+l.k.s.s.G.G.g.O.]+]+]+^+]+%+2+(+^+&+r.k+l+m+;+n+/+7+(+o+]+]+_+p+] )+c+`.V.q+W W =.- } g * R * Q 7 3 V ",
"+ ] <.r+#   @.X _ _ Z 8.=+g.k.s.g.=+]+]+]+]+]+_+6+]+&+/+-+r._+o+[+3+s+g+t+9+u+n+6+_+6+ +n+`.v+w+j+!+_.;., j L n.* 0 u 1 t t < y ",
"X.W.A.z.z.W.+ ,.'.s $.x+k.g.G.g..+[+u.]+]+6+[+ +/+2+u+|+|+4+7._+[+a+;+f+++(+y+6+Q.l.Q.z+b+;+A+k+-+B+j+C+N :.x.D+,.G E+T.Y ( m 1 ",
"F+O !.O A.. G+# i y c+]+8.*+[+*+_+o+4+o+o+4+o+4+r.a+H+;+I+7.8.6+n+9.o+4+n+6+[+l.8+l.7. +f+0+h+H+:+k+J+' _.M G+w.'.- 1 v R %.K+@+",
"W.A.!.!.+ q.@ A.D+V j+++n+[+o+o+6+u./+-+2+;+;+a+2+a+H+h+/+5+0+4+9.n+ +r.4+4+R.8+R.4+4+L+L+/+:+H+h+f+M+}. .N+y.f '.a t } h < r T.",
" .F+N p.{ !+$.+.D+c+7.4+r.9.9.9.9.n+B+|+h+H+H+H+h+h+O+H+H+P+ +L+w+ +0+/+0+ + +o+I+ +M+;+w+7+O+Q+h+N.p+M+!.q.x.f i F x Q 7 _ > G ",
"r+c.A.F+B.<+l.[+L+E.g.++9.5.n+9.w+|+b+H+z+z+9+h+O+H+h+O+O+h+9+0+L+I+f+|+R+7+0+w+w+w+-+9+M+h+Q+Q+Q+b+a+S+T+o d J.i W d+3 } } i+U+",
"# r+P !.] V+`.2+7.x+x+x+F.O.9.n+w+n+f+2+ + +f+h+O+h+W+g+m+O+O+M+a+0+P+t+Q+7+0+w+w+0+f+P+g+X+Q+Q+Q+O+h+Q+Y+A A V Z+4 > 4 t K+3.U+",
"+ + . A.A.A.B+l.7.l.F.x+l.l.R.n+ + +L+L+w+w+C.3+t+Q+`+ @l+`+.@O+:+Q+t+Q+Q+O+H+R++@h+O+@@s+l+`+X+X+X+X+Y+'.G+*.c V t > 8 ; > 3.Z.",
"  . P O !.$.f.*+_+]+l.O.7.%+w+w+w+w+w+w+w+w+0+M+g+s+ @ @s+s+7+`.O+t+O+#@t+$@.@g+@@`+%@&@&@ @%@`+*@%@ @=@U 4 3 c x w.x x < 8 0.0.",
"  !.A.{ <+j+j+1+w+8.R.O.l.o+w+w+0+z+P+;+0+w+f+R+h+s+ @s+-@H+0+;+#@;+`.Q+l+@@W+ @%@W+&@;@T+=@ @ @ @ @%@=@x =.b b 4 t 7 =.x h 8 0.",
"z.W.F+Y+S+z+h+M+w+n+2+n+n+w+f+0+2+R+O+H+R+R+2+0+h+#@m+@@>@H+O+t+:+R+R+H+s+ @ @ @ @ @%@J g S ,@=@'@=@;@} = - * t 4 7 b t 4 > 8 > ",
"j . V.A+:+t+O+:+j+f+0+f+0+2+0+C.R+R+O+t+Q+Q+0+C.+@*@-@)@!@m+~@.@l+m+s+-@~@{@ @ @]@^@'.'.J #.#+Z g a - g =.= Q 0 i Q @.l 4 y b i ",
"X X V.X.^@W+$@#@:+P+t+P+z+f+C.+@#@Q+O+*@`+W+O+/@`+(@]@)@_@:@!@>@>@<@[@}@:@#@^@|@l C C J.y Q Z _ } J } } Q X 7 C l C E + L +.+.+.",
"i+D +.K.A+l+l+l+M+R+#@#@M+R+C.P+#@M+:+%@s+ @ @ @(@} g >@}@<@!@}@<@}@<@}@<@Y+Q C C C a.A.B.l _ n Z &.r K+r ^ r +.+.A A.q.N  .{ |.",
"9 G * @.V (@ @=@M+:+#@#@#@O+H+O+t+R+z+W+ @s+>@m+Y+4 } <@}@<@1@2@!@[@$@#@/@i Q C 3@4@5@6@q q ,._ Z w R & 7@;@v.J.. q.O p.d.!.e.! ",
"i+( Q r s l ,@J.&@%@ @ @W+(@A+W+W+M+h+{@s+<@)@<@>@|@'@8@<@[@9@0@a@^@[ K+: b ^@b@b@c@d@e@f@W.g@W.X M.^ 4@h@i@B.g@O { A.` M [._...",
"0 * ^ g 0 * s U+3@(@(@;@,@<+W+^@8 A+=@.@$@<@}@<@)@>@@@>@>@j@0@M+r R [ K+6@b@d@d@k@c@e@e@l@d.g@z.j J +.5@]@T+O V+m@!.A.!.a.n@) ) ",
"y y c : R ( r ^ u 1 3@Q * ^ / * t w.i X+<@<@<@<@>@<@>@<@8@a@!@/ [ : ( ^@b@d@d@c@e@c@b@o@l@m@F++ p@A.W.6@+ !.!.m@q@P G+Q * } *.K ",
"^.x i+Q R * = s X = r 7 Q g * 7 f , M =@1@!@)@<@_@:@r@s@<@<@/@l } : 5@t@d@c@b@u@v@w@d@e@J+W.+ q i A f@t@q.V+p.F+g@A.<./ _ & x 4 ",
": t } g } b *.f k :.] W ] j +.C J.b.:.T+x@r@<@!@0@0@0@x@}@<@@@X } t r '@b z ^@y@w@z@A@z@J+B.<.B@'.'@i@b@K.d !.C@F+. C / & D@m Y ",
": [ h e+*.A , E@N+ .N ;.O q.q.B.;.B M F@M+G@r@H@I@J@K@L@:@M@x@N@} ; [ < t c d@y@c@b@O@P@7@+.Q * 7@o@e@f@i G+a.E@a.A.$ D R w Y &.",
"v w.,+w.W d !.;._.[.{ p |.|.|.|.;.;.M b.` o.4@r@2@1@L@2@_@}@0@H@`.Q t : } 4@b@4@a o@A@Q@R@S@i@f@P@T@A@* - 7 U@a.A +.l r & m Y K+",
"g g - - ; V@o  .[.o.N |.|...W@d.X@y e e E@V@M T+W+)@Y@!@Y@a@Y@0@Z@`@: [ x 0 y w.g l@o@o@O@Q@ #.#+#h@e@/ l D+j J.a.A 7@@#s ( &.&.",
"} 8 - w.w.>.:.E@@ O N ~ O d.d.m@##K V V X f o W d T+#@G@}@0@a@M@9@$#`.[ } =.7 - R S 2 Z %#&#*#=#-#;#7@- l U )++.)+A ># #h@_ | ( ",
"w.K k K ) ) (.) p.O g@P F+F+~+V.7 h = * 7 g 7 *.U@f 3@)@[@s@x@I@I@,#$#M@y@@#'#)#)#h@'#!# #=#~#{#;#;#-#i@g +.f ] G+~#O@Q@&#l Z %.",
"K ) o ]#}...^#' |.O M /#+.q z.X r ( m m < t - =.i 7 3 )@:@1@Y@s@r@a@J@(#[@k@_#>#:#<#<#=#;#~#~#;#T@Q@;#r b )#h@Q@O@O@A@e@=#G+i @.",
"-.[#' C+}#|#}#|#}.N :.x.i C D+^ & m & v [ } #.,+3 ; <+2@I@9@I@1#J@r@2@a@1+2#Z@3#3#4#5#6#b@7#k@8#w@9#v@T@T@O@A@A@O@A@w@o@O@0#J+] ",
"e.[#|#|#}#1.W@a#}.M d 3 f 3 *.c X * / * ^ g =.V `@b#c#9@2#2#L@$#d#2#J@9@$#d#H@e#f#f#-#=#T@v@k@7#7#8#7#O@O@O@c@Q@A@Q@y@O@O@6#!#y.",
"g#g#h#i#j#h#|#p ) y.k#; c *.J.z.e+Q X * =.v+`@L@l#(#L@m#Y@:@_@}@s@1#l#e#l#f#d#e#n#}+f#{#P@y@w@A@O@A@A@7#7#t@5@c@A@A@o#Q@O@Q@@ q ",
"p#q#(.p ! W@a#p r#F@, 3 V =.t 3 X +.C A J.b#s#J@S+s@)@t#u#<@7#[@}@0@9@e#e#v#n#-+n#f#w#Z@x#Q@A@A@O@A@A@e@b@'.^ 5@O@c@c.5@A@O@h@q ",
">+q.;.S.|.! ' ! o., f - x =.7 7 y a.*.W +.S+c#!@*@~@d@y@e@x#$@H+Y@Y@Z@e#Z@l#w#J@3#e#w#e#s@c@u@c@A@8#t#u#o#s ^ ^ 5@'@].+ 5@i@P@^ ",
"c J.Z+e A.!.M ;.+ +.y > 7 : < } < l V ] *.v+G@>@.@e@y@y@8#w@e@u#<@!@Z@y#y#w#w#z#:@I@e#Z@!@A#[@u@b@k@t#o#]@* h 1 r i U@U@q.6@f@s ",
"F W *.d O + @ @ k D+=.r t 0.} < r Q 3 C *.A ^@)@w@-#0#=#O@w@e@b@7#8@c#e#w#y#y#e#_@8@l#Z@,#L@1#}@o#o#A#;@J ^ s N@N@'@C V K.B@% l ",
"r = r = ,.U.,.@.=.,.c c 3 3 3 w.* > *.c f w.J+x#%#B#*#%#-#z@d@y@e@$@M@Z@l#e#w#v#$@>@s@2@M@y#y#Z@o#t#/@) ].,+6@w@v@)#A@5@0 c D @.",
"K+S #.= X J / <.X = - b i+} 3 4 * Q 4 w.V c v+*#B#%#.#>#_#C#A@w@w@u#}@0@l#J@l#H@}@:@-@>@j@$#w#l#[@o#]@b., 4@8#y@8#{#>#*#i@J+9 9 ",
"&./ / S #+#+/ ^.9 %.2 t w.v w.3 4 : 7 w.L 7@D#B#~#%#%#+#D#%#w@w@e@o#[@1#9@2#9@2@v#r@l+-@a@2#9@2#N@;@C+p B 5@c@d@e@c@u@o@O@u#3.T.",
"R = / _ S S S S H Z & < | | < w.4 } 4 =.J+E#F#F#B#%#.#*#*#+#6#9#e@8@a@1#G#1#I@K@s#c#-@%@8@I@I@2@;@|#i#S.B B 4@t@d@c@d@d@d@|@3.T.",
"0 r a a J U.S I #+_ [ | v [ w.@+: } 4 7@R@-#_#H#>#D#>#D#F#_#=#b@7#<@2@M@G#H@s@L@v#$#-@=@Y+_@Y@X+]#o.w._.) ) 8 4@b@u@c@b@6@: 0.T.",
"* Q / ,.,.].X J s s < 8 [ @+} Y [ [ ;@E#<#:#P@D#># #B#B#+#_#v@x#>@Y@a@Y@c#,#)@d#1#Z@`@W@W@,@^@}., >.I#o.o f L - '@;@K+@+[ } 8 K ",
"Y / ,.X #   A.+ @.<.i M.7 * = * w [ @+>#F#>#D#H#H#+#+#B#-#e@c@x#)@Y@}@)@a@J#>@0@0@G#<+/#/#|.p.!.x.] P P E@!.q.+ =.#.= s * * u > ",
"^ E E <.. B.  . + G+i l u X * R [ w o@F#F#F#F#F#4#-#H#;#C#x#v@[@Y@[@Y@}@t+/@-@m+2@S+C c.O @ P +.+ k P O S.{ O g@d i ^ J * 0 b 0 ",
"<.<.y.O W.V+{ { q.:.+.V 0.( K+< | w x#_#F#F#F#+#)#;#O@C#z@x#u#Y@Y@)@)@!@T+r *@~@a@/@j G+P  .G+G+p@r+@ |.d.|.W@d. .U@i D+- 0 * ^.",
"  A.W.p.W.d.{ { q.. J.B@0 [ Y [ w Y 4@w@*#+#+#-#v@C#C#x#K#u#)@M@0@,#H+;@7 '.(@~@N@'+D+f C@C@;.E@U@@ M S.d.W@L#L#F+@ q X - ^ * ^.",
"N ` O { p.d.{ N r+f y 8 x < &.w [ K+: t@w@6#M#w@v@z@K#$@N@t+r@I@c#G@;@B , , , w.k#w.w.H.(./.S., :.:.E@r#O p.p.p.A.A.+.D+r ^ * ^.",
"O + O p. .{ { + k J.*.n.3.< K+[ [ } g |@w@e@c@x#[@u#$@;@b.e 6@M+<+< w.b._.q#' ) , >.o , S.S.-.p#, f x.B g@g@B.B.+ E C @.r ^ ( 1 ",
"[.. B.!.A.!.@ r+C C $ d+8 8 3 } } x - V 6@t@9#[@$@/@C+O q#e *.4 : 4 ) N#]#i#e.]#_.I#k >., { -.-.Z+> =.U )+C v.z.E Q 0 D m R ( Y ",
"+ q P A.+ . + ] '.E U 0.K K 3 4 t t ; p@d T+f@]@T+ .^#q#-.B d+b 3 ; ]#|#N#O#O#|#(.-.k w.B S.-.*.z > 3 t ^ ^ ^ ^ Q Q 9 M.1 m &.%."};
