/* XPM */
static char *result[] = {
/* columns rows colors chars-per-pixel */
"64 64 229 2 ",
"   c #1D1B04",
".  c #1C1B0A",
"X  c #171202",
"o  c #1A1C15",
"O  c #231D03",
"+  c #221D09",
"@  c #291F0B",
"#  c #261E19",
"$  c #1B2206",
"%  c #1C230B",
"&  c #1C280C",
"*  c #1E2C14",
"=  c #262204",
"-  c #2B2403",
";  c #2E2904",
":  c #24240B",
">  c #2B240A",
",  c #2B2A0B",
"<  c #252B0F",
"1  c #312503",
"2  c #332B02",
"3  c #392E03",
"4  c #312609",
"5  c #332A0A",
"6  c #363104",
"7  c #3D3404",
"8  c #3E3A03",
"9  c #36300B",
"0  c #3C340A",
"q  c #3C3A09",
"w  c #252B14",
"e  c #25241D",
"r  c #2C251C",
"t  c #242B1B",
"y  c #282715",
"u  c #352D18",
"i  c #273114",
"p  c #25321A",
"a  c #2C311B",
"s  c #253A1C",
"d  c #373319",
"f  c #1C2C20",
"g  c #2C2623",
"h  c #202C20",
"j  c #2E2A23",
"k  c #312B25",
"l  c #332D29",
"z  c #243224",
"x  c #2C3524",
"c  c #2D3B2B",
"v  c #2E3E25",
"b  c #3C3A24",
"n  c #3A342A",
"m  c #373727",
"M  c #3E3930",
"N  c #413603",
"B  c #443A03",
"V  c #4C3D03",
"C  c #413609",
"Z  c #443A09",
"A  c #4D3D09",
"S  c #4A3700",
"D  c #513D02",
"F  c #513B0D",
"G  c #453A26",
"H  c #443D31",
"J  c #2F422A",
"K  c #34412A",
"L  c #3A4428",
"P  c #394835",
"I  c #395535",
"U  c #39522D",
"Y  c #474400",
"T  c #4D4102",
"R  c #4E4308",
"E  c #534202",
"W  c #5B4603",
"Q  c #564904",
"!  c #5B4B04",
"~  c #5C4C0A",
"^  c #564509",
"/  c #5A5107",
"(  c #584C13",
")  c #5A5617",
"_  c #624E04",
"`  c #604D0A",
"'  c #645205",
"]  c #695606",
"[  c #675C04",
"{  c #6D5C05",
"}  c #65540B",
"|  c #6A560B",
" . c #675A0B",
".. c #6D5B0A",
"X. c #715D06",
"o. c #715D09",
"O. c #7A5D0D",
"+. c #73550C",
"@. c #645513",
"#. c #665A12",
"$. c #6B5B11",
"%. c #65581A",
"&. c #705B13",
"*. c #5A631F",
"=. c #6D6204",
"-. c #6D6408",
";. c #636002",
":. c #746104",
">. c #7B6305",
",. c #74610A",
"<. c #7B6209",
"1. c #7C6B08",
"2. c #7D6A05",
"3. c #6D6719",
"4. c #756C13",
"5. c #79681C",
"6. c #776918",
"7. c #6F7119",
"8. c #787315",
"9. c #7B720E",
"0. c #464127",
"q. c #46422B",
"w. c #4A412C",
"e. c #474F2D",
"r. c #4B5625",
"t. c #505B23",
"y. c #575927",
"u. c #494738",
"i. c #564D3B",
"p. c #44563C",
"a. c #55593B",
"s. c #4F642D",
"d. c #54632B",
"f. c #5B632B",
"g. c #586726",
"h. c #5C6C35",
"j. c #5B6B3B",
"k. c #556533",
"l. c #5F743D",
"z. c #686623",
"x. c #777625",
"c. c #636338",
"v. c #4E4F43",
"b. c #4B5341",
"n. c #475F42",
"m. c #4C5C44",
"M. c #4A5C4A",
"N. c #5F5B4B",
"B. c #565644",
"V. c #514843",
"C. c #655E50",
"Z. c #645B4B",
"A. c #466447",
"S. c #4D6346",
"D. c #4D644A",
"F. c #4A6D4D",
"G. c #52634C",
"H. c #536B4D",
"J. c #5C6B4B",
"K. c #586944",
"L. c #597547",
"P. c #536A52",
"I. c #566755",
"U. c #4B6950",
"Y. c #6D6658",
"T. c #696455",
"R. c #726858",
"E. c #6A724B",
"W. c #746E62",
"Q. c #7C7669",
"!. c #7F7A73",
"~. c #826B04",
"^. c #826E09",
"/. c #826406",
"(. c #8B740C",
"). c #8E7B0B",
"_. c #877308",
"`. c #967F0F",
"'. c #9A7A09",
"]. c #826915",
"[. c #837212",
"{. c #8B7B11",
"}. c #8D7A1B",
"|. c #87741B",
" X c #937D17",
".X c #947C22",
"XX c #867F23",
"oX c #96850D",
"OX c #8B811A",
"+X c #8A801A",
"@X c #9D8513",
"#X c #928C1C",
"$X c #9D8C1B",
"%X c #988616",
"&X c #97901B",
"*X c #AA970B",
"=X c #A58B1C",
"-X c #A59515",
";X c #A3941A",
":X c #AA9B1C",
">X c #AA9618",
",X c #B49E1B",
"<X c #B09C14",
"1X c #A08C0A",
"2X c #BBA90F",
"3X c #AEA210",
"4X c #B5A213",
"5X c #BBA413",
"6X c #BDA913",
"7X c #B5A21B",
"8X c #BBA719",
"9X c #838223",
"0X c #998825",
"qX c #9B9027",
"wX c #A18726",
"eX c #A89A28",
"rX c #B69E21",
"tX c #A79A36",
"yX c #B6A322",
"uX c #C1A318",
"iX c #C1A025",
"pX c #858174",
"aX c #999887",
"sX c #A89A8E",
"dX c #ABA697",
"fX c #B5AF9E",
"gX c #B4B19F",
"hX c #B5AFA1",
"jX c None",
/* pixels */
"jXjXjXjXjXjXjXjXjXjXjXjXjXjXjXjXjXjXjXjXjXjXjXjXjXjXjXjXjXjXjXjXjXjXjXjXjXjXjXjX) +X( jXjXjXjXjXjXjXjXjXjXjXjXjXjXjXjXjXjXjXjXjX",
"jXjXjXjXjXjXjXjXjXjXjXjXjXjXjXjXjXjXjXjXjXjXjXjXjXjXjXjXjXjXjXjXjXjXjXjXjXjXg.#X=X+.) jXjXjXjXjXjXjXjXjXjXjXjXjXjXjXjXjXjXjXjXjX",
"jXjXjXjXjXjXjXjXjXjXjXjXjXjXjXjXjXjXjXjXjXjXjXjXjXjXjXjXjXjXjXjXjXjXa.) f.L.qX-X{ [ R z.U jXjXjXjXjXjXjXjXjXjXjXjXjXjXjXjXjXjXjX",
"jXjXjXjXjXjXjXjXjXjXjXjXjXjXjXjXjXjXjXjXjXjXjXjXjXjXjXjXjXjXjXjXjXjXr.-.,.^ .X1.] { 4.Z B.i.d.g.d.j.jXjXjXjXjXjXjXjXjXjXjXjXjXjX",
"jXjXjXjXjXjXjXjXjXjXjXjXjXjXjXjXjXjXjXjXjXjXjXjXjXjXjXjXL.K.jXjXjXjXy.%X7X-X[.{ ....{ ( =.4X<X>X@X|.) jXjXjXjXjXjXjXjXjXjXjXjXjX",
"jXjXjXjXjXjXjXjXjXjXjXjXjXjXjXjXjXjXjXE.r.jXjXL.g.8.0X0X0X|.5.5.3.@.9.' W <.] ~ '  .] +.].O.X.] ..%.d jXjXjXjXjXjXjXjXjXjXjXjXjX",
"jXjXjXjXjXjXjXjXjXjXjXjXjXjXjXjXjXjXjX3.6.y.8.,X6X5XoX,. ...{ { ' Q F F R Y V F { { { [ { [ | X._ ! ( L jXjXjXjXjXjXjXjXjXjXjXjX",
"jXjXjXjXjXjXjXjXjXjXjXjXjXjXjXjXjXI.r.3.^.7X4X5X2X4XoXo...o...{ ..o.V R T ` ! _ ....X.X.{ ..{ { [ X.o.- jXjXjXjXjXjXjXjXjXjXjXjX",
"jXjXjXjXjXjXjXjXjXjXjXjXjXjXJ.7.:XyX} O.rX~./.7X-X:...X.....{ ..o.{ W V E ....{ ..o.o.{ { X.{ { ..o.+.#.q J.jXjXjXjXjXjXjXjXjXjX",
"jXjXjXjXjXjXjXjXjXjXjXjXjXjXe.9.`.<.X..XX.:.eXoXo.o.{ X.o.o.o...o.X...] ] o.X.X.X...o.{ { X.X.{ { { X.....qXk.jXjXjXjXjXjXjXjXjX",
"jXjXjXjXjXjXjXjXjXjXjXjXjXd.}.;X{.X.o.{ X.{.`.X.X.X.{ $.X.o.X.o.o.o.o.o...X.+.X.o.....o.....{ o.X.o...X.[.*XeXf.jXjXjXjXjXjXjXjX",
"jXjXjXjXjXjXjXd.s.L.jXj.0X4X2X@X,.o.X.X.>.=XX.X.o.o.o.X.X.o.o.o.o.+.o.o.o.o.o.o.o.o.o....._ D ~ { ....{ %X).6X-XH.jXjXjXjXjXjXjX",
"jXjXjXjXjXjXm.} wXtX@.8X6X2X<X:.o.:.o.X. XX.o.o.o.o.X.o.o.X.o.o.o...X.o.o.....X.X...W W E W  .' ] X.| X.(.1X<.<X9XjXjXjXjXjXjXjX",
"jXjXjXjXjXjXjXe./ 1.3X<X_.rX2.X.o.X.o.,.1.X.o.o.o.o.o.o.o.o.o.X.o.o...o.o.o.+.{ o.o.| ` } | { :.X.X.o.o.2.iX:.:.4X) jXjXjXjXjXjX",
"jXjXjXjXjXjXjXjX; $X_.<.X.0XX.:.o.:.X.O.X.X.o.o.o.o.o.X.o.o.o.o.o.o.X.o.o.o.X.o.o.o.o.X.X.o.o...o.X.o.o.>.uXoX$./.eXj.jXjXjXjXjX",
"jXjXjXjXjXjXjXC OX'./.O.X.X.,.:.,.:.X.o.X.X.o...o.o.o.o.X.o.o.o.X.o.o.o.X.o.o.o.o.o.X.o.X.o.o.o.X.X.o.o.X.8X7X=...oXx.jXjXjXjXjX",
"jXjXjXjXjXjXx Q 6X4X1.,.:.o.o.,.X.X.o.o.:.o.,.X.X.o.o.o.X.o.o.o.o.o.o.o.X.X.X.o.o.X.X.o.o.o.o.o.o.X...o.{ oX5X(.X.o.eXf.jXjXjXjX",
"jXjXjXjXjXjXJ.OX8X@X<.,.o.,.<.o.o.o.X.o.o.o.o.o.o.o.o.X.:.o.o.o.o.o.X.o.o.o.X.X.X.o.o.:.o.o.o.o.o.o.X.o.X.X.,X-Xo.o.~.9XjXjXjXjX",
"jXjXjXjXjXjXw [ ,.| _ ,.,.,.o.X.X.X.o.o.X.,.o.X.o.X.o.o.X.o.o.o.O...o.o.o.o.o.o.o.o.X.X.o.o.o.o.o.o.o...o.{ (.5X_ X.+.;Xj.jXjXjX",
"jXjXjXjXjXy.Z 3 F 1 ~ } ] o.,.X.O.X.X.o.X.o.X.o.o.o.X.X.X.X.X.o.o.o.o.o.o._ &.o.o.X.X.:.X.o.o.o.o.o.o.X...{ O.7X{ ..X.~.3.jXjXjX",
"jXjXjXjXh.eX! F R N A S ,.o.,.X.X.X.o.X.o.X.X.o.o.o.X.o.:.o.o.o.o.o.X.X.o.W | o.o.X.X.X.X.o.o.o.o.X.o.o.X.{ o.1X{.^ =.o.&XjXjXjX",
"jXjXjXjX8.wXW !  .E T ..O.,.o.o.o.o.o.o.o.o.X.X.X.o.o.o.o.o.X.o.,.o.X.X...E Q o.:.X.{ X.X.X.o.o.o.o.X.o.X.X.:.1.>XD ....`.f.jXjX",
"jXjXjXy.:XW ' ,.o. ...,.:.o.o.o.o.o.X.o.o.o.o.o...o.o.o...o.o.o.o.o.o.X...E Q o.X.X...:.X.X.o.o.o.X.o.o.o.X...X.7XE ~ ..>.7.jXjX",
"jXjXjX#X] ;.O.X.o.-.,.X.:.o.X.o.X.o.o.o.o.X...o.o.o.X.X.{ X.X.o.o.....o...V E ..X.X...X.o.o.{ X.o.o.o.o.o.o.o.o.>X^ Q { o.#XjXjX",
"jXjXr.0X| :.o.,.:.X.X.:.,.X.o.{ o.X.o.o.o...o.] o...o.o.X.o.o.o.o.{ ! o.} E V ..o.o.] ..o.o.o.X.o.{ &.o.o.o...o.@XW  ._ -.=Xc.jX",
"jXjX|.] X.O.X.o.o.o.o.o.X.X.{ X.o.o.o.X.o.o.] _ o.o.o.o.o.X.o.X.o...W } W T D ' { X.] ' o...] o.o.] ' o.o.] #.&.(.E { D [ {.z.jX",
"jXG.wX[ ....{ o.o.o.X.o.:...' ..o.o.o.X.X...W $.X.X.o.} ..X.o...=.o.' E E E E ^ ..X.[ Q o...! o.o...E ..o.' ' ....E -._ ../.9XjX",
"jX) [.,...W o.o.o.X.o.o...! } -.o.o.o.X...! T $.{ X.o.E ..=.o...{ { -.E V T D E o.{ } E ..` E o.o...D | X._ X.' Q E ..} ! X.eXjX",
"jX8.] &.Q ! ..o.o.o.o.X...D } ,.X.{ X.{ ' ~ W ..X.X...E ! -...'  ...{ Q V T V E ....! Y } E T ..X...D W .._ ..X.W W &.| E X.eXL.",
"jXqX' ! E } o.o.] o.o.{ ] V } ....! ..] _ ~ } { ..o.! } Q } { ' ^ ..{ Q E A T T } ..E R W T T ....} V V | ' { -.} D ..{ Y ..=Xk.",
"s.wX} E E  .{ W _ ..X.X./ E } ..! ' ..! ..W ..X.o.] E $.Q E ] ! R ....W T D T T !  .T T D V V ....E V V E ~ X.{ } V ' ] Y ` =Xs.",
"k.{.F D V $.Q D | X.| ..] T } $.D } ' '  .W ..{ | E ! .._ V E V V ` ..E D V T T Q ~ T T T V E  .$.B B S T E ..{ ' T W ` V Q {.t.",
"y.1.V V E ~ V E ..{ .... .D ~ ! D @.Q ..] W ..| E D ] ..} V A T T W ..E V V V T E E T T A T T ..Q B B S V E ' ..E T E T T V [.t.",
"3.o.V A V D V ^ ..] ]  ...T R V V ` ~ ....~ ` D T T .. .E T V T T V ! D V V V V V V V T T V T #.V B B B V V W } T T T A V R 4.t.",
"}...B S V A A Q ..] } ..' V V V V ^ ` $.E E D D V V @.E T T V A R A T T V T B V V E E V V V T ^ B N B B B R T W T V T S V V 4.f.",
"0XV B V B V V Q ]  .! ! Q A A V V V } ! V V S D V V V V V R S B V A V T V V S B E V V V V T T S 7 8 B B B A V T V T T B B E 6.j.",
"OXN N B V V V !  .~ V R D A S V V V ^ V V V V D T V B B V B 7 B B R V T E A B B B R V B B Y B 7 ; 2 B B B V V S V R B S B V }.jX",
"4.7 N B B V S ~ } S S V Z S A S S V V V V V V V S B B B S N 2 Z S V T V V A B B B V V B B B B 2 ; 2 N B B S A B V R C V Y V 0XjX",
"R N N N B B B Q E V V B V N B V V B V V V B V B B N B B B C - Z B V A T R V B B B V B B B B 2 - - ; B B N B B B B B N B B D XXjX",
"6 7 7 7 N B B V V B S B N N Z B B B A B B B B B B 7 6 B B 7 - C N B Y T T B 8 8 B B B B B 6 ; ; > - B B N B B C B N B Z 8 W z.jX",
"; 7 7 7 8 7 B B B B B N N N B V B B Z B B B N B 6 1 3 B B 5 > 7 B B T T T B B 8 6 N B 8 2 - ; - > - N B Z N N 8 Z B B C B &.g.jX",
"i N 2 2 q 7 N B B B B N 7 N B B N N B C B N C C ; - 2 B Z O ; 3 B B B T T B B 8 = q 3 ; - > > ; - O 2 7 B N N 8 7 N N 8 B } l.jX",
"p C - - 7 7 7 N N B B N N N N N N 7 3 7 N B 1 2 - ; - N Z O ; 2 B B B Y B B Z 0 = - 2 - ,   = - - O > 1 B B B 6 2 N C B N x.jXjX",
"L 0 = = 3 6 7 N N B B N 0 3 7 N 8 0 - 2 B B 3 > > ; 2 3 7 O > 2 Y V B B V B N > = - > > : m.: > - O > ; N 8 2 - 2 N N N Z f.jXjX",
"G.6 O O - q 7 7 N B N N 3 6 8 7 8 6 - - 7 B 3 - ; > > 4 ; : > ; 7 B A B B T N > ; ; + : t jX* , : + ; - 3 2 O > 2 N N C $.K.jXjX",
"jX, O O = 0 6 3 N B N 7 = 0 7 N 0 = - - 6 N - : w & : ; ; - : 2 2 Z 3 Y Y B 6 + 4 ; K jXjXjXF.A.jX< - - - - O - 2 N 8 1 c.jXjXjX",
"jX% = O = 6 6 2 7 N N 6 O , B 7 6 - :   4 1 ; b jXjXm , 4 O O > 2 2 2 N T N ; % , $ jXjXjXjXjXjXjX= - - - = = - 3 0 2 1 k.jXjXjX",
"jXv = O = 6 6 2 7 7 N ; O O 6 7 ; > % a.= > : jXjXjXjXy @ d > 4 ; ; ; 7 C 2 & jXU U jXjXjXjXjXjXjX$ = - > O = - 0 1 4 : jXjXjXjX",
"jXP.= . O = 4 - N 7 7 - :   - 2 ; > p jXA.: v jXjXjXjXH.t q.G > , 2 2 2 3 , A.jXjXjXjXjXjXjXjXjXjX$ > = O = = = = - : G.jXjXjXjX",
"jXjXO . . = - = 7 7 - = : X - = = - p.jXjXjXjXjXjXjXjXjXP.L G > . 2 5 2 ; v jXjXjXjXjXjXjXjXjXjXjX= - - X > = - = > p jXjXjXjXjX",
"jXjXu.f M.% = = 4 9 = - % m : - - = jXjXjXjXjXjXjXjXjXjXjXb G G u : 5 , s jXjXjXjXjXjXjXjXjXjXjXS.O > $   = = = - % jXjXjXjXjXjX",
"jXjXjXU.jX& - = = - = > K jX% ; 4 : jXjXjXjXjXjXjXjXjXjXP.G w.q.H . + u x jXjXjXjXjXjXjXjXjXjXjXP > : P.y - 1 = $ jXjXjXjXjXjXjX",
"jXjXjXjXjXjX. - - @ > : jXjXH.= > a jXjXjXjXjXjXjXjXjXjXt b d G w.G w.i.q.a G.jXjXjXjXjXjXjXjXjXe * jXjX% @ - $ jXjXjXjXjXjXjXjX",
"jXjXjXjXjXjXF.& - O : % jXjXjXS.% P.jXjXjXjXjXjXjXjXjXm.H w.q.q.d 0.i.E.0.0.Z.aXm.jXjXjXjXjXjXjXjXjXjXjX$ : * jXjXjXjXjXjXjXjXjX",
"jXjXjXjXjXjXjXI.  = - * jXjXjXjXjXjXjXjXjXjXjXjXjXjXn.v.u.G G w.G r C.R.N.Z.i.sXdXD.jXjXjXjXjXjXjXjXjXM.% S.jXjXjXjXjXjXjXjXjXjX",
"jXjXjXjXjXjXjXjXjXw y J jXjXjXjXjXjXjXjXjXjXjXjXG.b.M r n k r i.Z.n l k r k i.R.T.Q.P.jXjXjXjXjXjXjXjXjXjXjXjXjXjXjXjXjXjXjXjXjX",
"jXjXjXjXjXjXjXjXjXjXp.D.jXjXjXjXjXjXjXjXjXjXjXjXB.H M T.aXhXW.n R.r h c M.A.I.D.S.K c jXjXjXjXjXjXjXjXjXjXjXjXjXjXjXjXjXjXjXjXjX",
"jXjXjXjXjXjXjXjXjXjXjXjXjXjXjXjXjXjXjXjXjXjXjXjXe # C.aXfXdXpXn u.e c jXjXjXjXjXjXjXP.jXjXjXjXjXjXjXjXjXjXjXjXjXjXjXjXjXjXjXjXjX",
"jXjXjXjXjXjXjXjXjXjXjXjXjXjXjXjXjXjXjXjXjXjXjXjXjXo N.dXC.g e k # p.jXjXjXjXjXjXjXjXjXjXjXjXjXjXjXjXjXjXjXjXjXjXjXjXjXjXjXjXjXjX",
"jXjXjXjXjXjXjXjXjXjXjXjXjXjXjXjXjXjXjXjXjXjXjXjXjXf m V.g k !.k o jXjXjXjXjXjXjXjXjXjXjXjXjXjXjXjXjXjXjXjXjXjXjXjXjXjXjXjXjXjXjX",
"jXjXjXjXjXjXjXjXjXjXjXjXjXjXjXjXjXjXjXjXjXjXjXjXjXz e g l aXhXW.n jXjXjXjXjXjXjXjXjXjXjXjXjXjXjXjXjXjXjXjXjXjXjXjXjXjXjXjXjXjXjX",
"jXjXjXjXjXjXjXjXjXjXjXjXjXjXjXjXjXjXjXjXjXjXjXjXjXjX* r k dXhXQ.T.I.jXjXjXjXjXjXjXjXjXjXjXjXjXjXjXjXjXjXjXjXjXjXjXjXjXjXjXjXjXjX",
"jXjXjXjXjXjXjXjXjXjXjXjXjXjXjXjXjXjXjXjXjXjXjXjXjXjXjXx g l Q.Q.Y.u.jXjXjXjXjXjXjXjXjXjXjXjXjXjXjXjXjXjXjXjXjXjXjXjXjXjXjXjXjXjX",
"jXjXjXjXjXjXjXjXjXjXjXjXjXjXjXjXjXjXjXjXjXjXjXjXjXjXjXjXP z f o b.b.I jXjXjXjXjXjXjXjXjXjXjXjXjXjXjXjXjXjXjXjXjXjXjXjXjXjXjXjXjX"
};
