/* XPM */
static char *result[] = {
/* columns rows colors chars-per-pixel */
"64 64 243 2 ",
"   c #0E1508",
".  c #15140B",
"X  c #1D1A0D",
"o  c #181508",
"O  c #181911",
"+  c #140F0B",
"@  c #22140B",
"#  c #261B0A",
"$  c #231C12",
"%  c #2B1B14",
"&  c #331E15",
"*  c #2A0F07",
"=  c #192315",
"-  c #28250C",
";  c #342D0C",
":  c #3B350C",
">  c #3D390C",
",  c #3F3C06",
"<  c #242313",
"1  c #2B2414",
"2  c #2A241A",
"3  c #2C2B1A",
"4  c #282817",
"5  c #322D16",
"6  c #34241B",
"7  c #3C261B",
"8  c #332C1B",
"9  c #3D291C",
"0  c #3A2716",
"q  c #29331C",
"w  c #353215",
"e  c #3A3514",
"r  c #3D3A13",
"t  c #35311A",
"y  c #3A3419",
"u  c #393A16",
"i  c #3C2B2A",
"p  c #3A2924",
"a  c #293525",
"s  c #383929",
"d  c #383E33",
"f  c #2F2725",
"g  c #433C0C",
"h  c #453B0D",
"j  c #422614",
"k  c #422B17",
"l  c #43261B",
"z  c #432B1B",
"x  c #4B2D1A",
"c  c #4A2B15",
"v  c #512E18",
"b  c #423C12",
"n  c #493619",
"m  c #53321C",
"M  c #57371B",
"N  c #572E0E",
"B  c #653D1D",
"V  c #452B26",
"C  c #4C3222",
"Z  c #483727",
"A  c #543523",
"S  c #583925",
"D  c #442E30",
"F  c #443532",
"G  c #4D3C3A",
"H  c #4A3636",
"J  c #523E3D",
"K  c #5E2D25",
"L  c #643E26",
"P  c #39432A",
"I  c #3B4838",
"U  c #3C543E",
"Y  c #2A402D",
"T  c #364017",
"R  c #4A450B",
"E  c #544D0B",
"W  c #534C04",
"Q  c #59540C",
"!  c #454113",
"~  c #4B4513",
"^  c #45411C",
"/  c #4A451C",
"(  c #494B1A",
")  c #524D1C",
"_  c #564D13",
"`  c #5A5414",
"'  c #5D5C15",
"]  c #56541D",
"[  c #5A561D",
"{  c #515A1C",
"}  c #5D5A1B",
"|  c #555215",
" . c #4D541C",
".. c #635A0C",
"X. c #635D14",
"o. c #625D1B",
"O. c #615419",
"+. c #6C670D",
"@. c #7B730E",
"#. c #666214",
"$. c #6B6414",
"%. c #6D6A13",
"&. c #656119",
"*. c #6B641B",
"=. c #6A691B",
"-. c #726C14",
";. c #736B1A",
":. c #766C16",
">. c #7B7412",
",. c #797618",
"<. c #6E6F14",
"1. c #474928",
"2. c #56492A",
"3. c #4A5528",
"4. c #555223",
"5. c #5A5722",
"6. c #5D5824",
"7. c #424234",
"8. c #46483B",
"9. c #53423B",
"0. c #48573A",
"q. c #555637",
"w. c #6B442A",
"e. c #664528",
"r. c #74452C",
"t. c #744A2D",
"y. c #7B4A2C",
"u. c #744725",
"i. c #645C25",
"p. c #7C5329",
"a. c #684331",
"s. c #774B31",
"d. c #7A5635",
"f. c #665634",
"g. c #576930",
"h. c #676424",
"j. c #63783B",
"k. c #6B7026",
"l. c #586017",
"z. c #543D41",
"x. c #484B42",
"c. c #534543",
"v. c #5A4545",
"b. c #534B43",
"n. c #5C464A",
"m. c #5D4B4B",
"M. c #594848",
"N. c #4B5444",
"B. c #4C5C4A",
"V. c #475845",
"C. c #5C524D",
"Z. c #545C4C",
"A. c #525649",
"S. c #5F4E50",
"D. c #5E5551",
"F. c #624D4C",
"G. c #614848",
"H. c #65504E",
"J. c #6A534E",
"K. c #795143",
"L. c #634D51",
"P. c #6F4F55",
"I. c #655152",
"U. c #6A5354",
"Y. c #6C5559",
"T. c #6B5956",
"R. c #735B5C",
"E. c #725558",
"W. c #744D43",
"Q. c #4C6348",
"!. c #556649",
"~. c #587444",
"^. c #4D6751",
"/. c #546B54",
"(. c #586856",
"). c #64675A",
"_. c #7B625A",
"`. c #785D61",
"'. c #7B6564",
"]. c #7A6867",
"[. c #6E6E63",
"{. c #837B0C",
"}. c #897C0A",
"|. c #847909",
" X c #817513",
".X c #847A17",
"XX c #865629",
"oX c #865835",
"OX c #87522C",
"+X c #8A6437",
"@X c #986836",
"#X c #957230",
"$X c #A46E38",
"%X c #A5723A",
"&X c #A77635",
"*X c #B27F3D",
"=X c #936C42",
"-X c #A47843",
";X c #B07D44",
":X c #836B6C",
">X c #836A6A",
",X c #8C7C79",
"<X c #867573",
"1X c #957C7C",
"2X c #967A78",
"3X c #84716E",
"4X c #7A811F",
"5X c #758221",
"6X c #8B840D",
"7X c #938B0C",
"8X c #92860A",
"9X c #9B9109",
"0X c #8C8512",
"qX c #888519",
"wX c #938814",
"eX c #9B9413",
"rX c #A69B0B",
"tX c #A39B15",
"yX c #ACA10B",
"uX c #B4AA0B",
"iX c #B5AC05",
"pX c #ABA314",
"aX c #B4A711",
"sX c #818423",
"dX c #99817E",
"fX c #87847B",
"gX c #A1837D",
"hX c #9B8383",
"jX c #9A8686",
"kX c #8C8D80",
"lX c #A58C8A",
"zX c #A58A8A",
"xX c #AB918D",
"cX c #A1958D",
"vX c #AD9493",
"bX c #AE9E9C",
"nX c #B59B9B",
"mX c #B19895",
"MX c #A88E92",
"NX c #B8A09F",
"BX c #BA9EA7",
"VX c #B9A2A1",
"CX c None",
/* pixels */
"CXCXCXCXCXCXCXCXCXCXCXCXCXCXCXCXCXCXCXCXCXCXCXCXCXCXCXCXCXCXCXCXCXCXCXCXCXCXCXCXCXCXCXCXCXCXCXCXCXCXCXCXCXCXCXCXCXCXCXCXCXCXCXCX",
"CXCXCXCXCXCXCXCXCXCXCXCXCXCXCXCXCXCXCXCXCXCXCXCXCXCXCXCXCXCXCXCXCXCXCXCXCXCXCXCXCXCXCXCXCXCXCXCXCXCXCXCXCXCXCXCXCXCXCXCXCXCXCXCX",
"CXCXCXCXCXCXCXCXCXCXCXCXCXCXCXCXCXCXCXCXCXCXCXCXCXCXCXCXCXCXCXCXCXCXCXCXCXCXCXCXCXCXCXCXCXCXCXCXCXCXCXCXCXCXCXCXCXCXCXCXCXCXCXCX",
"CXCXCXCXCXCXCXCXCXCXCXCXCXCXCXCXCXCXCXCXCXCXCXCXCXCXCXCXCXCXCXCXCXCXCXg.CXCXCXCXCXCXCXCXCXCXCXCXCXCXCXCXCXCXCXCXCXCXCXCXCXCXCXCX",
"CXCXCXCXCXCXCXCXCXCXCXCXCXCXCXCXCXCXCXCXCXCXCXCXCXCXCXCXCXCXCXCXCXCXg.5XCXCXCXCXCXCXCXCXCXCXCXCXCXCXCXCXCXCXCXCXCXCXCXCXCXCXCXCX",
"CXCXCXCXCXCXCXCXCXCXCXCXCXCXCXCXCXCXCXCXCXCXCXCXCXCXCXCXCXj.<.4XqX5X,.#.j.CXCXCXCXCXCXCXCXCXCXCXCXCXCXCXCXCXCXCXCXCXCXCXCXCXCXCX",
"CXCXCXCXCXCXCXCXCXCXCXCXCXCXCXCXCXCXCXCXCXCXCXCXCXCXk.<.eXuXaXiXuXiXyXuX0XCXCXCXCXCXCXCXCXCXCXCXCXCXCXCXCXCXCXCXCXCXCXCXCXCXCXCX",
"CXCXCXCXCXCXCXCXCXCXCXCXCXCXCXCXCXCXCXCXCXCXCXCXh.eXrXiXiXuXaXiXaXaXaXiXpX=.CXCXCXCXCXCXCXCXCXCXCXCXCXCXCXCXCXCXCXCXCXCXCXCXCXCX",
"CXCXCXCXCXCXCXCXCXCXCXCXCXCXCXCXCXCXCXCXCXCXCXCX] |.aXuXiXiXaXiXrX9XiX8X8X}.=.CXCXCXCXCXCXCXCXCXCXCXCXCXCXCXCXCXCXCXCXCXCXCXCXCX",
"CXCXCXCXCXCXCXCXCXCXCXCXCXCXCXCXCXCXCXCXCXCXCXCX{ 6XtX9XuXaX|.8X0X0X0X X.XtXpX5XCXCXCXCXCXCXCXCXCXCXCXCXCXCXCXCXCXCXCXCXCXCXCXCX",
"CXCXCXCXCXCXCXCXCXCXCXCXCXCXCXCXCXCXCXCXCXCXCXCX3.o.{.}.6X{. X X X8X9X|. X X XQ CXCXCXCXCXCXCXCXCXCXCXCXCXCXCXCXCXCXCXCXCXCXCXCX",
"CXCXCXCXCXCXCXCXCXCXCXCXCXCXCXCXCXCXCXCXCXCX3.=...;.>. X,.,. X,. XaXtX}.@..._ b CXCXCXCXCXCXCXCXCXCXCXCXCXCXCXCXCXCXCXCXCXCXCXCX",
"CXCXCXCXCXCXCXCXCXCXCXCXCX~.~.CXCXCXCXCXCX3.h...W -.:.R E >.+.W ;.{. X@.@.;.R b u 0.CXCXCXCXCXCXCXCXCXCXCXCXCXCXCXCXCXCXCXCXCXCX",
"CXCXCXCXCXCXCXCXCXCXCXCXj.tX%.j.k.<.,.5XsX;.Q g n ` E : _ X.:.;.R h $.:.>.%.! h ! g u CXCXCXCXCXCXCXCXCXCXCXCXCXCXCXCXCXCXCXCXCX",
"CXCXCXCXCXCXCXCXCXCXg.0X..eXQ E wXyXyX9X}. X@.;.` > [ b b h _ R h ~ ;.;.;.W r R =.$.o. .CXCXCXCXCXCXCXCXCXCXCXCXCXCXCXCXCXCXCXCX",
"CXCXCXCXCXCXCXCXCXCX5.qX.X{.{.wXtXyXyXyX|.>.:.:.:.@.@.X.X.X.h h - : : W -.` e h -.-.:.;.3.CXCXCXCXCXCXCXCXCXCXCXCXCXCXCXCXCXCXCX",
"CXCXCXCXCXCXCXCXCXCXCX( %.0XyXrXrX}.}.eX6X-.-.-.:.-...` E :.;.h.; X # b &.R ! E *.-.-.+.l.CXCX .3.CXCXCXCXCXCXCXCXCXCXCXCXCXCXCX",
"CXCXCXCXCXCXCXCXCXCXCX,.@.eXyXrXeX@.-.-.-.-.-.+.$.-.;.R _ h.+.*.%.: o - 5 > | &.$.+.$.o.&.3.!.} ( ~.CXCXCXCXCXCXCXCXCXCXCXCXCXCX",
"CXCXCXCXCXCXCXCXCXCXg.7XyXeX}.eX{.%.=.-.-.$.%.o.R ` | g g X.qX+.%.~ b 5.Q E i.$. X0X X) r b q ; _ 6.( CXCXCXCXCXCXCXCXCXCXCXCXCX",
"CXCXCXCXCXCXCXCXCXCX .-.,.>.%.>.+.*.X.*.*.X.*.X.h.~ y b O.qX,.$.&.#.*.X.&.$.%.0XwX0XqXo.5.[ e y u ; (.CXCXCXCXCXCXCXCXCXCXCXCXCX",
"CXCXCXCXCXCXCXCXCXCX( Q &.%.*.*.$.=.R _ ` b b ~ ` ~ y e R h [ X.#.&.o.h.X.X..XwX.XX.X.' ' R u y e 5.1.CXCXCXCXCXCXCXCXCXCXCXCXCX",
"CXCXCXCXCX~.g.CXCX .qXX.h.#.#.#.#.&.6.g e y y y e e w y y / o.' } o.[ R [ o.o.*.O.o.1.b } ! w t e { l.1.CXCXCXCXCXCXCXCXCXCXCXCX",
"CXCXCXCXCX0.0X%.' 9XeXQ #.<.&.#.} g r y ) ) > e w y e w w e > [ ' O.5.g 4.! [ } } } _ > 1.e t t t r ~ 2.Q.CXCXCXCXCXCXCXCXCXCXCX",
"CXCXCXCXCXCX3.` qX7X7X7X8X6X#.&.} &.5.` o.o.5.e w e 4 - # w w 1.~ [ / 5 t ! [ } } [ 5./ - 3 t t t w e t P CXCXCXCXCXCXCXCXCXCXCX",
"CXCXCXCXCXCX6.0XqX0X8X7X0X0X.X&.o.o.' ' } } ] : 5 t < . X < 2 w u t 5 t t w y 4.^ e w 1 o X < 3 3 3 3 P CXCXCXCXCXCXCXCXCXCXCXCX",
"CXCXCXCXCXg.k.>.+.-.0X6XqX..} } } } } } } } [ 1.- o . . o o ! 3.w 5 w 8 5 p 2 - 1 < O     . O < $ O . a CXCXCXCXCXCXCXCXCXCXCXCX",
"CXCXCXCX0.( ( n } ,..X6X0X*.} } [ ) / b [ } 5.4.e o . o @ y [ b 8 b 3.t X 1 4 . O 4   /.Q.a . . . . O a CXCXCXCXCXCXCXCXCXCXCXCX",
"CXCXCXP 2.) e 1.} &.` &.&.} 5.[ ` 4.w y 4.4.` [ e 8 # 1 6 y w 5 u 4.4.y o . . . . . O CXCXCXU a B.a /.CXCXCXCXCXCXCXCXCXCXCXCXCX",
"CXCXCXq u 5 w u ( 5.[ 5.[ ` [ ] 4.4.w 5 t t [ ] ^ $ @ 9 0 # % 2 X # o @ % + . . d I CXCXCXCXCXCXCXCXCXCXCXCXCXCXCXCXCXCXCXCXCXCX",
"CXCXCXCXI 4 p 8 u / 5 / ) 5.] ^ 8 t w $ < 4 w s < = d 9 k j 0 6 6 7 V l j 8 I V.CXCXCXCXCXCXCXCXCXCXCXCXCXCXCXCXCXCXCXCXCXCXCXCX",
"CXCXCXCXq X X X 1.4.8 8 1.4.] / 8 1.u O o . . . = CXCX6 l 7 0 l 7 l 7 l 7 P CXCXCXCXCXCXCXCXCXCXCXCXCXCXCXCXCXCXCXCXCXCXCXCXCXCX",
"CXCXCXCXCX= . a 1.u 8 8 8 w y w 5 4.) 4 . o 6 # P CXCX7 l 7 c A 0 V p 8 s CXCXCX^.N.x.8.CXCXCXCXCXCXCXCX)./.CXCXCXCXCXCXCXCXCXCX",
"CXCXCXCXCXCXU CX  O . . 4 = q 4 4 1.e + o 7 9 7 6 V.B.& 7 V y.L C I CXCXCXCXI c.c.M.n.m.A.CXCXCXCXCXCXN.<XD.CXCXCXCXCXCXCXCXCXCX",
"CXCXCXCXCXCXCXCX^.= = /.U 0.4 I CXq a 2 p 7 l 7 9 6 1 6 6 K L 1.CXCXCXCX8.c.n.n.z.M.m.m.Z.CXCXCXCXCXCXx.d Q.CXCXCXCXCXCXCXCXCXCX",
"CXCXCXCXCXCXCXCXCXCX^.CXCXCXCXCXCXCXCX3 7 7 7 7 6 7 6 7 & C 0 CXCXCXCXI c.n.n.M.m.M.c.C.Z.CXCXCXCXCXCX8.CXCXCXCXCXCXCXCXCXCXCXCX",
"CXCXCXCXCXCXCXCXCXCXCXCXCXCXCXCXCXCXCXa c 0 9 7 k j S x 7 7 s CXCXCXx.b.n.M.c.G G.F.n.m.(.CXCXCXCXCXA.b.CXCXCXCXCXCXCXCXCXCXCXCX",
"CXCXCXCXCXCXCXCXCXCXCXCXCXCXCXCXCXCXCXQ.a.S 7 0 L L L a.l 7 1 CXCXCXCXB.CXCXI L.F.H.I.H.(.CXCXCXCXB.D.c.CXCXCXCXCXCXCXCXCXCXCXCX",
"CXCXCXCXCXCXCXCXCXCXCXCXCXCXCXCXCXCXCXCX1.Z S w.r.u.N d.j m a.7.CXCXCXCXCXCXn.L.M.c.U.].).CXCXCX).C.m.A.CXCXCXCXCXCXCXCXCXCXCXCX",
"CXCXCXCXCXCXCXCXCXCXCXCXCXCXCXCXCXCXCXCXCXCXN.S A c d.A k l L w.3.CXCXCXCXN.c.N.CXC.I.Y.3X[.D.A.].E.I.CXCXCXCXCXCXCXCXCXCXCXCXCX",
"CXCXCXCXCXCXCXCXCXCXCXCXCXCXCXCXCXCXCXCXCXCXCXQ.4 9 z 0 z C z L oXq.CXCXCXCXCXCXCXZ.C.C.U.Y.MXnXlX<Xm.CXCXCXCXCXCXCX).kXCXCXCXCX",
"CXCXCXCXCXCXCXCXCXCXCXCXCXCXCXCXCXCXCXCXCXCXCXCXCXQ.8 Z l L C m y.+X3.CXCXCXCXCXCXCXCXCXhXbX1X:X>XR.).CXCXCXCXCXCXCXvXMX<XCXCXCX",
"CXCXCXCXCXCXCXCXCXCXCXCXCXCXCXCXCXCXCXCXCXCXCXCXCXCX^.9 V x a.r.r.v +Xm L.kXfX,X,X<XfXT.MX:X`.P.R.R.>XD.CXCXCXCXCX`.U.Y.bXCXCXCX",
"CXCXCXCXCXCXCXCXCXCXCXCXCXCXCXCXCXCXCXCXCXCXCXCXCXCXCX9 j c z x S C u.=XV z.2XvXNXVXVX:XR.`.`.R.E.Y.R.CXCX,X<XY.U.U.I.m.:XCXCXCX",
"CXCXCXCXCXCXCXCXCXCXCXCXCXCXCXCXCXCXCXCXCXCXCXCXCXCX0.A r.y.r.t.u.S A C n s.oXW.W.gXBX'.c.H z.S.F.v.G.E.E.U.I.I.U.I.F.C.U.jX(.CX",
"CXCXCXCXCXCXCXCXCXCXCXCXCXCXCXCXCXCXCXCXCXCXCXCXq.f.e.y.s.s.d.+Xp.s.u.y.+Xp.w.@X-X-X>X:XE.G.z.H H S.H U.U.U.M.Y.I.Y.L.U.U.'.T.CX",
"CXCXCXCXCXCXCXCXCXCXCXCXCXCXCXCXCXCXCXCXCX!.q.d.OX=Xd.M z j k l x t.OX@XOX-Xp.@X;XsX-XP.].L.F.I.U.I.I.H H b.x.M.I.I.i Y.U.Y.CXCX",
"CXCXCXCXCXCXCXCXCXCXCXCXCXCXCXCXCXCXCXCXCXf.%Xu.2.x 9 D F 7 H V l L y.@X@XXX;X_ ;X-X$XoX9.Y.I.I.U.I.I.m.c.CXCXx.U.M.CXx.I.U.<XCX",
"CXCXCXCXCXCXCXCXCXCXCXCXCXCXCXCXCXCXCXCXCX2.e.0 $ % n.L.m.9.p y z z oX@XoXOX$Xu.W.@X$X@Xx M.G M.I.S.D F i CXCXCXx.B.CXCXx.D.].CX",
"CXCXCXCXCXCXCXCXCXCXCXCXCXCXCXCXCXCXCXCXCX!.Z 6 2 m.L.L.S.F.m.F 7 0 oX&X&X$X$X#Xj r.@XoX0 f V G c.z.D i d CXCXCXCXCXCXCXCX8.A.CX",
"CXCXCXCXCXCXCXCXCXCXCXCXCXCXCXCXCXCXCXCXCXCXI 9 F.>XjX:XU.F.m.c.H & e.@X$X&X&X@Xk & OXoXv d.t.l i i f /.CXCXCX7.7.B.CXCXCXCXCXCX",
"CXCXCXCXCXCXCXCXCXCXCXCXCXCXCXCXCXCXCXCXCXCX(.9.hXzX1XhX>XH.n.L.m.p m oXOX@X$XXXp 6 x A m &X&XoXi D s CXCXCX8.F.G.,XI.x.CXCXCXCX",
"CXCXCXCXCXCXCXCXCXCXCXCXCXCXCXCXCXCXCXCXCXCX!.1XzXhXnXvX2XJ.I.F.F.F l L OXu.OXw.l j @ 6 K +X$XOXV i d CXCXN.S.L.S.P.vX1XD.(.CXCX",
"CXCXCXCXCXCXCXCXCXCXCXCXCXCXCXCXCXCXCXCXCX).mXzX`.hXhXlXmXhXF.F.m.i V t.y.s.y.A XXS X @ C s.y.s.7./.CXCXCXx.M.n.m.M.G C.U.F CXCX",
"CXCXCXCXCXCXCXCXCXCXCXCXCXCXCXCXCXCXCXCX(.cXxXxXzXhXnX1X1XlX'.v.m.& C t.B t.r.N %Xe.@ O & r.r.A /.CXCXCXCXCXN.b.n.M.n.n.n.V.CXCX",
"CXCXCXCXCXCXCXCXCXCXCXCXCXCXCXCXCXCXCX).3X>X2XdXvXmXvXmXxX2X:Xc.H 7 A m B w.x d.XX+X@ a P k z 3 CXCXCXCXCXCXCXN.c.G M.c.8.CXCXCX",
"CXCXCXCXCXCXCXCXCXCXCXCXCXCXCXCXCXCX/.cXVXNX].mXvXMXzXzXlX2XG.9.6 z C z e.v 9 p.t.oXq.CXCXU I CXCXCXCXCXCXCXCXCXB./.CXCXCXCXCXCX",
"CXCXCXCXCXCXCXCXCXCXCXCXCXCXCXCXCXCXCXvXxXvXmXdXdXlXlXzX>Xm.M.9.9 z l 9 C * 6 L L B 0.CXCXCXCXCXCXCXCXCXCXCXCXCXCXCXCXCXCXCXCXCX",
"CXCXCXCXCXCXCXCXCXCXCXCXCXCXCXCXCXCXC.xXxXxXxXxXgX>XdXR.J.9.G.V z V z l 5 s @ # A 2.CXCXCXCXCXCXCXCXCXCXCXCXCXCXCXCXCXCXCXCXCXCX",
"CXCXCXCXCXCXCXCXCXCXCXCXCXCXCXCXCXCX9.2XxXxXxXlX,XR.U.J.H.9.F z z 9 9 0 Q.CX$ % C s CXCXCXCXCXCXCXCXCXCXCXCXCXCXCXCXCXCXCXCXCXCX",
"CXCXCXCXCXCXCXCXCXCXCXCXCXCXCXCXCXCXN.F.1XlXlX>XG.J.J.9.J F 9 m L v y /.CXCX= % 7.CXCXCXCXCXCXCXCXCXCXCXCXCXCXCXCXCXCXCXCXCXCXCX",
"CXCXCXCXCXCXCXCXCXCXCXCXCXCXCXCXCXCXCXb.F.'._.F.G.H.J p 7.5 S r.e.Z /.CXCXCXCXCXCXCXCXCXCXCXCXCXCXCXCXCXCXCXCXCXCXCXCXCXCXCXCXCX",
"CXCXCXCXCXCXCXCXCXCXCXCXCXCXCXCXCXCXCXV.F.m.M.9.V F p /.CXCX8.1.0.CXCXCXCXCXCXCXCXCXCXCXCXCXCXCXCXCXCXCXCXCXCXCXCXCXCXCXCXCXCXCX",
"CXCXCXCXCXCXCXCXCXCXCXCXCXCXCXCXCXCXCXCX8.b.v.V p s CXCXCXCXCXCXCXCXCXCXCXCXCXCXCXCXCXCXCXCXCXCXCXCXCXCXCXCXCXCXCXCXCXCXCXCXCXCX",
"CXCXCXCXCXCXCXCXCXCXCXCXCXCXCXCXCXCXCXCXCXQ.A.d Q.CXCXCXCXCXCXCXCXCXCXCXCXCXCXCXCXCXCXCXCXCXCXCXCXCXCXCXCXCXCXCXCXCXCXCXCXCXCXCX"
};
